<svg width="48" height="48" viewBox="0 0 48 48" fill="none" xmlns="http://www.w3.org/2000/svg"><path fill-rule="evenodd" clip-rule="evenodd" d="M12.91 12.373c-.862 0-1.562.699-1.562 1.561v22.131c0 .863.7 1.562 1.562 1.562h22.13c.863 0 1.563-.7 1.563-1.562v-22.13c0-.863-.7-1.562-1.562-1.562H12.91zm-4.762 1.561a4.762 4.762 0 014.762-4.761h22.13a4.762 4.762 0 014.763 4.761v22.131a4.762 4.762 0 01-4.762 4.762H12.91a4.762 4.762 0 01-4.762-4.762v-22.13z" fill="#798298"/><path fill-rule="evenodd" clip-rule="evenodd" d="M14.488 18.677a3.162 3.162 0 116.323 0 3.162 3.162 0 01-6.323 0z" fill="#798298"/><path d="M16.07 32.904L28.23 21.84l3.648 4.841v6.224H16.07z" fill="#555E74"/><path fill-rule="evenodd" clip-rule="evenodd" d="M28.376 20.265c.443.041.848.267 1.115.622l3.648 4.841c.207.275.319.608.319.952v6.224a1.58 1.58 0 01-1.581 1.58H16.069a1.58 1.58 0 01-1.064-2.75l12.16-11.065a1.58 1.58 0 011.211-.404zm-8.221 11.058h10.141V27.21l-2.286-3.034-7.855 7.148z" fill="#555E74"/></svg>