<svg width="49" height="48" viewBox="0 0 49 48" fill="none" xmlns="http://www.w3.org/2000/svg"><path opacity=".65" fill-rule="evenodd" clip-rule="evenodd" d="M13.233 11.035H5.582V9.76h7.651a5.74 5.74 0 015.74 5.738V18.9a4.463 4.463 0 004.463 4.463v1.276a5.739 5.739 0 01-5.74-5.739v-3.4a4.463 4.463 0 00-4.463-4.464z" fill="#27AE60"/><path opacity=".65" fill-rule="evenodd" clip-rule="evenodd" d="M35.763 11.035h7.651V9.76h-7.651a5.739 5.739 0 00-5.74 5.738V18.9a4.463 4.463 0 01-4.462 4.463v1.276a5.739 5.739 0 005.738-5.739v-3.4a4.463 4.463 0 014.464-4.464z" fill="#EB5757"/><path opacity=".65" fill-rule="evenodd" clip-rule="evenodd" d="M35.763 36.965h7.651v1.275h-7.651a5.739 5.739 0 01-5.74-5.738V29.1a4.463 4.463 0 00-4.462-4.463v-1.276a5.739 5.739 0 015.738 5.739v3.4a4.463 4.463 0 004.464 4.464z" fill="#EB5757"/><path opacity=".65" fill-rule="evenodd" clip-rule="evenodd" d="M13.233 36.965H5.582v1.275h7.651a5.74 5.74 0 005.74-5.738V29.1a4.463 4.463 0 014.463-4.463v-1.276a5.739 5.739 0 00-5.74 5.739v3.4a4.463 4.463 0 01-4.463 4.464z" fill="#27AE60"/><path opacity=".65" fill-rule="evenodd" clip-rule="evenodd" d="M23.436 24.638H5.582v-1.276h17.854v1.276z" fill="#27AE60"/><circle cx="43.412" cy="10.397" r="1.275" fill="#DD5A5A"/><circle cx="43.412" cy="37.602" r="1.275" fill="#DD5A5A"/><rect x="21.73" y="22.299" width="5.101" height="3.401" rx="1.7" fill="#BDBDBD"/><circle cx="5.584" cy="10.397" r="1.275" fill="#3CE182"/><circle cx="5.584" cy="24" r="1.275" fill="#3CE182"/><circle cx="5.584" cy="37.602" r="1.275" fill="#3CE182"/></svg>