<svg width="48" height="48" viewBox="0 0 48 48" fill="none" xmlns="http://www.w3.org/2000/svg"><rect x="10.301" y="2.149" width="27.119" height="44.702" rx="1.043" fill="#404964" stroke="#495169" stroke-width=".298"/><rect x="14.622" y="8.258" width="5.662" height="9.834" rx=".298" fill="#545C78" stroke="#575F7A" stroke-width=".596"/><path d="M13.73 19.732a.149.149 0 100 .298v-.298zm7.45.298a.149.149 0 100-.298v.298zm-7.152 0a.149.149 0 100-.298v.298zm.894-.298a.149.149 0 100 .298v-.298zm.596.298a.15.15 0 100-.298v.298zm.895-.298a.149.149 0 100 .298v-.298zm.596.298a.149.149 0 100-.298v.298zm.894-.298a.15.15 0 100 .298v-.298zm.596.298a.149.149 0 100-.298v.298zm.894-.298a.149.149 0 100 .298v-.298zm.596.298a.15.15 0 100-.298v.298zm.894-.298a.149.149 0 100 .298v-.298zm-7.152.298h.297v-.298h-.298v.298zm1.191 0h.596v-.298h-.596v.298zm1.49 0h.597v-.298h-.596v.298zm1.49 0h.597v-.298h-.596v.298zm1.49 0h.597v-.298h-.596v.298zm1.49 0h.299v-.298h-.298v.298zM13.73 6.32a.149.149 0 100 .299V6.32zm7.45.299a.149.149 0 100-.298v.298zm-7.152 0a.149.149 0 100-.298v.298zm.894-.298a.149.149 0 100 .298V6.32zm.596.298a.15.15 0 100-.298v.298zm.895-.298a.149.149 0 100 .298V6.32zm.596.298a.149.149 0 100-.298v.298zm.894-.298a.15.15 0 100 .298V6.32zm.596.298a.149.149 0 100-.298v.298zm.894-.298a.149.149 0 100 .298V6.32zm.596.298a.15.15 0 100-.298v.298zm.894-.298a.149.149 0 100 .298V6.32zm-7.152.298h.297V6.32h-.298v.298zm1.191 0h.596V6.32h-.596v.298zm1.49 0h.597V6.32h-.596v.298zm1.49 0h.597V6.32h-.596v.298zm1.49 0h.597V6.32h-.596v.298zm1.49 0h.299V6.32h-.298v.298zm-8.195 12.367a.149.149 0 10.298 0h-.298zm.298-11.622a.149.149 0 10-.298 0h.298zm0 11.332a.149.149 0 10-.298 0h.298zm-.298-.872a.149.149 0 10.298 0h-.298zm.298-.581a.15.15 0 10-.298 0h.298zm-.298-.872a.149.149 0 10.298 0h-.298zm.298-.58a.149.149 0 10-.298 0h.298zm-.298-.873a.15.15 0 10.298 0h-.298zm.298-.58a.149.149 0 10-.298 0h.298zm-.298-.872a.149.149 0 10.298 0h-.298zm.298-.582a.149.149 0 10-.298 0h.298zm-.298-.871a.149.149 0 10.298 0h-.298zm.298-.581a.149.149 0 10-.298 0h.298zm-.298-.872a.149.149 0 10.298 0h-.298zm.298-.581a.149.149 0 10-.298 0h.298zm-.298-.872a.149.149 0 10.298 0h-.298zm.298-.58a.149.149 0 10-.298 0h.298zm-.298-.873a.149.149 0 10.298 0h-.298zm.298 11.332v-.29h-.298v.29h.298zm0-1.162v-.581h-.298v.581h.298zm0-1.453v-.58h-.298v.58h.298zm0-1.453v-.58h-.298v.58h.298zm0-1.452v-.582h-.298v.582h.298zm0-1.453v-.581h-.298v.58h.298zm0-1.453v-.581h-.298v.581h.298zm0-1.453v-.58h-.298v.58h.298zm0-1.453v-.29h-.298v.29h.298zm8.94 11.332a.149.149 0 10.298 0h-.298zm.298-11.622a.149.149 0 10-.298 0h.298zm0 11.332a.149.149 0 10-.298 0h.298zm-.298-.872a.149.149 0 10.298 0h-.298zm.298-.581a.15.15 0 10-.298 0h.298zm-.298-.872a.149.149 0 10.298 0h-.298zm.298-.58a.149.149 0 10-.298 0h.298zm-.298-.873a.15.15 0 10.298 0h-.298zm.298-.58a.149.149 0 10-.298 0h.298zm-.298-.872a.149.149 0 10.298 0h-.298zm.298-.582a.149.149 0 10-.298 0h.298zm-.298-.871a.149.149 0 10.298 0h-.298zm.298-.581a.149.149 0 10-.298 0h.298zm-.298-.872a.149.149 0 10.298 0h-.298zm.298-.581a.149.149 0 10-.298 0h.298zm-.298-.872a.149.149 0 10.298 0h-.298zm.298-.58a.149.149 0 10-.298 0h.298zm-.298-.873a.149.149 0 10.298 0h-.298zm.298 11.332v-.29h-.298v.29h.298zm0-1.162v-.581h-.298v.581h.298zm0-1.453v-.58h-.298v.58h.298zm0-1.453v-.58h-.298v.58h.298zm0-1.452v-.582h-.298v.582h.298zm0-1.453v-.581h-.298v.58h.298zm0-1.453v-.581h-.298v.581h.298zm0-1.453v-.58h-.298v.58h.298zm0-1.453v-.29h-.298v.29h.298z" fill="#6E799B"/><rect x="12.238" y="19.583" width=".894" height=".894" rx=".149" fill="#404862" stroke="#6E799B" stroke-width=".298"/><rect x="12.238" y="5.874" width=".894" height=".894" rx=".149" fill="#404862" stroke="#6E799B" stroke-width=".298"/><rect x="21.777" y="5.874" width=".894" height=".894" rx=".149" fill="#404862" stroke="#6E799B" stroke-width=".298"/><rect x="21.777" y="19.583" width=".894" height=".894" rx=".149" fill="#404862" stroke="#6E799B" stroke-width=".298"/><path d="M25.945 42.977a.149.149 0 100 .298v-.298zm6.557.298a.149.149 0 100-.298v.298zm-6.229 0a.149.149 0 100-.298v.298zm.984-.298a.149.149 0 100 .298v-.298zm.655.298a.149.149 0 100-.298v.298zm.984-.298a.149.149 0 100 .298v-.298zm.655.298a.149.149 0 100-.298v.298zm.984-.298a.149.149 0 100 .298v-.298zm.655.298a.15.15 0 100-.298v.298zm.984-.298a.149.149 0 100 .298v-.298zm-6.229.298h.328v-.298h-.328v.298zm1.312 0h.655v-.298h-.655v.298zm1.639 0h.655v-.298h-.655v.298zm1.639 0h.655v-.298h-.655v.298zm1.639 0h.328v-.298h-.328v.298zm-6.229-8.643a.15.15 0 000 .298v-.298zm6.557.298a.15.15 0 000-.298v.298zm-6.229 0a.15.15 0 000-.298v.298zm.984-.298a.15.15 0 000 .298v-.298zm.655.298a.15.15 0 000-.298v.298zm.984-.298a.15.15 0 000 .298v-.298zm.655.298a.15.15 0 000-.298v.298zm.984-.298a.15.15 0 000 .298v-.298zm.655.298a.15.15 0 000-.298v.298zm.984-.298a.15.15 0 000 .298v-.298zm-6.229.298h.328v-.298h-.328v.298zm1.312 0h.655v-.298h-.655v.298zm1.639 0h.655v-.298h-.655v.298zm1.639 0h.655v-.298h-.655v.298zm1.639 0h.328v-.298h-.328v.298zm-7.272 7.302a.149.149 0 10.298 0h-.298zm.298-6.556a.149.149 0 10-.298 0h.298zm0 6.229a.149.149 0 10-.298 0h.298zm-.298-.984a.149.149 0 10.298 0h-.298zm.298-.655a.149.149 0 10-.298 0h.298zm-.298-.984a.149.149 0 10.298 0h-.298zm.298-.655a.149.149 0 10-.298 0h.298zm-.298-.984a.149.149 0 10.298 0h-.298zm.298-.656a.149.149 0 10-.298 0h.298zm-.298-.983a.15.15 0 10.298 0h-.298zm.298 6.228v-.327h-.298v.327h.298zm0-1.31v-.656h-.298v.655h.298zm0-1.64v-.655h-.298v.655h.298zm0-1.639v-.656h-.298v.656h.298zm0-1.64v-.327h-.298v.328h.298zm8.05 6.229a.149.149 0 10.297 0h-.298zm.297-6.556a.149.149 0 10-.298 0h.298zm0 6.229a.149.149 0 10-.298 0h.298zm-.298-.984a.149.149 0 10.298 0h-.298zm.298-.655a.149.149 0 10-.298 0h.298zm-.298-.984a.149.149 0 10.298 0h-.298zm.298-.655a.149.149 0 10-.298 0h.298zm-.298-.984a.149.149 0 10.298 0h-.298zm.298-.656a.149.149 0 10-.298 0h.298zm-.298-.983a.15.15 0 10.298 0h-.298zm.298 6.228v-.327h-.298v.327h.298zm0-1.31v-.656h-.298v.655h.298zm0-1.64v-.655h-.298v.655h.298zm0-1.639v-.656h-.298v.656h.298zm0-1.64v-.327h-.298v.328h.298z" fill="#6E799B"/><rect x="24.457" y="42.828" width=".894" height=".894" rx=".149" fill="#404862" stroke="#6E799B" stroke-width=".298"/><rect x="24.457" y="34.185" width=".894" height=".894" rx=".149" fill="#404862" stroke="#6E799B" stroke-width=".298"/><rect x="33.098" y="34.185" width=".894" height=".894" rx=".149" fill="#404862" stroke="#6E799B" stroke-width=".298"/><rect x="33.098" y="42.828" width=".894" height=".894" rx=".149" fill="#404862" stroke="#6E799B" stroke-width=".298"/><path d="M34.555 36.84l-.699-1.897 1.898.699-.778.345a.148.148 0 00-.076.076l-.345.778z" fill="#47506B" stroke="#6E7795" stroke-width=".298" stroke-linejoin="round"/><circle cx="29.224" cy="38.954" r="3.278" fill="#525A75"/><rect x="29.523" y="21.967" width="5.662" height="4.768" rx=".596" fill="#525A75"/><rect x="29.523" y="27.331" width="5.662" height="4.768" rx=".596" fill="#47506B"/><rect x="12.985" y="22.116" width="14.901" height="9.834" rx=".447" fill="#49536E" stroke="#535D7D" stroke-width=".298"/><rect x="24.903" y="15.559" width="4.47" height="4.47" rx=".447" fill="#49536E" stroke="#535D7D" stroke-width=".298"/><rect x="13.282" y="33.739" width="8.94" height="9.834" rx=".447" fill="#49536E" stroke="#535D7D" stroke-width=".298"/><rect x="30.567" y="15.559" width="4.47" height="4.47" rx=".447" fill="#49536E" stroke="#535D7D" stroke-width=".298"/><rect x="24.754" y="8.854" width="5.364" height="1.192" rx=".596" fill="#47506B"/><rect x="24.754" y="6.769" width="6.556" height="1.192" rx=".596" fill="#47506B"/><rect x="24.754" y="10.94" width="10.431" height="1.192" rx=".596" fill="#47506B"/></svg>