<svg width="48" height="48" viewBox="0 0 48 48" fill="none" xmlns="http://www.w3.org/2000/svg"><path fill-rule="evenodd" clip-rule="evenodd" d="M23.106 2.211a2 2 0 011.789 0l20 10a2 2 0 010 3.578l-20 10a2 2 0 01-1.789 0l-20-10a2 2 0 010-3.578l20-10zM8.473 14L24 21.764 39.528 14 24 6.236 8.473 14zm-6.261 9.106a2 2 0 012.683-.895L24 31.764l19.106-9.553a2 2 0 011.789 3.578l-20 10a2 2 0 01-1.789 0l-20-10a2 2 0 01-.894-2.683zm0 10a2 2 0 012.683-.895L24 41.764l19.106-9.553a2 2 0 011.789 3.578l-20 10a2 2 0 01-1.789 0l-20-10a2 2 0 01-.894-2.683z" fill="currentColor"/></svg>