<svg width="48" height="48" viewBox="0 0 48 48" fill="none" xmlns="http://www.w3.org/2000/svg"><circle cx="24" cy="18" r="2" fill="url(#lab-tool-thumbnail-paint0_linear)"/><path d="M24 7.5l-19 22m19-22l19 22m-19-22v9.728M5 29.5l19 11 19-11m-38 0l19-12.272M43 29.5L24 17.228" stroke="#5C6074" stroke-width=".8"/><circle cx="24" cy="25.22" r="10.28" fill="url(#lab-tool-thumbnail-paint1_linear)"/><path d="M24 40.5v-33 9.728" stroke="#5C6074" stroke-width=".8"/><circle cx="24" cy="40.5" r="2" fill="url(#lab-tool-thumbnail-paint2_linear)"/><circle cx="43" cy="29.5" r="2" fill="url(#lab-tool-thumbnail-paint3_linear)"/><circle cx="24" cy="7.5" r="2" fill="url(#lab-tool-thumbnail-paint4_linear)"/><circle cx="5" cy="29.5" r="2" fill="url(#lab-tool-thumbnail-paint5_linear)"/><defs><linearGradient id="lab-tool-thumbnail-paint0_linear" x1="25.66" y1="16.997" x2="22.233" y2="18.965" gradientUnits="userSpaceOnUse"><stop stop-color="#5C6074"/><stop offset="1" stop-color="#C4C4C4" stop-opacity=".31"/></linearGradient><linearGradient id="lab-tool-thumbnail-paint1_linear" x1="33.094" y1="20.476" x2="14.907" y2="30.756" gradientUnits="userSpaceOnUse"><stop stop-color="#5C6074"/><stop offset="1" stop-color="#262A3B" stop-opacity=".75"/></linearGradient><linearGradient id="lab-tool-thumbnail-paint2_linear" x1="25.66" y1="39.497" x2="22.233" y2="41.465" gradientUnits="userSpaceOnUse"><stop stop-color="#5C6074"/><stop offset="1" stop-color="#C4C4C4" stop-opacity="0"/></linearGradient><linearGradient id="lab-tool-thumbnail-paint3_linear" x1="44.66" y1="28.497" x2="41.233" y2="30.465" gradientUnits="userSpaceOnUse"><stop stop-color="#5C6074"/><stop offset="1" stop-color="#C4C4C4" stop-opacity="0"/></linearGradient><linearGradient id="lab-tool-thumbnail-paint4_linear" x1="25.66" y1="6.497" x2="22.233" y2="8.465" gradientUnits="userSpaceOnUse"><stop stop-color="#5C6074"/><stop offset="1" stop-color="#C4C4C4" stop-opacity="0"/></linearGradient><linearGradient id="lab-tool-thumbnail-paint5_linear" x1="6.66" y1="28.497" x2="3.233" y2="30.465" gradientUnits="userSpaceOnUse"><stop stop-color="#5C6074"/><stop offset="1" stop-color="#C4C4C4" stop-opacity="0"/></linearGradient></defs></svg>