<svg width="48" height="48" viewBox="0 0 48 48" fill="none" xmlns="http://www.w3.org/2000/svg"><path d="M17.56 16.01l-9.443 7.295 13.76 10.63 1.568-1.214c-3.241-5.235-6.357-11.742-5.915-15.846 0-.29.01-.579.03-.864z" fill="currentColor"/><path d="M26.369 37.079l-4.492 3.476-13.76-10.63 2.274-1.756 11.658 9.006 2.847-2.203c.505.752 1 1.46 1.473 2.107z" fill="currentColor"/><path fill-rule="evenodd" clip-rule="evenodd" d="M29.993 36.447c1.065 0 10.53-12.96 9.856-19.146 0-5.443-4.412-9.856-9.856-9.856-5.443 0-9.856 4.413-9.856 9.856-.663 6.155 8.792 19.146 9.856 19.146zm-.001-15.412a3.692 3.692 0 100-7.384 3.692 3.692 0 000 7.384z" fill="currentColor"/></svg>