<svg width="48" height="48" viewBox="0 0 48 48" fill="none" xmlns="http://www.w3.org/2000/svg">
<path fill-rule="evenodd" clip-rule="evenodd" d="M9.40002 7.74999C9.40002 6.86634 10.1164 6.14999 11 6.14999H27.25C27.6744 6.14999 28.0813 6.31856 28.3814 6.61862L38.1314 16.3686C38.4315 16.6687 38.6 17.0756 38.6 17.5V40.25C38.6 41.1336 37.8837 41.85 37 41.85H11C10.1164 41.85 9.40002 41.1336 9.40002 40.25V7.74999ZM12.6 9.34999V38.65H35.4V19.1H27.25C26.3664 19.1 25.65 18.3836 25.65 17.5V9.34999H12.6ZM28.85 11.6127L33.1373 15.9H28.85V11.6127Z" fill="#366ACB"/>
<path fill-rule="evenodd" clip-rule="evenodd" d="M29.4156 27.7857C29.2425 28.2819 29.0716 28.6336 28.9999 29.0047C28.8288 29.8932 28.3582 30.1811 27.441 30.1505C25.2117 30.0764 22.9783 30.1265 20.7464 30.1265H19.7281C19.3035 32.0665 19.7426 32.6427 21.5474 32.6438C23.7791 32.6452 26.0109 32.6421 28.2426 32.6466C28.5849 32.6471 28.9269 32.6786 29.4204 32.7033C29.1551 33.4644 28.9758 34.1127 28.6926 34.7113C28.6051 34.8962 28.2358 35.0416 27.994 35.0439C25.5361 35.0663 23.0773 35.0855 20.6198 35.0435C18.922 35.0148 17.4169 33.6825 17.2173 32.0029C17.099 31.0091 17.1747 29.9919 17.1654 28.985C17.1619 28.6036 17.1648 28.222 17.1648 27.7857H29.4156Z" fill="#366ACB"/>
<path fill-rule="evenodd" clip-rule="evenodd" d="M17.2125 25.0125V22.8648H29.3679C29.1344 23.5547 28.9555 24.1942 28.691 24.7955C28.6153 24.9678 28.2915 25.1262 28.0807 25.1272C24.5631 25.1422 21.0454 25.1317 17.528 25.1219C17.44 25.1217 17.3522 25.0626 17.2125 25.0125Z" fill="#366ACB"/>
</svg>
