<svg width="48" height="48" viewBox="0 0 48 48" fill="none" xmlns="http://www.w3.org/2000/svg"><g opacity=".8"><path opacity=".1" d="M20.363 32c0-1.527 0-2.29.297-2.874a2.74 2.74 0 011.192-1.192c.584-.297 1.348-.297 2.875-.297h14.909c1.527 0 2.291 0 2.874.297.514.261.93.679 1.192 1.192C44 29.709 44 30.473 44 32v4c0 1.528 0 2.291-.298 2.875-.261.513-.678.93-1.191 1.192-.584.297-1.348.297-2.875.297h-14.91c-1.526 0-2.29 0-2.874-.297a2.727 2.727 0 01-1.192-1.192c-.297-.584-.297-1.347-.297-2.875v-4z" fill="#fff"/><path opacity=".4" d="M20.367 12c0-1.527 0-2.29.297-2.874a2.74 2.74 0 011.192-1.192c.584-.297 1.347-.297 2.875-.297H39.64c1.527 0 2.291 0 2.874.297.514.261.93.679 1.192 1.192.298.583.298 1.347.298 2.874v9.455c0 1.527 0 2.291-.298 2.874a2.72 2.72 0 01-1.192 1.192c-.583.297-1.347.297-2.874.297H24.73c-1.527 0-2.29 0-2.874-.297a2.727 2.727 0 01-1.192-1.192c-.297-.583-.297-1.347-.297-2.874V12z" fill="#fff"/><path opacity=".2" d="M18.55 36c0 1.528 0 2.291-.298 2.875a2.73 2.73 0 01-1.192 1.192c-.583.297-1.347.297-2.874.297H8.368c-1.528 0-2.292 0-2.875-.297a2.727 2.727 0 01-1.192-1.192c-.297-.584-.297-1.347-.297-2.875v-4c0-1.527 0-2.29.297-2.874.262-.513.679-.93 1.192-1.192.583-.297 1.347-.297 2.875-.297h5.818c1.527 0 2.29 0 2.874.297.513.261.93.679 1.192 1.192.297.583.297 1.347.297 2.874v4z" fill="#fff"/><path d="M14.186 7.637c1.527 0 2.29 0 2.874.297.513.261.93.679 1.192 1.192.297.583.297 1.347.297 2.874v9.455c0 1.527 0 2.291-.297 2.874-.261.514-.679.93-1.192 1.192-.583.297-1.347.297-2.874.297H8.368c-1.528 0-2.292 0-2.875-.297a2.727 2.727 0 01-1.192-1.192c-.297-.583-.297-1.347-.297-2.874V12c0-1.527 0-2.29.297-2.874.262-.513.679-.93 1.192-1.192.583-.297 1.347-.297 2.875-.297h5.818z" fill="url(#paint0_linear)"/></g><defs><linearGradient id="paint0_linear" x1="18.551" y1="7.637" x2="2.516" y2="9.062" gradientUnits="userSpaceOnUse"><stop stop-color="#fff" stop-opacity=".6"/><stop offset="1" stop-color="#fff"/></linearGradient></defs></svg>