<svg width="48" height="48" viewBox="0 0 48 48" fill="none" xmlns="http://www.w3.org/2000/svg"><path fill-rule="evenodd" clip-rule="evenodd" d="M4 6a2 2 0 012-2h14a2 2 0 012 2v14a2 2 0 01-2 2H6a2 2 0 01-2-2V6zm4 2v10h10V8H8zm18-2a2 2 0 012-2h14a2 2 0 012 2v14a2 2 0 01-2 2H28a2 2 0 01-2-2V6zm4 2v10h10V8H30zM4 28a2 2 0 012-2h14a2 2 0 012 2v14a2 2 0 01-2 2H6a2 2 0 01-2-2V28zm4 2v10h10V30H8zm18-2a2 2 0 012-2h14a2 2 0 012 2v14a2 2 0 01-2 2H28a2 2 0 01-2-2V28zm4 2v10h10V30H30z" fill="currentColor"/></svg>