<svg width="48" height="48" viewBox="0 0 48 48" fill="none" xmlns="http://www.w3.org/2000/svg"><g opacity=".8" fill="#fff"><path opacity=".6" d="M3.695 11.077a3.692 3.692 0 013.693-3.692h33.23a3.692 3.692 0 013.693 3.692v1.846H3.695v-1.846z"/><path opacity=".4" d="M3.695 12.924h40.616v9.23H3.695v-9.23z"/><path opacity=".2" d="M3.695 22.154h40.616v9.231H3.695v-9.23z"/><path opacity=".4" d="M3.695 11.077a3.692 3.692 0 013.693-3.692h1.846v33.23H7.388a3.692 3.692 0 01-3.693-3.692V11.077z"/><path fill-rule="evenodd" clip-rule="evenodd" d="M38.444 6.462c1 0 1.807 0 2.46.053.673.055 1.264.171 1.81.45a4.615 4.615 0 012.018 2.017c.279.547.395 1.138.45 1.81.053.654.053 1.46.053 2.461v21.495c0 1 0 1.807-.053 2.46-.055.673-.172 1.264-.45 1.81a4.615 4.615 0 01-2.017 2.018c-.547.278-1.138.395-1.81.45-.654.053-1.46.053-2.461.053H9.564c-1 0-1.807 0-2.46-.053-.673-.055-1.264-.172-1.81-.45a4.616 4.616 0 01-2.018-2.017c-.278-.547-.394-1.138-.45-1.81-.053-.654-.053-1.461-.053-2.461V13.253c0-1 0-1.807.054-2.46.055-.673.17-1.264.45-1.811a4.615 4.615 0 012.016-2.017c.547-.279 1.138-.395 1.81-.45.654-.053 1.461-.053 2.462-.053h28.879zM4.099 9.4c-.402.79-.402 1.824-.402 3.892v21.415c0 2.068 0 3.102.402 3.892a3.69 3.69 0 001.614 1.613c.79.403 1.823.403 3.891.403h28.8c2.068 0 3.102 0 3.892-.403A3.692 3.692 0 0043.91 38.6c.402-.79.402-1.824.402-3.892V13.293c0-2.068 0-3.102-.402-3.892a3.693 3.693 0 00-1.614-1.614c-.79-.402-1.824-.402-3.892-.402h-28.8c-2.068 0-3.102 0-3.891.402a3.692 3.692 0 00-1.614 1.614z"/><path fill-rule="evenodd" clip-rule="evenodd" d="M44.31 13.847H3.696v-1.846h40.616v1.846z"/><path fill-rule="evenodd" clip-rule="evenodd" d="M8.31 40.615V7.385h1.846v33.23H8.31zm18.461 0V7.386h1.846v33.23h-1.846z"/><path fill-rule="evenodd" clip-rule="evenodd" d="M44.31 23.078H3.696V21.23h40.616v1.847zm0 9.23H3.696v-1.846h40.616v1.846z"/></g></svg>