<svg width="48" height="48" viewBox="0 0 48 48" fill="none" xmlns="http://www.w3.org/2000/svg">
<path d="M19.448 39.2345H28.5643V40.7539C28.5643 41.593 27.8841 42.2733 27.0449 42.2733H20.9674C20.1283 42.2733 19.448 41.593 19.448 40.7539V39.2345Z" fill="#366ACB"/>
<path fill-rule="evenodd" clip-rule="evenodd" d="M10.2449 19.4818C10.2449 11.8844 16.4025 5.7267 24 5.7267C31.5974 5.7267 37.7551 11.8844 37.7551 19.4818C37.7551 24.4517 35.0993 28.9546 30.8749 31.3975C30.8748 31.3975 30.875 31.3974 30.8749 31.3975C30.8745 31.3977 30.874 31.398 30.8736 31.3982L29.9682 31.9228V34.2958C29.9682 35.5991 28.9118 36.6555 27.6085 36.6555H20.3914C19.0882 36.6555 18.0317 35.5991 18.0317 34.2958V31.9228L17.1264 31.3982C17.1262 31.3981 17.1265 31.3983 17.1264 31.3982C12.9016 28.9554 10.2449 24.452 10.2449 19.4818ZM24 8.9267C18.1698 8.9267 13.4449 13.6517 13.4449 19.4818C13.4449 23.2954 15.4796 26.7499 18.728 28.6279L18.7293 28.6287L21.2317 30.0785V33.4555H26.7682V30.0785L29.2707 28.6287L29.272 28.6279C32.5203 26.7499 34.5551 23.2954 34.5551 19.4818C34.5551 13.6517 29.8301 8.9267 24 8.9267Z" fill="#366ACB"/>
<path opacity="0.4" d="M31.6028 19.4818C31.6028 23.6775 28.2016 27.0788 24.0059 27.0788C19.8102 27.0788 16.4089 23.6775 16.4089 19.4818C16.4089 15.2862 19.8102 11.8849 24.0059 11.8849C28.2016 11.8849 31.6028 15.2862 31.6028 19.4818Z" fill="#366ACB"/>
</svg>
