<svg width="48" height="48" viewBox="0 0 48 48" fill="none" xmlns="http://www.w3.org/2000/svg"><g opacity=".8" fill-rule="evenodd" clip-rule="evenodd"><path d="M6.52 33.702C9.934 39.826 16.48 43.977 24 43.977c11.045 0 20-8.955 20-20 0-10.726-8.444-19.48-19.047-19.978v5.723c7.445.491 13.332 6.685 13.332 14.255 0 7.89-6.396 14.285-14.286 14.285-5.145 0-9.66-2.72-12.176-6.81l-5.303 2.25z" fill="url(#chart_sunburst_on0_linear)"/><path d="M15.387 29.94A10.465 10.465 0 0024 34.453c5.786 0 10.476-4.69 10.476-10.476 0-5.466-4.185-9.954-9.525-10.434v5.767a4.764 4.764 0 01-.95 9.428 4.752 4.752 0 01-3.094-1.14l-5.521 2.342z" fill="url(#chart_sunburst_on1_linear)"/><path opacity=".4" d="M23.047 3.999c-.35.016-.698.042-1.044.076C11.893 5.08 4 13.605 4 23.977c0 2.635.511 5.158 1.442 7.468l5.262-2.232a14.242 14.242 0 01-.99-5.236c0-7.406 5.638-13.499 12.854-14.215.159-.016.319-.03.48-.04V4z" fill="url(#chart_sunburst_on2_linear)"/><path opacity=".4" d="M23.047 13.543c-5.34.481-9.524 4.969-9.524 10.434 0 1.32.245 2.583.69 3.747l5.27-2.236a4.764 4.764 0 013.565-6.179v-5.766z" fill="url(#chart_sunburst_on3_linear)"/></g><defs><linearGradient id="chart_sunburst_on0_linear" x1="12.571" y1="41.12" x2="40.19" y2="11.596" gradientUnits="userSpaceOnUse"><stop stop-color="#fff"/><stop offset="1" stop-color="#fff" stop-opacity=".6"/></linearGradient><linearGradient id="chart_sunburst_on1_linear" x1="19.239" y1="34.453" x2="33.016" y2="17.491" gradientUnits="userSpaceOnUse"><stop stop-color="#fff"/><stop offset="1" stop-color="#fff" stop-opacity=".6"/><stop offset="1" stop-color="#fff" stop-opacity=".6"/></linearGradient><linearGradient id="chart_sunburst_on2_linear" x1="22.095" y1="5.881" x2="4.953" y2="30.643" gradientUnits="userSpaceOnUse"><stop stop-color="#fff"/><stop offset="1" stop-color="#fff" stop-opacity=".6"/></linearGradient><linearGradient id="chart_sunburst_on3_linear" x1="22.095" y1="15.405" x2="13.524" y2="25.881" gradientUnits="userSpaceOnUse"><stop stop-color="#fff"/><stop offset="1" stop-color="#fff" stop-opacity=".6"/></linearGradient></defs></svg>