<svg width="120" height="120" viewBox="0 0 120 120" fill="none" xmlns="http://www.w3.org/2000/svg">
<g clip-path="url(#clip0)">
<path d="M112.5 94.5C112.5 96.1569 111.157 97.5 109.5 97.5H10.5C8.84315 97.5 7.5 96.1569 7.5 94.5V25.5C7.5 23.8431 8.84315 22.5 10.5 22.5H109.5C111.157 22.5 112.5 23.8431 112.5 25.5V94.5Z" fill="#404964"/>
<path fill-rule="evenodd" clip-rule="evenodd" d="M10.5 96.75H109.5C110.743 96.75 111.75 95.7426 111.75 94.5V25.5C111.75 24.2574 110.743 23.25 109.5 23.25H10.5C9.25736 23.25 8.25 24.2574 8.25 25.5V94.5C8.25 95.7426 9.25736 96.75 10.5 96.75ZM109.5 97.5C111.157 97.5 112.5 96.1568 112.5 94.5V25.5C112.5 23.8431 111.157 22.5 109.5 22.5H10.5C8.84315 22.5 7.5 23.8431 7.5 25.5V94.5C7.5 96.1568 8.84315 97.5 10.5 97.5H109.5Z" fill="#495169"/>
<rect x="25" y="47.5" width="25" height="25" rx="0.6" fill="#49536E"/>
<path d="M34.1596 58.6009C31.8023 58.0386 31.3859 62.9703 31.1721 64.4279C30.8184 65.2362 30.1901 66.2111 29.507 66.3063C28.8239 66.4014 40.0683 67.0377 45.321 66.3063C44.499 63.7139 44.1944 53.2917 41.0434 53.2917C39.1578 53.2917 39.2433 60.7485 37.4797 61.1726C35.716 61.5966 36.0691 59.0563 34.1596 58.6009Z" fill="url(#paint0_linear)"/>
<path fill-rule="evenodd" clip-rule="evenodd" d="M38.3343 60.9489C38.1352 61.235 37.8745 61.4792 37.5326 61.5614C37.0024 61.6889 36.5803 61.5992 36.2359 61.3379C35.9205 61.0987 35.7041 60.7367 35.5234 60.4255C35.5096 60.4017 35.4959 60.378 35.4823 60.3545C35.1147 59.7197 34.7956 59.1686 34.0465 58.9899C33.6031 58.8841 33.264 59.0255 32.9674 59.3477C32.6523 59.6899 32.3947 60.2319 32.1884 60.8838C31.8497 61.9545 31.687 63.1881 31.578 64.0148C31.5544 64.1941 31.5333 64.3542 31.5135 64.4893L31.5053 64.5448L31.483 64.5957C31.2966 65.0218 31.0342 65.5012 30.7192 65.8931C30.4142 66.2726 30.0084 66.6344 29.5257 66.7016L29.4276 65.9114C29.628 65.8835 29.8778 65.7103 30.1462 65.3765C30.3932 65.0692 30.6129 64.6788 30.7779 64.3111C30.7933 64.2028 30.81 64.0752 30.8288 63.932C30.9363 63.1124 31.111 61.7808 31.4749 60.6306C31.6941 59.9377 31.996 59.2611 32.4286 58.7912C32.8798 58.3012 33.4767 58.037 34.2119 58.2124C35.279 58.4669 35.7525 59.2912 36.1015 59.8989C36.1229 59.9361 36.1439 59.9726 36.1645 60.0081C36.3547 60.3359 36.5 60.5579 36.6741 60.69C36.8192 60.8 37.0143 60.8688 37.366 60.7842C37.4649 60.7604 37.5874 60.6789 37.7285 60.476C37.8692 60.2739 38.0035 59.9864 38.1328 59.6222C38.3771 58.9344 38.5756 58.0576 38.7816 57.1477C38.7942 57.092 38.8069 57.0362 38.8195 56.9803C39.0351 56.0299 39.2631 55.0496 39.5627 54.3071C39.7125 53.9357 39.8915 53.5941 40.1166 53.3404C40.3473 53.0802 40.6452 52.8934 41.013 52.8934C41.5079 52.8934 41.9274 53.1413 42.2727 53.5107C42.6139 53.8757 42.9026 54.3789 43.1532 54.9517C43.6546 56.098 44.045 57.6227 44.3764 59.1606C44.5427 59.9329 44.6957 60.7158 44.8406 61.464C44.8537 61.5319 44.8668 61.5994 44.8798 61.6667C45.0106 62.3424 45.135 62.985 45.2582 63.5671C45.3939 64.2083 45.5259 64.7652 45.6601 65.2032C45.7997 65.6589 45.9247 65.9261 46.0216 66.0408L45.4608 66.5723C45.2479 66.3203 45.0842 65.9058 44.9443 65.4492C44.7991 64.975 44.661 64.3891 44.5239 63.7414C44.3991 63.1518 44.2733 62.5019 44.1429 61.8278C44.1298 61.7602 44.1166 61.6923 44.1034 61.6242C43.9585 60.8759 43.807 60.1007 43.6427 59.3379C43.3126 57.8055 42.9361 56.3515 42.4704 55.2867C42.2373 54.754 41.9924 54.3436 41.7379 54.0714C41.4876 53.8035 41.2495 53.6904 41.013 53.6904C40.9093 53.6904 40.7974 53.7368 40.6651 53.886C40.527 54.0417 40.3895 54.286 40.2547 54.6203C39.9848 55.2892 39.7705 56.1996 39.5512 57.1664C39.5373 57.2278 39.5234 57.2894 39.5094 57.3511C39.3076 58.243 39.0987 59.1663 38.8371 59.9028C38.697 60.2974 38.5339 60.662 38.3343 60.9489Z" fill="url(#paint1_linear)"/>
<path opacity="0.6" d="M74.6512 46.7181C74.6512 45.8407 75.3228 45.1294 76.1512 45.1294H97.5698C98.3982 45.1294 99.0698 45.8407 99.0698 46.7181V69.4028C99.0698 70.2802 98.3982 70.9915 97.5698 70.9915H76.1512C75.3228 70.9915 74.6512 70.2802 74.6512 69.4028V46.7181Z" fill="#47506B"/>
<path opacity="0.6" fill-rule="evenodd" clip-rule="evenodd" d="M76.1512 45.8794C75.777 45.8794 75.4012 46.2137 75.4012 46.7181V69.4028C75.4012 69.9071 75.777 70.2415 76.1512 70.2415H97.5698C97.944 70.2415 98.3198 69.9071 98.3198 69.4028V46.7181C98.3198 46.2137 97.944 45.8794 97.5698 45.8794H76.1512ZM76.1512 45.1294C75.3228 45.1294 74.6512 45.8407 74.6512 46.7181V69.4028C74.6512 70.2802 75.3228 70.9915 76.1512 70.9915H97.5698C98.3982 70.9915 99.0698 70.2802 99.0698 69.4028V46.7181C99.0698 45.8407 98.3982 45.1294 97.5698 45.1294H76.1512Z" fill="#535D7D"/>
<path opacity="0.8" d="M72.2093 48.399C72.2093 47.5216 72.8809 46.8103 73.7093 46.8103H95.7093C96.5377 46.8103 97.2093 47.5216 97.2093 48.399V72.0073C97.2093 72.8847 96.5377 73.596 95.7093 73.596H73.7093C72.8809 73.596 72.2093 72.8847 72.2093 72.0073V48.399Z" fill="#47506B"/>
<path opacity="0.8" fill-rule="evenodd" clip-rule="evenodd" d="M73.7093 47.5603C73.3351 47.5603 72.9593 47.8946 72.9593 48.399V72.0073C72.9593 72.5117 73.3351 72.846 73.7093 72.846H95.7093C96.0835 72.846 96.4593 72.5117 96.4593 72.0073V48.399C96.4593 47.8946 96.0835 47.5603 95.7093 47.5603H73.7093ZM73.7093 46.8103C72.8809 46.8103 72.2093 47.5216 72.2093 48.399V72.0073C72.2093 72.8847 72.8809 73.596 73.7093 73.596H95.7093C96.5377 73.596 97.2093 72.8847 97.2093 72.0073V48.399C97.2093 47.5216 96.5377 46.8103 95.7093 46.8103H73.7093Z" fill="#535D7D"/>
<path d="M70 50.1818C70 49.3044 70.6716 48.5931 71.5 48.5931H93.5C94.3284 48.5931 95 49.3044 95 50.1818V73.7902C95 74.6676 94.3284 75.3789 93.5 75.3789H71.5C70.6716 75.3789 70 74.6676 70 73.7902V50.1818Z" fill="#49536E"/>
<path fill-rule="evenodd" clip-rule="evenodd" d="M71.5 49.3431C71.1258 49.3431 70.75 49.6775 70.75 50.1818V73.7902C70.75 74.2945 71.1258 74.6289 71.5 74.6289H93.5C93.8742 74.6289 94.25 74.2945 94.25 73.7902V50.1818C94.25 49.6775 93.8742 49.3431 93.5 49.3431H71.5ZM71.5 48.5931C70.6716 48.5931 70 49.3044 70 50.1818V73.7902C70 74.6676 70.6716 75.3789 71.5 75.3789H93.5C94.3284 75.3789 95 74.6676 95 73.7902V50.1818C95 49.3044 94.3284 48.5931 93.5 48.5931H71.5Z" fill="#535D7D"/>
<path d="M86.5815 60.1172C88.9388 59.6445 89.3552 63.7907 89.5691 65.0161C89.9227 65.6957 90.551 66.5154 91.2341 66.5954C91.9172 66.6753 80.6728 67.2103 75.4201 66.5953C76.2421 64.4158 76.5467 55.6536 79.6978 55.6536C81.5833 55.6536 81.4978 61.9227 83.2615 62.2793C85.0251 62.6358 84.672 60.5001 86.5815 60.1172Z" fill="url(#paint2_linear)"/>
<path fill-rule="evenodd" clip-rule="evenodd" d="M82.4191 62.1585C82.6231 62.4049 82.8803 62.6023 83.2047 62.6679C83.7173 62.7715 84.1277 62.7011 84.4727 62.4811C84.7955 62.2753 85.0187 61.9614 85.2007 61.6978C85.2165 61.6749 85.2322 61.6521 85.2477 61.6294C85.6054 61.1095 85.9174 60.6561 86.6675 60.5057C87.1336 60.4122 87.4896 60.5418 87.7874 60.8138C88.0997 61.0989 88.3532 61.548 88.5565 62.0883C88.8917 62.9789 89.0525 64.0036 89.1617 64.6992C89.1855 64.8511 89.2069 64.9874 89.2271 65.1031L89.2376 65.1634L89.2653 65.2167C89.454 65.5791 89.7186 65.9852 90.0352 66.3164C90.3451 66.6405 90.7445 66.9345 91.2064 66.9886L91.3227 66.2012C91.1014 66.1753 90.8452 66.0195 90.5818 65.7439C90.3392 65.4902 90.1238 65.1695 89.9615 64.8674C89.9471 64.7811 89.9314 64.6803 89.9138 64.5675C89.8066 63.8794 89.63 62.7472 89.2625 61.7705C89.0403 61.1802 88.7344 60.6047 88.2989 60.2071C87.849 59.7963 87.269 59.5849 86.5565 59.7278C85.4909 59.9414 85.0104 60.6437 84.654 61.1645C84.6336 61.1944 84.6135 61.2238 84.5937 61.2524C84.4049 61.526 84.2663 61.7031 84.0996 61.8094C83.9551 61.9015 83.7483 61.9644 83.3791 61.8897C83.2625 61.8662 83.1367 61.7897 83.0004 61.625C82.8628 61.4588 82.731 61.222 82.6035 60.92C82.3614 60.3469 82.1643 59.6152 81.9577 58.8482C81.9453 58.8021 81.9329 58.7558 81.9204 58.7095C81.7052 57.9117 81.4753 57.0799 81.1722 56.4483C80.8801 55.8397 80.4437 55.257 79.7446 55.257C78.7815 55.257 78.0945 56.0589 77.5988 57.0117C77.0911 57.9875 76.698 59.2803 76.3664 60.5747C76.1996 61.2255 76.0464 61.8851 75.9014 62.5141C75.8883 62.5711 75.8752 62.628 75.8622 62.6845C75.7313 63.2528 75.6073 63.7917 75.4844 64.2798C75.349 64.8178 75.2181 65.2812 75.086 65.6438C74.9477 66.0234 74.8292 66.2302 74.7455 66.3135L75.2544 66.8763C75.4806 66.6513 75.6507 66.285 75.7918 65.8976C75.9392 65.4932 76.0785 64.9959 76.2158 64.4502C76.341 63.9532 76.467 63.4056 76.5974 62.8393C76.6105 62.7823 76.6237 62.7252 76.6369 62.6679C76.7818 62.0387 76.933 61.3883 77.0969 60.7485C77.4267 59.4616 77.8005 58.2501 78.26 57.367C78.7314 56.4609 79.212 56.0492 79.7117 56.0492C79.9555 56.0492 80.2154 56.2502 80.4928 56.8281C80.7591 57.3832 80.9716 58.141 81.1912 58.9551C81.2052 59.0071 81.2193 59.0594 81.2334 59.1118C81.4348 59.8601 81.6451 60.6418 81.9089 61.2663C82.0508 61.6021 82.2165 61.9137 82.4191 62.1585Z" fill="url(#paint3_linear)"/>
<g filter="url(#filter0_d)">
<path d="M61.6246 55.2859L65.8902 59.8037C66.1085 60.0349 66.1085 60.3963 65.8902 60.6275L61.6246 65.1453C61.5003 65.2769 61.2791 65.189 61.2791 65.008L61.2791 61.9808L56.2791 61.9808L56.2791 58.4504L61.2791 58.4504L61.2791 55.4232C61.2791 55.2422 61.5003 55.1543 61.6246 55.2859Z" fill="#535D7C"/>
</g>
<path fill-rule="evenodd" clip-rule="evenodd" d="M24.125 44.125C24.125 43.7108 23.7893 43.375 23.375 43.375H21.625C21.2108 43.375 20.875 43.7108 20.875 44.125V45.875C20.875 46.2892 21.2108 46.625 21.625 46.625H23.375C23.7893 46.625 24.125 46.2892 24.125 45.875V44.125ZM21.625 44.125L23.375 44.125V45.875H21.625V44.125Z" fill="#6E799B"/>
<path fill-rule="evenodd" clip-rule="evenodd" d="M54.125 44.125C54.125 43.7108 53.7893 43.375 53.375 43.375H51.625C51.2108 43.375 50.875 43.7108 50.875 44.125V45.875C50.875 46.2892 51.2108 46.625 51.625 46.625H53.375C53.7893 46.625 54.125 46.2892 54.125 45.875V44.125ZM51.625 44.125L53.375 44.125V45.875H51.625V44.125Z" fill="#6E799B"/>
<path fill-rule="evenodd" clip-rule="evenodd" d="M54.125 74.125C54.125 73.7108 53.7893 73.375 53.375 73.375H51.625C51.2108 73.375 50.875 73.7108 50.875 74.125V75.875C50.875 76.2892 51.2108 76.625 51.625 76.625H53.375C53.7893 76.625 54.125 76.2892 54.125 75.875V74.125ZM51.625 74.125L53.375 74.125V75.875H51.625V74.125Z" fill="#6E799B"/>
<path fill-rule="evenodd" clip-rule="evenodd" d="M24.125 74.125C24.125 73.7108 23.7893 73.375 23.375 73.375H21.625C21.2108 73.375 20.875 73.7108 20.875 74.125V75.875C20.875 76.2892 21.2108 76.625 21.625 76.625H23.375C23.7893 76.625 24.125 76.2892 24.125 75.875V74.125ZM21.625 74.125L23.375 74.125V75.875H21.625V74.125Z" fill="#6E799B"/>
<path fill-rule="evenodd" clip-rule="evenodd" d="M22.5 71.625C22.2929 71.625 22.125 71.4571 22.125 71.25L22.125 70.5C22.125 70.2929 22.2929 70.125 22.5 70.125C22.7071 70.125 22.875 70.2929 22.875 70.5L22.875 71.25C22.875 71.4571 22.7071 71.625 22.5 71.625ZM22.5 68.625C22.2929 68.625 22.125 68.4571 22.125 68.25L22.125 66.75C22.125 66.5429 22.2929 66.375 22.5 66.375C22.7071 66.375 22.875 66.5429 22.875 66.75L22.875 68.25C22.875 68.4571 22.7071 68.625 22.5 68.625ZM22.5 64.875C22.2929 64.875 22.125 64.7071 22.125 64.5L22.125 63C22.125 62.7929 22.2929 62.625 22.5 62.625C22.7071 62.625 22.875 62.7929 22.875 63L22.875 64.5C22.875 64.7071 22.7071 64.875 22.5 64.875ZM22.5 61.125C22.2929 61.125 22.125 60.9571 22.125 60.75L22.125 59.25C22.125 59.0429 22.2929 58.875 22.5 58.875C22.7071 58.875 22.875 59.0429 22.875 59.25L22.875 60.75C22.875 60.9571 22.7071 61.125 22.5 61.125ZM22.5 57.375C22.2929 57.375 22.125 57.2071 22.125 57L22.125 55.5C22.125 55.2929 22.2929 55.125 22.5 55.125C22.7071 55.125 22.875 55.2929 22.875 55.5L22.875 57C22.875 57.2071 22.7071 57.375 22.5 57.375ZM22.5 53.625C22.2929 53.625 22.125 53.4571 22.125 53.25L22.125 51.75C22.125 51.5429 22.2929 51.375 22.5 51.375C22.7071 51.375 22.875 51.5429 22.875 51.75L22.875 53.25C22.875 53.4571 22.7071 53.625 22.5 53.625ZM22.5 49.875C22.2929 49.875 22.125 49.7071 22.125 49.5L22.125 48.75C22.125 48.5429 22.2929 48.375 22.5 48.375C22.7071 48.375 22.875 48.5429 22.875 48.75L22.875 49.5C22.875 49.7071 22.7071 49.875 22.5 49.875Z" fill="#6E799B"/>
<path fill-rule="evenodd" clip-rule="evenodd" d="M49.125 45C49.125 45.2071 48.9571 45.375 48.75 45.375L48 45.375C47.7929 45.375 47.625 45.2071 47.625 45C47.625 44.7929 47.7929 44.625 48 44.625L48.75 44.625C48.9571 44.625 49.125 44.7929 49.125 45ZM46.125 45C46.125 45.2071 45.9571 45.375 45.75 45.375L44.25 45.375C44.0429 45.375 43.875 45.2071 43.875 45C43.875 44.7929 44.0429 44.625 44.25 44.625L45.75 44.625C45.9571 44.625 46.125 44.7929 46.125 45ZM42.375 45C42.375 45.2071 42.2071 45.375 42 45.375L40.5 45.375C40.2929 45.375 40.125 45.2071 40.125 45C40.125 44.7929 40.2929 44.625 40.5 44.625L42 44.625C42.2071 44.625 42.375 44.7929 42.375 45ZM38.625 45C38.625 45.2071 38.4571 45.375 38.25 45.375L36.75 45.375C36.5429 45.375 36.375 45.2071 36.375 45C36.375 44.7929 36.5429 44.625 36.75 44.625L38.25 44.625C38.4571 44.625 38.625 44.7929 38.625 45ZM34.875 45C34.875 45.2071 34.7071 45.375 34.5 45.375L33 45.375C32.7929 45.375 32.625 45.2071 32.625 45C32.625 44.7929 32.7929 44.625 33 44.625L34.5 44.625C34.7071 44.625 34.875 44.7929 34.875 45ZM31.125 45C31.125 45.2071 30.9571 45.375 30.75 45.375L29.25 45.375C29.0429 45.375 28.875 45.2071 28.875 45C28.875 44.7929 29.0429 44.625 29.25 44.625L30.75 44.625C30.9571 44.625 31.125 44.7929 31.125 45ZM27.375 45C27.375 45.2071 27.2071 45.375 27 45.375L26.25 45.375C26.0429 45.375 25.875 45.2071 25.875 45C25.875 44.7929 26.0429 44.625 26.25 44.625L27 44.625C27.2071 44.625 27.375 44.7929 27.375 45Z" fill="#6E799B"/>
<path fill-rule="evenodd" clip-rule="evenodd" d="M49.125 75C49.125 75.2071 48.9571 75.375 48.75 75.375L48 75.375C47.7929 75.375 47.625 75.2071 47.625 75C47.625 74.7929 47.7929 74.625 48 74.625L48.75 74.625C48.9571 74.625 49.125 74.7929 49.125 75ZM46.125 75C46.125 75.2071 45.9571 75.375 45.75 75.375L44.25 75.375C44.0429 75.375 43.875 75.2071 43.875 75C43.875 74.7929 44.0429 74.625 44.25 74.625L45.75 74.625C45.9571 74.625 46.125 74.7929 46.125 75ZM42.375 75C42.375 75.2071 42.2071 75.375 42 75.375L40.5 75.375C40.2929 75.375 40.125 75.2071 40.125 75C40.125 74.7929 40.2929 74.625 40.5 74.625L42 74.625C42.2071 74.625 42.375 74.7929 42.375 75ZM38.625 75C38.625 75.2071 38.4571 75.375 38.25 75.375L36.75 75.375C36.5429 75.375 36.375 75.2071 36.375 75C36.375 74.7929 36.5429 74.625 36.75 74.625L38.25 74.625C38.4571 74.625 38.625 74.7929 38.625 75ZM34.875 75C34.875 75.2071 34.7071 75.375 34.5 75.375L33 75.375C32.7929 75.375 32.625 75.2071 32.625 75C32.625 74.7929 32.7929 74.625 33 74.625L34.5 74.625C34.7071 74.625 34.875 74.7929 34.875 75ZM31.125 75C31.125 75.2071 30.9571 75.375 30.75 75.375L29.25 75.375C29.0429 75.375 28.875 75.2071 28.875 75C28.875 74.7929 29.0429 74.625 29.25 74.625L30.75 74.625C30.9571 74.625 31.125 74.7929 31.125 75ZM27.375 75C27.375 75.2071 27.2071 75.375 27 75.375L26.25 75.375C26.0429 75.375 25.875 75.2071 25.875 75C25.875 74.7929 26.0429 74.625 26.25 74.625L27 74.625C27.2071 74.625 27.375 74.7929 27.375 75Z" fill="#6E799B"/>
<path fill-rule="evenodd" clip-rule="evenodd" d="M52.5 71.625C52.2929 71.625 52.125 71.4571 52.125 71.25L52.125 70.5C52.125 70.2929 52.2929 70.125 52.5 70.125C52.7071 70.125 52.875 70.2929 52.875 70.5L52.875 71.25C52.875 71.4571 52.7071 71.625 52.5 71.625ZM52.5 68.625C52.2929 68.625 52.125 68.4571 52.125 68.25L52.125 66.75C52.125 66.5429 52.2929 66.375 52.5 66.375C52.7071 66.375 52.875 66.5429 52.875 66.75L52.875 68.25C52.875 68.4571 52.7071 68.625 52.5 68.625ZM52.5 64.875C52.2929 64.875 52.125 64.7071 52.125 64.5L52.125 63C52.125 62.7929 52.2929 62.625 52.5 62.625C52.7071 62.625 52.875 62.7929 52.875 63L52.875 64.5C52.875 64.7071 52.7071 64.875 52.5 64.875ZM52.5 61.125C52.2929 61.125 52.125 60.9571 52.125 60.75L52.125 59.25C52.125 59.0429 52.2929 58.875 52.5 58.875C52.7071 58.875 52.875 59.0429 52.875 59.25L52.875 60.75C52.875 60.9571 52.7071 61.125 52.5 61.125ZM52.5 57.375C52.2929 57.375 52.125 57.2071 52.125 57L52.125 55.5C52.125 55.2929 52.2929 55.125 52.5 55.125C52.7071 55.125 52.875 55.2929 52.875 55.5L52.875 57C52.875 57.2071 52.7071 57.375 52.5 57.375ZM52.5 53.625C52.2929 53.625 52.125 53.4571 52.125 53.25L52.125 51.75C52.125 51.5429 52.2929 51.375 52.5 51.375C52.7071 51.375 52.875 51.5429 52.875 51.75L52.875 53.25C52.875 53.4571 52.7071 53.625 52.5 53.625ZM52.5 49.875C52.2929 49.875 52.125 49.7071 52.125 49.5L52.125 48.75C52.125 48.5429 52.2929 48.375 52.5 48.375C52.7071 48.375 52.875 48.5429 52.875 48.75L52.875 49.5C52.875 49.7071 52.7071 49.875 52.5 49.875Z" fill="#6E799B"/>
</g>
<defs>
<filter id="filter0_d" x="52.1839" y="55.2228" width="17.9653" height="18.1761" filterUnits="userSpaceOnUse" color-interpolation-filters="sRGB">
<feFlood flood-opacity="0" result="BackgroundImageFix"/>
<feColorMatrix in="SourceAlpha" type="matrix" values="0 0 0 0 0 0 0 0 0 0 0 0 0 0 0 0 0 0 127 0"/>
<feOffset dy="4.09524"/>
<feGaussianBlur stdDeviation="2.04762"/>
<feColorMatrix type="matrix" values="0 0 0 0 0.0916667 0 0 0 0 0.0889931 0 0 0 0 0.0889931 0 0 0 0.14 0"/>
<feBlend mode="normal" in2="BackgroundImageFix" result="effect1_dropShadow"/>
<feBlend mode="normal" in="SourceGraphic" in2="effect1_dropShadow" result="shape"/>
</filter>
<linearGradient id="paint0_linear" x1="35.9706" y1="54.1012" x2="37.8612" y2="66.2401" gradientUnits="userSpaceOnUse">
<stop stop-color="#606986"/>
<stop offset="1" stop-color="#49536E"/>
</linearGradient>
<linearGradient id="paint1_linear" x1="45.9665" y1="62.6922" x2="29.895" y2="65.8981" gradientUnits="userSpaceOnUse">
<stop offset="0.0670634" stop-color="#7F869E" stop-opacity="0.33"/>
<stop offset="0.378744" stop-color="#7F859D" stop-opacity="0.983516"/>
<stop offset="1" stop-color="#666C83" stop-opacity="0"/>
</linearGradient>
<linearGradient id="paint2_linear" x1="84.7705" y1="56.3342" x2="83.4248" y2="66.611" gradientUnits="userSpaceOnUse">
<stop stop-color="#606986"/>
<stop offset="1" stop-color="#49536E"/>
</linearGradient>
<linearGradient id="paint3_linear" x1="74.7746" y1="63.5562" x2="90.5951" y2="67.3098" gradientUnits="userSpaceOnUse">
<stop offset="0.0670634" stop-color="#7F869E" stop-opacity="0.33"/>
<stop offset="0.378744" stop-color="#7F859D" stop-opacity="0.983516"/>
<stop offset="1" stop-color="#666C83" stop-opacity="0"/>
</linearGradient>
<clipPath id="clip0">
<rect width="105" height="75" fill="white" transform="translate(7.5 22.5)"/>
</clipPath>
</defs>
</svg>
