<svg width="48" height="48" viewBox="0 0 48 48" fill="none" xmlns="http://www.w3.org/2000/svg"><path fill-rule="evenodd" clip-rule="evenodd" d="M33.227 36.197A18.023 18.023 0 0121.998 40.1c-9.996 0-18.1-8.103-18.1-18.1 0-9.996 8.104-18.1 18.1-18.1 9.997 0 18.1 8.104 18.1 18.1 0 4.241-1.458 8.142-3.901 11.227l7.287 7.287a2.1 2.1 0 11-2.97 2.97l-7.287-7.287zM8.098 22c0-7.676 6.224-13.9 13.9-13.9 7.677 0 13.9 6.224 13.9 13.9 0 3.742-1.478 7.137-3.882 9.636a2.123 2.123 0 00-.38.38 13.854 13.854 0 01-9.638 3.884c-7.676 0-13.9-6.223-13.9-13.9z" fill="currentColor"/></svg>