<svg width="48" height="48" viewBox="0 0 48 48" fill="none" xmlns="http://www.w3.org/2000/svg">
<g filter="url(#filter0_dd)">
<path d="M38.5312 38.7656C38.5312 40.6296 37.0202 42.1406 35.1562 42.1406H12.8438C10.9798 42.1406 9.46875 40.6296 9.46875 38.7656V9.1875C9.46875 7.32354 10.9798 5.8125 12.8438 5.8125H27.7918C28.6869 5.8125 29.5453 6.16808 30.1782 6.80101L37.5427 14.1655C38.1757 14.7984 38.5312 15.6569 38.5312 16.552V38.7656Z" fill="#F7F8FA"/>
</g>
<g filter="url(#filter1_f)">
<path d="M28.6875 14.2599V7.50094C28.6875 7.08333 29.1924 6.87419 29.4877 7.16948L37.356 15.0378C37.6513 15.3331 37.4422 15.838 37.0246 15.838H30.2656C29.3941 15.838 28.6875 15.1315 28.6875 14.2599Z" fill="black" fill-opacity="0.16"/>
</g>
<path d="M38.4902 16.5049C38.4902 15.6765 37.8193 15.0049 36.9909 15.0049H31.6864C30.4438 15.0049 29.4382 13.9982 29.4382 12.7555V7.26539C29.4382 6.56619 28.9598 5.97876 28.3125 5.8125C28.9992 5.92842 29.6383 6.25501 30.1372 6.75395L37.5017 14.1184C38.1346 14.7514 38.4902 15.6098 38.4902 16.5049Z" fill="#D2D6E5"/>
<path fill-rule="evenodd" clip-rule="evenodd" d="M38.5312 16.4582V38.7656C38.5312 40.6296 37.0202 42.1406 35.1562 42.1406H12.8438C10.9798 42.1406 9.46875 40.6296 9.46875 38.7656V9.1875C9.46875 7.32354 10.9798 5.8125 12.8438 5.8125H27.9793C28.1085 5.8125 28.2339 5.82884 28.3535 5.85957C29.0402 5.97549 29.6793 6.30207 30.1782 6.80101L37.5427 14.1655C38.1757 14.7984 38.5312 15.5631 38.5312 16.4582ZM37.6875 38.7656C37.6875 40.1636 36.5542 41.2969 35.1562 41.2969H12.8438C11.4458 41.2969 10.3125 40.1636 10.3125 38.7656V9.1875C10.3125 7.78953 11.4458 6.65625 12.8438 6.65625H27.7918C27.9197 6.65625 28.0467 6.66594 28.1717 6.68492C28.4403 6.76716 28.6355 7.01701 28.6355 7.31246V12.8026C28.6355 14.5107 30.0183 15.802 31.7275 15.802H37.032C37.3939 15.802 37.6875 16.0953 37.6875 16.4582V38.7656ZM37.2022 14.9678C37.1463 14.9615 37.0895 14.9582 37.032 14.9582H31.7275C30.4848 14.9582 29.4793 14.0453 29.4793 12.8026V7.31246C29.4793 7.30856 29.4792 7.30466 29.4792 7.30077C29.5142 7.33202 29.5483 7.36432 29.5816 7.39764L36.9461 14.6684C37.0397 14.762 37.1252 14.8621 37.2022 14.9678Z" fill="#BFC3D0"/>
<path d="M17.0256 37.2349C16.5636 37.2349 16.1496 37.1599 15.7836 37.0099C15.4176 36.8599 15.1236 36.6379 14.9016 36.3439C14.6856 36.0499 14.5716 35.6959 14.5596 35.2819H16.1976C16.2216 35.5159 16.3026 35.6959 16.4406 35.8219C16.5786 35.9419 16.7586 36.0019 16.9806 36.0019C17.2086 36.0019 17.3886 35.9509 17.5206 35.8489C17.6526 35.7409 17.7186 35.5939 17.7186 35.4079C17.7186 35.2519 17.6646 35.1229 17.5566 35.0209C17.4546 34.9189 17.3256 34.8349 17.1696 34.7689C17.0196 34.7029 16.8036 34.6279 16.5216 34.5439C16.1136 34.4179 15.7806 34.2919 15.5226 34.1659C15.2646 34.0399 15.0426 33.8539 14.8566 33.6079C14.6706 33.3619 14.5776 33.0409 14.5776 32.6449C14.5776 32.0569 14.7906 31.5979 15.2166 31.2679C15.6426 30.9319 16.1976 30.7639 16.8816 30.7639C17.5776 30.7639 18.1386 30.9319 18.5646 31.2679C18.9906 31.5979 19.2186 32.0599 19.2486 32.6539H17.5836C17.5716 32.4499 17.4966 32.2909 17.3586 32.1769C17.2206 32.0569 17.0436 31.9969 16.8276 31.9969C16.6416 31.9969 16.4916 32.0479 16.3776 32.1499C16.2636 32.2459 16.2066 32.3869 16.2066 32.5729C16.2066 32.7769 16.3026 32.9359 16.4946 33.0499C16.6866 33.1639 16.9866 33.2869 17.3946 33.4189C17.8026 33.5569 18.1326 33.6889 18.3846 33.8149C18.6426 33.9409 18.8646 34.1239 19.0506 34.3639C19.2366 34.6039 19.3296 34.9129 19.3296 35.2909C19.3296 35.6509 19.2366 35.9779 19.0506 36.2719C18.8706 36.5659 18.6066 36.7999 18.2586 36.9739C17.9106 37.1479 17.4996 37.2349 17.0256 37.2349Z" fill="#9AB9E1"/>
<path d="M24.7767 38.2519L23.9667 37.1629C23.7267 37.2109 23.4927 37.2349 23.2647 37.2349C22.6707 37.2349 22.1247 37.0969 21.6267 36.8209C21.1347 36.5449 20.7417 36.1609 20.4477 35.6689C20.1597 35.1709 20.0157 34.6129 20.0157 33.9949C20.0157 33.3769 20.1597 32.8219 20.4477 32.3299C20.7417 31.8379 21.1347 31.4539 21.6267 31.1779C22.1247 30.9019 22.6707 30.7639 23.2647 30.7639C23.8587 30.7639 24.4017 30.9019 24.8937 31.1779C25.3917 31.4539 25.7817 31.8379 26.0637 32.3299C26.3517 32.8219 26.4957 33.3769 26.4957 33.9949C26.4957 34.5349 26.3847 35.0299 26.1627 35.4799C25.9467 35.9239 25.6437 36.2929 25.2537 36.5869L26.6397 38.2519H24.7767ZM21.5907 33.9949C21.5907 34.5529 21.7407 34.9999 22.0407 35.3359C22.3467 35.6659 22.7547 35.8309 23.2647 35.8309C23.7687 35.8309 24.1707 35.6629 24.4707 35.3269C24.7767 34.9909 24.9297 34.5469 24.9297 33.9949C24.9297 33.4369 24.7767 32.9929 24.4707 32.6629C24.1707 32.3269 23.7687 32.1589 23.2647 32.1589C22.7547 32.1589 22.3467 32.3239 22.0407 32.6539C21.7407 32.9839 21.5907 33.4309 21.5907 33.9949Z" fill="#9AB9E1"/>
<path d="M28.9085 35.9839H30.9245V37.1719H27.3695V30.8539H28.9085V35.9839Z" fill="#9AB9E1"/>
<g clip-path="url(#clip0)">
<g filter="url(#filter2_f)">
<path d="M24.6793 22.5351C25.0689 22.5351 25.4672 22.4728 25.8743 22.3483C26.2813 22.2238 26.6422 22.0593 26.957 21.8547C27.2771 21.6413 27.5101 21.4101 27.6562 21.161C27.8023 20.912 27.8406 20.6808 27.771 20.4674C27.7014 20.2539 27.5362 20.0849 27.2752 19.9604C27.0143 19.8359 26.689 19.7737 26.2994 19.7737C25.9098 19.7737 25.5115 19.8359 25.1044 19.9604C24.7113 20.0849 24.3547 20.2539 24.0347 20.4674C23.7147 20.6808 23.4816 20.912 23.3355 21.161C23.1111 21.5435 23.1294 21.8681 23.3903 22.1349C23.6513 22.4017 24.0809 22.5351 24.6793 22.5351ZM27.763 17.2791C28.8763 17.2791 29.7973 17.4525 30.5261 17.7993C31.2411 18.1462 31.6977 18.6131 31.896 19.2C32.0891 19.7959 31.977 20.4496 31.5595 21.161C31.2413 21.7035 30.6673 22.3261 29.8376 23.0287C29.1262 23.6245 28.2469 24.2693 27.1998 24.963C26.3475 25.5144 25.4057 26.088 24.3742 26.6839C23.6559 27.1019 22.9149 27.511 22.1513 27.9112L21.2512 28.3781L20.8989 27.9112C20.6049 27.511 20.344 27.1019 20.1161 26.6839C19.7838 26.088 19.515 25.5144 19.3098 24.963C19.0766 24.2693 18.954 23.6245 18.9415 23.0287C18.9365 22.3261 19.093 21.7035 19.4113 21.161C19.8287 20.4496 20.4836 19.7959 21.3759 19.2C22.263 18.6131 23.2675 18.1462 24.3894 17.7993C25.5252 17.4525 26.6498 17.2791 27.763 17.2791Z" fill="url(#paint0_linear)" fill-opacity="0.2"/>
</g>
<g filter="url(#filter3_ii)">
<path d="M20.5964 20.1492C20.9524 20.1492 21.2829 20.061 21.5881 19.8846C21.8932 19.7082 22.1347 19.4751 22.3127 19.1853C22.4907 18.883 22.5797 18.5554 22.5797 18.2026C22.5797 17.8498 22.4907 17.5223 22.3127 17.2199C22.1347 16.9175 21.8932 16.6781 21.5881 16.5017C21.2829 16.3254 20.9524 16.2372 20.5964 16.2372C20.2404 16.2372 19.9099 16.3254 19.6047 16.5017C19.3123 16.6781 19.0771 16.9175 18.8991 17.2199C18.7211 17.5223 18.6321 17.8498 18.6321 18.2026C18.6321 18.7444 18.8228 19.2042 19.2042 19.5822C19.5857 19.9602 20.0497 20.1492 20.5964 20.1492ZM20.5964 12.7031C21.6135 12.7031 22.5479 12.9488 23.3998 13.4402C24.2389 13.9315 24.9063 14.593 25.4022 15.4245C25.898 16.2687 26.1459 17.1947 26.1459 18.2026C26.1459 18.9712 25.9552 19.8531 25.5738 20.8484C25.2432 21.6926 24.7855 22.606 24.2007 23.5887C23.7176 24.3699 23.1646 25.1825 22.5416 26.0266C22.1093 26.6188 21.6516 27.1983 21.1685 27.7653L20.5964 28.4268L20.0243 27.7653C19.5412 27.1983 19.0835 26.6188 18.6512 26.0266C18.0282 25.1825 17.4752 24.3699 16.9921 23.5887C16.4072 22.606 15.9495 21.6926 15.619 20.8484C15.2376 19.8531 15.0469 18.9712 15.0469 18.2026C15.0469 17.1947 15.2948 16.2687 15.7906 15.4245C16.2865 14.593 16.9539 13.9315 17.793 13.4402C18.6448 12.9488 19.5793 12.7031 20.5964 12.7031Z" fill="#5599FF"/>
<path d="M20.5964 20.1492C20.9524 20.1492 21.2829 20.061 21.5881 19.8846C21.8932 19.7082 22.1347 19.4751 22.3127 19.1853C22.4907 18.883 22.5797 18.5554 22.5797 18.2026C22.5797 17.8498 22.4907 17.5223 22.3127 17.2199C22.1347 16.9175 21.8932 16.6781 21.5881 16.5017C21.2829 16.3254 20.9524 16.2372 20.5964 16.2372C20.2404 16.2372 19.9099 16.3254 19.6047 16.5017C19.3123 16.6781 19.0771 16.9175 18.8991 17.2199C18.7211 17.5223 18.6321 17.8498 18.6321 18.2026C18.6321 18.7444 18.8228 19.2042 19.2042 19.5822C19.5857 19.9602 20.0497 20.1492 20.5964 20.1492ZM20.5964 12.7031C21.6135 12.7031 22.5479 12.9488 23.3998 13.4402C24.2389 13.9315 24.9063 14.593 25.4022 15.4245C25.898 16.2687 26.1459 17.1947 26.1459 18.2026C26.1459 18.9712 25.9552 19.8531 25.5738 20.8484C25.2432 21.6926 24.7855 22.606 24.2007 23.5887C23.7176 24.3699 23.1646 25.1825 22.5416 26.0266C22.1093 26.6188 21.6516 27.1983 21.1685 27.7653L20.5964 28.4268L20.0243 27.7653C19.5412 27.1983 19.0835 26.6188 18.6512 26.0266C18.0282 25.1825 17.4752 24.3699 16.9921 23.5887C16.4072 22.606 15.9495 21.6926 15.619 20.8484C15.2376 19.8531 15.0469 18.9712 15.0469 18.2026C15.0469 17.1947 15.2948 16.2687 15.7906 15.4245C16.2865 14.593 16.9539 13.9315 17.793 13.4402C18.6448 12.9488 19.5793 12.7031 20.5964 12.7031Z" fill="url(#paint1_linear)" fill-opacity="0.2"/>
</g>
</g>
<defs>
<filter id="filter0_dd" x="9.46875" y="5.8125" width="29.0625" height="38.3281" filterUnits="userSpaceOnUse" color-interpolation-filters="sRGB">
<feFlood flood-opacity="0" result="BackgroundImageFix"/>
<feColorMatrix in="SourceAlpha" type="matrix" values="0 0 0 0 0 0 0 0 0 0 0 0 0 0 0 0 0 0 127 0"/>
<feMorphology radius="4" operator="erode" in="SourceAlpha" result="effect1_dropShadow"/>
<feOffset dy="1"/>
<feGaussianBlur stdDeviation="0.5"/>
<feColorMatrix type="matrix" values="0 0 0 0 0.027451 0 0 0 0 0.0745098 0 0 0 0 0.152941 0 0 0 0.06 0"/>
<feBlend mode="normal" in2="BackgroundImageFix" result="effect1_dropShadow"/>
<feColorMatrix in="SourceAlpha" type="matrix" values="0 0 0 0 0 0 0 0 0 0 0 0 0 0 0 0 0 0 127 0"/>
<feMorphology radius="4" operator="erode" in="SourceAlpha" result="effect2_dropShadow"/>
<feOffset dy="3"/>
<feGaussianBlur stdDeviation="1.5"/>
<feColorMatrix type="matrix" values="0 0 0 0 0.027451 0 0 0 0 0.0745098 0 0 0 0 0.152941 0 0 0 0.05 0"/>
<feBlend mode="normal" in2="effect1_dropShadow" result="effect2_dropShadow"/>
<feBlend mode="normal" in="SourceGraphic" in2="effect2_dropShadow" result="shape"/>
</filter>
<filter id="filter1_f" x="26.8125" y="5.15625" width="12.5568" height="12.5568" filterUnits="userSpaceOnUse" color-interpolation-filters="sRGB">
<feFlood flood-opacity="0" result="BackgroundImageFix"/>
<feBlend mode="normal" in="SourceGraphic" in2="BackgroundImageFix" result="shape"/>
<feGaussianBlur stdDeviation="0.9375" result="effect1_foregroundBlur"/>
</filter>
<filter id="filter2_f" x="18.0427" y="16.3803" width="14.8436" height="12.8964" filterUnits="userSpaceOnUse" color-interpolation-filters="sRGB">
<feFlood flood-opacity="0" result="BackgroundImageFix"/>
<feBlend mode="normal" in="SourceGraphic" in2="BackgroundImageFix" result="shape"/>
<feGaussianBlur stdDeviation="0.449353" result="effect1_foregroundBlur"/>
</filter>
<filter id="filter3_ii" x="13.9219" y="12.3281" width="13.349" height="16.4736" filterUnits="userSpaceOnUse" color-interpolation-filters="sRGB">
<feFlood flood-opacity="0" result="BackgroundImageFix"/>
<feBlend mode="normal" in="SourceGraphic" in2="BackgroundImageFix" result="shape"/>
<feColorMatrix in="SourceAlpha" type="matrix" values="0 0 0 0 0 0 0 0 0 0 0 0 0 0 0 0 0 0 127 0" result="hardAlpha"/>
<feOffset dx="-1.125" dy="-0.375"/>
<feGaussianBlur stdDeviation="0.75"/>
<feComposite in2="hardAlpha" operator="arithmetic" k2="-1" k3="1"/>
<feColorMatrix type="matrix" values="0 0 0 0 0.596078 0 0 0 0 0.627451 0 0 0 0 0.74902 0 0 0 0.1 0"/>
<feBlend mode="normal" in2="shape" result="effect1_innerShadow"/>
<feColorMatrix in="SourceAlpha" type="matrix" values="0 0 0 0 0 0 0 0 0 0 0 0 0 0 0 0 0 0 127 0" result="hardAlpha"/>
<feOffset dx="1.125" dy="0.375"/>
<feGaussianBlur stdDeviation="0.75"/>
<feComposite in2="hardAlpha" operator="arithmetic" k2="-1" k3="1"/>
<feColorMatrix type="matrix" values="0 0 0 0 0.596078 0 0 0 0 0.627451 0 0 0 0 0.74902 0 0 0 0.1 0"/>
<feBlend mode="normal" in2="effect1_innerShadow" result="effect2_innerShadow"/>
</filter>
<linearGradient id="paint0_linear" x1="28.6282" y1="17.2791" x2="23.469" y2="29.0598" gradientUnits="userSpaceOnUse">
<stop stop-opacity="0"/>
<stop offset="1" stop-color="#252628"/>
</linearGradient>
<linearGradient id="paint1_linear" x1="18.99" y1="13.0926" x2="21.8621" y2="28.3781" gradientUnits="userSpaceOnUse">
<stop stop-color="#98A0BF"/>
<stop offset="1" stop-color="#2C3558"/>
</linearGradient>
<clipPath id="clip0">
<rect width="19.5" height="19.5" fill="white" transform="translate(13.2188 10.875)"/>
</clipPath>
</defs>
</svg>
