<svg width="48" height="48" viewBox="0 0 48 48" fill="none" xmlns="http://www.w3.org/2000/svg">
<path fill-rule="evenodd" clip-rule="evenodd" d="M24.0013 5.5961C23.9098 5.63924 23.6602 5.80533 23.346 6.40649L6.12797 39.3505C5.68609 40.196 5.85057 40.5812 5.89241 40.6522C5.92756 40.7118 6.15808 41.0273 7.07278 41.0273H40.9302C41.8453 41.0273 42.0763 40.7119 42.1114 40.6525C42.1526 40.5826 42.3181 40.1982 41.875 39.3505L24.657 6.40649C24.3427 5.80505 24.0927 5.63914 24.0013 5.5961ZM24.0032 1.95007C25.795 1.95108 27.105 3.24366 27.8782 4.72295L45.0962 37.667C45.9066 39.2176 46.1258 41.001 45.2417 42.4995C44.3514 44.0085 42.6779 44.6619 40.9302 44.6619H7.07278C5.32316 44.6619 3.65021 44.0067 2.76085 42.4971C1.87818 40.9989 2.09712 39.2161 2.90678 37.667L20.1248 4.72295C20.8991 3.24146 22.2105 1.94907 24.0032 1.95007Z" fill="currentColor"/>
<path d="M26.4181 27.6766C26.4181 29.0279 25.3354 30.1246 24.0014 30.1246C22.6674 30.1246 21.5847 29.0279 21.5847 27.6766V15.4367C21.5847 14.0854 22.6674 12.9887 24.0014 12.9887C25.3354 12.9887 26.4181 14.0854 26.4181 15.4367V27.6766Z" fill="currentColor"/>
<path d="M26.4181 35.0205C26.4181 36.3718 25.3354 37.4685 24.0014 37.4685C22.6674 37.4685 21.5847 36.3718 21.5847 35.0205C21.5847 33.6693 22.6674 32.5726 24.0014 32.5726C25.3354 32.5726 26.4181 33.6693 26.4181 35.0205Z" fill="currentColor"/>
</svg>
