<svg width="48" height="48" viewBox="0 0 48 48" fill="none" xmlns="http://www.w3.org/2000/svg"><path fill-rule="evenodd" clip-rule="evenodd" d="M12.75 8a2 2 0 00-2-2H8a2 2 0 00-2 2v2.75a2 2 0 002 2h.252V24H8a2 2 0 00-2 2v2.75a2 2 0 002 2h2.75a2 2 0 002-2v-.25H24v.25a2 2 0 002 2h2.75a2 2 0 002-2V26a2 2 0 00-2-2h-.248V12.75h.249a2 2 0 002-2V8a2 2 0 00-2-2H26a2 2 0 00-2 2v.25H12.75V8zm-2 16a2 2 0 012 2v.25H24V26a2 2 0 012-2h.252V12.75h-.251a2 2 0 01-2-2v-.25H12.75v.25a2 2 0 01-2 2h-.25V24h.25z" fill="currentColor"/><path d="M35.25 22a2 2 0 002 2h.252v11.25h-.252a2 2 0 00-2 2v.25H24v-.25a2 2 0 00-2-2h-.248v-4.5h-2.25v4.5h-.252a2 2 0 00-2 2V40a2 2 0 002 2H22a2 2 0 002-2v-.25h11.25V40a2 2 0 002 2H40a2 2 0 002-2v-2.75a2 2 0 00-2-2h-.248V24h.249a2 2 0 002-2v-2.75a2 2 0 00-2-2h-2.75a2 2 0 00-2 2v.25h-4.5v2.25h4.5V22z" fill="currentColor"/></svg>