<svg width="48" height="48" viewBox="0 0 48 48" fill="none" xmlns="http://www.w3.org/2000/svg"><g opacity=".8" fill-rule="evenodd" clip-rule="evenodd"><path opacity=".8" d="M38.085 34.474a17.265 17.265 0 002.323-8.676c0-3.159-.845-6.12-2.32-8.672l-15.026 8.675 15.023 8.673z" fill="url(#chart_rose_pie_on0_linear)"/><path opacity=".8" d="M10.536 19.882l9.722 5.613-9.722 5.613a11.172 11.172 0 01-1.502-5.614c0-2.044.546-3.961 1.502-5.612z" fill="url(#chart_rose_pie_on1_linear)"/><path opacity=".8" d="M22.58 5.66v18.598l15.988-9.23C35.31 9.54 29.386 5.823 22.58 5.66z" fill="url(#chart_rose_pie_on2_linear)"/><path opacity=".8" d="M35.93 34.933c-2.647 4.573-7.593 7.65-13.257 7.65V27.28l13.256 7.654z" fill="url(#chart_rose_pie_on3_linear)"/><path opacity=".8" d="M13.216 19.628l7.958 4.594v-9.177h-.009a9.179 9.179 0 00-7.949 4.583z" fill="url(#chart_rose_pie_on4_linear)"/><path opacity=".8" d="M9.662 33.39l11.488-6.632v13.267A13.259 13.259 0 019.662 33.39z" fill="url(#chart_rose_pie_on5_linear)"/></g><defs><linearGradient id="chart_rose_pie_on0_linear" x1="23.063" y1="17.126" x2="25.178" y2="36.166" gradientUnits="userSpaceOnUse"><stop stop-color="#fff" stop-opacity=".6"/><stop offset="1" stop-color="#fff"/></linearGradient><linearGradient id="chart_rose_pie_on1_linear" x1="20.258" y1="19.882" x2="18.889" y2="32.203" gradientUnits="userSpaceOnUse"><stop stop-color="#fff" stop-opacity=".6"/><stop offset="1" stop-color="#fff"/></linearGradient><linearGradient id="chart_rose_pie_on2_linear" x1="31.418" y1="29.36" x2="13.264" y2="16.004" gradientUnits="userSpaceOnUse"><stop stop-color="#fff" stop-opacity=".6"/><stop offset="1" stop-color="#fff"/></linearGradient><linearGradient id="chart_rose_pie_on3_linear" x1="29.301" y1="23.452" x2="15.685" y2="33.468" gradientUnits="userSpaceOnUse"><stop stop-color="#fff" stop-opacity=".6"/><stop offset="1" stop-color="#fff"/></linearGradient><linearGradient id="chart_rose_pie_on4_linear" x1="17.195" y1="26.52" x2="25.364" y2="20.51" gradientUnits="userSpaceOnUse"><stop stop-color="#fff" stop-opacity=".6"/><stop offset="1" stop-color="#fff"/></linearGradient><linearGradient id="chart_rose_pie_on5_linear" x1="15.406" y1="23.441" x2="27.207" y2="32.123" gradientUnits="userSpaceOnUse"><stop stop-color="#fff" stop-opacity=".6"/><stop offset="1" stop-color="#fff"/></linearGradient></defs></svg>