<svg width="48" height="48" viewBox="0 0 48 48" fill="none" xmlns="http://www.w3.org/2000/svg"><path fill-rule="evenodd" clip-rule="evenodd" d="M9.102 8.444a1.6 1.6 0 011.6-1.6h16.25a1.6 1.6 0 011.13.468l9.75 9.75c.301.3.47.707.47 1.132v22.75a1.6 1.6 0 01-1.6 1.6h-26a1.6 1.6 0 01-1.6-1.6v-32.5zm3.2 1.6v29.3h22.8v-19.55h-8.15a1.6 1.6 0 01-1.6-1.6v-8.15h-13.05zm16.25 2.262l4.287 4.288h-4.287v-4.288z" fill="#798298"/><path fill-rule="evenodd" clip-rule="evenodd" d="M29.117 28.48c-.173.496-.344.847-.416 1.218-.17.889-.641 1.177-1.558 1.146-2.23-.074-4.463-.024-6.695-.024H19.43c-.425 1.94.014 2.516 1.819 2.518 2.232.001 4.463-.002 6.695.002.342 0 .684.032 1.178.057-.265.761-.445 1.41-.728 2.008-.087.185-.457.33-.698.333-2.458.022-4.917.041-7.375 0-1.698-.03-3.203-1.362-3.402-3.041-.119-.994-.043-2.011-.052-3.018-.004-.382 0-.763 0-1.2h12.25zm-12.203-2.774V23.56H29.07c-.233.69-.412 1.329-.677 1.93-.075.172-.399.331-.61.332-3.517.015-7.035.004-10.552-.005-.088 0-.176-.06-.316-.11z" fill="#798298"/></svg>