<svg width="48" height="48" viewBox="0 0 48 48" fill="none" xmlns="http://www.w3.org/2000/svg"><path d="M5.841 7.58h7.446a2.52 2.52 0 012.073 1.105l.168.245c.369.539.97.86 1.61.86h25.365c1.076 0 1.928.894 1.904 1.996l-.412 18.569c-.024 1.102-.895 1.995-1.944 1.995H5.947c-1.05 0-1.92-.893-1.944-1.995L3.55 9.973c-.029-1.322.996-2.394 2.29-2.394z" fill="url(#file_folder0_linear)"/><path d="M6.314 12.792l35.369-.207c.542-.003.971.449.958 1.01l-.602 24.345c-.014.56-.45 1.012-.974 1.008l-34.134-.206c-.524-.004-.96-.453-.973-1.004l-.602-23.942a.968.968 0 01.958-1.004z" fill="url(#file_folder1_linear)"/><path d="M4.525 14.394h38.952c1.133 0 2.027.893 1.997 1.995l-.648 21.947c-.036 1.102-.95 1.995-2.042 1.995H5.218c-1.092 0-2.006-.893-2.041-1.995L2.528 16.39c-.03-1.102.864-1.995 1.997-1.995z" fill="#5479A5"/><defs><linearGradient id="file_folder0_linear" x1="23.979" y1="9.468" x2="23.979" y2="21.014" gradientUnits="userSpaceOnUse"><stop stop-color="#6181A6"/><stop offset="1" stop-color="#19436F"/></linearGradient><linearGradient id="file_folder1_linear" x1="23.998" y1="12.585" x2="23.998" y2="38.949" gradientUnits="userSpaceOnUse"><stop stop-color="#ABBDCF"/><stop offset="1" stop-color="#0074FB"/></linearGradient></defs></svg>