<svg width="48" height="48" viewBox="0 0 48 48" fill="none" xmlns="http://www.w3.org/2000/svg"><g opacity=".2"><path fill-rule="evenodd" clip-rule="evenodd" d="M25.39 3.422l15.742 9.09a2.77 2.77 0 011.385 2.397v18.18a2.77 2.77 0 01-1.385 2.397l-15.743 9.09a2.77 2.77 0 01-2.769 0l-15.743-9.09a2.77 2.77 0 01-1.385-2.398V14.91a2.77 2.77 0 011.385-2.398l15.743-9.09a2.77 2.77 0 012.77 0zm-.462.8a1.846 1.846 0 00-1.846 0L7.338 13.31c-.57.33-.923.94-.923 1.6v18.178c0 .66.352 1.27.923 1.599l15.744 9.09a1.85 1.85 0 001.846 0l15.743-9.09c.571-.33.923-.94.923-1.599V14.91c0-.66-.352-1.269-.923-1.599l-15.743-9.09z" fill="#fff"/><path opacity=".4" fill-rule="evenodd" clip-rule="evenodd" d="M23.076 44.31V3.687h1.846V44.31h-1.846z" fill="#fff"/><path opacity=".4" fill-rule="evenodd" clip-rule="evenodd" d="M5.949 33.355l35.179-20.31.923 1.599-35.179 20.31-.923-1.599z" fill="#fff"/><path opacity=".4" fill-rule="evenodd" clip-rule="evenodd" d="M6.873 13.046l35.179 20.31-.923 1.6L5.95 14.644l.923-1.6z" fill="#fff"/><path opacity=".5" d="M6.223 34.24l17.83-30.848 11.361 27.152-11.36 8.364L6.223 34.24z" fill="url(#chart_radar_off0_linear)"/><path opacity=".8" d="M12.59 17.405l24.855-1.244-13.398 18.913-9.684-5.497-1.773-12.172z" fill="url(#chart_radar_off1_linear)"/></g><defs><linearGradient id="chart_radar_off0_linear" x1="6.223" y1="3.392" x2="11.169" y2="40.596" gradientUnits="userSpaceOnUse"><stop stop-color="#fff" stop-opacity=".6"/><stop offset="1" stop-color="#fff"/></linearGradient><linearGradient id="chart_radar_off1_linear" x1="13.291" y1="16.881" x2="15.021" y2="36.95" gradientUnits="userSpaceOnUse"><stop stop-color="#fff" stop-opacity=".6"/><stop offset="1" stop-color="#fff"/></linearGradient></defs></svg>