<svg width="48" height="48" viewBox="0 0 48 48" fill="none" xmlns="http://www.w3.org/2000/svg"><path fill-rule="evenodd" clip-rule="evenodd" d="M17.834 4.86A2 2 0 0116.8 7.493a18 18 0 1023.778 23.508 2 2 0 013.684 1.558A22 22 0 1115.2 3.827a2 2 0 012.633 1.033z" fill="currentColor"/><path fill-rule="evenodd" clip-rule="evenodd" d="M22.586 2.586A2 2 0 0124 2a22 22 0 0122 22 2 2 0 01-2 2H24a2 2 0 01-2-2V4a2 2 0 01.586-1.414zM26 6.11V22h15.889A17.998 17.998 0 0026 6.111z" fill="currentColor"/></svg>