<svg width="48" height="48" viewBox="0 0 48 48" fill="none" xmlns="http://www.w3.org/2000/svg">
<g filter="url(#filter0_ddd)">
<path d="M38.5312 38.7656C38.5312 40.6296 37.0202 42.1406 35.1562 42.1406H12.8438C10.9798 42.1406 9.46875 40.6296 9.46875 38.7656V9.1875C9.46875 7.32354 10.9798 5.8125 12.8438 5.8125H27.7918C28.6869 5.8125 29.5453 6.16808 30.1782 6.80101L37.5427 14.1655C38.1757 14.7984 38.5312 15.6569 38.5312 16.552V38.7656Z" fill="#2F314C"/>
<path d="M38.5312 38.7656C38.5312 40.6296 37.0202 42.1406 35.1562 42.1406H12.8438C10.9798 42.1406 9.46875 40.6296 9.46875 38.7656V9.1875C9.46875 7.32354 10.9798 5.8125 12.8438 5.8125H27.7918C28.6869 5.8125 29.5453 6.16808 30.1782 6.80101L37.5427 14.1655C38.1757 14.7984 38.5312 15.6569 38.5312 16.552V38.7656Z" fill="url(#paint0_linear)" fill-opacity="0.4"/>
</g>
<rect x="13.9688" y="33.375" width="5.0625" height="1.6875" rx="0.84375" fill="#8082A3"/>
<rect x="28.9688" y="36.4688" width="5.0625" height="1.6875" rx="0.84375" fill="#8082A3"/>
<rect x="20.4375" y="33.375" width="13.5938" height="1.6875" rx="0.84375" fill="#67698B"/>
<rect x="13.9688" y="36.4688" width="13.5938" height="1.6875" rx="0.84375" fill="#67698B"/>
<g filter="url(#filter1_f)">
<path d="M28.6875 14.2599V7.50094C28.6875 7.08333 29.1924 6.87419 29.4877 7.16948L37.356 15.0378C37.6513 15.3331 37.4422 15.838 37.0246 15.838H30.2656C29.3941 15.838 28.6875 15.1315 28.6875 14.2599Z" fill="black" fill-opacity="0.16"/>
</g>
<path d="M38.4902 16.5049C38.4902 15.6765 37.8193 15.0049 36.9909 15.0049H31.6864C30.4438 15.0049 29.4382 13.9982 29.4382 12.7555V7.26539C29.4382 6.56619 28.9598 5.97876 28.3125 5.8125C28.9992 5.92842 29.6383 6.25501 30.1372 6.75395L37.5017 14.1184C38.1346 14.7514 38.4902 15.6098 38.4902 16.5049Z" fill="#616182"/>
<path fill-rule="evenodd" clip-rule="evenodd" d="M38.5312 16.4582V38.7656C38.5312 40.6296 37.0202 42.1406 35.1562 42.1406H12.8438C10.9798 42.1406 9.46875 40.6296 9.46875 38.7656V9.1875C9.46875 7.32354 10.9798 5.8125 12.8438 5.8125H27.9793C28.1085 5.8125 28.2339 5.82884 28.3535 5.85957C29.0402 5.97549 29.6793 6.30207 30.1782 6.80101L37.5427 14.1655C38.1757 14.7984 38.5312 15.5631 38.5312 16.4582ZM37.6875 38.7656C37.6875 40.1636 36.5542 41.2969 35.1562 41.2969H12.8438C11.4458 41.2969 10.3125 40.1636 10.3125 38.7656V9.1875C10.3125 7.78953 11.4458 6.65625 12.8438 6.65625H27.7918C27.9197 6.65625 28.0467 6.66594 28.1717 6.68492C28.4403 6.76716 28.6355 7.01701 28.6355 7.31246V12.8026C28.6355 14.5107 30.0183 15.802 31.7275 15.802H37.032C37.3939 15.802 37.6875 16.0953 37.6875 16.4582V38.7656ZM37.2022 14.9678C37.1463 14.9615 37.0895 14.9582 37.032 14.9582H31.7275C30.4848 14.9582 29.4793 14.0453 29.4793 12.8026V7.31246C29.4793 7.30856 29.4792 7.30466 29.4792 7.30077C29.5142 7.33202 29.5483 7.36432 29.5816 7.39764L36.9461 14.6684C37.0397 14.762 37.1252 14.8621 37.2022 14.9678Z" fill="#67698B"/>
<g filter="url(#filter2_f)">
<path fill-rule="evenodd" clip-rule="evenodd" d="M23.21 25.524C23.6747 25.524 29.5821 22.545 30.135 21.1232C30.8806 19.872 29.5587 18.8577 27.1824 18.8577C24.8061 18.8577 22.2753 19.872 21.5297 21.1232C20.3972 22.5381 22.7453 25.524 23.21 25.524ZM25.3204 21.9814C26.2105 21.9814 27.1585 21.6014 27.4378 21.1327C27.7171 20.664 27.2219 20.2841 26.3318 20.2841C25.4417 20.2841 24.4937 20.664 24.2144 21.1327C23.9351 21.6014 24.4303 21.9814 25.3204 21.9814Z" fill="url(#paint1_linear)"/>
<path d="M21.1883 25.1864C20.3324 23.9255 19.5822 22.11 20.4506 21.0252C20.7434 20.5338 21.2541 20.0712 21.909 19.6671C19.8009 19.8665 17.7486 20.7871 17.0899 21.8926C15.9574 23.3074 18.3055 26.2934 18.7702 26.2934C18.953 26.2934 19.9782 25.8323 21.1883 25.1864Z" fill="url(#paint2_linear)"/>
</g>
<path fill-rule="evenodd" clip-rule="evenodd" d="M22.2826 25.4176C22.679 25.4176 26.2043 20.5911 25.9532 18.2875C25.9532 16.2603 24.3098 14.6169 22.2826 14.6169C20.2554 14.6169 18.612 16.2603 18.612 18.2875C18.3651 20.5798 21.8862 25.4176 22.2826 25.4176ZM22.2821 19.6779C23.0415 19.6779 23.657 19.0623 23.657 18.3029C23.657 17.5436 23.0415 16.928 22.2821 16.928C21.5227 16.928 20.9072 17.5436 20.9072 18.3029C20.9072 19.0623 21.5227 19.6779 22.2821 19.6779Z" fill="#7A7EF2"/>
<path fill-rule="evenodd" clip-rule="evenodd" d="M22.2826 25.4176C22.679 25.4176 26.2043 20.5911 25.9532 18.2875C25.9532 16.2603 24.3098 14.6169 22.2826 14.6169C20.2554 14.6169 18.612 16.2603 18.612 18.2875C18.3651 20.5798 21.8862 25.4176 22.2826 25.4176ZM22.2821 19.6779C23.0415 19.6779 23.657 19.0623 23.657 18.3029C23.657 17.5436 23.0415 16.928 22.2821 16.928C21.5227 16.928 20.9072 17.5436 20.9072 18.3029C20.9072 19.0623 21.5227 19.6779 22.2821 19.6779Z" fill="url(#paint3_linear)" fill-opacity="0.2"/>
<path d="M20.3863 24.8706C19.0151 22.8276 17.4523 19.8864 17.6416 18.1287C17.6416 17.3325 17.8421 16.5831 18.1954 15.9283C16.4984 16.2515 15.2155 17.7429 15.2155 19.534C14.9686 21.8263 18.4897 26.6641 18.8861 26.6641C19.0421 26.6641 19.6823 25.9171 20.3863 24.8706Z" fill="#7A7EF2"/>
<path d="M20.3863 24.8706C19.0151 22.8276 17.4523 19.8864 17.6416 18.1287C17.6416 17.3325 17.8421 16.5831 18.1954 15.9283C16.4984 16.2515 15.2155 17.7429 15.2155 19.534C14.9686 21.8263 18.4897 26.6641 18.8861 26.6641C19.0421 26.6641 19.6823 25.9171 20.3863 24.8706Z" fill="url(#paint4_linear)" fill-opacity="0.2"/>
<defs>
<filter id="filter0_ddd" x="7.59375" y="4.875" width="32.8125" height="40.0781" filterUnits="userSpaceOnUse" color-interpolation-filters="sRGB">
<feFlood flood-opacity="0" result="BackgroundImageFix"/>
<feColorMatrix in="SourceAlpha" type="matrix" values="0 0 0 0 0 0 0 0 0 0 0 0 0 0 0 0 0 0 127 0"/>
<feOffset/>
<feGaussianBlur stdDeviation="0.046875"/>
<feColorMatrix type="matrix" values="0 0 0 0 0 0 0 0 0 0 0 0 0 0 0 0 0 0 0.12 0"/>
<feBlend mode="normal" in2="BackgroundImageFix" result="effect1_dropShadow"/>
<feColorMatrix in="SourceAlpha" type="matrix" values="0 0 0 0 0 0 0 0 0 0 0 0 0 0 0 0 0 0 127 0"/>
<feOffset dy="0.1875"/>
<feGaussianBlur stdDeviation="0.28125"/>
<feColorMatrix type="matrix" values="0 0 0 0 0 0 0 0 0 0 0 0 0 0 0 0 0 0 0.12 0"/>
<feBlend mode="normal" in2="effect1_dropShadow" result="effect2_dropShadow"/>
<feColorMatrix in="SourceAlpha" type="matrix" values="0 0 0 0 0 0 0 0 0 0 0 0 0 0 0 0 0 0 127 0"/>
<feOffset dy="0.9375"/>
<feGaussianBlur stdDeviation="0.9375"/>
<feColorMatrix type="matrix" values="0 0 0 0 0 0 0 0 0 0 0 0 0 0 0 0 0 0 0.12 0"/>
<feBlend mode="normal" in2="effect2_dropShadow" result="effect3_dropShadow"/>
<feBlend mode="normal" in="SourceGraphic" in2="effect3_dropShadow" result="shape"/>
</filter>
<filter id="filter1_f" x="26.8125" y="5.15625" width="12.5568" height="12.5568" filterUnits="userSpaceOnUse" color-interpolation-filters="sRGB">
<feFlood flood-opacity="0" result="BackgroundImageFix"/>
<feBlend mode="normal" in="SourceGraphic" in2="BackgroundImageFix" result="shape"/>
<feGaussianBlur stdDeviation="0.9375" result="effect1_foregroundBlur"/>
</filter>
<filter id="filter2_f" x="15.4182" y="17.4917" width="16.2905" height="10.1676" filterUnits="userSpaceOnUse" color-interpolation-filters="sRGB">
<feFlood flood-opacity="0" result="BackgroundImageFix"/>
<feBlend mode="normal" in="SourceGraphic" in2="BackgroundImageFix" result="shape"/>
<feGaussianBlur stdDeviation="0.682976" result="effect1_foregroundBlur"/>
</filter>
<linearGradient id="paint0_linear" x1="10.2188" y1="4.82812" x2="38.5312" y2="44.6719" gradientUnits="userSpaceOnUse">
<stop stop-color="#525476"/>
<stop offset="1" stop-color="#9091AF"/>
</linearGradient>
<linearGradient id="paint1_linear" x1="28.0912" y1="19.9842" x2="21.9256" y2="28.4469" gradientUnits="userSpaceOnUse">
<stop stop-opacity="0"/>
<stop offset="1" stop-color="#393C43"/>
</linearGradient>
<linearGradient id="paint2_linear" x1="28.0912" y1="19.9842" x2="21.9256" y2="28.4469" gradientUnits="userSpaceOnUse">
<stop stop-opacity="0"/>
<stop offset="1" stop-color="#393C43"/>
</linearGradient>
<linearGradient id="paint3_linear" x1="19.0268" y1="14.9153" x2="20.788" y2="26.7788" gradientUnits="userSpaceOnUse">
<stop stop-color="#ADB2DE"/>
<stop offset="1" stop-color="#2C3058"/>
</linearGradient>
<linearGradient id="paint4_linear" x1="19.0268" y1="14.9153" x2="20.788" y2="26.7788" gradientUnits="userSpaceOnUse">
<stop stop-color="#ADB2DE"/>
<stop offset="1" stop-color="#2C3058"/>
</linearGradient>
</defs>
</svg>
