<svg width="48" height="48" viewBox="0 0 48 48" fill="none" xmlns="http://www.w3.org/2000/svg"><path fill-rule="evenodd" clip-rule="evenodd" d="M22.465 8.754a2.934 2.934 0 013.065 0l13.96 8.552a1.067 1.067 0 010 1.82l-13.96 8.551a2.934 2.934 0 01-3.065 0l-13.96-8.552a1.067 1.067 0 010-1.819l13.96-8.552z" fill="currentColor"/><path fill-rule="evenodd" clip-rule="evenodd" d="M13.707 26.807c.308.503.15 1.16-.353 1.467l-2.248 1.378 12.474 7.642a.8.8 0 00.836 0l12.475-7.642-2.249-1.378a1.067 1.067 0 011.115-1.819l3.733 2.287a1.067 1.067 0 010 1.82l-13.96 8.552a2.934 2.934 0 01-3.064 0l-13.96-8.552a1.067 1.067 0 010-1.82l3.734-2.287a1.067 1.067 0 011.467.352z" fill="currentColor"/></svg>