<svg width="48" height="48" viewBox="0 0 48 48" fill="none" xmlns="http://www.w3.org/2000/svg"><g opacity=".2"><path opacity=".8" d="M3.691 41.077c0-.255.207-.462.462-.462h39.692a.462.462 0 110 .923H4.153a.462.462 0 01-.462-.461z" fill="#fff"/><path d="M7.383 21.231a2.77 2.77 0 015.538 0v12.923a2.77 2.77 0 01-5.538 0V21.231z" fill="url(#chart_bar_off0_linear)"/><path d="M25.848 15.692a2.77 2.77 0 115.538 0v18.462a2.77 2.77 0 11-5.538 0V15.692z" fill="url(#chart_bar_off1_linear)"/><path d="M22.152 34.154a2.77 2.77 0 11-5.539 0v-24a2.77 2.77 0 115.539 0v24z" fill="url(#chart_bar_off2_linear)"/><path d="M40.617 34.153a2.77 2.77 0 11-5.539 0v-5.538a2.77 2.77 0 015.539 0v5.538z" fill="url(#chart_bar_off3_linear)"/></g><defs><linearGradient id="chart_bar_off0_linear" x1="7.383" y1="18.462" x2="14.064" y2="36.5" gradientUnits="userSpaceOnUse"><stop stop-color="#fff" stop-opacity=".6"/><stop offset="1" stop-color="#fff"/></linearGradient><linearGradient id="chart_bar_off1_linear" x1="25.848" y1="12.923" x2="36.271" y2="34.571" gradientUnits="userSpaceOnUse"><stop stop-color="#fff" stop-opacity=".6"/><stop offset="1" stop-color="#fff"/></linearGradient><linearGradient id="chart_bar_off2_linear" x1="22.152" y1="36.923" x2="7.758" y2="12.632" gradientUnits="userSpaceOnUse"><stop stop-color="#fff" stop-opacity=".6"/><stop offset="1" stop-color="#fff"/></linearGradient><linearGradient id="chart_bar_off3_linear" x1="40.617" y1="36.923" x2="38.011" y2="25.194" gradientUnits="userSpaceOnUse"><stop stop-color="#fff" stop-opacity=".6"/><stop offset="1" stop-color="#fff"/></linearGradient></defs></svg>