<svg width="48" height="48" viewBox="0 0 48 48" fill="none" xmlns="http://www.w3.org/2000/svg"><g opacity=".8"><path opacity=".1" fill-rule="evenodd" clip-rule="evenodd" d="M33.972 16.038c-5.504-5.504-14.428-5.504-19.932 0-5.504 5.504-5.504 14.428 0 19.932a3.692 3.692 0 01-5.222 5.222C.43 32.804.43 19.204 8.818 10.816c8.388-8.388 21.988-8.388 30.376 0 8.388 8.388 8.388 21.988 0 30.376a3.692 3.692 0 01-5.222-5.222c5.504-5.504 5.504-14.428 0-19.932z" fill="#fff"/><path fill-rule="evenodd" clip-rule="evenodd" d="M33.972 16.038c-5.504-5.504-14.428-5.504-19.932 0-5.504 5.504-5.504 14.428 0 19.932a3.692 3.692 0 01-5.222 5.222C.43 32.804.43 19.204 8.818 10.816c8.388-8.388 21.988-8.388 30.376 0a3.692 3.692 0 11-5.222 5.222z" fill="url(#chart_gauge_on0_linear)"/><path opacity=".8" d="M21.731 23.308c1.493-1.39 5.807-1.533 6.436-.857.629.676.088 4.874-1.405 6.263a3.692 3.692 0 11-5.03-5.406z" fill="#fff"/></g><defs><linearGradient id="chart_gauge_on0_linear" x1="6.22" y1="8.218" x2="36.456" y2="38.454" gradientUnits="userSpaceOnUse"><stop stop-color="#fff"/><stop offset="1" stop-color="#fff" stop-opacity="0"/></linearGradient></defs></svg>