<svg width="48" height="48" viewBox="0 0 48 48" fill="none" xmlns="http://www.w3.org/2000/svg"><path fill-rule="evenodd" clip-rule="evenodd" d="M24 6C14.059 6 6 14.059 6 24s8.059 18 18 18 18-8.059 18-18S33.941 6 24 6zM2 24C2 11.85 11.85 2 24 2s22 9.85 22 22-9.85 22-22 22S2 36.15 2 24zm14.586-7.414a2 2 0 012.828 0L24 21.172l4.586-4.586a2 2 0 112.828 2.828L26.828 24l4.586 4.586a2 2 0 11-2.828 2.828L24 26.828l-4.586 4.586a2 2 0 11-2.828-2.828L21.172 24l-4.586-4.586a2 2 0 010-2.828z" fill="currentColor"/></svg>