<svg width="48" height="48" viewBox="0 0 48 48" fill="none" xmlns="http://www.w3.org/2000/svg"><path fill-rule="evenodd" clip-rule="evenodd" d="M39.618 11.771c.653 0 1.183.53 1.183 1.183v16.418h3.016a1.183 1.183 0 01.972 1.857l-4.199 6.062a1.183 1.183 0 01-2.155-.674V12.954c0-.653.53-1.183 1.183-1.183zM16.972 9.28a3.12 3.12 0 013.26 0l13.475 8.255a1.04 1.04 0 010 1.774l-13.475 8.255a3.12 3.12 0 01-3.26 0L3.497 19.31a1.04 1.04 0 010-1.774L16.972 9.28zm2.173 1.774a1.04 1.04 0 00-1.087 0L6.031 18.422l12.027 7.368a1.04 1.04 0 001.087 0l12.027-7.368-12.027-7.368z" fill="currentColor"/><path fill-rule="evenodd" clip-rule="evenodd" d="M8.567 26.799c.3.49.147 1.13-.343 1.43L6.03 29.573l12.163 7.451a.78.78 0 00.815 0l12.163-7.451-2.192-1.344a1.04 1.04 0 011.086-1.774l3.64 2.23a1.04 1.04 0 010 1.774l-13.61 8.339a2.86 2.86 0 01-2.988 0l-13.61-8.339a1.04 1.04 0 010-1.773l3.64-2.23a1.04 1.04 0 011.43.343z" fill="currentColor"/></svg>