<svg width="48" height="48" viewBox="0 0 48 48" fill="none" xmlns="http://www.w3.org/2000/svg"><g opacity=".2" fill="#fff"><path opacity=".6" d="M3.691 11.077a3.692 3.692 0 013.693-3.692h33.23a3.692 3.692 0 013.693 3.692v4.616H3.69v-4.616z"/><path opacity=".4" d="M3.691 15.692h40.616V24H3.69v-8.308z"/><path opacity=".2" d="M3.691 11.077a3.692 3.692 0 013.693-3.692h16.615v33.23H7.384a3.692 3.692 0 01-3.693-3.692V11.077z"/><path opacity=".2" d="M3.691 15.692h10.154v24.923H7.384a3.692 3.692 0 01-3.693-3.692v-21.23z"/><path opacity=".1" d="M24 15.692h10.154v24.923H24V15.692z"/><path opacity=".2" d="M3.691 24h40.616v8.308H3.69V24z"/><path fill-rule="evenodd" clip-rule="evenodd" d="M2.823 10.792c.055-.673.171-1.264.45-1.81A4.615 4.615 0 015.29 6.963c.546-.278 1.137-.394 1.81-.45.653-.053 1.46-.053 2.46-.053h28.88c1 0 1.807 0 2.46.054.673.055 1.264.17 1.811.45a4.615 4.615 0 012.017 2.016c.279.547.395 1.138.45 1.81.053.654.053 1.461.053 2.462v21.494c0 1 0 1.807-.053 2.46-.055.674-.171 1.265-.45 1.811a4.615 4.615 0 01-2.017 2.017c-.547.279-1.138.395-1.81.45-.654.053-1.46.053-2.461.053H9.56c-1 0-1.807 0-2.46-.053-.673-.055-1.264-.171-1.81-.45a4.616 4.616 0 01-2.017-2.017c-.279-.546-.395-1.137-.45-1.81-.053-.654-.053-1.46-.053-2.46V13.252c0-1 0-1.808.053-2.461zM4.095 9.4c-.402.79-.402 1.823-.402 3.891v21.416c0 2.068 0 3.101.402 3.891.354.695.919 1.26 1.614 1.614.79.402 1.823.402 3.891.402h28.8c2.068 0 3.102 0 3.892-.402a3.692 3.692 0 001.614-1.614c.402-.79.402-1.823.402-3.891V13.292c0-2.068 0-3.102-.402-3.891a3.693 3.693 0 00-1.614-1.614c-.79-.402-1.824-.402-3.892-.402H9.6c-2.068 0-3.102 0-3.891.402A3.692 3.692 0 004.095 9.4z"/></g></svg>