<svg width="48" height="48" viewBox="0 0 48 48" fill="none" xmlns="http://www.w3.org/2000/svg">
<g filter="url(#filter0_dd)">
<path d="M38.5312 38.7656C38.5312 40.6296 37.0202 42.1406 35.1562 42.1406H12.8438C10.9798 42.1406 9.46875 40.6296 9.46875 38.7656V9.1875C9.46875 7.32354 10.9798 5.8125 12.8438 5.8125H27.7918C28.6869 5.8125 29.5453 6.16808 30.1782 6.80101L37.5427 14.1655C38.1757 14.7984 38.5312 15.6569 38.5312 16.552V38.7656Z" fill="#F8F7FA"/>
</g>
<g filter="url(#filter1_f)">
<path d="M28.6875 14.2599V7.50094C28.6875 7.08333 29.1924 6.87419 29.4877 7.16948L37.356 15.0378C37.6513 15.3331 37.4422 15.838 37.0246 15.838H30.2656C29.3941 15.838 28.6875 15.1315 28.6875 14.2599Z" fill="black" fill-opacity="0.16"/>
</g>
<path d="M38.4902 16.5049C38.4902 15.6765 37.8193 15.0049 36.9909 15.0049H31.6864C30.4438 15.0049 29.4382 13.9982 29.4382 12.7555V7.26539C29.4382 6.56619 28.9598 5.97876 28.3125 5.8125C28.9992 5.92842 29.6383 6.25501 30.1372 6.75395L37.5017 14.1184C38.1346 14.7514 38.4902 15.6098 38.4902 16.5049Z" fill="#D4D2E5"/>
<path fill-rule="evenodd" clip-rule="evenodd" d="M38.5312 16.4582V38.7656C38.5312 40.6296 37.0202 42.1406 35.1562 42.1406H12.8438C10.9798 42.1406 9.46875 40.6296 9.46875 38.7656V9.1875C9.46875 7.32354 10.9798 5.8125 12.8438 5.8125H27.9793C28.1085 5.8125 28.2339 5.82884 28.3535 5.85957C29.0402 5.97549 29.6793 6.30207 30.1782 6.80101L37.5427 14.1655C38.1757 14.7984 38.5312 15.5631 38.5312 16.4582ZM37.6875 38.7656C37.6875 40.1636 36.5542 41.2969 35.1562 41.2969H12.8438C11.4458 41.2969 10.3125 40.1636 10.3125 38.7656V9.1875C10.3125 7.78953 11.4458 6.65625 12.8438 6.65625H27.7918C27.9197 6.65625 28.0467 6.66594 28.1717 6.68492C28.4403 6.76716 28.6355 7.01701 28.6355 7.31246V12.8026C28.6355 14.5107 30.0183 15.802 31.7275 15.802H37.032C37.3939 15.802 37.6875 16.0953 37.6875 16.4582V38.7656ZM37.2022 14.9678C37.1463 14.9615 37.0895 14.9582 37.032 14.9582H31.7275C30.4848 14.9582 29.4793 14.0453 29.4793 12.8026V7.31246C29.4793 7.30856 29.4792 7.30466 29.4792 7.30077C29.5142 7.33202 29.5483 7.36432 29.5816 7.39764L36.9461 14.6684C37.0397 14.762 37.1252 14.8621 37.2022 14.9678Z" fill="#C1BFD0"/>
<path d="M17.0256 37.2349C16.5636 37.2349 16.1496 37.1599 15.7836 37.0099C15.4176 36.8599 15.1236 36.6379 14.9016 36.3439C14.6856 36.0499 14.5716 35.6959 14.5596 35.2819H16.1976C16.2216 35.5159 16.3026 35.6959 16.4406 35.8219C16.5786 35.9419 16.7586 36.0019 16.9806 36.0019C17.2086 36.0019 17.3886 35.9509 17.5206 35.8489C17.6526 35.7409 17.7186 35.5939 17.7186 35.4079C17.7186 35.2519 17.6646 35.1229 17.5566 35.0209C17.4546 34.9189 17.3256 34.8349 17.1696 34.7689C17.0196 34.7029 16.8036 34.6279 16.5216 34.5439C16.1136 34.4179 15.7806 34.2919 15.5226 34.1659C15.2646 34.0399 15.0426 33.8539 14.8566 33.6079C14.6706 33.3619 14.5776 33.0409 14.5776 32.6449C14.5776 32.0569 14.7906 31.5979 15.2166 31.2679C15.6426 30.9319 16.1976 30.7639 16.8816 30.7639C17.5776 30.7639 18.1386 30.9319 18.5646 31.2679C18.9906 31.5979 19.2186 32.0599 19.2486 32.6539H17.5836C17.5716 32.4499 17.4966 32.2909 17.3586 32.1769C17.2206 32.0569 17.0436 31.9969 16.8276 31.9969C16.6416 31.9969 16.4916 32.0479 16.3776 32.1499C16.2636 32.2459 16.2066 32.3869 16.2066 32.5729C16.2066 32.7769 16.3026 32.9359 16.4946 33.0499C16.6866 33.1639 16.9866 33.2869 17.3946 33.4189C17.8026 33.5569 18.1326 33.6889 18.3846 33.8149C18.6426 33.9409 18.8646 34.1239 19.0506 34.3639C19.2366 34.6039 19.3296 34.9129 19.3296 35.2909C19.3296 35.6509 19.2366 35.9779 19.0506 36.2719C18.8706 36.5659 18.6066 36.7999 18.2586 36.9739C17.9106 37.1479 17.4996 37.2349 17.0256 37.2349Z" fill="#ADB1E2"/>
<path d="M24.7767 38.2519L23.9667 37.1629C23.7267 37.2109 23.4927 37.2349 23.2647 37.2349C22.6707 37.2349 22.1247 37.0969 21.6267 36.8209C21.1347 36.5449 20.7417 36.1609 20.4477 35.6689C20.1597 35.1709 20.0157 34.6129 20.0157 33.9949C20.0157 33.3769 20.1597 32.8219 20.4477 32.3299C20.7417 31.8379 21.1347 31.4539 21.6267 31.1779C22.1247 30.9019 22.6707 30.7639 23.2647 30.7639C23.8587 30.7639 24.4017 30.9019 24.8937 31.1779C25.3917 31.4539 25.7817 31.8379 26.0637 32.3299C26.3517 32.8219 26.4957 33.3769 26.4957 33.9949C26.4957 34.5349 26.3847 35.0299 26.1627 35.4799C25.9467 35.9239 25.6437 36.2929 25.2537 36.5869L26.6397 38.2519H24.7767ZM21.5907 33.9949C21.5907 34.5529 21.7407 34.9999 22.0407 35.3359C22.3467 35.6659 22.7547 35.8309 23.2647 35.8309C23.7687 35.8309 24.1707 35.6629 24.4707 35.3269C24.7767 34.9909 24.9297 34.5469 24.9297 33.9949C24.9297 33.4369 24.7767 32.9929 24.4707 32.6629C24.1707 32.3269 23.7687 32.1589 23.2647 32.1589C22.7547 32.1589 22.3467 32.3239 22.0407 32.6539C21.7407 32.9839 21.5907 33.4309 21.5907 33.9949Z" fill="#ADB1E2"/>
<path d="M28.9085 35.9839H30.9245V37.1719H27.3695V30.8539H28.9085V35.9839Z" fill="#ADB1E2"/>
<g filter="url(#filter2_f)">
<path fill-rule="evenodd" clip-rule="evenodd" d="M23.21 25.524C23.6747 25.524 29.5821 22.545 30.135 21.1232C30.8806 19.872 29.5587 18.8577 27.1824 18.8577C24.8061 18.8577 22.2753 19.872 21.5297 21.1232C20.3972 22.5381 22.7453 25.524 23.21 25.524ZM25.3204 21.9814C26.2105 21.9814 27.1585 21.6014 27.4378 21.1327C27.7171 20.664 27.2219 20.2841 26.3318 20.2841C25.4417 20.2841 24.4937 20.664 24.2144 21.1327C23.9351 21.6014 24.4303 21.9814 25.3204 21.9814Z" fill="url(#paint0_linear)" fill-opacity="0.3"/>
<path d="M21.1883 25.1864C20.3324 23.9255 19.5822 22.11 20.4506 21.0252C20.7434 20.5338 21.2541 20.0712 21.909 19.6671C19.8009 19.8665 17.7486 20.7871 17.0899 21.8926C15.9574 23.3074 18.3055 26.2934 18.7702 26.2934C18.953 26.2934 19.9782 25.8323 21.1883 25.1864Z" fill="url(#paint1_linear)" fill-opacity="0.3"/>
</g>
<path fill-rule="evenodd" clip-rule="evenodd" d="M22.2826 25.4176C22.679 25.4176 26.2043 20.5911 25.9532 18.2875C25.9532 16.2603 24.3098 14.6169 22.2826 14.6169C20.2554 14.6169 18.612 16.2603 18.612 18.2875C18.3651 20.5798 21.8862 25.4176 22.2826 25.4176ZM22.2821 19.6779C23.0415 19.6779 23.657 19.0623 23.657 18.3029C23.657 17.5436 23.0415 16.928 22.2821 16.928C21.5227 16.928 20.9072 17.5436 20.9072 18.3029C20.9072 19.0623 21.5227 19.6779 22.2821 19.6779Z" fill="#8F94F6"/>
<path fill-rule="evenodd" clip-rule="evenodd" d="M22.2826 25.4176C22.679 25.4176 26.2043 20.5911 25.9532 18.2875C25.9532 16.2603 24.3098 14.6169 22.2826 14.6169C20.2554 14.6169 18.612 16.2603 18.612 18.2875C18.3651 20.5798 21.8862 25.4176 22.2826 25.4176ZM22.2821 19.6779C23.0415 19.6779 23.657 19.0623 23.657 18.3029C23.657 17.5436 23.0415 16.928 22.2821 16.928C21.5227 16.928 20.9072 17.5436 20.9072 18.3029C20.9072 19.0623 21.5227 19.6779 22.2821 19.6779Z" fill="url(#paint2_linear)" fill-opacity="0.2"/>
<path d="M20.3863 24.8706C19.0151 22.8276 17.4523 19.8864 17.6416 18.1287C17.6416 17.3325 17.8421 16.5831 18.1954 15.9283C16.4984 16.2515 15.2155 17.7429 15.2155 19.534C14.9686 21.8263 18.4897 26.6641 18.8861 26.6641C19.0421 26.6641 19.6823 25.9171 20.3863 24.8706Z" fill="#8F94F6"/>
<path d="M20.3863 24.8706C19.0151 22.8276 17.4523 19.8864 17.6416 18.1287C17.6416 17.3325 17.8421 16.5831 18.1954 15.9283C16.4984 16.2515 15.2155 17.7429 15.2155 19.534C14.9686 21.8263 18.4897 26.6641 18.8861 26.6641C19.0421 26.6641 19.6823 25.9171 20.3863 24.8706Z" fill="url(#paint3_linear)" fill-opacity="0.2"/>
<defs>
<filter id="filter0_dd" x="9.46875" y="5.8125" width="29.0625" height="38.3281" filterUnits="userSpaceOnUse" color-interpolation-filters="sRGB">
<feFlood flood-opacity="0" result="BackgroundImageFix"/>
<feColorMatrix in="SourceAlpha" type="matrix" values="0 0 0 0 0 0 0 0 0 0 0 0 0 0 0 0 0 0 127 0"/>
<feMorphology radius="4" operator="erode" in="SourceAlpha" result="effect1_dropShadow"/>
<feOffset dy="1"/>
<feGaussianBlur stdDeviation="0.5"/>
<feColorMatrix type="matrix" values="0 0 0 0 0.027451 0 0 0 0 0.0745098 0 0 0 0 0.152941 0 0 0 0.06 0"/>
<feBlend mode="normal" in2="BackgroundImageFix" result="effect1_dropShadow"/>
<feColorMatrix in="SourceAlpha" type="matrix" values="0 0 0 0 0 0 0 0 0 0 0 0 0 0 0 0 0 0 127 0"/>
<feMorphology radius="4" operator="erode" in="SourceAlpha" result="effect2_dropShadow"/>
<feOffset dy="3"/>
<feGaussianBlur stdDeviation="1.5"/>
<feColorMatrix type="matrix" values="0 0 0 0 0.027451 0 0 0 0 0.0745098 0 0 0 0 0.152941 0 0 0 0.05 0"/>
<feBlend mode="normal" in2="effect1_dropShadow" result="effect2_dropShadow"/>
<feBlend mode="normal" in="SourceGraphic" in2="effect2_dropShadow" result="shape"/>
</filter>
<filter id="filter1_f" x="26.8125" y="5.15625" width="12.5568" height="12.5568" filterUnits="userSpaceOnUse" color-interpolation-filters="sRGB">
<feFlood flood-opacity="0" result="BackgroundImageFix"/>
<feBlend mode="normal" in="SourceGraphic" in2="BackgroundImageFix" result="shape"/>
<feGaussianBlur stdDeviation="0.9375" result="effect1_foregroundBlur"/>
</filter>
<filter id="filter2_f" x="15.4182" y="17.4917" width="16.2905" height="10.1676" filterUnits="userSpaceOnUse" color-interpolation-filters="sRGB">
<feFlood flood-opacity="0" result="BackgroundImageFix"/>
<feBlend mode="normal" in="SourceGraphic" in2="BackgroundImageFix" result="shape"/>
<feGaussianBlur stdDeviation="0.682976" result="effect1_foregroundBlur"/>
</filter>
<linearGradient id="paint0_linear" x1="28.0912" y1="19.9842" x2="21.9256" y2="28.4469" gradientUnits="userSpaceOnUse">
<stop stop-opacity="0"/>
<stop offset="1" stop-color="#393C43"/>
</linearGradient>
<linearGradient id="paint1_linear" x1="28.0912" y1="19.9842" x2="21.9256" y2="28.4469" gradientUnits="userSpaceOnUse">
<stop stop-opacity="0"/>
<stop offset="1" stop-color="#393C43"/>
</linearGradient>
<linearGradient id="paint2_linear" x1="19.0268" y1="14.9153" x2="20.788" y2="26.7788" gradientUnits="userSpaceOnUse">
<stop stop-color="#ADB2DE"/>
<stop offset="1" stop-color="#2C3058"/>
</linearGradient>
<linearGradient id="paint3_linear" x1="19.0268" y1="14.9153" x2="20.788" y2="26.7788" gradientUnits="userSpaceOnUse">
<stop stop-color="#ADB2DE"/>
<stop offset="1" stop-color="#2C3058"/>
</linearGradient>
</defs>
</svg>
