<svg width="48" height="48" viewBox="0 0 48 48" fill="none" xmlns="http://www.w3.org/2000/svg"><g opacity=".2"><path opacity=".8" d="M3.691 41.077c0-.255.207-.462.462-.462h39.692a.462.462 0 110 .923H4.153a.462.462 0 01-.462-.461z" fill="#fff"/><path opacity=".2" d="M16.614 16.615L7.383 26.77v13.846h33.23V12.923L23.999 24l-7.384-7.385z" fill="url(#chart_line_off0_linear)"/><path fill-rule="evenodd" clip-rule="evenodd" d="M41.383 12.411a.923.923 0 01-.256 1.28L24.51 24.768a.923.923 0 01-1.164-.115l-6.7-6.7-8.58 9.437A.923.923 0 016.7 26.148l9.23-10.153a.923.923 0 011.336-.032l6.85 6.85 15.986-10.658a.923.923 0 011.28.256z" fill="#fff"/></g><defs><linearGradient id="chart_line_off0_linear" x1="23.998" y1="40.615" x2="23.998" y2="12.923" gradientUnits="userSpaceOnUse"><stop stop-color="#fff" stop-opacity="0"/><stop offset="1" stop-color="#fff"/></linearGradient></defs></svg>