<svg width="48" height="48" viewBox="0 0 48 48" fill="none" xmlns="http://www.w3.org/2000/svg"><path fill-rule="evenodd" clip-rule="evenodd" d="M28.56 36.827c1.065 0 10.53-12.96 9.856-19.145a9.855 9.855 0 00-9.856-9.856c-5.443 0-9.856 4.412-9.856 9.856-.663 6.155 8.792 19.145 9.856 19.145zm-.001-15.412a3.692 3.692 0 100-7.384 3.692 3.692 0 000 7.384z" fill="currentColor"/><path d="M23.468 35.358c-3.681-5.485-7.878-13.383-7.37-18.103 0-2.138.539-4.15 1.487-5.908-4.556.868-8.001 4.872-8.001 9.682-.663 6.155 8.792 19.145 9.856 19.145.419 0 2.138-2.006 4.028-4.816z" fill="currentColor"/></svg>