<svg width="48" height="48" viewBox="0 0 48 48" fill="none" xmlns="http://www.w3.org/2000/svg">
<path opacity="0.2" d="M7.38281 10.154C7.38281 8.62459 8.62264 7.38477 10.152 7.38477C11.6814 7.38477 12.9213 8.62459 12.9213 10.154V34.154C12.9213 35.6834 11.6814 36.9232 10.152 36.9232C8.62264 36.9232 7.38281 35.6834 7.38281 34.154V10.154Z" fill="#A7AFB7"/>
<path opacity="0.2" d="M16.6172 10.154C16.6172 8.62459 17.857 7.38477 19.3864 7.38477C20.9158 7.38477 22.1556 8.62459 22.1556 10.154V34.154C22.1556 35.6834 20.9158 36.9232 19.3864 36.9232C17.857 36.9232 16.6172 35.6834 16.6172 34.154V10.154Z" fill="#A7AFB7"/>
<path opacity="0.2" d="M25.8477 10.154C25.8477 8.62459 27.0875 7.38477 28.6169 7.38477C30.1463 7.38477 31.3861 8.62459 31.3861 10.154V34.154C31.3861 35.6834 30.1463 36.9232 28.6169 36.9232C27.0875 36.9232 25.8477 35.6834 25.8477 34.154V10.154Z" fill="#A7AFB7"/>
<path opacity="0.2" d="M35.0781 10.154C35.0781 8.62459 36.318 7.38477 37.8474 7.38477C39.3768 7.38477 40.6166 8.62459 40.6166 10.154V34.154C40.6166 35.6834 39.3768 36.9232 37.8474 36.9232C36.318 36.9232 35.0781 35.6834 35.0781 34.154V10.154Z" fill="#A7AFB7"/>
<path opacity="0.8" d="M3.69226 41.0769C3.69226 40.822 3.8989 40.6154 4.1538 40.6154H43.8461C44.101 40.6154 44.3076 40.822 44.3076 41.0769C44.3076 41.3318 44.101 41.5384 43.8461 41.5384H4.1538C3.8989 41.5384 3.69226 41.3318 3.69226 41.0769Z" fill="#A7AFB7"/>
<path d="M7.38281 24H12.9213V34.1538C12.9213 35.6832 11.6814 36.9231 10.152 36.9231C8.62264 36.9231 7.38281 35.6832 7.38281 34.1538V24Z" fill="#A7AFB7"/>
<path d="M25.8477 20.3076H31.3861V34.1538C31.3861 35.6832 30.1463 36.923 28.6169 36.923C27.0875 36.923 25.8477 35.6832 25.8477 34.1538V20.3076Z" fill="#A7AFB7"/>
<path d="M22.1524 34.1536C22.1524 35.683 20.9125 36.9228 19.3831 36.9228C17.8537 36.9228 16.6139 35.683 16.6139 34.1536L16.6139 27.6921L22.1524 27.6921L22.1524 34.1536Z" fill="#A7AFB7"/>
<path d="M35.0781 29.5381H40.6166V34.1535C40.6166 35.6829 39.3768 36.9227 37.8474 36.9227C36.318 36.9227 35.0781 35.6829 35.0781 34.1535V29.5381Z" fill="#A7AFB7"/>
</svg>
