<svg width="48" height="48" viewBox="0 0 48 48" fill="none" xmlns="http://www.w3.org/2000/svg">
<path opacity="0.4" d="M22.1694 15.042V18.7087L9.33602 18.7087C8.3235 18.7087 7.50269 17.8878 7.50269 16.8753C7.50269 15.8628 8.3235 15.042 9.33602 15.042L22.1694 15.042Z" fill="#6899EF"/>
<path d="M25.8308 15.042L25.8308 18.7087L38.6641 18.7087C39.6767 18.7087 40.4975 17.8878 40.4975 16.8753C40.4975 15.8628 39.6767 15.042 38.6641 15.042L25.8308 15.042Z" fill="#6899EF"/>
<path opacity="0.4" d="M22.1694 7.70801V11.3747L14.836 11.3747C13.8235 11.3747 13.0027 10.5539 13.0027 9.54134C13.0027 8.52882 13.8235 7.70801 14.836 7.70801L22.1694 7.70801Z" fill="#6899EF"/>
<path d="M25.8308 7.70801L25.8308 11.3747L33.1641 11.3747C34.1767 11.3747 34.9975 10.5539 34.9975 9.54134C34.9975 8.52882 34.1767 7.70801 33.1641 7.70801L25.8308 7.70801Z" fill="#6899EF"/>
<path opacity="0.4" d="M22.1694 22.374V26.0407L3.83602 26.0407C2.82349 26.0407 2.00269 25.2199 2.00269 24.2074C2.00269 23.1948 2.8235 22.374 3.83602 22.374L22.1694 22.374Z" fill="#6899EF"/>
<path d="M25.8308 22.374L25.8308 26.0407L44.1641 26.0407C45.1767 26.0407 45.9975 25.2199 45.9975 24.2074C45.9975 23.1948 45.1767 22.374 44.1641 22.374L25.8308 22.374Z" fill="#6899EF"/>
<path opacity="0.4" d="M22.1666 29.708V33.3747L11.1666 33.3747C10.1541 33.3747 9.33325 32.5539 9.33325 31.5413C9.33325 30.5288 10.1541 29.708 11.1666 29.708L22.1666 29.708Z" fill="#6899EF"/>
<path d="M25.8308 33.375L25.8308 29.7083L36.8308 29.7083C37.8433 29.7083 38.6641 30.5291 38.6641 31.5416C38.6641 32.5542 37.8433 33.375 36.8308 33.375L25.8308 33.375Z" fill="#6899EF"/>
<path opacity="0.8" d="M3.83081 39.3333C3.83081 39.0802 4.03601 38.875 4.28914 38.875H43.7058C43.9589 38.875 44.1641 39.0802 44.1641 39.3333C44.1641 39.5865 43.9589 39.7917 43.7058 39.7917H4.28914C4.03601 39.7917 3.83081 39.5865 3.83081 39.3333Z" fill="#6899EF"/>
</svg>
