<svg width="48" height="48" viewBox="0 0 48 48" fill="none" xmlns="http://www.w3.org/2000/svg"><path clip-rule="evenodd" d="M38.815 17.717a3.464 3.464 0 014.902 0 3.464 3.464 0 010 4.902L27.174 39.162 20.434 41l1.838-6.74 16.543-16.543z" stroke="currentColor" stroke-width="3.898" stroke-linecap="round" stroke-linejoin="round"/><path d="M15.138 40.37C8.252 38.164 3.266 31.71 3.266 24.09 3.266 14.654 10.918 7 20.354 7c5.811 0 10.944 2.9 14.03 7.328" stroke="currentColor" stroke-width="3.898" stroke-linecap="round" stroke-linejoin="round"/><path opacity=".3" fill-rule="evenodd" clip-rule="evenodd" d="M16.536 33.148a9.814 9.814 0 01-5.974-9.044c0-5.444 4.431-9.874 9.878-9.874 3.609 0 6.85 1.91 8.598 5.018L18.154 30.136a5.81 5.81 0 00-1.504 2.592l-.114.42z" fill="currentColor"/></svg>