<svg width="48" height="48" viewBox="0 0 48 48" fill="none" xmlns="http://www.w3.org/2000/svg"><path fill-rule="evenodd" clip-rule="evenodd" d="M3.735 5.333a1.6 1.6 0 011.6-1.6h32a1.6 1.6 0 011.6 1.6v6.222a1.6 1.6 0 11-3.2 0V6.933h-28.8v4.622a1.6 1.6 0 11-3.2 0V5.333zm8.673 10.03a1.6 1.6 0 010 2.262l-3.3 3.3h7.816a1.6 1.6 0 010 3.2H9.107l3.3 3.301a1.6 1.6 0 01-2.262 2.263l-6.032-6.032a1.6 1.6 0 010-2.263l6.032-6.032a1.6 1.6 0 012.263 0zm9.698 2.241a1.6 1.6 0 011.6-1.6h18.961a1.6 1.6 0 011.6 1.6v9.505a1.6 1.6 0 01-1.6 1.6h-18.96a1.6 1.6 0 01-1.6-1.6v-9.505zm3.2 1.6v6.305h15.761v-6.305h-15.76zM5.335 31.66a1.6 1.6 0 011.6 1.6v7.806h28.8V33.26a1.6 1.6 0 013.2 0v9.406a1.6 1.6 0 01-1.6 1.6h-32a1.6 1.6 0 01-1.6-1.6V33.26a1.6 1.6 0 011.6-1.6z" fill="currentColor"/></svg>