<svg width="48" height="48" viewBox="0 0 48 48" fill="none" xmlns="http://www.w3.org/2000/svg">
<path d="M34 21.5138C32.9901 21.5138 32.1714 22.3325 32.1714 23.3424V29.6838H25.83C24.8193 29.6838 24 30.5031 24 31.5138C24 32.5245 24.8193 33.3438 25.83 33.3438H32.1714V39.6851C32.1714 40.695 32.9901 41.5138 34 41.5138C35.01 41.5138 35.8287 40.695 35.8287 39.6851V33.3438H42.17C43.1807 33.3438 44 32.5245 44 31.5138C44 30.5031 43.1807 29.6838 42.17 29.6838H35.8287V23.3424C35.8287 22.3325 35.01 21.5138 34 21.5138Z" fill="currentColor"/>
<path d="M24.0001 3.99996C20.9358 3.99442 17.9113 4.69304 15.1599 6.0419C12.4086 7.39076 10.0039 9.3538 8.1316 11.7795C6.25929 14.2052 4.96938 17.0286 4.36144 20.0319C3.7535 23.0353 3.84379 26.1381 4.62533 29.101C5.40687 32.0639 6.85877 34.8076 8.86896 37.1203C10.8791 39.433 13.3939 41.2529 16.219 42.4395C19.0442 43.6261 22.1042 44.1477 25.1629 43.964C26.561 43.88 27.9418 43.6497 29.2832 43.2796C30.4081 42.9692 30.9024 41.7018 30.4017 40.6477C29.9493 39.6951 28.8418 39.266 27.8193 39.5243C26.5737 39.8389 25.291 39.9995 24.0001 40C19.9491 39.9723 16.0594 38.409 13.1159 35.6256C10.1725 32.8422 8.39446 29.0459 8.14065 25.0028C7.88685 20.9596 9.17616 16.9707 11.7484 13.8411C14.3207 10.7114 17.9843 8.67399 22.0001 8.13996V21.9998V23.5C22.0001 24.8807 23.1193 26 24.5001 26H27.3773C28.4819 26 29.3774 25.1045 29.3774 23.9999C29.3774 22.8953 28.482 21.9998 27.3773 21.9998L26.0001 21.9998V8.13996C29.5201 8.58634 32.7919 10.1901 35.3009 12.6991C36.1532 13.5514 36.9011 14.4918 37.5346 15.5C38.7659 17.4597 39.5653 19.6757 39.8601 22C38.8591 22 38.0476 22.8114 38.0476 23.8124V24.1875C38.0476 25.1885 38.8591 26 39.8601 26H41.8441C43.1279 26 44.2205 25.0258 44.204 23.7421C44.1827 22.0769 43.9533 20.4104 43.5133 18.782C42.3576 14.5047 39.8142 10.7322 36.2825 8.05679C32.7507 5.38135 28.4305 3.95441 24.0001 3.99996Z" fill="currentColor"/>
</svg>
