<svg width="48" height="48" viewBox="0 0 48 48" fill="none" xmlns="http://www.w3.org/2000/svg"><path fill-rule="evenodd" clip-rule="evenodd" d="M8 8a2 2 0 00-2 2v20a2 2 0 002 2h2a2 2 0 110 4H8a6 6 0 01-6-6V10a6 6 0 016-6h32a6 6 0 016 6v20a6 6 0 01-6 6h-2a2 2 0 110-4h2a2 2 0 002-2V10a2 2 0 00-2-2H8z" fill="currentColor"/><path fill-rule="evenodd" clip-rule="evenodd" d="M24 28a2 2 0 011.537.72l10 12A2 2 0 0134 44H14a2 2 0 01-1.536-3.28l10-12A2 2 0 0124 28zm-5.73 12h11.46L24 33.124 18.27 40z" fill="currentColor"/></svg>