<svg width="48" height="48" viewBox="0 0 48 48" fill="none" xmlns="http://www.w3.org/2000/svg"><path d="M22.867 7.869a1.6 1.6 0 012.263 0l4.5 4.5a1.6 1.6 0 01-2.263 2.262l-1.769-1.768V22.4h9.538l-1.769-1.769a1.6 1.6 0 112.263-2.262l4.5 4.5a1.6 1.6 0 010 2.262l-4.5 4.5a1.6 1.6 0 01-2.263-2.262l1.769-1.77h-9.538v9.538l1.77-1.769a1.6 1.6 0 012.262 2.263l-4.5 4.5a1.6 1.6 0 01-2.263 0l-4.5-4.5a1.6 1.6 0 112.263-2.263l1.768 1.77V25.6h-9.537l1.769 1.768a1.6 1.6 0 01-2.263 2.263l-4.5-4.5a1.6 1.6 0 010-2.262l4.5-4.5a1.6 1.6 0 012.263 2.262L12.86 22.4h9.537v-9.537L20.63 14.63a1.6 1.6 0 01-2.263-2.263l4.5-4.5z" fill="currentColor"/></svg>