<svg width="48" height="48" viewBox="0 0 48 48" fill="none" xmlns="http://www.w3.org/2000/svg"><path fill-rule="evenodd" clip-rule="evenodd" d="M10 25.191a4.034 4.034 0 014.034-4.034h19.932A4.034 4.034 0 0138 25.19v12.607a4.034 4.034 0 01-4.034 4.034H14.034A4.034 4.034 0 0110 37.798V25.19z" fill="currentColor"/><path fill-rule="evenodd" clip-rule="evenodd" d="M24.01 9.895a5.696 5.696 0 00-5.697 5.696v5.998a1.8 1.8 0 11-3.602 0V15.59a9.298 9.298 0 1118.596 0v5.998a1.801 1.801 0 01-3.602 0V15.59a5.696 5.696 0 00-5.696-5.696z" fill="currentColor"/></svg>