<svg width="48" height="48" viewBox="0 0 48 48" fill="none" xmlns="http://www.w3.org/2000/svg">
<path fill-rule="evenodd" clip-rule="evenodd" d="M12.9345 11.373C12.0721 11.373 11.373 12.0721 11.373 12.9345V35.0655C11.373 35.9279 12.0721 36.627 12.9345 36.627H35.0655C35.9279 36.627 36.627 35.9279 36.627 35.0655V12.9345C36.627 12.0721 35.9279 11.373 35.0655 11.373H12.9345ZM8.17297 12.9345C8.17297 10.3048 10.3048 8.17297 12.9345 8.17297H35.0655C37.6952 8.17297 39.827 10.3048 39.827 12.9345V35.0655C39.827 37.6952 37.6952 39.827 35.0655 39.827H12.9345C10.3048 39.827 8.17297 37.6952 8.17297 35.0655V12.9345Z" fill="#366ACB"/>
<path fill-rule="evenodd" clip-rule="evenodd" d="M14.5128 17.6763C14.5128 15.9302 15.9283 14.5148 17.6744 14.5148C19.4205 14.5148 20.8359 15.9302 20.8359 17.6763C20.8359 19.4224 19.4205 20.8379 17.6744 20.8379C15.9283 20.8379 14.5128 19.4224 14.5128 17.6763Z" fill="#366ACB"/>
<path opacity="0.4" d="M29.516 19.8874C29.2484 19.5323 28.8436 19.3063 28.4009 19.2648C27.9582 19.2234 27.5184 19.3703 27.1896 19.6696L15.0297 30.735C14.5468 31.1745 14.3838 31.8656 14.6194 32.4746C14.855 33.0835 15.4407 33.485 16.0937 33.485H31.9015C32.7745 33.485 33.4822 32.7772 33.4822 31.9042V25.6799C33.4822 25.3366 33.3705 25.0027 33.1639 24.7285L29.516 19.8874Z" fill="#366ACB"/>
</svg>
