<svg width="48" height="48" viewBox="0 0 48 48" fill="none" xmlns="http://www.w3.org/2000/svg">
<path fill-rule="evenodd" clip-rule="evenodd" d="M7.42144 10.502C5.89535 10.502 4.6582 11.7391 4.6582 13.2652V35.0684C4.6582 36.5945 5.89535 37.8316 7.42144 37.8316H40.5803C42.1064 37.8316 43.3435 36.5945 43.3435 35.0684V13.2652C43.3435 11.7391 42.1064 10.502 40.5803 10.502H7.42144Z" fill="#343C54"/>
<path fill-rule="evenodd" clip-rule="evenodd" d="M7.42144 10.502C5.89535 10.502 4.6582 11.7391 4.6582 13.2652V35.0684C4.6582 36.5945 5.89535 37.8316 7.42144 37.8316H40.5803C42.1064 37.8316 43.3435 36.5945 43.3435 35.0684V13.2652C43.3435 11.7391 42.1064 10.502 40.5803 10.502H7.42144Z" fill="url(#paint0_linear)" fill-opacity="0.4"/>
<path fill-rule="evenodd" clip-rule="evenodd" d="M7.42007 10.9623C6.14832 10.9623 5.11737 11.9933 5.11737 13.265V35.0682C5.11737 36.34 6.14832 37.3709 7.42007 37.3709H40.5789C41.8507 37.3709 42.8816 36.34 42.8816 35.0682V13.265C42.8816 11.9933 41.8507 10.9623 40.5789 10.9623H7.42007ZM4.19629 13.265C4.19629 11.4846 5.63962 10.0413 7.42007 10.0413H40.5789C42.3594 10.0413 43.8027 11.4846 43.8027 13.265V35.0682C43.8027 36.8487 42.3594 38.292 40.5789 38.292H7.42007C5.63962 38.292 4.19629 36.8487 4.19629 35.0682V13.265Z" fill="#596282"/>
<g filter="url(#filter0_f)">
<path d="M25.5517 22.2242H27.0236L26.0424 20.2617H28.0048V26.641H26.7951C25.9829 26.641 25.3244 27.2995 25.3244 28.1117H19.1736C18.6315 28.1117 18.1924 27.6726 18.1924 27.1304L18.1973 21.243C18.1973 20.7008 18.6315 20.2617 19.1736 20.2617H19.6643L20.6455 22.2242H22.1174L21.1361 20.2617H22.1174L23.0986 22.2242H24.5705L23.5892 20.2617H24.5705L25.5517 22.2242Z" fill="black" fill-opacity="0.15"/>
<path d="M29.3657 25.2405C29.7588 25.2405 30.0775 25.5592 30.0775 25.9523V27.5576H31.6824C32.0755 27.5576 32.3941 27.8763 32.3941 28.2694C32.3941 28.6625 32.0755 28.9812 31.6824 28.9812H30.0775V30.5858C30.0775 30.9789 29.7588 31.2976 29.3657 31.2976C28.9726 31.2976 28.6539 30.9789 28.6539 30.5858V28.9812H27.0488C26.6557 28.9812 26.337 28.6625 26.337 28.2694C26.337 27.8763 26.6557 27.5576 27.0488 27.5576H28.6539V25.9523C28.6539 25.5592 28.9726 25.2405 29.3657 25.2405Z" fill="black" fill-opacity="0.15"/>
</g>
<path d="M24.8613 21.5047H26.3332L25.3519 19.5422H27.3144V25.9216H26.1047C25.2924 25.9216 24.634 26.58 24.634 27.3922H18.4832C17.9411 27.3922 17.502 26.9531 17.502 26.411L17.5069 20.5235C17.5069 19.9813 17.9411 19.5422 18.4832 19.5422H18.9738L19.9551 21.5047H21.4269L20.4457 19.5422H21.4269L22.4082 21.5047H23.8801L22.8988 19.5422H23.8801L24.8613 21.5047Z" fill="#7B87AA"/>
<path d="M28.6753 24.521C29.0684 24.521 29.3871 24.8397 29.3871 25.2328V26.8381H30.9919C31.385 26.8381 31.7037 27.1568 31.7037 27.5499C31.7037 27.943 31.385 28.2617 30.9919 28.2617H29.3871V29.8663C29.3871 30.2594 29.0684 30.5781 28.6753 30.5781C28.2822 30.5781 27.9635 30.2594 27.9635 29.8663V28.2617H26.3584C25.9653 28.2617 25.6466 27.943 25.6466 27.5499C25.6466 27.1568 25.9653 26.8381 26.3584 26.8381H27.9635V25.2328C27.9635 24.8397 28.2822 24.521 28.6753 24.521Z" fill="#7B87AA"/>
<defs>
<filter id="filter0_f" x="15.6924" y="17.7617" width="19.2018" height="16.0358" filterUnits="userSpaceOnUse" color-interpolation-filters="sRGB">
<feFlood flood-opacity="0" result="BackgroundImageFix"/>
<feBlend mode="normal" in="SourceGraphic" in2="BackgroundImageFix" result="shape"/>
<feGaussianBlur stdDeviation="1.25" result="effect1_foregroundBlur"/>
</filter>
<linearGradient id="paint0_linear" x1="4.6582" y1="12.502" x2="32.4109" y2="44.4596" gradientUnits="userSpaceOnUse">
<stop stop-color="#465467"/>
<stop offset="1" stop-color="#797B9E"/>
</linearGradient>
</defs>
</svg>
