<svg width="48" height="48" viewBox="0 0 48 48" fill="none" xmlns="http://www.w3.org/2000/svg"><path fill-rule="evenodd" clip-rule="evenodd" d="M40.245 18.251l-5.366-5.042a1.7 1.7 0 01-.043-.042m5.409 5.084h-6.663a1.916 1.916 0 100 3.832h11.49M7.761 29.75h6.657a1.916 1.916 0 100-3.833H2.947c-.039 0-.078 0-.117.002a1.916 1.916 0 00-1.827 1.914V39.33a1.916 1.916 0 003.832 0v-7.07l5.644 5.303a19.163 19.163 0 0031.597-7.175 1.916 1.916 0 10-3.613-1.279 15.33 15.33 0 01-25.338 5.681l-5.364-5.04z" fill="currentColor"/><path d="M20.61 9.052a15.33 15.33 0 0114.226 4.115l5.409 5.084h-6.663a1.916 1.916 0 100 3.832h11.49a1.91 1.91 0 001.407-.604 1.91 1.91 0 00.517-1.411V8.67a1.916 1.916 0 00-3.833 0v7.065l-5.638-5.299a19.162 19.162 0 00-31.596 7.176A1.916 1.916 0 009.54 18.89a15.33 15.33 0 0111.07-9.838z" fill="currentColor"/></svg>