<svg width="48" height="48" viewBox="0 0 48 48" fill="none" xmlns="http://www.w3.org/2000/svg"><path fill-rule="evenodd" clip-rule="evenodd" d="M36 9H12a3 3 0 00-3 3v24a3 3 0 003 3h24a3 3 0 003-3V12a3 3 0 00-3-3zM12 6a6 6 0 00-6 6v24a6 6 0 006 6h24a6 6 0 006-6V12a6 6 0 00-6-6H12z" fill="currentColor"/><path d="M33.388 12.844L12.844 33.388c.112.43.331.818.637 1.125l.007.006c.306.306.693.525 1.125.637l20.543-20.543a2.503 2.503 0 00-1.768-1.77zm-9.538-.094l-11.1 11.1v3.537L27.387 12.75H23.85zm-8.6 0a2.507 2.507 0 00-2.5 2.5v2.506l5.006-5.006H15.25zm17.5 22.5a2.49 2.49 0 001.763-.731 2.495 2.495 0 00.737-1.769v-2.506l-5.006 5.006h2.506zm-12.137 0h3.537l11.1-11.1v-3.537L20.613 35.25z" fill="currentColor"/></svg>