<svg width="48" height="48" viewBox="0 0 48 48" fill="none" xmlns="http://www.w3.org/2000/svg"><g opacity=".2"><path opacity=".1" d="M25.848 17.354c0-1.551 0-2.327.302-2.92.265-.52.689-.944 1.21-1.21.592-.301 1.367-.301 2.918-.301h2.216c1.55 0 2.326 0 2.919.302.52.265.944.689 1.21 1.21.302.592.302 1.368.302 2.919v15.138c0 1.551 0 2.327-.302 2.919a2.77 2.77 0 01-1.21 1.21c-.593.302-1.368.302-2.92.302h-2.215c-1.55 0-2.326 0-2.918-.302a2.769 2.769 0 01-1.21-1.21c-.302-.593-.302-1.368-.302-2.919V17.354zm-3.697 15.138c0 1.551 0 2.327-.302 2.92-.265.52-.689.944-1.21 1.21-.592.301-1.368.301-2.919.301h-2.215c-1.55 0-2.326 0-2.919-.302a2.77 2.77 0 01-1.21-1.21c-.302-.592-.302-1.368-.302-2.919V11.817c0-1.551 0-2.327.302-2.92a2.77 2.77 0 011.21-1.21c.593-.301 1.368-.301 2.919-.301h2.215c1.551 0 2.327 0 2.92.302.52.265.944.689 1.21 1.21.301.592.301 1.368.301 2.918v20.678z" fill="#fff"/><path opacity=".8" d="M3.691 41.077c0-.255.207-.462.462-.462h39.692a.462.462 0 110 .923H4.153a.462.462 0 01-.462-.461z" fill="#fff"/><path d="M11.078 22.893c0-1.551 0-2.327.302-2.92a2.78 2.78 0 011.21-1.21c.592-.301 1.368-.301 2.919-.301h2.215c1.551 0 2.327 0 2.919.302.521.265.945.689 1.21 1.21.302.592.302 1.368.302 2.919v9.6c0 1.55 0 2.326-.302 2.918a2.764 2.764 0 01-1.21 1.21c-.592.302-1.368.302-2.919.302H15.51c-1.551 0-2.327 0-2.919-.301a2.768 2.768 0 01-1.21-1.21c-.302-.593-.302-1.368-.302-2.92v-9.6z" fill="url(#chart_stacked_bar_off0_linear)"/><path d="M36.92 32.492c0 1.55 0 2.326-.301 2.919-.266.52-.69.944-1.21 1.21-.593.302-1.368.302-2.92.302h-2.214c-1.551 0-2.327 0-2.92-.302a2.769 2.769 0 01-1.21-1.21c-.301-.593-.301-1.368-.301-2.92v-2.215c0-1.55 0-2.326.302-2.918a2.77 2.77 0 011.21-1.21c.592-.302 1.368-.302 2.918-.302h2.216c1.55 0 2.326 0 2.919.302.52.265.944.689 1.21 1.21.302.592.302 1.368.302 2.918v2.216z" fill="url(#chart_stacked_bar_off1_linear)"/></g><defs><linearGradient id="chart_stacked_bar_off0_linear" x1="11.078" y1="18.462" x2="14.751" y2="38.295" gradientUnits="userSpaceOnUse"><stop stop-color="#fff" stop-opacity=".6"/><stop offset="1" stop-color="#fff"/></linearGradient><linearGradient id="chart_stacked_bar_off1_linear" x1="36.922" y1="36.923" x2="35.571" y2="24.765" gradientUnits="userSpaceOnUse"><stop stop-color="#fff" stop-opacity=".6"/><stop offset="1" stop-color="#fff"/></linearGradient></defs></svg>