<svg width="48" height="48" viewBox="0 0 48 48" fill="none" xmlns="http://www.w3.org/2000/svg">
<path d="M38 13H32V11C32 9.4087 31.3679 7.88258 30.2426 6.75736C29.1174 5.63214 27.5913 5 26 5H22C20.4087 5 18.8826 5.63214 17.7574 6.75736C16.6321 7.88258 16 9.4087 16 11V13H10C8.4087 13 6.88258 13.6321 5.75736 14.7574C4.63214 15.8826 4 17.4087 4 19V37C4 38.5913 4.63214 40.1174 5.75736 41.2426C6.88258 42.3679 8.4087 43 10 43H38C39.5913 43 41.1174 42.3679 42.2426 41.2426C43.3679 40.1174 44 38.5913 44 37V19C44 17.4087 43.3679 15.8826 42.2426 14.7574C41.1174 13.6321 39.5913 13 38 13ZM20 11C20 10.4696 20.2107 9.96086 20.5858 9.58579C20.9609 9.21071 21.4696 9 22 9H26C26.5304 9 27.0391 9.21071 27.4142 9.58579C27.7893 9.96086 28 10.4696 28 11V13H20V11ZM40 37C40 37.5304 39.7893 38.0391 39.4142 38.4142C39.0391 38.7893 38.5304 39 38 39H10C9.46957 39 8.96086 38.7893 8.58579 38.4142C8.21071 38.0391 8 37.5304 8 37V26C13.0925 28.0203 18.5214 29.0586 24 29.06C29.4784 29.0566 34.9069 28.0184 40 26V37ZM40 21.62C34.9568 23.8356 29.5084 24.9796 24 24.9796C18.4916 24.9796 13.0432 23.8356 8 21.62V19C8 18.4696 8.21071 17.9609 8.58579 17.5858C8.96086 17.2107 9.46957 17 10 17H38C38.5304 17 39.0391 17.2107 39.4142 17.5858C39.7893 17.9609 40 18.4696 40 19V21.62Z" fill="currentColor"/>
</svg>
