<svg width="48" height="48" viewBox="0 0 48 48" fill="none" xmlns="http://www.w3.org/2000/svg"><path fill-rule="evenodd" clip-rule="evenodd" d="M33 7.5a4.5 4.5 0 014.5 4.5v24a4.5 4.5 0 01-4.5 4.5H15a4.5 4.5 0 01-4.5-4.5V12A4.5 4.5 0 0115 7.5h18zm1.5 4.5a1.5 1.5 0 00-1.5-1.5H15a1.5 1.5 0 00-1.5 1.5v24a1.5 1.5 0 001.5 1.5h18a1.5 1.5 0 001.5-1.5V12z" fill="#CACFDF"/><path fill-rule="evenodd" clip-rule="evenodd" d="M28.947 14.415c.64.505.75 1.434.245 2.074l-5.252 6.658a1.477 1.477 0 01-2.19.144l-2.811-2.738a1.477 1.477 0 012.06-2.116l1.637 1.594 4.237-5.371a1.477 1.477 0 012.074-.245z" fill="#A4A9B9"/><rect x="31.383" y="26.77" width="3.692" height="14.769" rx=".5" transform="rotate(90 31.383 26.77)" fill="#A4A9B9"/><rect x="31.383" y="32.308" width="1.846" height="14.769" rx=".3" transform="rotate(90 31.383 32.308)" fill="#A4A9B9"/></svg>