<svg width="48" height="48" viewBox="0 0 48 48" fill="none" xmlns="http://www.w3.org/2000/svg"><g opacity=".8"><path d="M4.152 7.846a.462.462 0 01.923 0v6.462a.462.462 0 11-.923 0V7.846zm38.77.001a.462.462 0 11.923 0V18a.462.462 0 01-.923 0V7.847zm0 12.923a.462.462 0 11.923 0v3.692a.462.462 0 01-.923 0v-3.693zm0 6.461a.461.461 0 11.923 0v12.923a.462.462 0 01-.923 0V27.231zM4.152 17.077a.462.462 0 01.923 0v12a.462.462 0 11-.923 0v-12zm24 0a.462.462 0 01.923 0V32.77a.462.462 0 11-.923 0V17.078zm-24 14.769a.462.462 0 01.923 0v8.308a.462.462 0 01-.923 0v-8.308z" fill="#fff"/><path opacity=".6" d="M4.152 7.385c8.772 0 14.307 9.65 24.01 9.65v7.384c-9.672 0-15.207-9.65-24.01-9.65V7.385z" fill="url(#chart_sankey_diagram_on0_linear)"/><path opacity=".6" d="M4.613 31.57c8.772 0 14.307-7.13 24.01-7.13v8.62c-9.672 0-15.207 7.13-24.01 7.13v-8.62z" fill="url(#chart_sankey_diagram_on1_linear)"/><path opacity=".6" d="M28.613 17.051c5.177 0 5.177-9.215 14.777-9.215v7.384c-9.672 0-9.6 9.216-14.777 9.216V17.05z" fill="url(#chart_sankey_diagram_on2_linear)"/><path opacity=".6" d="M28.613 27.437c10.613 0 8.748-6.932 14.777-6.932v4.027c-5.948 0-4.204 8.704-14.777 8.46v-5.555z" fill="url(#chart_sankey_diagram_on3_linear)"/><path opacity=".6" d="M28.613 24.374c5.086 0 8.748-9.19 14.777-9.19v2.984c-6.069 0-9.617 9.19-14.777 9.19v-2.984z" fill="url(#chart_sankey_diagram_on4_linear)"/><path opacity=".6" d="M4.613 16.764c12.541 0 17.46 10.975 38.818 10.975v12.517c-21.154 0-26.342-10.976-38.818-10.976V16.764z" fill="url(#chart_sankey_diagram_on5_linear)"/></g><defs><linearGradient id="chart_sankey_diagram_on0_linear" x1="4.83" y1="7.666" x2="5.105" y2="15.551" gradientUnits="userSpaceOnUse"><stop stop-color="#fff" stop-opacity=".6"/><stop offset="1" stop-color="#fff"/></linearGradient><linearGradient id="chart_sankey_diagram_on1_linear" x1="5.291" y1="31.967" x2="5.665" y2="41.166" gradientUnits="userSpaceOnUse"><stop stop-color="#fff" stop-opacity=".6"/><stop offset="1" stop-color="#fff"/></linearGradient><linearGradient id="chart_sankey_diagram_on2_linear" x1="28.613" y1="24.436" x2="35.736" y2="27.13" gradientUnits="userSpaceOnUse"><stop stop-color="#fff" stop-opacity=".6"/><stop offset="1" stop-color="#fff"/></linearGradient><linearGradient id="chart_sankey_diagram_on3_linear" x1="29.291" y1="27.648" x2="29.446" y2="33.583" gradientUnits="userSpaceOnUse"><stop stop-color="#fff" stop-opacity=".6"/><stop offset="1" stop-color="#fff"/></linearGradient><linearGradient id="chart_sankey_diagram_on4_linear" x1="29.291" y1="19.021" x2="29.336" y2="22.211" gradientUnits="userSpaceOnUse"><stop stop-color="#fff" stop-opacity=".6"/><stop offset="1" stop-color="#fff"/></linearGradient><linearGradient id="chart_sankey_diagram_on5_linear" x1="5.291" y1="17.092" x2="6.078" y2="30.427" gradientUnits="userSpaceOnUse"><stop stop-color="#fff" stop-opacity=".6"/><stop offset="1" stop-color="#fff"/></linearGradient></defs></svg>