<svg width="48" height="48" viewBox="0 0 48 48" fill="none" xmlns="http://www.w3.org/2000/svg"><rect x="3.15" y="9.15" width="41.7" height="29.7" rx="1.05" fill="#404964" stroke="#495169" stroke-width=".3"/><rect x="6.902" y="12.9" width="16.8" height="22.2" rx=".3" fill="#4D5670" stroke="#575F7A" stroke-width=".6"/><path fill-rule="evenodd" clip-rule="evenodd" d="M13.8 21v5.7h4.8V21h-4.8zM12 21v5.7H7.2v1.5h11.4v6.6h1.5v-6.6h3.3v-1.5h-3.3V21h3.3v-1.5h-3.3v-6.3h-1.5v6.3h-4.8v-6.3H12v6.3H7.2V21H12z" fill="#454E69"/><path d="M17.698 23.768a.639.639 0 00.54-.306.609.609 0 00.084-.312.623.623 0 00-.936-.54.639.639 0 00-.306.54c0 .172.06.318.18.438s.266.18.438.18zm0-2.364c.32 0 .614.078.882.234.264.156.474.366.63.63.156.268.234.562.234.882 0 .244-.06.524-.18.84a6.028 6.028 0 01-.432.87 11.477 11.477 0 01-.954 1.326l-.18.21-.18-.21a11.477 11.477 0 01-.954-1.326 6.028 6.028 0 01-.432-.87c-.12-.316-.18-.596-.18-.84 0-.32.078-.614.234-.882.156-.264.366-.474.63-.63.268-.156.562-.234.882-.234z" fill="#606986"/><rect x="24.752" y="12.75" width="7.8" height="6.9" rx=".45" fill="#49536E" stroke="#535D7D" stroke-width=".3"/><rect x="33.451" y="12.75" width="7.8" height="6.9" rx=".45" fill="#49536E" stroke="#535D7D" stroke-width=".3"/><rect x="24.752" y="20.55" width="16.5" height="6.9" rx=".45" fill="#49536E" stroke="#535D7D" stroke-width=".3"/><rect x="24.752" y="28.35" width="16.5" height="6.9" rx=".45" fill="#49536E" stroke="#535D7D" stroke-width=".3"/><rect x="40" y="33.016" width="9" height="1.03" rx=".289" transform="rotate(-180 40 33.016)" fill="#525A75"/><rect x="40" y="30.956" width="5.4" height="1.03" rx=".289" transform="rotate(-180 40 30.956)" fill="#525A75"/><rect x="40" y="25.502" width="9" height="1.03" rx=".289" transform="rotate(-180 40 25.502)" fill="#525A75"/><rect x="40" y="23.441" width="5.4" height="1.03" rx=".289" transform="rotate(-180 40 23.441)" fill="#525A75"/></svg>