<svg width="48" height="48" viewBox="0 0 48 48" fill="none" xmlns="http://www.w3.org/2000/svg"><g opacity=".2"><path opacity=".8" d="M13.492 21.152l.263-1.98c.535.345 1.15.545 1.785.58.299.014.594-.077.832-.259a.83.83 0 00.326-.673.79.79 0 00-.353-.69 1.706 1.706 0 00-.99-.247 4.09 4.09 0 00-1.457.294l.647-4.859h4.159v1.959H16.33l-.18.931h.38a2.29 2.29 0 011.732.748c.469.492.72 1.152.7 1.832a2.87 2.87 0 01-.906 2.164 3.159 3.159 0 01-2.263.863 4.527 4.527 0 01-2.3-.663z" fill="#fff"/><path opacity=".8" fill-rule="evenodd" clip-rule="evenodd" d="M25.062 20.668a5.502 5.502 0 00.78-3.106 5.754 5.754 0 00-.79-3.217 2.453 2.453 0 00-2.148-1.158 2.527 2.527 0 00-2.169 1.143 5.34 5.34 0 00-.8 3.1 5.623 5.623 0 00.8 3.227 2.558 2.558 0 002.222 1.164 2.4 2.4 0 002.105-1.153zm-2.175-5.524c.485 0 .727.806.727 2.417v-.037a6.226 6.226 0 01-.179 1.795c-.121.379-.31.563-.563.563-.474.004-.71-.856-.71-2.58 0-1.437.241-2.158.726-2.158zm5.111 6.791l-.869-.62 5.896-8.34.9.627-5.927 8.333zm2.171-6.717a2.2 2.2 0 01-.49 1.48 1.611 1.611 0 01-1.273.568 1.727 1.727 0 01-1.353-.558 2.201 2.201 0 01-.527-1.516c-.027-.53.15-1.05.495-1.453a1.732 1.732 0 011.337-.527 1.65 1.65 0 011.295.558c.346.402.53.918.516 1.448zm-1.798-.8c.226 0 .337.279.337.837 0 .526-.095.795-.332.795-.237 0-.353-.274-.353-.816 0-.542.122-.816.348-.816zm6.123 5.305a2.2 2.2 0 01-.49 1.48 1.61 1.61 0 01-1.268.568 1.732 1.732 0 01-1.343-.558 2.18 2.18 0 01-.526-1.516 2.074 2.074 0 01.526-1.453c.347-.36.833-.552 1.332-.526.492-.025.969.172 1.3.537.336.413.505.937.474 1.468h-.005zm-1.796-.8c.226 0 .337.28.337.843h.005c0 .531-.1.795-.337.795-.237 0-.353-.269-.353-.817 0-.547.121-.82.348-.82z" fill="#fff"/><path opacity=".1" d="M1.848 31.385a3.692 3.692 0 013.692-3.693h36.923a3.692 3.692 0 110 7.385H5.54a3.692 3.692 0 01-3.692-3.692z" fill="#fff"/><path d="M1.848 31.385a3.692 3.692 0 013.692-3.693h20.308a3.692 3.692 0 010 7.385H5.54a3.692 3.692 0 01-3.692-3.692z" fill="url(#chart_progress_bar_off0_linear)"/></g><defs><linearGradient id="chart_progress_bar_off0_linear" x1="1.346" y1="31.227" x2="30.042" y2="31.227" gradientUnits="userSpaceOnUse"><stop stop-color="#fff" stop-opacity=".6"/><stop offset="1" stop-color="#fff"/></linearGradient></defs></svg>