<svg width="48" height="48" viewBox="0 0 48 48" fill="none" xmlns="http://www.w3.org/2000/svg"><rect x="3.43" y="8" width="41.143" height="32" rx="2.286" fill="#667091"/><mask id="a" fill="#fff"><rect x="8.004" y="12.571" width="32" height="22.857" rx=".914"/></mask><rect x="8.004" y="12.571" width="32" height="22.857" rx=".914" fill="#8D98BA" stroke="#ADB8DB" stroke-width="2.286" mask="url(#a)"/><path fill-rule="evenodd" clip-rule="evenodd" d="M30.284 22.791c-.178.508-.353.868-.426 1.248-.175.91-.657 1.205-1.596 1.174-2.284-.076-4.57-.025-6.856-.025h-1.043c-.435 1.987.015 2.577 1.863 2.578 2.285.002 4.57-.002 6.856.003.35 0 .701.033 1.206.058-.271.78-.455 1.443-.745 2.056-.09.19-.468.339-.715.341-2.517.023-5.035.043-7.552 0-1.739-.03-3.28-1.394-3.485-3.114-.12-1.018-.043-2.06-.053-3.09-.003-.391 0-.782 0-1.229h12.546zM17.79 19.95v-2.198h12.447c-.239.706-.422 1.36-.693 1.977-.078.176-.41.338-.625.34-3.602.015-7.205.004-10.807-.006-.09 0-.18-.06-.323-.112z" fill="#C0C7DF"/></svg>