<svg width="48" height="48" viewBox="0 0 48 48" fill="none" xmlns="http://www.w3.org/2000/svg">
<path opacity="0.2" fill-rule="evenodd" clip-rule="evenodd" d="M38.4393 6.46155C39.4397 6.46154 40.2466 6.46153 40.9001 6.51492C41.5729 6.56989 42.1638 6.68602 42.7105 6.9646C43.579 7.40709 44.285 8.11315 44.7275 8.98159C45.0061 9.52832 45.1222 10.1193 45.1772 10.792C45.2306 11.4455 45.2306 12.2524 45.2306 13.2528V29.2087C45.2306 30.2092 45.2306 31.0161 45.1772 31.6695C45.1222 32.3423 45.0061 32.9332 44.7275 33.48C44.285 34.3484 43.579 35.0545 42.7105 35.497C42.1638 35.7755 41.5729 35.8917 40.9001 35.9466C40.2467 36 39.4398 36 38.4394 36H9.56024C8.55985 36 7.75296 36 7.09955 35.9466C6.42676 35.8917 5.83582 35.7755 5.28909 35.497C4.42065 35.0545 3.71458 34.3484 3.27209 33.48C2.99352 32.9332 2.87738 32.3423 2.82241 31.6695C2.76903 31.0161 2.76903 30.2092 2.76904 29.2088V13.2528C2.76903 12.2524 2.76903 11.4455 2.82241 10.792C2.87738 10.1193 2.99352 9.52832 3.27209 8.98159C3.71458 8.11315 4.42065 7.40709 5.28909 6.9646C5.83582 6.68602 6.42676 6.56989 7.09954 6.51492C7.75297 6.46153 8.55988 6.46154 9.5603 6.46155H38.4393Z" fill="#A7AFB7"/>
<path opacity="0.8" d="M7.38281 18.3081C7.38281 17.2885 8.20936 16.4619 9.22897 16.4619H38.7674C39.787 16.4619 40.6136 17.2885 40.6136 18.3081C40.6136 19.3277 39.787 20.1542 38.7674 20.1542H9.22897C8.20936 20.1542 7.38281 19.3277 7.38281 18.3081Z" fill="#A7AFB7"/>
<path opacity="0.6" d="M7.38281 24.769C7.38281 23.7494 8.20936 22.9229 9.22897 22.9229H38.7674C39.787 22.9229 40.6136 23.7494 40.6136 24.769C40.6136 25.7886 39.787 26.6152 38.7674 26.6152H9.22897C8.20936 26.6152 7.38281 25.7886 7.38281 24.769Z" fill="#A7AFB7"/>
<path opacity="0.4" d="M7.38281 31.2309C7.38281 30.2113 8.20936 29.3848 9.22897 29.3848H38.7674C39.787 29.3848 40.6136 30.2113 40.6136 31.2309C40.6136 32.2505 39.787 33.0771 38.7674 33.0771H9.22897C8.20936 33.0771 7.38281 32.2505 7.38281 31.2309Z" fill="#A7AFB7"/>
<path opacity="0.6" d="M7.38281 11.8462C7.38281 10.8266 8.20936 10 9.22897 10H38.7674C39.787 10 40.6136 10.8266 40.6136 11.8462C40.6136 12.8658 39.787 13.6923 38.7674 13.6923H9.22897C8.20936 13.6923 7.38281 12.8658 7.38281 11.8462Z" fill="#A7AFB7"/>
<path opacity="0.8" d="M3.69238 41.0769C3.69238 40.822 3.89902 40.6154 4.15392 40.6154H43.8462C44.1011 40.6154 44.3078 40.822 44.3078 41.0769C44.3078 41.3318 44.1011 41.5384 43.8462 41.5384H4.15392C3.89902 41.5384 3.69238 41.3318 3.69238 41.0769Z" fill="#A7AFB7"/>
</svg>
