<svg width="48" height="48" viewBox="0 0 48 48" fill="none" xmlns="http://www.w3.org/2000/svg">
<path opacity="0.8" d="M3.83203 40.9583C3.83203 40.7052 4.03723 40.5 4.29036 40.5H43.707C43.9602 40.5 44.1654 40.7052 44.1654 40.9583C44.1654 41.2115 43.9602 41.4167 43.707 41.4167H4.29036C4.03723 41.4167 3.83203 41.2115 3.83203 40.9583Z" fill="#A7AFB7"/>
<path opacity="0.2" d="M7.5 21.25C7.5 19.7312 8.73122 18.5 10.25 18.5C11.7688 18.5 13 19.7312 13 21.25V34.0833C13 35.6021 11.7688 36.8333 10.25 36.8333C8.73122 36.8333 7.5 35.6021 7.5 34.0833V21.25Z" fill="#A7AFB7"/>
<path opacity="0.2" d="M25.832 15.75C25.832 14.2312 27.0632 13 28.582 13C30.1008 13 31.332 14.2312 31.332 15.75V34.0833C31.332 35.6021 30.1008 36.8333 28.582 36.8333C27.0632 36.8333 25.832 35.6021 25.832 34.0833V15.75Z" fill="#A7AFB7"/>
<path opacity="0.2" d="M22.168 34.084C22.168 35.6028 20.9368 36.834 19.418 36.834C17.8992 36.834 16.668 35.6028 16.668 34.084L16.668 10.2507C16.668 8.73189 17.8992 7.50067 19.418 7.50067C20.9368 7.50067 22.168 8.73189 22.168 10.2507L22.168 34.084Z" fill="#A7AFB7"/>
<path opacity="0.2" d="M40.5 34.0835C40.5 35.6023 39.2688 36.8335 37.75 36.8335C36.2312 36.8335 35 35.6023 35 34.0835L35 28.5835C35 27.0647 36.2312 25.8335 37.75 25.8335C39.2688 25.8335 40.5 27.0647 40.5 28.5835L40.5 34.0835Z" fill="#A7AFB7"/>
<path fill-rule="evenodd" clip-rule="evenodd" d="M41.2626 12.4915C41.5435 12.9128 41.4296 13.4819 41.0084 13.7627L24.5084 24.7627C24.1448 25.0051 23.6607 24.9572 23.3517 24.6482L16.6982 17.9946L8.1782 27.3666C7.83766 27.7412 7.25791 27.7688 6.88331 27.4283C6.50871 27.0877 6.4811 26.508 6.82165 26.1334L15.9883 16.0501C16.1569 15.8646 16.3942 15.7562 16.6448 15.7503C16.8954 15.7443 17.1375 15.8412 17.3148 16.0185L24.1167 22.8205L39.9914 12.2373C40.4127 11.9565 40.9818 12.0703 41.2626 12.4915Z" fill="#A7AFB7"/>
</svg>
