<svg width="48" height="48" viewBox="0 0 48 48" fill="none" xmlns="http://www.w3.org/2000/svg"><g opacity=".8"><path opacity=".8" d="M3.832 40.958c0-.253.205-.458.458-.458h39.417a.458.458 0 110 .917H4.29a.458.458 0 01-.458-.459z" fill="#fff"/><path opacity=".8" d="M7.5 21.25a2.75 2.75 0 115.5 0v12.833a2.75 2.75 0 11-5.5 0V21.25z" fill="url(#chart_mixed_bar_on0_linear)"/><path opacity=".8" d="M25.832 15.75a2.75 2.75 0 115.5 0v18.333a2.75 2.75 0 11-5.5 0V15.75z" fill="url(#chart_mixed_bar_on1_linear)"/><path opacity=".8" d="M22.168 34.084a2.75 2.75 0 11-5.5 0V10.251a2.75 2.75 0 115.5 0v23.833z" fill="url(#chart_mixed_bar_on2_linear)"/><path opacity=".8" d="M40.5 34.084a2.75 2.75 0 11-5.5 0v-5.5a2.75 2.75 0 115.5 0v5.5z" fill="url(#chart_mixed_bar_on3_linear)"/><path fill-rule="evenodd" clip-rule="evenodd" d="M41.261 12.491a.917.917 0 01-.254 1.271l-16.5 11a.917.917 0 01-1.157-.114l-6.653-6.654-8.52 9.372a.917.917 0 01-1.357-1.233l9.167-10.083a.917.917 0 011.327-.032l6.802 6.802L39.99 12.237a.917.917 0 011.271.254z" fill="#fff"/></g><defs><linearGradient id="chart_mixed_bar_on0_linear" x1="7.5" y1="18.5" x2="14.134" y2="36.413" gradientUnits="userSpaceOnUse"><stop stop-color="#fff" stop-opacity=".6"/><stop offset="1" stop-color="#fff"/></linearGradient><linearGradient id="chart_mixed_bar_on1_linear" x1="25.832" y1="13" x2="36.183" y2="34.498" gradientUnits="userSpaceOnUse"><stop stop-color="#fff" stop-opacity=".6"/><stop offset="1" stop-color="#fff"/></linearGradient><linearGradient id="chart_mixed_bar_on2_linear" x1="22.168" y1="36.834" x2="7.874" y2="12.712" gradientUnits="userSpaceOnUse"><stop stop-color="#fff" stop-opacity=".6"/><stop offset="1" stop-color="#fff"/></linearGradient><linearGradient id="chart_mixed_bar_on3_linear" x1="40.5" y1="36.834" x2="37.912" y2="25.187" gradientUnits="userSpaceOnUse"><stop stop-color="#fff" stop-opacity=".6"/><stop offset="1" stop-color="#fff"/></linearGradient></defs></svg>