<svg width="48" height="48" viewBox="0 0 48 48" fill="none" xmlns="http://www.w3.org/2000/svg">
<path opacity="0.8" d="M3.69238 41.0769C3.69238 40.822 3.89902 40.6154 4.15392 40.6154H43.8462C44.1011 40.6154 44.3078 40.822 44.3078 41.0769C44.3078 41.3318 44.1011 41.5384 43.8462 41.5384H4.15392C3.89902 41.5384 3.69238 41.3318 3.69238 41.0769Z" fill="#A7AFB7"/>
<path opacity="0.2" d="M16.6136 16.6152L7.38281 26.769V40.6152H40.6136V12.9229L23.9982 23.9998L16.6136 16.6152Z" fill="#A7AFB7"/>
<path fill-rule="evenodd" clip-rule="evenodd" d="M41.3816 12.4108C41.6644 12.835 41.5498 13.4081 41.1256 13.6909L24.5102 24.7678C24.1441 25.0119 23.6566 24.9636 23.3455 24.6525L16.6454 17.9524L8.06582 27.39C7.72289 27.7672 7.13909 27.795 6.76187 27.452C6.38465 27.1091 6.35685 26.5253 6.69978 26.1481L15.9305 15.9942C16.1004 15.8075 16.3392 15.6984 16.5916 15.6924C16.844 15.6864 17.0878 15.784 17.2663 15.9625L24.1158 22.812L40.1015 12.1548C40.5257 11.872 41.0988 11.9867 41.3816 12.4108Z" fill="#A7AFB7"/>
</svg>
