<svg width="48" height="48" viewBox="0 0 48 48" fill="none" xmlns="http://www.w3.org/2000/svg"><path opacity=".4" d="M44.642 9.42s0 .027 0 0c.412.136.823-.33 1.043-.55.22-.356.85-.96 1.262-.96.247.082 0 .686.247.878.028 0 .22.247.193.274-.11.302-.302 2.196-.193 2.278-.027.192 0 .33-.137.467-.164.247-.549.055-.768.055-.083.137-.33.22-.357.357-.192.576.796 1.509.631 2.14 0 .082-.137.576-.137.686-.027.083-.055.165-.137.192 0 .028-.384-.082-.44-.082-.136-.165-.082-.549-.136-.549-.11 0-.193.192-.22.192-.028.165-.192.714-.357.796-.11.137-.357.137-.494.137-.055.028-.055.028-.055.11a.52.52 0 01.247.412c.055.22-.274.411-.329.384-.33 0-.576-.192-.878-.192-.137.027-.165.466-.247.466-.083.33-.357.522-.55.796h-.026v.028c-.22.082-.357.274-.522.411 0 .165-.137.385-.137.577-.522.439-1.208.22-1.592 1.098 0 .192-.247.576-.247.576-.22 0-.412.027-.631.027-.028-.192.137-.521.357-.521 0-.082-.385-.576-.22-.576v-.083c0-.33.44-.439.302-.878-.055-.247-.357-.357-.576-.247l-1.647 2.003c-.082.11-.714.22-.85.275-.193.165-.33.604-.028.768.055.165.137.247.137.44.082.027.576-.22.823-.11.083.164.138.329.138.521.054.082.301.357.411.384.028 0 0 0 0 0 .384 0 .384-.905 1.125-.905.302-.083.604.247.96.137.22-.055.358 0 .522.082 0 .055.055.467-.11.467-.027.055-.823.384-.85.384.055.11-.686.878-.796.796-.027.082-.274.439-.274.466a.577.577 0 00-.11.165c-.028.082-.137.686-.137.713.027.028 0 .028.027.028 0 0 .027 0 .027.027 0 .055.11.083.11.11 1.098.137 1.153 1.811 1.537 2.031 0 .027 0 .027.028.055.274.247.63.384.933.631v.028c.384.192-.385.22-.412.329.247.137.494.274.631.659 0 .439-.96.823-1.152 1.042v.028c.082.027.246.027.329.027.247-.439.933-.11 1.262.028v.027c-.055.247-.494.357-.494.55.083 0 .302-.248.385-.138 0 .082.082.274 0 .357-.11.137-.22.027-.33.11 0 .52.577 1.234-.274 1.234-.247.44-.33.494-.33 1.098-.22.165-.192.522-.411.686-.11 0-.302 0-.357.055 0 .137.247.22.357.247-.028.22-.357.11-.247.412.027.247.082.412.027.631-.466.028-.137.44-.521.631-.11.33-.577.302-.631.412-.11.11-.604 1.07-.796 1.07v.028c-.22.082-.741.164-.741.439-.028.082.027.11.027.192-.494.274-1.098.906-1.756.713-.247-.082-.302.467-.55.467-.136.137-.493-.247-.493-.357-.192-.137-.22.11-.247.165-.11.412-.796.878-1.235.878-.275.082-1.702.22-1.757.494 0 .11-.082.384-.247.384-.137.165-.054.083 0 .247.083 0 .138 0 .22.028.055.082.027.274.027.357-.192.11-.274.11-.494.082-.082-.028-.274-.44-.356-.549-.33-.165 0-.494.027-.686h-.055c-.192.055-.357.165-.549.192-.027 0-.466-.659-.494-.33.11.056.138.138 0 .165 0 .055-.768-.027-.823-.027-.247 0-1.207-.247-1.125-.659-.028-.137.082-.411.082-.549l-.082-.082c-.082 0-.988-.165-.988-.192-.137-.028-.11-.22-.192-.247-.055-.027-.22 0-.247.027-.083.11-.384.494-.55.494-.136 0-.246 0-.383.083 0 .274-.357.164-.467.164-.055-.055-.137-.11-.165-.164-.055 0-.384.11-.384.11-.247.082-.439-.165-.659-.165-.027.055-.219.247-.246.247-.083.055-.44-.083-.522-.028-.11.028-.082.138-.082.247.11.11.137.44.137.577.11 0 .11.521.082.576-.027.165-.164.11-.302.082-.274-.055-.411-.329-.411-.603 0-.193-.028-.083-.11-.22-.274 0-.274.274-.44.274-.136 0-.136-.054-.274-.082-.054-.192-.521-.576-.521-.576-.082-.028-.274.055-.33 0a.56.56 0 01-.164-.192c-.055-.247.055-.686-.027-.878-.138-.055-.22-.055-.302-.138-.165-.11-.22-.686-.385-.905-.274-.192-.411.164-.63.164-.303-.082-.193-.247-.248-.549-.11-.329.083-.576.137-.878h.028c0-.192.521-.411.659-.576.054 0 .054-.028.082-.055.082-.027.412-1.537.22-1.757 0-.11-.385-.247-.385-.356-.027-.028-.055-.11-.082-.11 0-.302-.11-.412-.274-.631-.11-.028-.248-.083-.33.027-.192.082 0 .576-.274.631-.192.055-.412-.302-.577-.411-.164 0-.521-.275-.713-.33-.165.028-.412.275-.55.412-.493.055-.932.659-1.399.823-.192.11-1.454.357-1.701 0-.11-.11.027-.466.027-.603-.164-.11-.274-.165-.274-.412a5.352 5.352 0 00-.467-.11c-.33-.082-.549-.576-.988-.576 0 0-.658.22-.74.357 0 .137.054.356-.028.466-.22.11-.22.11-.467.028-.137-.302 0-.522 0-.796-.164-.11-.466-.11-.631-.028-.165.028-.33.247-.521.192-.22-.055-.33-.247-.467-.411-.302-.055-.521-.055-.823-.055-.22-.22-.44-.549-.631-.796-.165-.11-.357 0-.522-.22-.027-.027-.055-.027-.082-.054-.11-.165-.22-.522-.247-.769-.137-.082-.467 0-.55-.11-.081 0-.246-.329-.246-.384-.165-.11-.412-.192-.549-.33h-.027c0-.109-.412-.603-.412-.603-.412.082-.906.302-1.235-.11-.082-.11-.11-.33-.11-.521-.439-.33-.576-.769-1.153-.769-.11-.027-.082-.055-.164-.11.027-.192-.028-.329.137-.439v-.027c.22-.137.082-.768.082-.988 0-.274-.027-.137.055-.302.22 0 .384.165.577.192.027-.082.054-.027.054-.137 0-.412-.137-.74-.192-1.125-.11-.302.247-.467.247-.714-.027-.137-.055-.137-.11-.192-.356-.082-.411-.521-.329-.823.083-.33-.96-1.153-1.152-.988-.083 0-.165-.137-.165-.137 0-.192.165-.686.082-.851-.137-.082-.63-.467-.74-.604 0 0-.028 0-.028-.027-.192-.275.055-.55.33-.631.164-.302.082-.632.082-.961 0-.357-.385-.137-.577-.11-.137-.11-.302-.192-.137-.521.302-.055.22-.467.082-.467-.055-.082.33-.302.385-.494.274 0 1.125-.74 1.646-.576.357.055.082.466.549.494.686-.549 1.015-.604 1.894-.604.082-.027.905-.11.905-.164.275-.138.302-.275.275-.44.027-.027.796-.96.796-.988.082-.411.11-.823.027-1.235.028-.137.055-.301-.055-.384-.082-.137-.027-.22.137-.22.632-.191 1.126.193 1.702.193v-.028c.165-.192-.165-.713.44-1.015.081-.137.383-.686.41-.769.083-.11.22-.082.33-.055 0 .275 1.29.467 1.345.467.192 0 .247-.055.302-.22 0 0-.028-.63.027-.713.11-.44.741-.384 1.07-.494.193-.165.11-.467.522-.467.192-.054.466.055.466.275 0 .11.083.274.083.357-.055.164.713.74.85.74.11.028.44.22.467.303 0 .22.028.686.192.823.055.302.302.796-.027 1.043v.027c-.302.33-.384.576-.083.906.193.137.55.165.769.22.137 0 2.58.878 2.497 1.481 0 .22.11.604.33.714v.027s0 .44.054.44v.027c.028.027.055.027.083.055 0 0 0 .027.027.027.275 0 .577.11.878.11.247.082.714.247.906.247v.027c.576 0 1.125-.027 1.702-.027.603.082.905.686 1.344.741.192-.22.632.082.714.22.44 0 .521.22.768.411.055.082.11.082.192.082.138-.384 2.608-.905 2.608-1.262h.027c.412-.11.933.22 1.427.137.083-.22.522-.63.686-.796.192-.164.96-.74.879-.85-.083-.275-.522-1.455.192-1.455 0 0 .878.549.878.33.247 0 .74-.604.796-.824.302-.055.823-.082.933-.33.192-.136.357-.658.412-.658.137-.165.356-.22.548-.247h.028c.082-.11.439-.384.549-.384 0-.055.96-.082 1.125-.11 0-.137-.028-.274-.028-.357-.11-.384-.603-.63-.987-.85-.165 0-.22.192-.44.192-.11.11-.11.22-.22.33-.219 0-.658-.193-.795-.166-.22 0-.412.192-.769.192-.054-.082-.137-.137-.137-.301.137-.138.357-.33.302-.55 0-.493.137-.795.247-1.29h.028c.055-.054.11-.136.192-.136.494 0 .988.055 1.345-.357l.082-.082c0-.275.192-.66.192-.961 0-.384.466-1.07.466-1.07.11-.275-.22-.577-.439-.686 0-.028 0-.11-.027-.11.055-.275.055-.33.247-.467.22-.055.412-.11.631-.192.137-.247.878-.466 1.153-.466.192-.055.439.164.631.164.357-.027.576-.055.878.083h.055s1.125 1.152 1.125 1.372c0 .027 0 .027.028.055.027 0 .027.027.055.027v.028c.164.137.356.329.521.466v.028c0 .274.137.411.33.548 0 .028 0 .028.027.028.027.082.082.412.192.412v.027c.22 0 .631-.055.796.027 0 .11.439 0 .549.028 0 .027.164.082.192.11.027.192.411.302.658.356 0 .193.33.851.604.851zM41.02 37.521c.027-.274.054-.521.082-.823 0-.357.192-.412.192-.741 0-.33.33-.906.576-1.126.028-.054.385-.11.467-.082.631.082.22.467.22.741 0 .384.164.96.054 1.317 0 .165-.137.275-.137.412-.082.137-.384.165-.384.384-.137.385.027.632-.302 1.016 0-.11-.247-.247-.274-.412-.275-.302-.412-.357-.494-.686zm-10.594 4.09c.384-.028 1.208-.385 1.62-.22.11.027.301.11.329.22.082.136-.165.438-.384 1.124h-.028v.028c-.192.356-1.043.713-1.07.63h-.028c-.164.056-.768-.191-.768-.328h-.028c-.247-1.016.33-.741.357-1.455z" fill="url(#chart-map-on-paint0_linear)"/><path opacity=".25" d="M22.757 28.55a3.117 3.117 0 004.312 2.881 3.119 3.119 0 10-4.312-2.88z" fill="#fff"/><path opacity=".1" d="M35.179 28.03a2.223 2.223 0 104.447 0 2.223 2.223 0 00-4.447 0z" fill="#fff"/><path opacity=".5" d="M31.489 21.066a1.871 1.871 0 103.742 0 1.871 1.871 0 00-3.742 0z" fill="#fff"/><defs><linearGradient id="chart-map-on-paint0_linear" x1="9.659" y1="12.333" x2="36.479" y2="34.788" gradientUnits="userSpaceOnUse"><stop stop-color="#fff"/><stop offset="1" stop-color="#fff" stop-opacity=".6"/></linearGradient></defs></svg>