<svg width="48" height="48" viewBox="0 0 48 48" fill="none" xmlns="http://www.w3.org/2000/svg">
<path fill-rule="evenodd" clip-rule="evenodd" d="M35.8937 31.1369C37.2092 32.4525 37.2092 34.5789 35.8937 35.8945C35.2377 36.5506 34.3764 36.8804 33.5151 36.8804C32.6538 36.8804 31.7925 36.5506 31.1364 35.8945L24.0004 28.7581L16.861 35.8945C16.205 36.5506 15.3437 36.8804 14.4824 36.8804C13.6211 36.8804 12.7631 36.5506 12.1037 35.8945C10.7916 34.5789 10.7916 32.4525 12.1037 31.1369L19.2397 24.0004L12.1037 16.864C10.7916 15.5484 10.7916 13.4185 12.1037 12.1063C13.4192 10.7907 15.5489 10.7907 16.861 12.1063L24.0004 19.2428L31.1364 12.1063C32.4519 10.7907 34.5782 10.7907 35.8937 12.1063C37.2092 13.4185 37.2092 15.5484 35.8937 16.864L28.7577 24.0004L35.8937 31.1369Z" fill="currentColor"/>
</svg>
