<svg width="48" height="48" viewBox="0 0 48 48" fill="none" xmlns="http://www.w3.org/2000/svg">
<path opacity="0.2" fill-rule="evenodd" clip-rule="evenodd" d="M33.9671 16.0381C28.463 10.5341 19.5392 10.5341 14.0351 16.0381C8.53106 21.5422 8.53106 30.466 14.0351 35.9701C15.4771 37.412 15.4771 39.7498 14.0351 41.1918C12.5932 42.6337 10.2553 42.6337 8.8134 41.1918C0.42548 32.8038 0.425479 19.2043 8.8134 10.8164C17.2013 2.42849 30.8008 2.42849 39.1888 10.8164C47.5767 19.2043 47.5767 32.8038 39.1888 41.1918C37.7468 42.6337 35.409 42.6337 33.9671 41.1918C32.5251 39.7498 32.5251 37.412 33.9671 35.9701C39.4711 30.466 39.4711 21.5422 33.9671 16.0381Z" fill="#A7AFB7"/>
<path fill-rule="evenodd" clip-rule="evenodd" d="M33.9671 16.0381C28.463 10.5341 19.5392 10.5341 14.0351 16.0381C8.53106 21.5422 8.53106 30.466 14.0351 35.9701C15.4771 37.412 15.4771 39.7498 14.0351 41.1918C12.5932 42.6337 10.2553 42.6337 8.8134 41.1918C0.42548 32.8038 0.425479 19.2043 8.8134 10.8164C17.2013 2.42849 30.8008 2.42849 39.1888 10.8164C40.6307 12.2583 40.6307 14.5962 39.1888 16.0381C37.7468 17.4801 35.409 17.4801 33.9671 16.0381Z" fill="#A7AFB7"/>
<path opacity="0.8" d="M21.7304 23.3081C23.2233 21.919 27.5371 21.7754 28.1659 22.4512C28.7947 23.127 28.2537 27.3253 26.7608 28.7144C25.2679 30.1035 22.9315 30.0193 21.5424 28.5264C20.1534 27.0335 20.2375 24.6972 21.7304 23.3081Z" fill="#A7AFB7"/>
</svg>
