<svg width="44" height="44" viewBox="0 0 44 44" fill="none" xmlns="http://www.w3.org/2000/svg">
  <rect width="44" height="44" rx="6" fill="#04B776" />
  <path
    d="M26.6769 17.9721C26.9777 17.9721 27.2785 17.9999 27.5777 18.0262C26.7728 14.2908 22.735 11.5 18.1354 11.5C12.9919 11.518 8.77734 14.9943 8.77734 19.4085C8.77734 21.9534 10.1822 24.0522 12.5159 25.6772L11.574 28.4649L14.8496 26.8415C16.0232 27.0711 16.9652 27.3006 18.1238 27.3006C18.4246 27.3006 18.7106 27.2875 18.9965 27.2612C18.8107 26.6273 18.7145 25.9706 18.7106 25.31C18.7239 21.2631 22.2309 17.9738 26.6786 17.9738L26.677 17.9721H26.6769ZM21.6426 15.4567C22.3533 15.4567 22.816 15.9158 22.816 16.6209C22.816 17.3096 22.3533 17.7852 21.6426 17.7852C20.9467 17.7852 20.2377 17.3244 20.2377 16.6209C20.2377 15.9158 20.9467 15.4567 21.6426 15.4567ZM15.0926 17.7852C14.3985 17.7852 13.6878 17.3244 13.6878 16.6209C13.6878 15.9158 14.3985 15.4567 15.0926 15.4567C15.7885 15.4567 16.2661 15.9158 16.2661 16.6209C16.2661 17.3096 15.8033 17.7852 15.0926 17.7852ZM35.2218 25.2132C35.2218 21.5041 31.4832 18.4722 27.2652 18.4722C22.8176 18.4722 19.3105 21.5041 19.3105 25.2132C19.3105 28.9355 22.8176 31.9558 27.2652 31.9558C28.1942 31.9558 29.1362 31.7263 30.0767 31.4951L32.6418 32.8889L31.9327 30.5735C33.8169 29.1535 35.2218 27.2973 35.2218 25.2132ZM24.6869 24.0489C24.2242 24.0489 23.7449 23.5898 23.7449 23.1143C23.7449 22.6552 24.2242 22.1797 24.6869 22.1797C25.3976 22.1797 25.8605 22.6405 25.8605 23.1143C25.8605 23.5898 25.3976 24.0489 24.6869 24.0489V24.0489ZM29.8321 24.0489C29.3677 24.0489 28.9032 23.5898 28.9032 23.1143C28.9032 22.6552 29.366 22.1797 29.8321 22.1797C30.5411 22.1797 31.0055 22.6405 31.0055 23.1143C31.0055 23.5898 30.5411 24.0489 29.8321 24.0489V24.0489Z"
    fill="white" />
</svg>
