<svg width="48" height="48" viewBox="0 0 48 48" fill="none" xmlns="http://www.w3.org/2000/svg">
<path opacity="0.2" d="M2.76929 18.2769C2.76929 14.1412 2.76929 12.0733 3.57416 10.4936C4.28215 9.10411 5.41185 7.9744 6.80136 7.26642C8.38101 6.46154 10.4489 6.46154 14.5847 6.46154H33.4154C37.5512 6.46154 39.6191 6.46154 41.1988 7.26642C42.5883 7.9744 43.718 9.10411 44.426 10.4936C45.2308 12.0733 45.2308 14.1412 45.2308 18.2769V29.7231C45.2308 33.8589 45.2308 35.9267 44.426 37.5064C43.718 38.8959 42.5883 40.0256 41.1988 40.7336C39.6191 41.5385 37.5512 41.5385 33.4154 41.5385H14.5847C10.4489 41.5385 8.38101 41.5385 6.80136 40.7336C5.41185 40.0256 4.28215 38.8959 3.57416 37.5064C2.76929 35.9267 2.76929 33.8589 2.76929 29.7231V18.2769Z" fill="#A7AFB7"/>
<path fill-rule="evenodd" clip-rule="evenodd" d="M22.5312 25.6083H24.3835C24.3835 26.0299 24.5404 26.2407 24.8319 26.2407C24.9794 26.2465 25.1202 26.1794 25.2087 26.0613C25.3069 25.9326 25.359 25.7747 25.3566 25.6128C25.3566 25.115 25.0965 24.8683 24.5808 24.8683H24.4462H24.2579V23.3704H24.4866C25.0068 23.3704 25.267 23.1282 25.267 22.6529C25.267 22.2627 25.1279 22.0698 24.8588 22.0698C24.5898 22.0698 24.527 22.2268 24.4956 22.5183V22.6125H22.6568C22.6796 22.0245 22.9267 21.4676 23.3475 21.0563C23.7787 20.66 24.35 20.4518 24.9351 20.4778C25.5135 20.4587 26.0755 20.6718 26.4958 21.0697C26.9211 21.4458 27.1577 21.9912 27.1416 22.5587C27.1599 23.1733 26.8302 23.7459 26.2895 24.0387C26.8941 24.3539 27.2627 24.9897 27.2358 25.6711C27.2543 26.2589 27.0072 26.8239 26.563 27.2094C26.0862 27.6173 25.4723 27.8289 24.8454 27.8014C24.2356 27.8299 23.6382 27.6228 23.1771 27.2228C22.7493 26.8394 22.5143 26.2855 22.5357 25.7115L22.5312 25.6083ZM18.3589 27.6772H13.5153L15.4393 25.1119C15.6575 24.8129 15.8414 24.5528 15.9909 24.3316C16.1186 24.1348 16.2353 23.9312 16.3407 23.7216C16.5044 23.4055 16.5905 23.055 16.5919 22.6991C16.599 22.5413 16.5584 22.385 16.4753 22.2506C16.404 22.1399 16.2795 22.0751 16.1479 22.0802C15.8474 22.0802 15.6994 22.3672 15.6994 22.9368V23.0444V23.1969H13.8562V22.9413C13.8327 22.297 14.0686 21.6702 14.5109 21.2012C14.9518 20.7431 15.5663 20.4937 16.2017 20.515C16.8106 20.4917 17.4007 20.7281 17.8252 21.1653C18.2558 21.606 18.4861 22.2045 18.462 22.8202C18.4552 23.3811 18.3005 23.9303 18.0135 24.4123C17.8491 24.7002 17.6601 24.9733 17.4485 25.2285C17.1845 25.5445 16.9014 25.844 16.6008 26.1255C16.764 26.1255 16.9272 26.1139 17.0912 26.1022L17.0912 26.1022C17.2157 26.0934 17.3406 26.0845 17.4664 26.0806C17.6596 26.0747 17.8548 26.0766 18.0545 26.0786H18.0545H18.0545H18.0546H18.0546H18.0546H18.0546H18.0547H18.0547H18.0548H18.0548C18.1564 26.0796 18.2591 26.0806 18.3634 26.0806L18.3589 27.6772ZM12.285 27.6762H10.3835V22.2945H9.62109V20.6396H12.285V27.6762ZM19.7828 27.3616C19.9705 27.5383 20.2231 27.6295 20.4804 27.6133L20.5611 27.6223C20.5611 28.1425 20.1351 28.6403 19.3278 28.9184L19.6642 29.8154C20.9558 29.4252 21.6554 28.5193 21.6554 27.3129C21.6554 26.3442 21.2518 25.7611 20.5253 25.7611C20.2647 25.7402 20.0068 25.8264 19.8113 25.9999C19.6157 26.1735 19.4994 26.4193 19.4893 26.6805C19.4888 26.9384 19.595 27.1849 19.7828 27.3616ZM30.4992 27.6762H32.3963L32.3873 26.2501H32.9703V24.7387H32.3963V20.6396H30.0642L27.9384 24.7656V26.2501H30.4992V27.6762ZM30.6015 24.7381V23.4196V23.1281C30.6015 22.9935 30.6015 22.8231 30.6329 22.6123L30.3504 23.2133C30.2113 23.5093 30.0723 23.7828 29.9333 24.0385C29.7943 24.2941 29.6507 24.5228 29.5117 24.7381H30.6015ZM34.0165 25.5863L33.7922 27.2547H33.7653C34.3496 27.6056 35.0168 27.7945 35.6983 27.8018C36.4074 27.8246 37.096 27.5612 37.6088 27.0708C38.1131 26.6015 38.3922 25.9387 38.3757 25.25C38.3942 24.6735 38.1791 24.1139 37.7792 23.6983C37.4056 23.2873 36.8724 23.0583 36.3172 23.0704H35.9987L36.1736 22.2945H38.1828V20.6396H34.6802L34.1331 24.7432C34.5255 24.5857 34.9436 24.5021 35.3664 24.4965C35.6604 24.479 35.9527 24.5509 36.205 24.7028C36.3979 24.8329 36.5098 25.0534 36.501 25.2859C36.5042 25.5081 36.4029 25.719 36.2275 25.8554C36.0251 26.0076 35.7764 26.0853 35.5234 26.0752C34.9873 26.0451 34.4681 25.8767 34.0165 25.5863Z" fill="#A7AFB7"/>
</svg>
