<svg width="48" height="48" viewBox="0 0 48 48" fill="none" xmlns="http://www.w3.org/2000/svg"><g opacity=".2"><g opacity=".8" fill-rule="evenodd" clip-rule="evenodd"><path d="M34.847 21.603V13.04h-2.724v2.658c0 .235.005.433.014.594.009.16.023.297.041.411a2.392 2.392 0 00-.779-.737 1.957 1.957 0 00-.978-.246c-.666 0-1.217.28-1.652.84-.434.56-.652 1.283-.652 2.171 0 .932.212 1.68.636 2.243.423.564.98.846 1.668.846.38 0 .722-.088 1.028-.263.306-.175.578-.44.818-.793v.84h2.58zM9.51 18.652c.11-.498.171-.879.182-1.144h.105c.011.265.072.645.182 1.138l.045.199.608 2.757h2.536l2.364-8.089h-2.917l-.635 3.564c-.056.313-.098.6-.128.86a9.616 9.616 0 00-.055.731h-.066c-.007-.316-.065-.738-.171-1.265a2.958 2.958 0 01-.022-.11l-.768-3.78H8.72l-.768 3.774a1.06 1.06 0 00-.022.116c-.107.523-.164.945-.172 1.265h-.066a9.126 9.126 0 00-.055-.732 14.77 14.77 0 00-.127-.859l-.636-3.564H3.957l2.365 8.09h2.536l.608-2.758.044-.193zm9.524.675a.615.615 0 01-.486.215.623.623 0 01-.495-.212c-.123-.142-.185-.33-.185-.567 0-.235.062-.424.185-.566a.623.623 0 01.495-.213c.202 0 .365.071.489.213.123.142.185.33.185.566 0 .232-.063.42-.188.564zm2.853-.564c0 .43-.092.841-.276 1.232a3.136 3.136 0 01-1.815 1.621c-.385.135-.8.202-1.246.202-.446 0-.86-.066-1.243-.199a3.17 3.17 0 01-1.034-.59 3.005 3.005 0 01-.787-1.026 2.883 2.883 0 010-2.48c.186-.393.448-.735.787-1.026a3.17 3.17 0 011.034-.59 3.776 3.776 0 011.243-.2c.445 0 .86.068 1.246.202.385.134.73.33 1.036.588.335.288.595.628.779 1.023.184.394.276.808.276 1.243zm.937-2.874v5.713h2.78v-2.265c0-.346.096-.615.29-.807.193-.191.466-.287.82-.287.107 0 .225.02.354.06.128.041.27.104.425.189v-2.774a.747.747 0 00-.075-.008 2.068 2.068 0 00-.124-.003c-.357 0-.683.082-.978.246-.294.164-.562.41-.801.738v-.802h-2.69zm8.665 2.045a.65.65 0 00-.516.226c-.13.151-.196.352-.196.603 0 .25.066.455.199.613a.64.64 0 00.514.238.64.64 0 00.513-.238c.133-.158.2-.363.2-.613s-.066-.452-.197-.603a.65.65 0 00-.517-.226z" fill="#fff"/><path d="M34.847 21.603V13.04h-2.724v2.658c0 .235.005.433.014.594.009.16.023.297.041.411a2.392 2.392 0 00-.779-.737 1.957 1.957 0 00-.978-.246c-.666 0-1.217.28-1.652.84-.434.56-.652 1.283-.652 2.171 0 .932.212 1.68.636 2.243.423.564.98.846 1.668.846.38 0 .722-.088 1.028-.263.306-.175.578-.44.818-.793v.84h2.58zM9.51 18.652c.11-.498.171-.879.182-1.144h.105c.011.265.072.645.182 1.138l.045.199.608 2.757h2.536l2.364-8.089h-2.917l-.635 3.564c-.056.313-.098.6-.128.86a9.616 9.616 0 00-.055.731h-.066c-.007-.316-.065-.738-.171-1.265a2.958 2.958 0 01-.022-.11l-.768-3.78H8.72l-.768 3.774a1.06 1.06 0 00-.022.116c-.107.523-.164.945-.172 1.265h-.066a9.126 9.126 0 00-.055-.732 14.77 14.77 0 00-.127-.859l-.636-3.564H3.957l2.365 8.09h2.536l.608-2.758.044-.193zm9.524.675a.615.615 0 01-.486.215.623.623 0 01-.495-.212c-.123-.142-.185-.33-.185-.567 0-.235.062-.424.185-.566a.623.623 0 01.495-.213c.202 0 .365.071.489.213.123.142.185.33.185.566 0 .232-.063.42-.188.564zm2.853-.564c0 .43-.092.841-.276 1.232a3.136 3.136 0 01-1.815 1.621c-.385.135-.8.202-1.246.202-.446 0-.86-.066-1.243-.199a3.17 3.17 0 01-1.034-.59 3.005 3.005 0 01-.787-1.026 2.883 2.883 0 010-2.48c.186-.393.448-.735.787-1.026a3.17 3.17 0 011.034-.59 3.776 3.776 0 011.243-.2c.445 0 .86.068 1.246.202.385.134.73.33 1.036.588.335.288.595.628.779 1.023.184.394.276.808.276 1.243zm.937-2.874v5.713h2.78v-2.265c0-.346.096-.615.29-.807.193-.191.466-.287.82-.287.107 0 .225.02.354.06.128.041.27.104.425.189v-2.774a.747.747 0 00-.075-.008 2.068 2.068 0 00-.124-.003c-.357 0-.683.082-.978.246-.294.164-.562.41-.801.738v-.802h-2.69zm8.665 2.045a.65.65 0 00-.516.226c-.13.151-.196.352-.196.603 0 .25.066.455.199.613a.64.64 0 00.514.238.64.64 0 00.513-.238c.133-.158.2-.363.2-.613s-.066-.452-.197-.603a.65.65 0 00-.517-.226z" fill="#fff"/><g opacity=".6" fill="#fff"><path d="M42.086 20.984a3.591 3.591 0 00-.279.026h-.004c.252-.168.436-.348.552-.54.116-.193.174-.416.174-.67 0-.495-.165-.883-.495-1.162-.33-.278-.79-.418-1.38-.418-.565 0-1.02.142-1.363.426-.344.283-.516.656-.516 1.119 0 .277.051.513.154.706.104.194.265.36.486.497l-.502-.014v.982h5.517v-.961h-1.99c-.133 0-.25.003-.354.009zM41.3 8.59l2.826-.772V6.722l-2.844-.765-.074-.018a11.347 11.347 0 00-1.146-.25 8.45 8.45 0 00.631-.053 5.35 5.35 0 00.54-.092l2.893-.687V3.743l-5.21 1.363v1.071l3.324.94c.137.04.285.073.441.098.157.025.323.043.498.055a3.895 3.895 0 00-.94.16l-3.323.933v1.07l5.21 1.364v-1.1L41.3 9.021a5.348 5.348 0 00-.635-.123 5.973 5.973 0 00-.639-.048 9.938 9.938 0 001.274-.26zm.036 4.834c-.17.166-.396.249-.681.249-.285 0-.513-.084-.684-.25-.17-.168-.256-.39-.256-.668 0-.28.086-.502.257-.666.17-.163.398-.245.683-.245.287 0 .515.082.683.245.169.164.253.386.253.666s-.085.503-.255.669zm-.692 1.28c-.536 0-.982-.183-1.338-.55-.356-.367-.534-.831-.534-1.393 0-.567.178-1.035.534-1.402.356-.368.802-.552 1.338-.552.534 0 .98.185 1.338.555.358.37.538.836.538 1.399 0 .564-.177 1.03-.53 1.395-.354.365-.803.548-1.346.548zm1.623 2.183c-.169-.19-.422-.337-.762-.44l.897.022v-1H38.91v1.014h1.537c.37 0 .634.068.792.203.158.136.237.357.237.666a1.235 1.235 0 01-.093.473l1.09.153.01-.064c.024-.147.036-.253.036-.317 0-.282-.085-.519-.253-.71zm-1.6 4.125c.313 0 .56-.08.744-.237a.802.802 0 00.274-.639c0-.275-.09-.492-.27-.65-.178-.157-.426-.236-.741-.236-.316 0-.562.078-.74.233-.178.155-.267.37-.267.646 0 .28.088.497.263.651.176.155.421.232.737.232z"/><path d="M42.086 20.984a3.591 3.591 0 00-.279.026h-.004c.252-.168.436-.348.552-.54.116-.193.174-.416.174-.67 0-.495-.165-.883-.495-1.162-.33-.278-.79-.418-1.38-.418-.565 0-1.02.142-1.363.426-.344.283-.516.656-.516 1.119 0 .277.051.513.154.706.104.194.265.36.486.497l-.502-.014v.982h5.517v-.961h-1.99c-.133 0-.25.003-.354.009zM41.3 8.59l2.826-.772V6.722l-2.844-.765-.074-.018a11.347 11.347 0 00-1.146-.25 8.45 8.45 0 00.631-.053 5.35 5.35 0 00.54-.092l2.893-.687V3.743l-5.21 1.363v1.071l3.324.94c.137.04.285.073.441.098.157.025.323.043.498.055a3.895 3.895 0 00-.94.16l-3.323.933v1.07l5.21 1.364v-1.1L41.3 9.021a5.348 5.348 0 00-.635-.123 5.973 5.973 0 00-.639-.048 9.938 9.938 0 001.274-.26zm.036 4.834c-.17.166-.396.249-.681.249-.285 0-.513-.084-.684-.25-.17-.168-.256-.39-.256-.668 0-.28.086-.502.257-.666.17-.163.398-.245.683-.245.287 0 .515.082.683.245.169.164.253.386.253.666s-.085.503-.255.669zm-.692 1.28c-.536 0-.982-.183-1.338-.55-.356-.367-.534-.831-.534-1.393 0-.567.178-1.035.534-1.402.356-.368.802-.552 1.338-.552.534 0 .98.185 1.338.555.358.37.538.836.538 1.399 0 .564-.177 1.03-.53 1.395-.354.365-.803.548-1.346.548zm1.623 2.183c-.169-.19-.422-.337-.762-.44l.897.022v-1H38.91v1.014h1.537c.37 0 .634.068.792.203.158.136.237.357.237.666a1.235 1.235 0 01-.093.473l1.09.153.01-.064c.024-.147.036-.253.036-.317 0-.282-.085-.519-.253-.71zm-1.6 4.125c.313 0 .56-.08.744-.237a.802.802 0 00.274-.639c0-.275-.09-.492-.27-.65-.178-.157-.426-.236-.741-.236-.316 0-.562.078-.74.233-.178.155-.267.37-.267.646 0 .28.088.497.263.651.176.155.421.232.737.232z"/></g><g opacity=".3" fill="#fff"><path d="M26.012 40.103h.819v-4.597h-.801v1.658c0 .11.002.209.007.295s.013.164.023.236a1.49 1.49 0 00-.451-.46 1.056 1.056 0 00-.558-.145c-.413 0-.736.137-.968.412-.232.275-.349.658-.349 1.15 0 .471.118.85.355 1.136.236.287.547.43.933.43.23 0 .427-.043.588-.129a1.1 1.1 0 00.414-.404l-.012.418zm-10.305-1.987l-.643-2.355h-.914l-.637 2.37-.015.062c-.101.385-.17.704-.208.955a7.567 7.567 0 00-.044-.527 4.442 4.442 0 00-.077-.449l-.573-2.411h-.928l1.136 4.342h.893l.783-2.77c.033-.115.06-.238.081-.368.02-.13.036-.269.046-.415a3.248 3.248 0 00.134.783l.777 2.77h.892l1.136-4.342h-.916l-.564 2.355c-.045.178-.08.354-.102.529a4.973 4.973 0 00-.04.532 10.354 10.354 0 00-.101-.578 7.628 7.628 0 00-.116-.483zm4.028-.03c.139.14.208.33.208.567 0 .237-.07.427-.21.57a.743.743 0 01-.556.213c-.233 0-.418-.071-.554-.214-.137-.142-.205-.332-.205-.569 0-.24.069-.429.205-.57.136-.14.321-.21.554-.21.234 0 .42.07.558.212zm1.067.573c0 .447-.152.818-.458 1.115-.306.296-.693.445-1.161.445-.473 0-.862-.149-1.169-.445a1.487 1.487 0 01-.46-1.115c0-.445.155-.817.463-1.115.309-.299.697-.448 1.166-.448.47 0 .858.147 1.163.442.304.294.456.668.456 1.12zm1.821-1.353c-.159.14-.281.352-.366.635l.018-.747h-.834v2.909h.846v-1.281c0-.309.056-.529.169-.66.112-.132.297-.197.554-.197a1.037 1.037 0 01.395.077l.127-.908-.053-.009c-.123-.02-.21-.03-.264-.03a.862.862 0 00-.592.211zm3.435 1.338c0-.26-.066-.468-.197-.62a.667.667 0 00-.533-.228c-.229 0-.41.075-.54.224-.132.15-.198.355-.198.618s.065.469.194.617c.13.148.309.222.538.222.234 0 .415-.073.543-.219.129-.146.193-.35.193-.614z"/><path d="M26.012 40.103h.819v-4.597h-.801v1.658c0 .11.002.209.007.295s.013.164.023.236a1.49 1.49 0 00-.451-.46 1.056 1.056 0 00-.558-.145c-.413 0-.736.137-.968.412-.232.275-.349.658-.349 1.15 0 .471.118.85.355 1.136.236.287.547.43.933.43.23 0 .427-.043.588-.129a1.1 1.1 0 00.414-.404l-.012.418zm-10.305-1.987l-.643-2.355h-.914l-.637 2.37-.015.062c-.101.385-.17.704-.208.955a7.567 7.567 0 00-.044-.527 4.442 4.442 0 00-.077-.449l-.573-2.411h-.928l1.136 4.342h.893l.783-2.77c.033-.115.06-.238.081-.368.02-.13.036-.269.046-.415a3.248 3.248 0 00.134.783l.777 2.77h.892l1.136-4.342h-.916l-.564 2.355c-.045.178-.08.354-.102.529a4.973 4.973 0 00-.04.532 10.354 10.354 0 00-.101-.578 7.628 7.628 0 00-.116-.483zm4.028-.03c.139.14.208.33.208.567 0 .237-.07.427-.21.57a.743.743 0 01-.556.213c-.233 0-.418-.071-.554-.214-.137-.142-.205-.332-.205-.569 0-.24.069-.429.205-.57.136-.14.321-.21.554-.21.234 0 .42.07.558.212zm1.067.573c0 .447-.152.818-.458 1.115-.306.296-.693.445-1.161.445-.473 0-.862-.149-1.169-.445a1.487 1.487 0 01-.46-1.115c0-.445.155-.817.463-1.115.309-.299.697-.448 1.166-.448.47 0 .858.147 1.163.442.304.294.456.668.456 1.12zm1.821-1.353c-.159.14-.281.352-.366.635l.018-.747h-.834v2.909h.846v-1.281c0-.309.056-.529.169-.66.112-.132.297-.197.554-.197a1.037 1.037 0 01.395.077l.127-.908-.053-.009c-.123-.02-.21-.03-.264-.03a.862.862 0 00-.592.211zm3.435 1.338c0-.26-.066-.468-.197-.62a.667.667 0 00-.533-.228c-.229 0-.41.075-.54.224-.132.15-.198.355-.198.618s.065.469.194.617c.13.148.309.222.538.222.234 0 .415-.073.543-.219.129-.146.193-.35.193-.614z"/></g><g opacity=".6" fill="#fff"><path d="M8.79 38.848H3.273v-1.011H8.79v1.01zm-3.856.986c-.201.225-.35.457-.443.694-.094.237-.14.491-.14.762 0 .555.166.997.498 1.327.332.33.778.495 1.338.495.548 0 .983-.153 1.304-.46.322-.305.483-.723.483-1.252 0-.301-.05-.581-.152-.84a2.303 2.303 0 00-.453-.719l1.142.007c.14.238.244.486.313.746s.103.533.103.82c0 .83-.258 1.512-.774 2.045-.516.532-1.171.799-1.966.799-.792 0-1.446-.267-1.961-.8-.515-.535-.772-1.223-.772-2.065a3.637 3.637 0 01.363-1.598l1.117.04zm1.434-5.417c.17-.166.397-.25.681-.25.285 0 .513.084.684.252.17.167.256.39.256.667 0 .28-.086.502-.256.666-.171.163-.399.245-.684.245-.287 0-.515-.082-.683-.245-.168-.164-.253-.386-.253-.666s.085-.503.255-.67zm.692-1.28c.536 0 .982.183 1.338.55.356.366.534.83.534 1.393 0 .567-.178 1.035-.534 1.402-.356.368-.802.552-1.338.552-.534 0-.98-.185-1.338-.555-.358-.37-.538-.837-.538-1.399 0-.564.177-1.03.53-1.395.354-.365.803-.548 1.346-.548zm.076-1.758H5.3v1.007h1.836c.617 0 1.07-.144 1.36-.432.29-.288.434-.74.434-1.354 0-.603-.145-1.048-.436-1.335-.29-.287-.743-.43-1.358-.43H5.3v1.014h1.836c.306 0 .526.06.66.181.135.121.202.316.202.584 0 .27-.067.465-.2.585-.133.12-.353.18-.662.18zm-.099-6.093c-.313 0-.56.08-.743.237-.183.158-.274.37-.274.639 0 .275.09.491.268.65.18.157.427.236.742.236.316 0 .563-.078.74-.233.178-.156.267-.371.267-.646 0-.28-.087-.497-.263-.652-.176-.154-.421-.23-.737-.23zm-1.42.026a3.54 3.54 0 00.28-.026H5.9a1.792 1.792 0 00-.552.54 1.267 1.267 0 00-.174.67c0 .495.165.883.495 1.161.33.28.79.419 1.38.419.565 0 1.02-.142 1.363-.426.345-.283.517-.656.517-1.12 0-.277-.052-.512-.155-.706a1.328 1.328 0 00-.486-.496l.502.014v-.982H3.273v.96h1.99c.133 0 .25-.002.354-.008z"/><path d="M8.79 38.848H3.273v-1.011H8.79v1.01zm-3.856.986c-.201.225-.35.457-.443.694-.094.237-.14.491-.14.762 0 .555.166.997.498 1.327.332.33.778.495 1.338.495.548 0 .983-.153 1.304-.46.322-.305.483-.723.483-1.252 0-.301-.05-.581-.152-.84a2.303 2.303 0 00-.453-.719l1.142.007c.14.238.244.486.313.746s.103.533.103.82c0 .83-.258 1.512-.774 2.045-.516.532-1.171.799-1.966.799-.792 0-1.446-.267-1.961-.8-.515-.535-.772-1.223-.772-2.065a3.637 3.637 0 01.363-1.598l1.117.04zm1.434-5.417c.17-.166.397-.25.681-.25.285 0 .513.084.684.252.17.167.256.39.256.667 0 .28-.086.502-.256.666-.171.163-.399.245-.684.245-.287 0-.515-.082-.683-.245-.168-.164-.253-.386-.253-.666s.085-.503.255-.67zm.692-1.28c.536 0 .982.183 1.338.55.356.366.534.83.534 1.393 0 .567-.178 1.035-.534 1.402-.356.368-.802.552-1.338.552-.534 0-.98-.185-1.338-.555-.358-.37-.538-.837-.538-1.399 0-.564.177-1.03.53-1.395.354-.365.803-.548 1.346-.548zm.076-1.758H5.3v1.007h1.836c.617 0 1.07-.144 1.36-.432.29-.288.434-.74.434-1.354 0-.603-.145-1.048-.436-1.335-.29-.287-.743-.43-1.358-.43H5.3v1.014h1.836c.306 0 .526.06.66.181.135.121.202.316.202.584 0 .27-.067.465-.2.585-.133.12-.353.18-.662.18zm-.099-6.093c-.313 0-.56.08-.743.237-.183.158-.274.37-.274.639 0 .275.09.491.268.65.18.157.427.236.742.236.316 0 .563-.078.74-.233.178-.156.267-.371.267-.646 0-.28-.087-.497-.263-.652-.176-.154-.421-.23-.737-.23zm-1.42.026a3.54 3.54 0 00.28-.026H5.9a1.792 1.792 0 00-.552.54 1.267 1.267 0 00-.174.67c0 .495.165.883.495 1.161.33.28.79.419 1.38.419.565 0 1.02-.142 1.363-.426.345-.283.517-.656.517-1.12 0-.277-.052-.512-.155-.706a1.328 1.328 0 00-.486-.496l.502.014v-.982H3.273v.96h1.99c.133 0 .25-.002.354-.008z"/></g><g opacity=".3" fill="#fff"><path d="M22.769 10.67V6.071h.842v4.597h-.842zm-.82-3.213a1.945 1.945 0 00-.58-.369 1.711 1.711 0 00-.634-.117c-.462 0-.831.138-1.106.415-.275.277-.412.649-.412 1.115 0 .457.127.82.382 1.087.255.268.603.402 1.044.402.251 0 .485-.042.7-.126a1.93 1.93 0 00.6-.378l-.007.952a2.451 2.451 0 01-.621.261 2.657 2.657 0 01-.684.086c-.692 0-1.26-.215-1.704-.645-.443-.43-.665-.976-.665-1.639 0-.66.222-1.205.667-1.634.445-.429 1.018-.643 1.72-.643a3.031 3.031 0 011.332.303l-.033.93zm4.516 1.195c.139.14.208.33.208.567 0 .238-.07.428-.209.57a.743.743 0 01-.556.213c-.233 0-.418-.07-.555-.213-.136-.142-.204-.332-.204-.57 0-.239.068-.429.204-.569.137-.14.322-.21.555-.21.233 0 .42.07.557.212zm1.068.573c0 .447-.153.819-.459 1.115-.305.297-.692.445-1.16.445-.473 0-.863-.148-1.17-.445a1.488 1.488 0 01-.459-1.115c0-.445.154-.817.463-1.115.308-.299.697-.448 1.165-.448.47 0 .858.147 1.163.442.304.295.457.668.457 1.121zm1.462.065V7.76h-.84v1.53c0 .514.121.892.361 1.133s.617.362 1.129.362c.502 0 .873-.121 1.112-.364.24-.242.359-.619.359-1.13V7.76h-.846v1.53c0 .255-.05.439-.15.55-.102.112-.264.168-.487.168-.226 0-.388-.056-.488-.166-.1-.111-.15-.295-.15-.552zm5.079-.08c0-.26-.066-.467-.198-.62a.667.667 0 00-.532-.228c-.23 0-.41.075-.541.224-.132.15-.197.355-.197.618s.064.469.194.617c.13.148.309.223.538.223.233 0 .414-.074.543-.22.128-.146.193-.35.193-.614zm-.05 1.46h.818V6.071h-.8V7.73c0 .11.002.21.007.295.005.086.012.165.022.236-.14-.21-.29-.363-.45-.46a1.056 1.056 0 00-.558-.145c-.413 0-.736.137-.968.412-.233.275-.349.659-.349 1.15 0 .472.118.85.354 1.137.237.287.548.43.933.43.232 0 .428-.043.589-.13a1.1 1.1 0 00.414-.404l-.012.418z"/><path d="M22.769 10.67V6.071h.842v4.597h-.842zm-.82-3.213a1.945 1.945 0 00-.58-.369 1.711 1.711 0 00-.634-.117c-.462 0-.831.138-1.106.415-.275.277-.412.649-.412 1.115 0 .457.127.82.382 1.087.255.268.603.402 1.044.402.251 0 .485-.042.7-.126a1.93 1.93 0 00.6-.378l-.007.952a2.451 2.451 0 01-.621.261 2.657 2.657 0 01-.684.086c-.692 0-1.26-.215-1.704-.645-.443-.43-.665-.976-.665-1.639 0-.66.222-1.205.667-1.634.445-.429 1.018-.643 1.72-.643a3.031 3.031 0 011.332.303l-.033.93zm4.516 1.195c.139.14.208.33.208.567 0 .238-.07.428-.209.57a.743.743 0 01-.556.213c-.233 0-.418-.07-.555-.213-.136-.142-.204-.332-.204-.57 0-.239.068-.429.204-.569.137-.14.322-.21.555-.21.233 0 .42.07.557.212zm1.068.573c0 .447-.153.819-.459 1.115-.305.297-.692.445-1.16.445-.473 0-.863-.148-1.17-.445a1.488 1.488 0 01-.459-1.115c0-.445.154-.817.463-1.115.308-.299.697-.448 1.165-.448.47 0 .858.147 1.163.442.304.295.457.668.457 1.121zm1.462.065V7.76h-.84v1.53c0 .514.121.892.361 1.133s.617.362 1.129.362c.502 0 .873-.121 1.112-.364.24-.242.359-.619.359-1.13V7.76h-.846v1.53c0 .255-.05.439-.15.55-.102.112-.264.168-.487.168-.226 0-.388-.056-.488-.166-.1-.111-.15-.295-.15-.552zm5.079-.08c0-.26-.066-.467-.198-.62a.667.667 0 00-.532-.228c-.23 0-.41.075-.541.224-.132.15-.197.355-.197.618s.064.469.194.617c.13.148.309.223.538.223.233 0 .414-.074.543-.22.128-.146.193-.35.193-.614zm-.05 1.46h.818V6.071h-.8V7.73c0 .11.002.21.007.295.005.086.012.165.022.236-.14-.21-.29-.363-.45-.46a1.056 1.056 0 00-.558-.145c-.413 0-.736.137-.968.412-.233.275-.349.659-.349 1.15 0 .472.118.85.354 1.137.237.287.548.43.933.43.232 0 .428-.043.589-.13a1.1 1.1 0 00.414-.404l-.012.418z"/></g><path d="M19.449 33.143V24.58h2.773v8.564H19.45zm-1.181-4.88a2.942 2.942 0 00-.813-.568 2.09 2.09 0 00-.873-.188c-.475 0-.857.146-1.146.44-.29.292-.434.681-.434 1.168 0 .475.138.854.415 1.138.276.284.646.425 1.11.425.28 0 .565-.06.854-.18.289-.119.605-.31.947-.571l-.094 3.044a5.334 5.334 0 01-.95.29 4.814 4.814 0 01-2.088-.036 3.992 3.992 0 01-.99-.375c-.714-.413-1.255-.934-1.621-1.564-.367-.63-.55-1.354-.55-2.171 0-.604.104-1.164.312-1.68a4.02 4.02 0 01.91-1.365 4.023 4.023 0 011.394-.903 4.716 4.716 0 011.716-.307 4.62 4.62 0 011.9.41v2.994zm8.772 2.604a.615.615 0 01-.486.215.623.623 0 01-.495-.212c-.123-.142-.185-.33-.185-.567 0-.235.062-.424.185-.566a.623.623 0 01.495-.213c.202 0 .365.071.489.213.123.142.185.33.185.567 0 .232-.063.42-.188.563zm2.855-.565c0 .431-.092.842-.276 1.233a3.134 3.134 0 01-1.816 1.621c-.384.135-.8.202-1.245.202-.446 0-.86-.066-1.244-.199a3.169 3.169 0 01-1.033-.591 3.005 3.005 0 01-.787-1.025 2.883 2.883 0 01-.28-1.24c0-.435.094-.849.28-1.24.186-.393.448-.735.787-1.026a3.19 3.19 0 011.033-.591 3.776 3.776 0 011.244-.199c.445 0 .86.067 1.245.202.385.134.73.33 1.037.588.335.288.594.628.779 1.022.184.394.276.809.276 1.243zm3.583-2.872H30.75v3.077c0 .987.255 1.71.765 2.166.51.457 1.316.685 2.418.685 1.097 0 1.9-.228 2.406-.685.506-.457.76-1.179.76-2.166v-3.078h-2.724v2.796c0 .413-.033.674-.097.785-.065.11-.18.165-.345.165-.174 0-.292-.058-.357-.174-.064-.116-.097-.374-.097-.776V27.43zm7.891 2.044a.65.65 0 00-.517.226c-.13.151-.196.352-.196.602s.067.455.2.614a.639.639 0 00.513.237.64.64 0 00.514-.237c.132-.159.199-.363.199-.614 0-.25-.066-.45-.196-.602a.65.65 0 00-.517-.226zm3.365 3.67v-8.565H42.01v2.658c0 .236.004.433.014.594.009.16.023.297.04.411a2.393 2.393 0 00-.778-.737 1.958 1.958 0 00-.978-.246c-.667 0-1.218.28-1.652.84-.435.56-.652 1.283-.652 2.171 0 .932.212 1.68.635 2.243.424.564.98.846 1.669.846.38 0 .722-.088 1.028-.263.305-.175.578-.44.817-.793v.84h2.58z" fill="#000"/><path d="M19.449 33.143V24.58h2.773v8.564H19.45zm-1.181-4.88a2.942 2.942 0 00-.813-.568 2.09 2.09 0 00-.873-.188c-.475 0-.857.146-1.146.44-.29.292-.434.681-.434 1.168 0 .475.138.854.415 1.138.276.284.646.425 1.11.425.28 0 .565-.06.854-.18.289-.119.605-.31.947-.571l-.094 3.044a5.334 5.334 0 01-.95.29 4.814 4.814 0 01-2.088-.036 3.992 3.992 0 01-.99-.375c-.714-.413-1.255-.934-1.621-1.564-.367-.63-.55-1.354-.55-2.171 0-.604.104-1.164.312-1.68a4.02 4.02 0 01.91-1.365 4.023 4.023 0 011.394-.903 4.716 4.716 0 011.716-.307 4.62 4.62 0 011.9.41v2.994zm8.772 2.604a.615.615 0 01-.486.215.623.623 0 01-.495-.212c-.123-.142-.185-.33-.185-.567 0-.235.062-.424.185-.566a.623.623 0 01.495-.213c.202 0 .365.071.489.213.123.142.185.33.185.567 0 .232-.063.42-.188.563zm2.855-.565c0 .431-.092.842-.276 1.233a3.134 3.134 0 01-1.816 1.621c-.384.135-.8.202-1.245.202-.446 0-.86-.066-1.244-.199a3.169 3.169 0 01-1.033-.591 3.005 3.005 0 01-.787-1.025 2.883 2.883 0 01-.28-1.24c0-.435.094-.849.28-1.24.186-.393.448-.735.787-1.026a3.19 3.19 0 011.033-.591 3.776 3.776 0 011.244-.199c.445 0 .86.067 1.245.202.385.134.73.33 1.037.588.335.288.594.628.779 1.022.184.394.276.809.276 1.243zm3.583-2.872H30.75v3.077c0 .987.255 1.71.765 2.166.51.457 1.316.685 2.418.685 1.097 0 1.9-.228 2.406-.685.506-.457.76-1.179.76-2.166v-3.078h-2.724v2.796c0 .413-.033.674-.097.785-.065.11-.18.165-.345.165-.174 0-.292-.058-.357-.174-.064-.116-.097-.374-.097-.776V27.43zm7.891 2.044a.65.65 0 00-.517.226c-.13.151-.196.352-.196.602s.067.455.2.614a.639.639 0 00.513.237.64.64 0 00.514-.237c.132-.159.199-.363.199-.614 0-.25-.066-.45-.196-.602a.65.65 0 00-.517-.226zm3.365 3.67v-8.565H42.01v2.658c0 .236.004.433.014.594.009.16.023.297.04.411a2.393 2.393 0 00-.778-.737 1.958 1.958 0 00-.978-.246c-.667 0-1.218.28-1.652.84-.435.56-.652 1.283-.652 2.171 0 .932.212 1.68.635 2.243.424.564.98.846 1.669.846.38 0 .722-.088 1.028-.263.305-.175.578-.44.817-.793v.84h2.58z" fill="#fff"/></g></g></svg>