<svg width="48" height="48" viewBox="0 0 48 48" fill="none" xmlns="http://www.w3.org/2000/svg"><path fill-rule="evenodd" clip-rule="evenodd" d="M10 8a2 2 0 00-2 2v28a2 2 0 002 2h28a2 2 0 002-2V10a2 2 0 00-2-2H10zm-6 2a6 6 0 016-6h28a6 6 0 016 6v28a6 6 0 01-6 6H10a6 6 0 01-6-6V10z" fill="currentColor"/><path fill-rule="evenodd" clip-rule="evenodd" d="M4 18a2 2 0 012-2h36a2 2 0 110 4H6a2 2 0 01-2-2z" fill="currentColor"/><path fill-rule="evenodd" clip-rule="evenodd" d="M18 16a2 2 0 012 2v24a2 2 0 11-4 0V18a2 2 0 012-2z" fill="currentColor"/></svg>