<svg width="48" height="48" viewBox="0 0 48 48" fill="none" xmlns="http://www.w3.org/2000/svg">
<path opacity="0.2" fill-rule="evenodd" clip-rule="evenodd" d="M24.0014 16.9996C14.6862 16.9996 7.13478 24.5511 7.13478 33.8663H4.06812C4.06812 22.8574 12.9926 13.933 24.0014 13.933C35.0103 13.933 43.9348 22.8574 43.9348 33.8663H40.8681C40.8681 24.5511 33.3167 16.9996 24.0014 16.9996Z" fill="#A7AFB7"/>
<path fill-rule="evenodd" clip-rule="evenodd" d="M15.054 17.7114C15.5251 18.4151 15.3364 19.3675 14.6327 19.8385C10.1085 22.8668 7.13503 28.0195 7.13503 33.8661H4.06836C4.06836 26.9533 7.58849 20.8633 12.9269 17.2901C13.6306 16.819 14.583 17.0076 15.054 17.7114Z" fill="#A7AFB7"/>
<path fill-rule="evenodd" clip-rule="evenodd" d="M23.999 26.2C19.7648 26.2 16.3323 29.6325 16.3323 33.8666H10.199C10.199 26.2451 16.3774 20.0666 23.999 20.0666C31.6205 20.0666 37.799 26.2451 37.799 33.8666H31.6656C31.6656 29.6325 28.2332 26.2 23.999 26.2Z" fill="#A7AFB7"/>
<ellipse cx="24" cy="33.8667" rx="23" ry="0.766667" fill="#A7AFB7"/>
</svg>
