<svg width="48" height="48" viewBox="0 0 48 48" fill="none" xmlns="http://www.w3.org/2000/svg"><rect x="3.15" y="9.15" width="41.7" height="29.7" rx="1.05" fill="#404964" stroke="#495169" stroke-width=".3"/><rect x="6.752" y="12.75" width="34.5" height="16.5" rx=".45" fill="#47506B" stroke="#535D7D" stroke-width=".3"/><rect x="6.902" y="30.6" width="5.4" height="3.9" rx=".3" fill="#545C78" stroke="#575F7A" stroke-width=".6"/><rect x="13.199" y="30.3" width="6" height="4.5" rx=".6" fill="#47506B"/><rect x="19.801" y="30.3" width="6" height="4.5" rx=".6" fill="#47506B"/><rect x="26.398" y="30.3" width="6" height="4.5" rx=".6" fill="#47506B"/><rect x="33" y="30.3" width="6" height="4.5" rx=".6" fill="#47506B"/><path d="M39.602 30.9a.6.6 0 01.6-.6h1.2v4.5h-1.2a.6.6 0 01-.6-.6v-3.3z" fill="#47506B"/><rect x="27.898" y="14.4" width="11.7" height="13.2" rx=".6" fill="#525A75"/><rect x="15.371" y="18.105" width="6.673" height="1.604" rx=".6" transform="rotate(-180 15.371 18.105)" fill="#525A75"/><rect x="20.977" y="21.046" width="12.278" height="1.604" rx=".6" transform="rotate(-180 20.977 21.046)" fill="#525A75"/><rect x="25.25" y="23.987" width="16.549" height="1.604" rx=".6" transform="rotate(-180 25.25 23.987)" fill="#525A75"/><rect x="25.25" y="26.928" width="16.549" height="1.604" rx=".6" transform="rotate(-180 25.25 26.928)" fill="#525A75"/></svg>