<svg width="48" height="48" viewBox="0 0 48 48" fill="none" xmlns="http://www.w3.org/2000/svg">
<path opacity="0.4" d="M44.6422 9.41946C44.6422 9.41946 44.6422 9.4469 44.6422 9.41946C45.0539 9.55668 45.4655 9.09013 45.6851 8.87058C45.9046 8.5138 46.5359 7.91003 46.9475 7.91003C47.1945 7.99237 46.9475 8.59614 47.1945 8.78824C47.222 8.78824 47.4141 9.03524 47.3866 9.06268C47.2768 9.36457 47.0847 11.2582 47.1945 11.3405C47.1671 11.5326 47.1945 11.6699 47.0573 11.8071C46.8926 12.0541 46.5084 11.862 46.2889 11.862C46.2065 11.9992 45.9595 12.0815 45.9321 12.2187C45.74 12.7951 46.728 13.7282 46.5633 14.3594C46.5633 14.4417 46.4261 14.9357 46.4261 15.0455C46.3986 15.1278 46.3712 15.2101 46.2889 15.2376C46.2889 15.265 45.9046 15.1553 45.8498 15.1553C45.7125 14.9906 45.7674 14.6064 45.7125 14.6064C45.6028 14.6064 45.5204 14.7985 45.493 14.7985C45.4655 14.9632 45.3009 15.512 45.1362 15.5944C45.0264 15.7316 44.7794 15.7316 44.6422 15.7316C44.5873 15.759 44.5873 15.759 44.5873 15.8414C44.752 15.9511 44.8343 16.1158 44.8343 16.253C44.8892 16.4726 44.5599 16.6647 44.505 16.6372C44.1757 16.6372 43.9287 16.4451 43.6268 16.4451C43.4896 16.4726 43.4621 16.9117 43.3798 16.9117C43.2975 17.241 43.023 17.4331 42.8309 17.7076H42.8035V17.735C42.5839 17.8173 42.4467 18.0094 42.282 18.1467C42.282 18.3113 42.1448 18.5309 42.1448 18.723C41.6234 19.1621 40.9373 18.9425 40.5531 19.8207C40.5531 20.0129 40.3061 20.3971 40.3061 20.3971C40.0865 20.3971 39.8944 20.4245 39.6748 20.4245C39.6474 20.2324 39.8121 19.9031 40.0316 19.9031C40.0316 19.8207 39.6474 19.3268 39.8121 19.3268V19.2444C39.8121 18.9151 40.2512 18.8053 40.1139 18.3662C40.0591 18.1192 39.7572 18.0094 39.5376 18.1192L37.891 20.1226C37.8086 20.2324 37.1774 20.3422 37.0402 20.3971C36.8481 20.5617 36.7109 21.0008 37.0128 21.1655C37.0677 21.3302 37.15 21.4125 37.15 21.6046C37.2323 21.6321 37.7263 21.3851 37.9733 21.4948C38.0556 21.6595 38.1105 21.8242 38.1105 22.0163C38.1654 22.0986 38.4124 22.373 38.5222 22.4005C38.5496 22.4005 38.5222 22.4005 38.5222 22.4005C38.9064 22.4005 38.9064 21.4948 39.6474 21.4948C39.9493 21.4125 40.2512 21.7418 40.6079 21.6321C40.8275 21.5772 40.9647 21.6321 41.1294 21.7144C41.1294 21.7693 41.1843 22.1809 41.0196 22.1809C40.9922 22.2358 40.1963 22.5652 40.1688 22.5652C40.2237 22.6749 39.4827 23.4434 39.373 23.361C39.3455 23.4434 39.0985 23.8001 39.0985 23.8276C39.0711 23.855 38.9887 23.9648 38.9887 23.9922C38.9613 24.0746 38.8515 24.6783 38.8515 24.7058C38.879 24.7332 38.8515 24.7332 38.879 24.7332C38.879 24.7332 38.9064 24.7332 38.9064 24.7607C38.9064 24.8156 39.0162 24.843 39.0162 24.8704C40.1139 25.0077 40.1688 26.6818 40.5531 26.9013C40.5531 26.9288 40.5531 26.9288 40.5805 26.9562C40.8549 27.2032 41.2117 27.3404 41.5136 27.5874V27.6149C41.8978 27.807 41.1294 27.8344 41.1019 27.9442C41.3489 28.0814 41.5959 28.2186 41.7331 28.6028C41.7331 29.0419 40.7726 29.4262 40.5805 29.6457V29.6732C40.6628 29.7006 40.8275 29.7006 40.9098 29.7006C41.1568 29.2615 41.8429 29.5908 42.1722 29.728V29.7555C42.1174 30.0025 41.6783 30.1123 41.6783 30.3044C41.7606 30.3044 41.9801 30.0574 42.0625 30.1672C42.0625 30.2495 42.1448 30.4416 42.0625 30.5239C41.9527 30.6611 41.8429 30.5514 41.7331 30.6337C41.7331 31.1551 42.3095 31.8687 41.4587 31.8687C41.2117 32.3078 41.1294 32.3627 41.1294 32.9664C40.9098 33.1311 40.9373 33.4879 40.7177 33.6525C40.6079 33.6525 40.4158 33.6525 40.3609 33.7074C40.3609 33.8447 40.6079 33.927 40.7177 33.9544C40.6903 34.174 40.3609 34.0642 40.4707 34.3661C40.4982 34.6131 40.5531 34.7778 40.4982 34.9973C40.0316 35.0247 40.3609 35.4364 39.9767 35.6285C39.867 35.9578 39.4004 35.9304 39.3455 36.0402C39.2357 36.15 38.7417 37.1105 38.5496 37.1105V37.1379C38.3301 37.2203 37.8086 37.3026 37.8086 37.577C37.7812 37.6594 37.8361 37.6868 37.8361 37.7691C37.3421 38.0436 36.7383 38.6748 36.0797 38.4827C35.8327 38.4004 35.7778 38.9492 35.5308 38.9492C35.3936 39.0865 35.0368 38.7022 35.0368 38.5925C34.8447 38.4552 34.8172 38.7022 34.7898 38.7571C34.68 39.1688 33.9939 39.6353 33.5548 39.6353C33.2804 39.7177 31.8533 39.8549 31.7984 40.1293C31.7984 40.2391 31.7161 40.5136 31.5514 40.5136C31.4142 40.6782 31.4965 40.5959 31.5514 40.7605C31.6337 40.7605 31.6886 40.7605 31.771 40.788C31.8258 40.8703 31.7984 41.0624 31.7984 41.1448C31.6063 41.2545 31.524 41.2545 31.3044 41.2271C31.2221 41.1997 31.03 40.788 30.9476 40.6782C30.6183 40.5135 30.9476 40.1842 30.9751 39.9921H30.9202C30.7281 40.047 30.5634 40.1568 30.3713 40.1842C30.3439 40.1842 29.9048 39.5256 29.8773 39.8549C29.9871 39.9098 30.0145 39.9921 29.8773 40.0196C29.8773 40.0744 29.1089 39.9921 29.054 39.9921C28.807 39.9921 27.8465 39.7451 27.9288 39.3335C27.9013 39.1962 28.0111 38.9218 28.0111 38.7846L27.9288 38.7022C27.8465 38.7022 26.9408 38.5376 26.9408 38.5101C26.8036 38.4827 26.831 38.2906 26.7487 38.2631C26.6938 38.2357 26.5291 38.2631 26.5017 38.2906C26.4194 38.4004 26.1175 38.7846 25.9528 38.7846C25.8156 38.7846 25.7058 38.7846 25.5686 38.8669C25.5686 39.1413 25.2118 39.0316 25.1021 39.0316C25.0472 38.9767 24.9648 38.9218 24.9374 38.8669C24.8825 38.8669 24.5532 38.9767 24.5532 38.9767C24.3062 39.059 24.1141 38.812 23.8945 38.812C23.8671 38.8669 23.675 39.059 23.6475 39.059C23.5652 39.1139 23.2084 38.9767 23.1261 39.0316C23.0163 39.059 23.0438 39.1688 23.0438 39.2786C23.1535 39.3883 23.181 39.7177 23.181 39.8549C23.2907 39.8549 23.2907 40.3763 23.2633 40.4312C23.2359 40.5959 23.0986 40.541 22.9614 40.5136C22.687 40.4587 22.5498 40.1842 22.5498 39.9098C22.5498 39.7177 22.5223 39.8275 22.44 39.6902C22.1655 39.6902 22.1655 39.9647 22.0009 39.9647C21.8637 39.9647 21.8637 39.9098 21.7264 39.8823C21.6715 39.6902 21.205 39.306 21.205 39.306C21.1227 39.2786 20.9306 39.3609 20.8757 39.306C20.8208 39.2786 20.7385 39.1688 20.711 39.1139C20.6561 38.8669 20.7659 38.4278 20.6836 38.2357C20.5463 38.1808 20.464 38.1808 20.3817 38.0985C20.217 37.9887 20.1621 37.4124 19.9975 37.1928C19.723 37.0007 19.5858 37.3575 19.3662 37.3575C19.0644 37.2752 19.1741 37.1105 19.1193 36.8086C19.0095 36.4793 19.2016 36.2323 19.2565 35.9304H19.2839C19.2839 35.7383 19.8054 35.5187 19.9426 35.3541C19.9975 35.3541 19.9975 35.3266 20.0249 35.2992C20.1072 35.2717 20.4366 33.7623 20.2445 33.5428C20.2445 33.433 19.8602 33.2958 19.8602 33.186C19.8328 33.1585 19.8054 33.0762 19.7779 33.0762C19.7779 32.7743 19.6681 32.6646 19.5035 32.445C19.3937 32.4176 19.2565 32.3627 19.1741 32.4725C18.982 32.5548 19.1741 33.0488 18.8997 33.1037C18.7076 33.1586 18.488 32.8018 18.3234 32.692C18.1587 32.692 17.8019 32.4176 17.6098 32.3627C17.4452 32.3901 17.1982 32.6371 17.0609 32.7743C16.567 32.8292 16.1279 33.433 15.6613 33.5977C15.4692 33.7074 14.2068 33.9544 13.9598 33.5977C13.85 33.4879 13.9872 33.1311 13.9872 32.9939C13.8226 32.8841 13.7128 32.8292 13.7128 32.5822C13.6579 32.5548 13.2462 32.4725 13.2462 32.4725C12.9169 32.3901 12.6973 31.8961 12.2582 31.8961C12.2582 31.8961 11.5996 32.1157 11.5173 32.2529C11.5173 32.3901 11.5721 32.6097 11.4898 32.7194C11.2703 32.8292 11.2703 32.8292 11.0233 32.7469C10.886 32.445 11.0233 32.2255 11.0233 31.951C10.8586 31.8412 10.5567 31.8412 10.392 31.9236C10.2274 31.951 10.0627 32.1706 9.87061 32.1157C9.65106 32.0608 9.54128 31.8687 9.40406 31.704C9.10218 31.6491 8.88262 31.6491 8.58074 31.6491C8.36119 31.4296 8.14163 31.1002 7.94953 30.8533C7.78486 30.7435 7.59275 30.8533 7.42809 30.6337C7.40065 30.6063 7.3732 30.6063 7.34576 30.5788C7.23598 30.4141 7.1262 30.0574 7.09876 29.8104C6.96154 29.728 6.63221 29.8104 6.54988 29.7006C6.46755 29.7006 6.30288 29.3713 6.30288 29.3164C6.13822 29.2066 5.89122 29.1243 5.754 28.9871H5.72656C5.72656 28.8773 5.3149 28.3833 5.3149 28.3833C4.90324 28.4656 4.40924 28.6852 4.07992 28.2735C3.99758 28.1637 3.97014 27.9442 3.97014 27.7521C3.53104 27.4227 3.39382 26.9836 2.81749 26.9836C2.70771 26.9562 2.73516 26.9288 2.65283 26.8739C2.68027 26.6818 2.62538 26.5445 2.79005 26.4348V26.4073C3.0096 26.2701 2.87238 25.6389 2.87238 25.4193C2.87238 25.1449 2.84493 25.2821 2.92727 25.1174C3.14682 25.1174 3.31148 25.2821 3.50359 25.3096C3.53103 25.2272 3.55848 25.2821 3.55848 25.1723C3.55848 24.7607 3.42126 24.4313 3.36637 24.0471C3.25659 23.7452 3.61337 23.5806 3.61337 23.3336C3.58592 23.1964 3.55848 23.1964 3.50359 23.1415C3.14682 23.0591 3.09193 22.62 3.17426 22.3182C3.25659 21.9888 2.21372 21.1655 2.02161 21.3302C1.93928 21.3302 1.85695 21.1929 1.85695 21.1929C1.85695 21.0008 2.02161 20.5068 1.93928 20.3422C1.80206 20.2599 1.30807 19.8756 1.19829 19.7384C1.19829 19.7384 1.17085 19.7384 1.17085 19.711C0.978739 19.4365 1.22574 19.1621 1.50018 19.0798C1.66484 18.7779 1.58251 18.4485 1.58251 18.1192C1.58251 17.7624 1.19829 17.982 1.00618 18.0094C0.868963 17.8997 0.704299 17.8173 0.868963 17.488C1.17085 17.4331 1.08852 17.0215 0.951295 17.0215C0.896407 16.9391 1.28062 16.7196 1.33551 16.5275C1.60995 16.5275 2.46072 15.7865 2.98215 15.9511C3.33893 16.006 3.06449 16.4177 3.53104 16.4451C4.21714 15.8962 4.54647 15.8414 5.42467 15.8414C5.50701 15.8139 6.33033 15.7316 6.33033 15.6767C6.60477 15.5395 6.63221 15.4023 6.60477 15.2376C6.63221 15.2101 7.40065 14.2771 7.40065 14.2496C7.48298 13.8379 7.51042 13.4263 7.42809 13.0146C7.45553 12.8774 7.48298 12.7127 7.3732 12.6304C7.29087 12.4932 7.34576 12.4109 7.51042 12.4109C8.14163 12.2187 8.63563 12.603 9.21195 12.603V12.5755C9.37662 12.3834 9.04729 11.862 9.65106 11.5601C9.73339 11.4229 10.0353 10.874 10.0627 10.7917C10.1451 10.6819 10.2823 10.7093 10.392 10.7368C10.392 11.0112 11.6819 11.2033 11.7368 11.2033C11.9289 11.2033 11.9838 11.1484 12.0387 10.9838C12.0387 10.9838 12.0112 10.3526 12.0661 10.2702C12.1759 9.83112 12.8071 9.886 13.1364 9.77623C13.3286 9.61156 13.2462 9.30968 13.6579 9.30968C13.85 9.25479 14.1244 9.36457 14.1244 9.58412C14.1244 9.6939 14.2068 9.85856 14.2068 9.94089C14.1519 10.1056 14.9203 10.6819 15.0575 10.6819C15.1673 10.7093 15.4966 10.9014 15.5241 10.9838C15.5241 11.2033 15.5515 11.6699 15.7162 11.8071C15.7711 12.109 16.0181 12.603 15.6887 12.85V12.8774C15.3869 13.2067 15.3045 13.4537 15.6064 13.7831C15.7985 13.9203 16.1553 13.9477 16.3748 14.0026C16.5121 14.0026 18.9546 14.8808 18.8723 15.4846C18.8723 15.7041 18.982 16.0884 19.2016 16.1981V16.2256C19.2016 16.2256 19.2016 16.6647 19.2565 16.6647V16.6921C19.2839 16.7196 19.3114 16.7196 19.3388 16.747C19.3388 16.747 19.3388 16.7745 19.3662 16.7745C19.6407 16.7745 19.9426 16.8842 20.2445 16.8842C20.4915 16.9666 20.958 17.1312 21.1501 17.1312V17.1587C21.7264 17.1587 22.2753 17.1312 22.8516 17.1312C23.4554 17.2136 23.7573 17.8173 24.1964 17.8722C24.3885 17.6527 24.8276 17.9546 24.9099 18.0918C25.3491 18.0918 25.4314 18.3113 25.6784 18.5034C25.7333 18.5858 25.7882 18.5858 25.8705 18.5858C26.0077 18.2015 28.4777 17.6801 28.4777 17.3233H28.5051C28.9168 17.2136 29.4382 17.5429 29.9322 17.4606C30.0145 17.241 30.4536 16.8293 30.6183 16.6647C30.8104 16.5 31.5788 15.9237 31.4965 15.8139C31.4142 15.5395 30.9751 14.3594 31.6886 14.3594C31.6886 14.3594 32.5668 14.9083 32.5668 14.6887C32.8138 14.6887 33.3078 14.0849 33.3627 13.8654C33.6646 13.8105 34.186 13.7831 34.2958 13.5361C34.4879 13.3988 34.6526 12.8774 34.7075 12.8774C34.8447 12.7127 35.0642 12.6579 35.2563 12.6304H35.2838C35.3661 12.5206 35.7229 12.2462 35.8327 12.2462C35.8327 12.1913 36.7932 12.1639 36.9579 12.1364C36.9579 11.9992 36.9304 11.862 36.9304 11.7796C36.8207 11.3954 36.3267 11.1484 35.9425 10.9289C35.7778 10.9289 35.7229 11.121 35.5033 11.121C35.3936 11.2308 35.3936 11.3405 35.2838 11.4503C35.0642 11.4503 34.6251 11.2582 34.4879 11.2857C34.2684 11.2857 34.0763 11.4778 33.7195 11.4778C33.6646 11.3954 33.5823 11.3405 33.5823 11.1759C33.7195 11.0387 33.939 10.8465 33.8841 10.627C33.8841 10.133 34.0214 9.83112 34.1311 9.33712H34.1586C34.2135 9.28224 34.2684 9.1999 34.3507 9.1999C34.8447 9.1999 35.3387 9.25479 35.6955 8.84313L35.7778 8.7608C35.7778 8.48636 35.9699 8.10214 35.9699 7.80026C35.9699 7.41604 36.4364 6.72994 36.4364 6.72994C36.5462 6.4555 36.2169 6.15362 35.9973 6.04384C35.9973 6.0164 35.9973 5.93406 35.9699 5.93406C36.0248 5.65962 36.0248 5.60473 36.2169 5.46751C36.4364 5.41263 36.6286 5.35774 36.8481 5.27541C36.9853 5.02841 37.7263 4.80886 38.0008 4.80886C38.1929 4.75397 38.4399 4.97352 38.632 4.97352C38.9887 4.94608 39.2083 4.91863 39.5102 5.05585H39.5651C39.5651 5.05585 40.6903 6.2085 40.6903 6.42806C40.6903 6.4555 40.6903 6.4555 40.7177 6.48294C40.7452 6.48294 40.7452 6.51039 40.7726 6.51039V6.53783C40.9373 6.67505 41.1294 6.86716 41.294 7.00438V7.03183C41.294 7.30627 41.4313 7.44349 41.6234 7.58071C41.6234 7.60815 41.6234 7.60815 41.6508 7.60815C41.6783 7.69048 41.7331 8.01981 41.8429 8.01981V8.04725C42.0625 8.04725 42.4741 7.99237 42.6388 8.0747C42.6388 8.18447 43.0779 8.0747 43.1877 8.10214C43.1877 8.12959 43.3523 8.18447 43.3798 8.21192C43.4072 8.40403 43.7914 8.5138 44.0384 8.56869C44.0384 8.7608 44.3678 9.41946 44.6422 9.41946ZM41.0196 37.5222C41.047 37.2477 41.0745 37.0007 41.1019 36.6988C41.1019 36.3421 41.294 36.2872 41.294 35.9578C41.294 35.6285 41.6234 35.0522 41.8704 34.8326C41.8978 34.7777 42.2546 34.7229 42.3369 34.7503C42.9681 34.8326 42.5565 35.2169 42.5565 35.4913C42.5565 35.8755 42.7211 36.4518 42.6114 36.8086C42.6114 36.9733 42.4741 37.083 42.4741 37.2203C42.3918 37.3575 42.0899 37.3849 42.0899 37.6045C41.9527 37.9887 42.1174 38.2357 41.788 38.6199C41.788 38.5101 41.541 38.3729 41.5136 38.2083C41.2392 37.9064 41.1019 37.8515 41.0196 37.5222ZM30.4262 41.6113C30.8104 41.5839 31.6337 41.2271 32.0454 41.3918C32.1552 41.4192 32.3473 41.5015 32.3747 41.6113C32.4571 41.7485 32.2101 42.0504 31.9905 42.7365H31.9631V42.764C31.771 43.1207 30.9202 43.4775 30.8927 43.3952H30.8653C30.7006 43.4501 30.0969 43.2031 30.0969 43.0658H30.0694C29.8224 42.0504 30.3988 42.3249 30.4262 41.6113Z" fill="#6899EF"/>
<path opacity="0.8" d="M22.7571 28.5498C22.7571 28.9593 22.8377 29.3649 22.9945 29.7433C23.1512 30.1216 23.3809 30.4654 23.6705 30.755C23.9601 31.0446 24.3039 31.2743 24.6823 31.4311C25.0606 31.5878 25.4662 31.6684 25.8757 31.6684C26.2853 31.6684 26.6908 31.5878 27.0692 31.4311C27.4475 31.2743 27.7913 31.0446 28.0809 30.755C28.3705 30.4654 28.6002 30.1216 28.757 29.7433C28.9137 29.3649 28.9944 28.9593 28.9944 28.5498C28.9944 27.7227 28.6658 26.9294 28.0809 26.3446C27.4961 25.7597 26.7028 25.4312 25.8757 25.4312C25.0486 25.4312 24.2554 25.7597 23.6705 26.3446C23.0856 26.9294 22.7571 27.7227 22.7571 28.5498Z" fill="#6899EF"/>
<path opacity="0.6" d="M35.179 28.0301C35.179 28.322 35.2365 28.6111 35.3482 28.8808C35.4599 29.1505 35.6236 29.3955 35.8301 29.602C36.0365 29.8084 36.2815 29.9721 36.5512 30.0838C36.8209 30.1956 37.11 30.2531 37.4019 30.2531C37.6939 30.2531 37.9829 30.1956 38.2526 30.0838C38.5223 29.9721 38.7674 29.8084 38.9738 29.602C39.1802 29.3955 39.344 29.1505 39.4557 28.8808C39.5674 28.6111 39.6249 28.322 39.6249 28.0301C39.6249 27.7382 39.5674 27.4491 39.4557 27.1794C39.344 26.9097 39.1802 26.6646 38.9738 26.4582C38.7674 26.2518 38.5223 26.0881 38.2526 25.9763C37.9829 25.8646 37.6939 25.8071 37.4019 25.8071C37.11 25.8071 36.8209 25.8646 36.5512 25.9763C36.2815 26.0881 36.0365 26.2518 35.8301 26.4582C35.6236 26.6646 35.4599 26.9097 35.3482 27.1794C35.2365 27.4491 35.179 27.7382 35.179 28.0301Z" fill="#6899EF"/>
<path opacity="0.5" d="M31.4888 21.0658C31.4888 21.562 31.6859 22.038 32.0368 22.3889C32.3877 22.7398 32.8637 22.9369 33.36 22.9369C33.8562 22.9369 34.3322 22.7398 34.6831 22.3889C35.034 22.038 35.2311 21.562 35.2311 21.0658C35.2311 20.5695 35.034 20.0936 34.6831 19.7426C34.3322 19.3917 33.8562 19.1946 33.36 19.1946C32.8637 19.1946 32.3877 19.3917 32.0368 19.7426C31.6859 20.0936 31.4888 20.5695 31.4888 21.0658Z" fill="#6899EF"/>
</svg>
