<svg width="48" height="48" viewBox="0 0 48 48" fill="none" xmlns="http://www.w3.org/2000/svg">
<path d="M34.0521 46H22.0387C20.0579 46 18.1138 45.1747 16.7382 43.7441C16.7382 43.7441 6.03293 32.1839 5.78094 29.7784C5.52894 27.3729 7.14586 26.4302 7.14586 26.4302C8.283 25.4214 9.95203 25.2197 11.2909 25.935L15.7111 28.2826V10.767C15.7111 8.23593 17.7653 6.18174 20.2963 6.18174C20.6081 6.18174 20.9199 6.21842 21.2317 6.27345C21.3968 3.88912 23.3776 2 25.7986 2C27.3759 2 28.7515 2.78866 29.5769 3.99917C30.1088 3.77907 30.6957 3.66903 31.3009 3.66903C33.832 3.66903 35.8862 5.72322 35.8862 8.25427V8.76782C36.1796 8.7128 36.4914 8.67612 36.8032 8.67612C39.3343 8.67612 41.3885 10.7303 41.3885 13.2614V38.6636C41.3885 42.717 38.1054 46 34.0521 46ZM8.75926 29.8741C8.75926 30.6973 18.0615 40.2713 19.3793 41.1947C20.697 42.1181 21.03 42.3318 22.0204 42.3318H34.0521C36.0696 42.3318 37.7203 40.6811 37.7203 38.6636V13.2614C37.7203 12.7478 37.3168 12.3443 36.8032 12.3443C36.2897 12.3443 35.8862 12.7478 35.8862 13.2614V23.9908H32.218V8.25427C32.218 7.74073 31.8145 7.33722 31.3009 7.33722C30.7874 7.33722 30.3839 7.74073 30.3839 8.25427V23.9908H26.7157V6.58524C26.7157 6.0717 26.3122 5.6682 25.7986 5.6682C25.2851 5.6682 24.8816 6.0717 24.8816 6.58524V23.9908H21.2134V10.767C21.2134 10.2534 20.8099 9.84994 20.2963 9.84994C19.7828 9.84994 19.3793 10.2718 19.3793 10.767V34.3718C19.3793 34.3718 11.0876 28.5243 10.0926 28.5243C9.09755 28.5243 8.75926 29.051 8.75926 29.8741Z" fill="currentColor"/>
</svg>
