<svg width="48" height="48" viewBox="0 0 48 48" fill="none" xmlns="http://www.w3.org/2000/svg">
<path fill-rule="evenodd" clip-rule="evenodd" d="M28.7402 4.39153C26.1221 1.77537 21.8818 1.77042 19.2602 4.39203L4.39162 19.2606C1.77546 21.8787 1.77057 26.1191 4.39218 28.7407L19.2603 43.6074C21.8776 46.2247 26.1184 46.2277 28.7407 43.6073L43.6074 28.7406C46.2248 26.1233 46.2279 21.8825 43.6075 19.2602L28.7402 4.39153ZM26.0884 7.04539C24.9332 5.89107 23.0676 5.89039 21.9131 7.04489L7.04548 21.9125C5.89118 23.0676 5.89048 24.9332 7.04492 26.0877L21.913 40.9544C23.0661 42.1075 24.9318 42.1096 26.0884 40.9539L40.9545 26.0878C42.1075 24.9348 42.1097 23.0695 40.9545 21.9129L26.0884 7.04539Z" fill="currentColor"/>
<path d="M21.8117 34.5006V20.065C21.8117 19.8209 21.9998 19.6231 22.2474 19.6231H25.7531C25.9937 19.6231 26.1887 19.8168 26.1887 20.065V34.5006C26.1887 34.7447 26.0007 34.9426 25.7531 34.9426H22.2474C22.0068 34.9426 21.8117 34.7489 21.8117 34.5006Z" fill="currentColor"/>
<path d="M26.1887 15.2461C26.1887 16.4547 25.2089 17.4346 24.0002 17.4346C22.7916 17.4346 21.8117 16.4547 21.8117 15.2461C21.8117 14.0374 22.7916 13.0576 24.0002 13.0576C25.2089 13.0576 26.1887 14.0374 26.1887 15.2461Z" fill="currentColor"/>
</svg>
