<svg width="48" height="48" viewBox="0 0 48 48" fill="none" xmlns="http://www.w3.org/2000/svg"><path d="M40.64 5.472A1.47 1.47 0 0039.17 4H15.622l-8.83 8.83v28.698c0 .813.658 1.472 1.471 1.472H39.17c.813 0 1.472-.659 1.472-1.472V5.472z" fill="#525C7B"/><path d="M39.906 6.208c0-.813-.659-1.472-1.471-1.472H14.887l-7.358 7.79v28.267c0 .813.659 1.472 1.472 1.472h29.433c.813 0 1.472-.66 1.472-1.472V6.208z" fill="#404964"/><g filter="url(#new_questionnaire_from_data_filter0_d)"><path d="M15.621 11.358V5.472L8.263 12.83h5.886c.813 0 1.472-.659 1.472-1.472z" fill="#555D72"/></g><path d="M15.621 11.358V4l-8.83 8.83h7.358c.813 0 1.472-.659 1.472-1.472z" fill="#525C7B"/><rect width="8.667" height="1.444" rx=".722" transform="matrix(-1 0 0 1 38.113 11.37)" fill="#4A5472"/><rect width="1.444" height="1.444" rx=".722" transform="matrix(-1 0 0 1 28.48 11.37)" fill="#4E597A"/><rect width="7.704" height="1.444" rx=".722" transform="matrix(-1 0 0 1 29.445 8)" fill="#4E597A"/><rect width="7.222" height="1.444" rx=".722" transform="matrix(-1 0 0 1 38.113 8)" fill="#4A5472"/><rect width="4.815" height="1.444" rx=".722" transform="matrix(-1 0 0 1 38.113 18.111)" fill="#4A5472"/><rect width="9.63" height="1.444" rx=".722" transform="matrix(-1 0 0 1 29.445 18.111)" fill="#4A5472"/><rect width="1.926" height="1.444" rx=".722" transform="matrix(-1 0 0 1 32.336 18.111)" fill="#4A5472"/><rect width="5.722" height="1.444" rx=".722" transform="matrix(-1 0 0 1 26.555 14.741)" fill="#4E597A"/><rect width="10.593" height="1.444" rx=".722" transform="matrix(-1 0 0 1 38.113 14.741)" fill="#4E597A"/><rect width="6.741" height="1.444" rx=".722" transform="matrix(-1 0 0 1 38.113 21.481)" fill="#4E597A"/><rect width="5.778" height="1.444" rx=".722" transform="matrix(-1 0 0 1 38.113 24.852)" fill="#4A5472"/><rect width="6.741" height="1.444" rx=".722" transform="matrix(-1 0 0 1 30.41 21.481)" fill="#4E597A"/><rect width="6.741" height="1.444" rx=".722" transform="matrix(-1 0 0 1 22.703 21.481)" fill="#4A5472"/><path fill-rule="evenodd" clip-rule="evenodd" d="M22.707 29.293a1 1 0 010 1.414l-6.187 6.188a1 1 0 01-1.415 0l-2.812-2.813a1 1 0 011.414-1.414l2.105 2.105 5.48-5.48a1 1 0 011.415 0z" fill="#4E597A"/><defs><filter id="new_questionnaire_from_data_filter0_d" x="6.336" y="3.546" width="11.21" height="11.21" filterUnits="userSpaceOnUse" color-interpolation-filters="sRGB"><feFlood flood-opacity="0" result="BackgroundImageFix"/><feColorMatrix in="SourceAlpha" values="0 0 0 0 0 0 0 0 0 0 0 0 0 0 0 0 0 0 127 0"/><feOffset/><feGaussianBlur stdDeviation=".963"/><feColorMatrix values="0 0 0 0 0 0 0 0 0 0 0 0 0 0 0 0 0 0 0.25 0"/><feBlend in2="BackgroundImageFix" result="effect1_dropShadow"/><feBlend in="SourceGraphic" in2="effect1_dropShadow" result="shape"/></filter></defs></svg>