<svg width="48" height="48" viewBox="0 0 48 48" fill="none" xmlns="http://www.w3.org/2000/svg"><path d="M16.397 18.4a2 2 0 012-2h7.671a2 2 0 012 2v7.67a2 2 0 01-2 2h-7.67a2 2 0 01-2-2V18.4z" fill="currentColor"/><path d="M29.804 20.53a1.03 1.03 0 012.06 0v9.335a2 2 0 01-2 2H20.53a1.03 1.03 0 110-2.06h7.274a2 2 0 002-2V20.53z" fill="currentColor"/><path fill-rule="evenodd" clip-rule="evenodd" d="M6 8a2 2 0 012-2h2.75a2 2 0 012 2v.25h22.5V8a2 2 0 012-2H40a2 2 0 012 2v2.75a2 2 0 01-2 2h-.25v22.5H40a2 2 0 012 2V40a2 2 0 01-2 2h-2.75a2 2 0 01-2-2v-.25h-22.5V40a2 2 0 01-2 2H8a2 2 0 01-2-2v-2.75a2 2 0 012-2h.25v-22.5H8a2 2 0 01-2-2V8zm6.75 29.5v-.25a2 2 0 00-2-2h-.25v-22.5h.25a2 2 0 002-2v-.25h22.5v.25a2 2 0 002 2h.25v22.5h-.25a2 2 0 00-2 2v.25h-22.5z" fill="currentColor"/></svg>