<svg width="48" height="48" viewBox="0 0 48 48" fill="none" xmlns="http://www.w3.org/2000/svg">
<path fill-rule="evenodd" clip-rule="evenodd" d="M19.0004 6.90002C17.0122 6.90002 15.4004 8.5118 15.4004 10.5V13.5H9.6C8.71634 13.5 8 14.2163 8 15.1C8 15.9837 8.71635 16.7 9.6 16.7H11.4004V36.5C11.4004 39.0405 13.4599 41.1 16.0004 41.1H32.0004C34.5409 41.1 36.6004 39.0405 36.6004 36.5V16.7H38.4C39.2837 16.7 40 15.9837 40 15.1C40 14.2163 39.2837 13.5 38.4 13.5H32.6004V10.5C32.6004 8.5118 30.9886 6.90002 29.0004 6.90002H19.0004ZM29.4004 13.5V10.5C29.4004 10.2791 29.2213 10.1 29.0004 10.1H19.0004C18.7795 10.1 18.6004 10.2791 18.6004 10.5V13.5H29.4004ZM14.6004 16.7H33.4004V36.5C33.4004 37.2732 32.7736 37.9 32.0004 37.9H16.0004C15.2272 37.9 14.6004 37.2732 14.6004 36.5V16.7Z" fill="#366ACB"/>
<path opacity="0.4" d="M19 22.5C19 21.9477 19.4477 21.5 20 21.5H21C21.5523 21.5 22 21.9477 22 22.5V32.5C22 33.0523 21.5523 33.5 21 33.5H20C19.4477 33.5 19 33.0523 19 32.5V22.5Z" fill="#366ACB"/>
<path opacity="0.4" d="M26 22.5C26 21.9477 26.4477 21.5 27 21.5H28C28.5523 21.5 29 21.9477 29 22.5V32.5C29 33.0523 28.5523 33.5 28 33.5H27C26.4477 33.5 26 33.0523 26 32.5V22.5Z" fill="#366ACB"/>
</svg>
