<svg width="48" height="48" viewBox="0 0 48 48" fill="none" xmlns="http://www.w3.org/2000/svg">
<g opacity="0.8">
<path opacity="0.1" d="M20.3622 32.0004C20.3622 30.4729 20.3622 29.7092 20.6594 29.1258C20.9209 28.6127 21.3381 28.1954 21.8513 27.934C22.4347 27.6367 23.1984 27.6367 24.7258 27.6367H39.6349C41.1623 27.6367 41.926 27.6367 42.5094 27.934C43.0226 28.1954 43.4398 28.6127 43.7013 29.1258C43.9985 29.7092 43.9985 30.4729 43.9985 32.0004V36.0004C43.9985 37.5278 43.9985 38.2915 43.7013 38.8749C43.4398 39.388 43.0226 39.8053 42.5094 40.0667C41.926 40.364 41.1623 40.364 39.6349 40.364H24.7258C23.1984 40.364 22.4347 40.364 21.8513 40.0667C21.3381 39.8053 20.9209 39.388 20.6594 38.8749C20.3622 38.2915 20.3622 37.5278 20.3622 36.0004V32.0004Z" fill="#6899EF"/>
<path opacity="0.4" d="M20.3647 12.0004C20.3647 10.4729 20.3647 9.70923 20.662 9.12584C20.9235 8.61267 21.3407 8.19545 21.8539 7.93397C22.4373 7.63672 23.201 7.63672 24.7284 7.63672H39.6375C41.1649 7.63672 41.9286 7.63672 42.512 7.93397C43.0252 8.19545 43.4424 8.61267 43.7039 9.12584C44.0011 9.70923 44.0011 10.4729 44.0011 12.0004V21.4549C44.0011 22.9823 44.0011 23.746 43.7039 24.3294C43.4424 24.8426 43.0252 25.2598 42.512 25.5213C41.9286 25.8185 41.1649 25.8185 39.6375 25.8185H24.7284C23.201 25.8185 22.4373 25.8185 21.8539 25.5213C21.3407 25.2598 20.9235 24.8426 20.662 24.3294C20.3647 23.746 20.3647 22.9823 20.3647 21.4549V12.0004Z" fill="#6899EF"/>
<path opacity="0.2" d="M18.5483 36.0006C18.5483 37.528 18.5483 38.2918 18.251 38.8751C17.9895 39.3883 17.5723 39.8055 17.0591 40.067C16.4757 40.3643 15.712 40.3643 14.1846 40.3643L8.36645 40.3643C6.83903 40.3643 6.07532 40.3643 5.49192 40.067C4.97875 39.8055 4.56154 39.3883 4.30006 38.8751C4.00281 38.2918 4.00281 37.528 4.00281 36.0006L4.00281 32.0006C4.00281 30.4732 4.00281 29.7095 4.30006 29.1261C4.56154 28.6129 4.97876 28.1957 5.49192 27.9342C6.07532 27.637 6.83903 27.637 8.36645 27.637L14.1846 27.637C15.712 27.637 16.4757 27.637 17.0591 27.9342C17.5723 28.1957 17.9895 28.6129 18.251 29.1261C18.5483 29.7095 18.5483 30.4732 18.5483 32.0006V36.0006Z" fill="#6899EF"/>
<path d="M14.1846 7.63672C15.712 7.63672 16.4757 7.63672 17.0591 7.93397C17.5723 8.19545 17.9895 8.61267 18.251 9.12584C18.5483 9.70923 18.5483 10.4729 18.5483 12.0004V21.4549C18.5483 22.9823 18.5483 23.746 18.251 24.3294C17.9895 24.8426 17.5723 25.2598 17.0591 25.5213C16.4757 25.8185 15.712 25.8185 14.1846 25.8185H8.36645C6.83903 25.8185 6.07532 25.8185 5.49192 25.5213C4.97875 25.2598 4.56154 24.8426 4.30006 24.3294C4.00281 23.746 4.00281 22.9823 4.00281 21.4549L4.00281 12.0004C4.00281 10.4729 4.00281 9.70923 4.30006 9.12584C4.56154 8.61267 4.97876 8.19545 5.49192 7.93397C6.07532 7.63672 6.83903 7.63672 8.36644 7.63672L14.1846 7.63672Z" fill="#6899EF"/>
</g>
</svg>
