<svg width="48" height="48" viewBox="0 0 48 48" fill="none" xmlns="http://www.w3.org/2000/svg"><path d="M40.603 20.767c0-7.936-6.433-14.369-14.369-14.369v14.369h14.369z" fill="#A4A9B9"/><path fill-rule="evenodd" clip-rule="evenodd" d="M22.215 10.01a1.6 1.6 0 01.517 1.177v13.082H35.81a1.6 1.6 0 011.595 1.732c-.645 7.799-7.177 13.926-15.141 13.926-8.391 0-15.194-6.802-15.194-15.193 0-7.966 6.13-14.499 13.93-15.142a1.6 1.6 0 011.215.418zm-2.683 3.043c-5.307 1.236-9.262 5.997-9.262 11.68 0 6.625 5.37 11.994 11.994 11.994 5.682 0 10.443-3.953 11.68-9.258H21.132a1.6 1.6 0 01-1.6-1.6V13.053z" fill="#CACFDF"/></svg>