<svg width="48" height="48" viewBox="0 0 48 48" fill="none" xmlns="http://www.w3.org/2000/svg">
<path fill-rule="evenodd" clip-rule="evenodd" d="M33.8984 6.9V3H38.0984V6.9H41.9984V11.1H38.0984V15H33.8984V11.1H29.9984V6.9H33.8984ZM6.89844 12C6.89844 9.18335 9.18178 6.9 11.9984 6.9H23.9984V11.1H11.9984C11.5014 11.1 11.0984 11.5029 11.0984 12V39C11.0984 39.4971 11.5014 39.9 11.9984 39.9H32.9984C33.4955 39.9 33.8984 39.4971 33.8984 39V21H38.0984V39C38.0984 41.8167 35.8151 44.1 32.9984 44.1H11.9984C9.18179 44.1 6.89844 41.8167 6.89844 39V12Z" fill="currentColor"/>
</svg>
