<svg width="44" height="44" viewBox="0 0 44 44" fill="none" xmlns="http://www.w3.org/2000/svg">
  <rect width="30" height="30" transform="translate(8 7)" fill="white" />
  <g clip-path="url(#clip0)">
    <path
      d="M43.0833 3.575C42.4417 2.38333 41.525 1.55833 40.425 0.916667C39.2333 0.275 38.1333 0 35.0167 0H9.075C5.95833 0 4.76667 0.366667 3.575 0.916667C2.475 1.55833 1.55833 2.475 0.916667 3.575C0.366667 4.76667 0 5.95833 0 9.075V34.925C0 38.0417 0.366667 39.2333 0.916667 40.3333C1.55833 41.525 2.475 42.35 3.575 42.9917C4.76667 43.6333 5.86667 43.9083 8.98333 43.9083H34.8333C37.95 43.9083 39.1417 43.5417 40.2417 42.9917C41.4333 42.35 42.2583 41.4333 42.9 40.3333C43.5417 39.1417 43.8167 38.0417 43.8167 34.925V9.075C44 5.95833 43.6333 4.76667 43.0833 3.575ZM32.9083 18.7917C32.8167 18.975 32.725 19.3417 32.5417 19.7083C31.5333 21.8167 29.0583 25.9417 29.0583 25.9417L28.325 27.225H31.9L25.025 36.4833L26.5833 30.25H23.7417L24.75 26.125C23.8333 26.4 22.825 26.675 21.9083 26.95C21.9083 26.95 20.4417 27.8667 17.6 25.2083C17.6 25.2083 15.675 23.4667 16.775 23.1C17.2333 22.9167 19.0667 22.7333 20.5333 22.4583C22.4583 22.1833 23.65 22.0917 23.65 22.0917C23.65 22.0917 17.6917 22.1833 16.3167 22C14.9417 21.8167 13.1083 19.4333 12.7417 17.325C12.7417 17.325 12.1917 16.1333 14.025 16.6833C15.8583 17.2333 23.5583 18.7917 23.5583 18.7917C23.5583 18.7917 13.475 15.5833 12.8333 14.85C12.1917 14.1167 10.9083 10.725 11 8.61667C11 8.61667 11.0917 8.06667 11.6417 8.25C11.6417 8.25 19.0667 11.6417 24.1083 13.5667C29.15 15.4 33.55 16.4083 32.9083 18.7917Z"
      fill="#3296FA" />
  </g>
  <defs>
    <clipPath id="clip0">
      <rect width="44" height="44" fill="white" />
    </clipPath>
  </defs>
</svg>
