<svg width="48" height="48" viewBox="0 0 48 48" fill="none" xmlns="http://www.w3.org/2000/svg"><path fill-rule="evenodd" clip-rule="evenodd" d="M17.249 7.715a1.6 1.6 0 011.51-.042l11.15 5.575 9.684-5.533a1.6 1.6 0 012.393 1.389v23.833a1.6 1.6 0 01-.806 1.39l-10.427 5.958a1.6 1.6 0 01-1.51.042l-11.15-5.576-9.684 5.534a1.6 1.6 0 01-2.393-1.39V15.063a1.6 1.6 0 01.806-1.389l10.427-5.958zm.844 3.203L9.216 15.99v20.148l8.033-4.59a1.6 1.6 0 011.51-.043l11.15 5.575 8.877-5.072V11.86l-8.033 4.59a1.6 1.6 0 01-1.51.042l-11.15-5.575z" fill="#798298"/><path fill-rule="evenodd" clip-rule="evenodd" d="M18.207 15.568a1 1 0 01.535.885v10.229a1 1 0 01-.486.857l-4.468 2.68a1 1 0 01-1.515-.857V19.53a1 1 0 01.433-.824l4.469-3.078a1 1 0 011.032-.061zm3.478 1.324a1 1 0 01.973-.043l6.326 3.398a1 1 0 01.553.895v9.831a1 1 0 01-1.447.894l-6.326-3.398a1 1 0 01-.553-.895v-9.83a1 1 0 01.474-.852z" fill="#555E74"/></svg>