<svg width="48" height="48" viewBox="0 0 48 48" fill="none" xmlns="http://www.w3.org/2000/svg"><g opacity=".2"><path opacity=".4" d="M7.383 10.154a2.77 2.77 0 115.538 0v24a2.77 2.77 0 01-5.538 0v-24z" fill="url(#chart_percent_bar_off0_linear)"/><path opacity=".4" d="M16.617 10.154a2.77 2.77 0 115.539 0v24a2.77 2.77 0 11-5.539 0v-24z" fill="url(#chart_percent_bar_off1_linear)"/><path opacity=".4" d="M25.848 10.154a2.77 2.77 0 115.538 0v24a2.77 2.77 0 11-5.538 0v-24z" fill="url(#chart_percent_bar_off2_linear)"/><path opacity=".4" d="M35.078 10.154a2.77 2.77 0 015.539 0v24a2.77 2.77 0 11-5.539 0v-24z" fill="url(#chart_percent_bar_off3_linear)"/><path opacity=".8" d="M3.691 41.077c0-.255.207-.462.462-.462h39.692a.462.462 0 110 .923H4.153a.462.462 0 01-.462-.461z" fill="#fff"/><path d="M7.383 24h5.538v10.154a2.77 2.77 0 01-5.538 0V24z" fill="url(#chart_percent_bar_off4_linear)"/><path d="M25.848 20.308h5.538v13.846a2.77 2.77 0 11-5.538 0V20.308z" fill="url(#chart_percent_bar_off5_linear)"/><path d="M22.152 34.154a2.77 2.77 0 11-5.539 0v-6.462h5.539v6.462z" fill="url(#chart_percent_bar_off6_linear)"/><path d="M35.078 29.538h5.539v4.616a2.77 2.77 0 11-5.539 0v-4.616z" fill="url(#chart_percent_bar_off7_linear)"/></g><defs><linearGradient id="chart_percent_bar_off0_linear" x1="7.383" y1="7.385" x2="21.777" y2="31.675" gradientUnits="userSpaceOnUse"><stop stop-color="#fff" stop-opacity=".6"/><stop offset="1" stop-color="#fff"/></linearGradient><linearGradient id="chart_percent_bar_off1_linear" x1="16.617" y1="7.385" x2="31.012" y2="31.675" gradientUnits="userSpaceOnUse"><stop stop-color="#fff" stop-opacity=".6"/><stop offset="1" stop-color="#fff"/></linearGradient><linearGradient id="chart_percent_bar_off2_linear" x1="25.848" y1="7.385" x2="40.242" y2="31.675" gradientUnits="userSpaceOnUse"><stop stop-color="#fff" stop-opacity=".6"/><stop offset="1" stop-color="#fff"/></linearGradient><linearGradient id="chart_percent_bar_off3_linear" x1="35.078" y1="7.385" x2="49.472" y2="31.675" gradientUnits="userSpaceOnUse"><stop stop-color="#fff" stop-opacity=".6"/><stop offset="1" stop-color="#fff"/></linearGradient><linearGradient id="chart_percent_bar_off4_linear" x1="7.383" y1="24" x2="10.871" y2="37.455" gradientUnits="userSpaceOnUse"><stop stop-color="#fff" stop-opacity=".6"/><stop offset="1" stop-color="#fff"/></linearGradient><linearGradient id="chart_percent_bar_off5_linear" x1="25.848" y1="20.308" x2="31.386" y2="36.923" gradientUnits="userSpaceOnUse"><stop stop-color="#fff" stop-opacity=".6"/><stop offset="1" stop-color="#fff"/></linearGradient><linearGradient id="chart_percent_bar_off6_linear" x1="22.152" y1="36.923" x2="20.316" y2="27.006" gradientUnits="userSpaceOnUse"><stop stop-color="#fff" stop-opacity=".6"/><stop offset="1" stop-color="#fff"/></linearGradient><linearGradient id="chart_percent_bar_off7_linear" x1="35.078" y1="29.538" x2="36.268" y2="37.567" gradientUnits="userSpaceOnUse"><stop stop-color="#fff" stop-opacity=".6"/><stop offset="1" stop-color="#fff"/></linearGradient></defs></svg>