<svg width="48" height="48" viewBox="0 0 48 48" fill="none" xmlns="http://www.w3.org/2000/svg">
<g filter="url(#filter0_ddd)">
<path d="M38.5312 38.7656C38.5312 40.6296 37.0202 42.1406 35.1562 42.1406H12.8438C10.9798 42.1406 9.46875 40.6296 9.46875 38.7656V9.1875C9.46875 7.32354 10.9798 5.8125 12.8438 5.8125H27.7918C28.6869 5.8125 29.5453 6.16808 30.1782 6.80101L37.5427 14.1655C38.1757 14.7984 38.5312 15.6569 38.5312 16.552V38.7656Z" fill="#352F34"/>
<path d="M38.5312 38.7656C38.5312 40.6296 37.0202 42.1406 35.1562 42.1406H12.8438C10.9798 42.1406 9.46875 40.6296 9.46875 38.7656V9.1875C9.46875 7.32354 10.9798 5.8125 12.8438 5.8125H27.7918C28.6869 5.8125 29.5453 6.16808 30.1782 6.80101L37.5427 14.1655C38.1757 14.7984 38.5312 15.6569 38.5312 16.552V38.7656Z" fill="url(#paint0_linear)" fill-opacity="0.4"/>
</g>
<rect x="13.9688" y="33.375" width="5.0625" height="1.6875" rx="0.84375" fill="#A38097"/>
<rect x="28.9688" y="36.4688" width="5.0625" height="1.6875" rx="0.84375" fill="#A38097"/>
<rect x="20.4375" y="33.375" width="13.5938" height="1.6875" rx="0.84375" fill="#8B677F"/>
<rect x="13.9688" y="36.4688" width="13.5938" height="1.6875" rx="0.84375" fill="#8B677F"/>
<g filter="url(#filter1_f)">
<path d="M28.6875 14.2599V7.50094C28.6875 7.08333 29.1924 6.87419 29.4877 7.16948L37.356 15.0378C37.6513 15.3331 37.4422 15.838 37.0246 15.838H30.2656C29.3941 15.838 28.6875 15.1315 28.6875 14.2599Z" fill="black" fill-opacity="0.16"/>
</g>
<path d="M38.4902 16.5049C38.4902 15.6765 37.8193 15.0049 36.9909 15.0049H31.6864C30.4438 15.0049 29.4382 13.9982 29.4382 12.7555V7.26539C29.4382 6.56619 28.9598 5.97876 28.3125 5.8125C28.9992 5.92842 29.6383 6.25501 30.1372 6.75395L37.5017 14.1184C38.1346 14.7514 38.4902 15.6098 38.4902 16.5049Z" fill="#725A6B"/>
<path fill-rule="evenodd" clip-rule="evenodd" d="M38.5312 16.4582V38.7656C38.5312 40.6296 37.0202 42.1406 35.1562 42.1406H12.8438C10.9798 42.1406 9.46875 40.6296 9.46875 38.7656V9.1875C9.46875 7.32354 10.9798 5.8125 12.8438 5.8125H27.9793C28.1085 5.8125 28.2339 5.82884 28.3535 5.85957C29.0402 5.97549 29.6793 6.30207 30.1782 6.80101L37.5427 14.1655C38.1757 14.7984 38.5312 15.5631 38.5312 16.4582ZM37.6875 38.7656C37.6875 40.1636 36.5542 41.2969 35.1562 41.2969H12.8438C11.4458 41.2969 10.3125 40.1636 10.3125 38.7656V9.1875C10.3125 7.78953 11.4458 6.65625 12.8438 6.65625H27.7918C27.9197 6.65625 28.0467 6.66594 28.1717 6.68492C28.4403 6.76716 28.6355 7.01701 28.6355 7.31246V12.8026C28.6355 14.5107 30.0183 15.802 31.7275 15.802H37.032C37.3939 15.802 37.6875 16.0953 37.6875 16.4582V38.7656ZM37.2022 14.9678C37.1463 14.9615 37.0895 14.9582 37.032 14.9582H31.7275C30.4848 14.9582 29.4793 14.0453 29.4793 12.8026V7.31246C29.4793 7.30856 29.4792 7.30466 29.4792 7.30077C29.5142 7.33202 29.5483 7.36432 29.5816 7.39764L36.9461 14.6684C37.0397 14.762 37.1252 14.8621 37.2022 14.9678Z" fill="#836F7D"/>
<g clip-path="url(#clip0)">
<g filter="url(#filter2_f)">
<path d="M19.3891 17.9912H31.6908L30.5988 20.2688H18.297L19.3891 17.9912ZM16.9515 23.0752L17.764 21.3805H30.0657L29.2532 23.0752H16.9515ZM15.0469 27.0475L15.3264 26.4645H27.6281L27.3486 27.0475H15.0469ZM15.8594 25.3528L16.4054 24.214H28.7072L28.1612 25.3528H15.8594Z" fill="url(#paint1_linear)" fill-opacity="0.6"/>
</g>
<g filter="url(#filter3_i)">
<path d="M15.2129 26.2192V25.5139H27.5146V26.2192H15.2129Z" fill="#CA5757"/>
<path d="M15.2129 26.2192V25.5139H27.5146V26.2192H15.2129Z" fill="url(#paint2_linear)" fill-opacity="0.4"/>
</g>
<g filter="url(#filter4_i)">
<path d="M27.5146 15.2625H15.2129V18.018H27.5146V15.2625Z" fill="#CA5757"/>
<path d="M27.5146 15.2625H15.2129V18.018H27.5146V15.2625Z" fill="url(#paint3_linear)" fill-opacity="0.4"/>
</g>
<g filter="url(#filter5_i)">
<path d="M15.2129 19.363V21.4133H27.5146V19.363H15.2129Z" fill="#CA5757"/>
<path d="M15.2129 19.363V21.4133H27.5146V19.363H15.2129Z" fill="url(#paint4_linear)" fill-opacity="0.4"/>
</g>
<g filter="url(#filter6_i)">
<path d="M15.2129 22.7913V24.1691H27.5146V22.7913H15.2129Z" fill="#CA5757"/>
<path d="M15.2129 22.7913V24.1691H27.5146V22.7913H15.2129Z" fill="url(#paint5_linear)" fill-opacity="0.4"/>
</g>
</g>
<defs>
<filter id="filter0_ddd" x="7.59375" y="4.875" width="32.8125" height="40.0781" filterUnits="userSpaceOnUse" color-interpolation-filters="sRGB">
<feFlood flood-opacity="0" result="BackgroundImageFix"/>
<feColorMatrix in="SourceAlpha" type="matrix" values="0 0 0 0 0 0 0 0 0 0 0 0 0 0 0 0 0 0 127 0"/>
<feOffset/>
<feGaussianBlur stdDeviation="0.046875"/>
<feColorMatrix type="matrix" values="0 0 0 0 0 0 0 0 0 0 0 0 0 0 0 0 0 0 0.12 0"/>
<feBlend mode="normal" in2="BackgroundImageFix" result="effect1_dropShadow"/>
<feColorMatrix in="SourceAlpha" type="matrix" values="0 0 0 0 0 0 0 0 0 0 0 0 0 0 0 0 0 0 127 0"/>
<feOffset dy="0.1875"/>
<feGaussianBlur stdDeviation="0.28125"/>
<feColorMatrix type="matrix" values="0 0 0 0 0 0 0 0 0 0 0 0 0 0 0 0 0 0 0.12 0"/>
<feBlend mode="normal" in2="effect1_dropShadow" result="effect2_dropShadow"/>
<feColorMatrix in="SourceAlpha" type="matrix" values="0 0 0 0 0 0 0 0 0 0 0 0 0 0 0 0 0 0 127 0"/>
<feOffset dy="0.9375"/>
<feGaussianBlur stdDeviation="0.9375"/>
<feColorMatrix type="matrix" values="0 0 0 0 0 0 0 0 0 0 0 0 0 0 0 0 0 0 0.12 0"/>
<feBlend mode="normal" in2="effect2_dropShadow" result="effect3_dropShadow"/>
<feBlend mode="normal" in="SourceGraphic" in2="effect3_dropShadow" result="shape"/>
</filter>
<filter id="filter1_f" x="26.8125" y="5.15625" width="12.5568" height="12.5568" filterUnits="userSpaceOnUse" color-interpolation-filters="sRGB">
<feFlood flood-opacity="0" result="BackgroundImageFix"/>
<feBlend mode="normal" in="SourceGraphic" in2="BackgroundImageFix" result="shape"/>
<feGaussianBlur stdDeviation="0.9375" result="effect1_foregroundBlur"/>
</filter>
<filter id="filter2_f" x="12.8599" y="15.8042" width="21.0179" height="13.4302" filterUnits="userSpaceOnUse" color-interpolation-filters="sRGB">
<feFlood flood-opacity="0" result="BackgroundImageFix"/>
<feBlend mode="normal" in="SourceGraphic" in2="BackgroundImageFix" result="shape"/>
<feGaussianBlur stdDeviation="1.09349" result="effect1_foregroundBlur"/>
</filter>
<filter id="filter3_i" x="15.2129" y="25.5139" width="13.033" height="1.07093" filterUnits="userSpaceOnUse" color-interpolation-filters="sRGB">
<feFlood flood-opacity="0" result="BackgroundImageFix"/>
<feBlend mode="normal" in="SourceGraphic" in2="BackgroundImageFix" result="shape"/>
<feColorMatrix in="SourceAlpha" type="matrix" values="0 0 0 0 0 0 0 0 0 0 0 0 0 0 0 0 0 0 127 0" result="hardAlpha"/>
<feOffset dx="0.73125" dy="0.365625"/>
<feGaussianBlur stdDeviation="0.73125"/>
<feComposite in2="hardAlpha" operator="arithmetic" k2="-1" k3="1"/>
<feColorMatrix type="matrix" values="0 0 0 0 0.824846 0 0 0 0 0.852242 0 0 0 0 0.958401 0 0 0 0.25 0"/>
<feBlend mode="normal" in2="shape" result="effect1_innerShadow"/>
</filter>
<filter id="filter4_i" x="15.2129" y="15.2625" width="13.033" height="3.12122" filterUnits="userSpaceOnUse" color-interpolation-filters="sRGB">
<feFlood flood-opacity="0" result="BackgroundImageFix"/>
<feBlend mode="normal" in="SourceGraphic" in2="BackgroundImageFix" result="shape"/>
<feColorMatrix in="SourceAlpha" type="matrix" values="0 0 0 0 0 0 0 0 0 0 0 0 0 0 0 0 0 0 127 0" result="hardAlpha"/>
<feOffset dx="0.73125" dy="0.365625"/>
<feGaussianBlur stdDeviation="0.73125"/>
<feComposite in2="hardAlpha" operator="arithmetic" k2="-1" k3="1"/>
<feColorMatrix type="matrix" values="0 0 0 0 0.824846 0 0 0 0 0.852242 0 0 0 0 0.958401 0 0 0 0.25 0"/>
<feBlend mode="normal" in2="shape" result="effect1_innerShadow"/>
</filter>
<filter id="filter5_i" x="15.2129" y="19.363" width="13.033" height="2.41592" filterUnits="userSpaceOnUse" color-interpolation-filters="sRGB">
<feFlood flood-opacity="0" result="BackgroundImageFix"/>
<feBlend mode="normal" in="SourceGraphic" in2="BackgroundImageFix" result="shape"/>
<feColorMatrix in="SourceAlpha" type="matrix" values="0 0 0 0 0 0 0 0 0 0 0 0 0 0 0 0 0 0 127 0" result="hardAlpha"/>
<feOffset dx="0.73125" dy="0.365625"/>
<feGaussianBlur stdDeviation="0.73125"/>
<feComposite in2="hardAlpha" operator="arithmetic" k2="-1" k3="1"/>
<feColorMatrix type="matrix" values="0 0 0 0 0.824846 0 0 0 0 0.852242 0 0 0 0 0.958401 0 0 0 0.25 0"/>
<feBlend mode="normal" in2="shape" result="effect1_innerShadow"/>
</filter>
<filter id="filter6_i" x="15.2129" y="22.7913" width="13.033" height="1.74342" filterUnits="userSpaceOnUse" color-interpolation-filters="sRGB">
<feFlood flood-opacity="0" result="BackgroundImageFix"/>
<feBlend mode="normal" in="SourceGraphic" in2="BackgroundImageFix" result="shape"/>
<feColorMatrix in="SourceAlpha" type="matrix" values="0 0 0 0 0 0 0 0 0 0 0 0 0 0 0 0 0 0 127 0" result="hardAlpha"/>
<feOffset dx="0.73125" dy="0.365625"/>
<feGaussianBlur stdDeviation="0.73125"/>
<feComposite in2="hardAlpha" operator="arithmetic" k2="-1" k3="1"/>
<feColorMatrix type="matrix" values="0 0 0 0 0.824846 0 0 0 0 0.852242 0 0 0 0 0.958401 0 0 0 0.25 0"/>
<feBlend mode="normal" in2="shape" result="effect1_innerShadow"/>
</filter>
<linearGradient id="paint0_linear" x1="10.2188" y1="4.82812" x2="38.5312" y2="44.6719" gradientUnits="userSpaceOnUse">
<stop stop-color="#525976"/>
<stop offset="1" stop-color="#9091AF"/>
</linearGradient>
<linearGradient id="paint1_linear" x1="20.0913" y1="18.7944" x2="20.0913" y2="27.0475" gradientUnits="userSpaceOnUse">
<stop stop-opacity="0.1707"/>
<stop offset="1" stop-color="#393C43"/>
</linearGradient>
<linearGradient id="paint2_linear" x1="19.5833" y1="15.5338" x2="20.868" y2="26.4096" gradientUnits="userSpaceOnUse">
<stop stop-color="#98A0BF"/>
<stop offset="1" stop-color="#3F4662"/>
</linearGradient>
<linearGradient id="paint3_linear" x1="19.5833" y1="15.5338" x2="20.868" y2="26.4096" gradientUnits="userSpaceOnUse">
<stop stop-color="#ADB7DE"/>
<stop offset="1" stop-color="#3F4662"/>
</linearGradient>
<linearGradient id="paint4_linear" x1="19.5833" y1="15.5338" x2="20.868" y2="26.4096" gradientUnits="userSpaceOnUse">
<stop stop-color="#ADB7DE"/>
<stop offset="1" stop-color="#3F4662"/>
</linearGradient>
<linearGradient id="paint5_linear" x1="19.5833" y1="15.534" x2="20.868" y2="26.4097" gradientUnits="userSpaceOnUse">
<stop stop-color="#98A0BF"/>
<stop offset="1" stop-color="#3F4662"/>
</linearGradient>
<clipPath id="clip0">
<rect width="19.5" height="19.5" fill="white" transform="translate(13.2188 10.875)"/>
</clipPath>
</defs>
</svg>
