<svg width="48" height="48" viewBox="0 0 48 48" fill="none" xmlns="http://www.w3.org/2000/svg">
<path opacity="0.2" fill-rule="evenodd" clip-rule="evenodd" d="M4.09482 9.4008C3.69238 10.1906 3.69238 11.2246 3.69238 13.2925V34.7078C3.69238 36.7757 3.69238 37.8097 4.09482 38.5995C4.44881 39.2943 5.01367 39.8591 5.70842 40.2131C6.49825 40.6155 7.53219 40.6155 9.60008 40.6155H38.4001C40.468 40.6155 41.5019 40.6155 42.2917 40.2131C42.9865 39.8591 43.5513 39.2943 43.9053 38.5995C44.3078 37.8097 44.3078 36.7757 44.3078 34.7078V13.2925C44.3078 11.2246 44.3078 10.1906 43.9053 9.4008C43.5513 8.70605 42.9865 8.1412 42.2917 7.7872C41.5019 7.38477 40.468 7.38477 38.4001 7.38477H9.60008C7.53219 7.38477 6.49825 7.38477 5.70842 7.7872C5.01367 8.1412 4.44881 8.70605 4.09482 9.4008Z" fill="#6899EF"/>
<path opacity="0.6" d="M3.69238 11.0769C3.69238 9.03773 5.34549 7.38463 7.38469 7.38463H40.6155C42.6547 7.38463 44.3078 9.03773 44.3078 11.0769V15.6923H3.69238V11.0769Z" fill="#6899EF"/>
<path opacity="0.4" d="M3.69238 15.6923H44.3078V24H3.69238V15.6923Z" fill="#6899EF"/>
<path opacity="0.4" d="M3.69238 11.0769C3.69238 9.03773 5.34549 7.38463 7.38469 7.38463H24.0001V40.6154H7.38469C5.34549 40.6154 3.69238 38.9623 3.69238 36.9231V11.0769Z" fill="#6899EF"/>
<path opacity="0.6" d="M3.69238 15.6923H13.8462V40.6154H7.38469C5.34549 40.6154 3.69238 38.9623 3.69238 36.923V15.6923Z" fill="#6899EF"/>
<path opacity="0.1" d="M24 15.6923H34.1538V40.6154H24V15.6923Z" fill="#6899EF"/>
<path opacity="0.2" d="M3.69238 24H44.3078V32.3077H3.69238V24Z" fill="#6899EF"/>
</svg>
