<svg width="48" height="48" viewBox="0 0 48 48" fill="none" xmlns="http://www.w3.org/2000/svg">
<path fill-rule="evenodd" clip-rule="evenodd" d="M8 17.9569C8 15.2193 10.257 13 13.0411 13H34.9589C37.743 13 40 15.2193 40 17.9569V33.0431C40 35.7807 37.743 38 34.9589 38H13.0411C10.257 38 8 35.7807 8 33.0431V17.9569ZM13.0411 16.4483C12.1938 16.4483 11.5068 17.1237 11.5068 17.9569V33.0431C11.5068 33.8763 12.1938 34.5517 13.0411 34.5517H34.9589C35.8062 34.5517 36.4932 33.8763 36.4932 33.0431V17.9569C36.4932 17.1237 35.8062 16.4483 34.9589 16.4483H13.0411Z" fill="#555E74"/>
<rect x="17" y="21" width="4" height="8" rx="2" fill="#404C5E" fill-opacity="0.3"/>
<rect x="27" y="21" width="4" height="8" rx="2" fill="#404C5E" fill-opacity="0.3"/>
<path d="M41 21C42.1046 21 43 21.8954 43 23V27C43 28.1046 42.1046 29 41 29V21Z" fill="#404C5E" fill-opacity="0.3"/>
<path d="M7 29C5.89543 29 5 28.1046 5 27L5 23C5 21.8954 5.89543 21 7 21L7 29Z" fill="#404C5E" fill-opacity="0.3"/>
<circle cx="24" cy="10" r="3" fill="#555E74"/>
</svg>
