<svg width="49" height="48" viewBox="0 0 49 48" fill="none" xmlns="http://www.w3.org/2000/svg">
<path fill-rule="evenodd" clip-rule="evenodd" d="M11.481 2.69238H37.9497C38.9724 2.69235 39.8546 2.69232 40.5813 2.75169C41.3483 2.81436 42.1111 2.95271 42.8452 3.32674C43.9403 3.88473 44.8307 4.77509 45.3887 5.8702C45.7627 6.60427 45.901 7.36712 45.9637 8.1341C46.0231 8.86077 46.023 9.74301 46.023 10.7657V37.2344C46.023 38.2571 46.0231 39.1393 45.9637 39.866C45.901 40.6329 45.7627 41.3958 45.3887 42.1299C44.8307 43.225 43.9403 44.1153 42.8452 44.6733C42.1111 45.0473 41.3483 45.1857 40.5813 45.2484C39.8546 45.3077 38.9724 45.3077 37.9497 45.3077H11.481C10.4583 45.3077 9.5761 45.3077 8.84944 45.2484C8.08246 45.1857 7.3196 45.0473 6.58554 44.6733C5.49042 44.1153 4.60006 43.225 4.04207 42.1299C3.66804 41.3958 3.52969 40.6329 3.46702 39.866C3.40765 39.1393 3.40768 38.257 3.40772 37.2343V10.7657C3.40768 9.74303 3.40765 8.86078 3.46702 8.1341C3.52969 7.36712 3.66804 6.60427 4.04207 5.8702C4.60006 4.77509 5.49042 3.88473 6.58554 3.32674C7.3196 2.95271 8.08246 2.81436 8.84944 2.75169C9.57612 2.69232 10.4584 2.69235 11.481 2.69238ZM9.1654 6.61886C8.63836 6.66192 8.44297 6.73501 8.34704 6.78389C7.982 6.96989 7.68522 7.26667 7.49922 7.63171C7.45035 7.72763 7.37725 7.92303 7.33419 8.45006C7.28928 8.99974 7.28777 9.72196 7.28777 10.8405V37.1596C7.28777 38.2781 7.28928 39.0003 7.33419 39.55C7.37725 40.077 7.45035 40.2724 7.49922 40.3684C7.68522 40.7334 7.982 41.0302 8.34704 41.2162C8.44297 41.265 8.63836 41.3381 9.1654 41.3812C9.71508 41.4261 10.4373 41.4276 11.5558 41.4276H37.8749C38.9934 41.4276 39.7156 41.4261 40.2653 41.3812C40.7924 41.3381 40.9878 41.265 41.0837 41.2162C41.4487 41.0302 41.7455 40.7334 41.9315 40.3684C41.9804 40.2724 42.0535 40.077 42.0965 39.55C42.1414 39.0003 42.143 38.2781 42.143 37.1596V10.8405C42.143 9.72197 42.1414 8.99975 42.0965 8.45006C42.0535 7.92303 41.9804 7.72763 41.9315 7.63171C41.7455 7.26667 41.4487 6.96989 41.0837 6.78389C40.9878 6.73501 40.7924 6.66192 40.2653 6.61886C39.7156 6.57395 38.9934 6.57244 37.8749 6.57244H11.5558C10.4373 6.57244 9.71508 6.57395 9.1654 6.61886Z" fill="currentColor"/>
<path fill-rule="evenodd" clip-rule="evenodd" d="M22.6176 21.9684V4.63232H26.4977V21.9684C26.4977 22.5527 26.5018 22.6669 26.5156 22.7678C26.5315 22.884 26.5578 22.9985 26.5944 23.11C26.6262 23.2068 26.6725 23.3112 26.9283 23.8366L35.9463 42.3598L32.4578 44.0582L23.4397 25.535C23.4265 25.5079 23.4134 25.481 23.4003 25.4542C23.205 25.0535 23.0325 24.6998 22.9079 24.32C22.7982 23.9857 22.719 23.6422 22.6713 23.2936C22.6171 22.8976 22.6173 22.5041 22.6176 22.0582C22.6176 22.0285 22.6176 21.9986 22.6176 21.9684Z" fill="currentColor"/>
<path fill-rule="evenodd" clip-rule="evenodd" d="M44.0618 20.4402L28.2456 28.7341L26.4436 25.2979L42.2599 17.0039L44.0618 20.4402Z" fill="currentColor"/>
</svg>
