<svg width="24" height="24" viewBox="0 0 24 24" fill="none" xmlns="http://www.w3.org/2000/svg">
<path d="M8.99986 9.42855L14.9998 9.42855V7.62856L8.99986 7.62856V9.42855Z" fill="currentColor"/>
<path d="M13.4998 12.8572L8.99986 12.8572V11.0572L13.4998 11.0572V12.8572Z" fill="currentColor"/>
<path d="M8.99986 16.0156H11.9998V14.2156L8.99986 14.2156V16.0156Z" fill="currentColor"/>
<path fill-rule="evenodd" clip-rule="evenodd" d="M7.31237 3.42859H16.6873C17.4136 3.42859 17.9998 4.01483 17.9998 4.74108V19.259C17.9998 19.9852 17.4136 20.5714 16.6873 20.5714H7.31237C6.58612 20.5714 5.99988 19.9852 5.99988 19.259V4.74108C5.99988 4.01483 6.58612 3.42859 7.31237 3.42859ZM7.74986 5.17858V18.8215H16.2498V5.17858H7.74986Z" fill="currentColor"/>
<path d="M2.99998 6.64294H4.79997V17.1429H2.99998V6.64294Z" fill="currentColor"/>
<path d="M20.9999 6.64294H19.1999V17.1429H20.9999V6.64294Z" fill="currentColor"/>
<path d="M0 9.64292H1.79999V14.1429H0V9.64292Z" fill="currentColor"/>
<path d="M23.9999 9.64292H22.1999V14.1429H23.9999V9.64292Z" fill="currentColor"/>
</svg>
