<svg width="48" height="48" viewBox="0 0 48 48" fill="none" xmlns="http://www.w3.org/2000/svg"><path d="M19.445 40.247h9.117v1.52a1.52 1.52 0 01-1.52 1.519h-6.077c-.84 0-1.52-.68-1.52-1.52v-1.519z" fill="#CACFDF"/><path fill-rule="evenodd" clip-rule="evenodd" d="M10.242 20.494c0-7.597 6.158-13.755 13.755-13.755 7.598 0 13.755 6.158 13.755 13.755 0 4.97-2.655 9.473-6.88 11.916h-.001l-.905.525v2.373a2.36 2.36 0 01-2.36 2.36h-7.217a2.36 2.36 0 01-2.36-2.36v-2.373l-.905-.524a13.745 13.745 0 01-6.882-11.917zM23.997 9.94c-5.83 0-10.555 4.725-10.555 10.555 0 3.814 2.035 7.268 5.283 9.146l.002.001 2.502 1.45v3.377h5.537v-3.377l2.502-1.45h.001a10.545 10.545 0 005.283-9.147c0-5.83-4.725-10.555-10.555-10.555z" fill="#CACFDF"/><path d="M31.6 20.494a7.597 7.597 0 11-15.194 0 7.597 7.597 0 0115.194 0z" fill="#A4A9B9"/></svg>