<svg width="48" height="48" viewBox="0 0 48 48" fill="none" xmlns="http://www.w3.org/2000/svg"><g opacity=".8"><path opacity=".8" d="M13.492 21.15l.263-1.979c.535.345 1.15.545 1.785.58.299.014.594-.077.832-.259a.83.83 0 00.326-.673.79.79 0 00-.353-.69 1.706 1.706 0 00-.99-.248 4.09 4.09 0 00-1.457.295l.647-4.859h4.159v1.959H16.33l-.18.931h.38a2.29 2.29 0 011.732.748c.469.493.72 1.152.7 1.832a2.87 2.87 0 01-.906 2.164 3.158 3.158 0 01-2.263.863 4.526 4.526 0 01-2.3-.663z" fill="#fff"/><path opacity=".8" fill-rule="evenodd" clip-rule="evenodd" d="M25.062 20.668a5.502 5.502 0 00.78-3.106 5.754 5.754 0 00-.79-3.217 2.453 2.453 0 00-2.148-1.158 2.527 2.527 0 00-2.169 1.143 5.34 5.34 0 00-.8 3.1 5.623 5.623 0 00.8 3.227 2.558 2.558 0 002.222 1.164 2.4 2.4 0 002.105-1.153zm-2.175-5.524c.484 0 .726.806.726 2.416v-.037a6.23 6.23 0 01-.178 1.796c-.122.379-.311.563-.564.563-.474.003-.71-.856-.71-2.58 0-1.437.242-2.158.726-2.158zm5.11 6.792l-.868-.62 5.896-8.34.9.627-5.927 8.333zm2.172-6.717a2.2 2.2 0 01-.49 1.479 1.61 1.61 0 01-1.273.568 1.727 1.727 0 01-1.353-.558 2.201 2.201 0 01-.527-1.516c-.027-.53.15-1.05.495-1.453.348-.36.836-.553 1.337-.526.494-.018.969.187 1.295.558.346.401.53.918.516 1.447zm-1.798-.8c.226 0 .337.28.337.837 0 .527-.095.795-.332.795-.237 0-.353-.273-.353-.816 0-.542.122-.816.348-.816zm6.125 5.306a2.2 2.2 0 01-.49 1.48 1.61 1.61 0 01-1.268.568 1.732 1.732 0 01-1.342-.558 2.18 2.18 0 01-.527-1.516 2.074 2.074 0 01.527-1.453 1.72 1.72 0 011.331-.527c.492-.024.97.173 1.3.537.337.413.506.937.474 1.469h-.005zm-1.797-.801c.226 0 .337.279.337.842h.005c0 .532-.1.795-.337.795-.237 0-.352-.268-.352-.816 0-.547.12-.821.347-.821z" fill="#fff"/><path opacity=".1" d="M1.848 31.385a3.692 3.692 0 013.692-3.693h36.923a3.692 3.692 0 110 7.385H5.54a3.692 3.692 0 01-3.692-3.692z" fill="#fff"/><path d="M1.848 31.385a3.692 3.692 0 013.692-3.693h20.308a3.692 3.692 0 010 7.385H5.54a3.692 3.692 0 01-3.692-3.692z" fill="url(#chart_progress_bar_on0_linear)"/></g><defs><linearGradient id="chart_progress_bar_on0_linear" x1="1.346" y1="31.227" x2="30.042" y2="31.227" gradientUnits="userSpaceOnUse"><stop stop-color="#fff" stop-opacity=".6"/><stop offset="1" stop-color="#fff"/></linearGradient></defs></svg>