<svg width="166" height="154" viewBox="0 0 166 154" fill="none" xmlns="http://www.w3.org/2000/svg">
<path opacity="0.05" d="M83.7667 139.864L29.1056 122.161L56.1881 116.704L83.002 125.373L110.376 116.513L138.39 122.161L83.7667 139.864Z" fill="black"/>
<path opacity="0.4" d="M83 76.5785L13.4084 58.8519L83 44.5098V76.5785Z" fill="#2B3348"/>
<path opacity="0.6" d="M82.9999 76.5625L152.591 58.8519L82.9999 44.5098V76.5625Z" fill="#2B3348"/>
<path d="M45.0232 57.1543C41.5934 59.5945 39.4088 62.5331 38.0378 65.0575L50.9513 68.4214C49.649 64.6124 47.7544 60.522 45.0232 57.1543Z" fill="#3A4057"/>
<path opacity="0.1" fill-rule="evenodd" clip-rule="evenodd" d="M110.481 67.5552C111.676 64.6461 112.919 61.6212 114.394 58.6436C115.655 56.0964 116.928 53.8154 118.224 51.7686L124.826 53.1293C122.149 56.3544 119.831 60.8736 117.261 67.5157C117.219 67.6244 117.177 67.7328 117.135 67.841L109.563 69.7791C109.868 69.0474 110.173 68.3052 110.481 67.5552Z" fill="black"/>
<path d="M127.781 25.8213C118.215 29.1934 111.846 38.6639 107.525 54.7649C105.827 61.0921 103.534 67.2347 100.287 72.1156L110.664 69.4918C115.154 51.79 113.723 39.8712 130.705 37.26C139.993 35.8317 150.979 45.823 153.926 34.5078C156.076 26.2513 140.379 21.3803 127.781 25.8213Z" fill="#3A4057"/>
<path opacity="0.2" d="M82.9999 125.382L28.3389 107.679L20.6494 82.5328L75.8467 98.8162L82.9999 76.5322V125.382Z" fill="#4C536D"/>
<path opacity="0.3" d="M0.30188 76.5314L13.4084 58.8525L82.9999 76.5314L75.8507 98.812L0.30188 76.5314Z" fill="#4A5472"/>
<path opacity="0.3" d="M82.9998 125.382L137.661 107.679L145.35 82.5325L90.1447 98.812L82.9998 76.5322V125.382Z" fill="#3C4461"/>
<path opacity="0.25" d="M165.698 76.5314L152.592 58.8525L83.0001 76.5314L90.1493 98.812L165.698 76.5314Z" fill="#4A5472"/>
</svg>
