<svg width="48" height="48" viewBox="0 0 48 48" fill="none" xmlns="http://www.w3.org/2000/svg"><path d="M13.5 7.107H9.005a2 2 0 00-2 2v4.497a2 2 0 002 2H13.5a2 2 0 002-2V9.107a2 2 0 00-2-2zm12.75 0h-4.496a2 2 0 00-2 2v4.497a2 2 0 002 2h4.497a2 2 0 002-2V9.107a2 2 0 00-2-2zm0 12.644h-4.496a2 2 0 00-2 2v4.497a2 2 0 002 2h4.497a2 2 0 002-2v-4.497a2 2 0 00-2-2zM39 7.107h-4.496a2 2 0 00-2 2v4.497a2 2 0 002 2H39a2 2 0 002-2V9.107a2 2 0 00-2-2zm0 12.644h-4.496a2 2 0 00-2 2v4.497a2 2 0 002 2H39a2 2 0 002-2v-4.497a2 2 0 00-2-2zm-25.5 0H9.005a2 2 0 00-2 2v4.497a2 2 0 002 2H13.5a2 2 0 002-2v-4.497a2 2 0 00-2-2zm12.75 12.645h-4.496a2 2 0 00-2 2v4.497a2 2 0 002 2h4.497a2 2 0 002-2v-4.497a2 2 0 00-2-2zm12.75 0h-4.496a2 2 0 00-2 2v4.497a2 2 0 002 2H39a2 2 0 002-2v-4.497a2 2 0 00-2-2zm-25.5 0H9.005a2 2 0 00-2 2v4.497a2 2 0 002 2H13.5a2 2 0 002-2v-4.497a2 2 0 00-2-2z" fill="currentColor"/></svg>