<svg width="48" height="48" viewBox="0 0 48 48" fill="none" xmlns="http://www.w3.org/2000/svg"><path fill-rule="evenodd" clip-rule="evenodd" d="M2.537 2.537a1.833 1.833 0 012.593 0L45.463 42.87a1.833 1.833 0 11-2.593 2.593l-8.19-8.19-2.666-2.667-4.256-4.255L17.65 20.243l-4.674-4.674-2.6-2.601-7.84-7.838a1.833 1.833 0 010-2.593z" fill="currentColor"/><path d="M22.05 31.242c1.97.504 4.03.16 5.708-.89L17.65 20.241a7.334 7.334 0 004.4 11z" fill="currentColor"/><path d="M5.928 24.005a31.993 31.993 0 017.048-8.436l-2.6-2.601a35.659 35.659 0 00-8.158 10.164 1.833 1.833 0 00-.024 1.687l.03.06.074.142a33.897 33.897 0 001.341 2.264 37.902 37.902 0 004.128 5.301C11.358 36.417 16.85 40.5 24 40.5h.03a20.295 20.295 0 0010.65-3.226l-2.666-2.667a16.627 16.627 0 01-8.029 2.227c-5.677-.006-10.263-3.255-13.543-6.754a34.233 34.233 0 01-4.514-6.074zm14.637-12.446a14.887 14.887 0 013.428-.392h.004c5.684 0 10.275 3.251 13.559 6.754a34.243 34.243 0 014.514 6.075 32.089 32.089 0 01-3.269 4.672 1.833 1.833 0 002.806 2.36 35.75 35.75 0 004.174-6.164c.28-.524.288-1.152.023-1.684l-.105-.202a23.03 23.03 0 00-.277-.507 33.967 33.967 0 00-1.064-1.757 37.905 37.905 0 00-4.128-5.301C36.64 11.583 31.147 7.5 24 7.5a18.536 18.536 0 00-4.27.488 1.833 1.833 0 10.835 3.57z" fill="currentColor"/></svg>