<svg width="48" height="48" viewBox="0 0 48 48" fill="none" xmlns="http://www.w3.org/2000/svg">
<path opacity="0.2" fill-rule="evenodd" clip-rule="evenodd" d="M38.4396 6.46154C39.44 6.46153 40.2469 6.46152 40.9003 6.51491C41.5731 6.56988 42.1641 6.68601 42.7108 6.96459C43.5792 7.40708 44.2853 8.11314 44.7278 8.98158C45.0064 9.52831 45.1225 10.1193 45.1775 10.792C45.2308 11.4455 45.2308 12.2524 45.2308 13.2528V34.7472C45.2308 35.7476 45.2308 36.5545 45.1775 37.208C45.1225 37.8807 45.0064 38.4717 44.7278 39.0184C44.2853 39.8869 43.5792 40.5929 42.7108 41.0354C42.1641 41.314 41.5731 41.4301 40.9003 41.4851C40.2469 41.5385 39.44 41.5385 38.4395 41.5385H9.56059C8.56015 41.5385 7.75323 41.5385 7.09979 41.4851C6.42701 41.4301 5.83606 41.314 5.28933 41.0354C4.42089 40.5929 3.71483 39.8869 3.27233 39.0184C2.99376 38.4717 2.87763 37.8807 2.82266 37.208C2.76927 36.5545 2.76928 35.7476 2.76929 34.7472V13.2528C2.76928 12.2524 2.76927 11.4455 2.82266 10.792C2.87763 10.1193 2.99376 9.52831 3.27233 8.98158C3.71483 8.11314 4.42089 7.40708 5.28933 6.96459C5.83606 6.68601 6.427 6.56988 7.09979 6.51491C7.75322 6.46152 8.56013 6.46153 9.56054 6.46154H38.4396Z" fill="#6899EF"/>
<path opacity="0.8" d="M2.77246 15.6892V11.0769C2.77246 8.52962 4.83746 6.46461 7.38477 6.46461H40.6155C43.1628 6.46461 45.2278 8.52962 45.2278 11.0769V15.6892H2.77246Z" fill="#6899EF"/>
<path opacity="0.6" d="M7.38281 20.3081C7.38281 19.2885 8.20936 18.4619 9.22897 18.4619H38.7674C39.787 18.4619 40.6136 19.2885 40.6136 20.3081C40.6136 21.3277 39.787 22.1542 38.7674 22.1542H9.22897C8.20936 22.1542 7.38281 21.3277 7.38281 20.3081Z" fill="#6899EF"/>
<path opacity="0.4" d="M7.38281 27.6919C7.38281 26.6723 8.20936 25.8457 9.22897 25.8457H38.7674C39.787 25.8457 40.6136 26.6723 40.6136 27.6919C40.6136 28.7115 39.787 29.538 38.7674 29.538H9.22897C8.20936 29.538 7.38281 28.7115 7.38281 27.6919Z" fill="#6899EF"/>
<path opacity="0.2" d="M7.38281 35.0766C7.38281 34.057 8.20936 33.2305 9.22897 33.2305H38.7674C39.787 33.2305 40.6136 34.057 40.6136 35.0766C40.6136 36.0962 39.787 36.9228 38.7674 36.9228H9.22897C8.20936 36.9228 7.38281 36.0962 7.38281 35.0766Z" fill="#6899EF"/>
</svg>
