<svg width="48" height="48" viewBox="0 0 48 48" fill="none" xmlns="http://www.w3.org/2000/svg">
<path fill-rule="evenodd" clip-rule="evenodd" d="M6.15869 14.2551C6.15869 11.578 8.32894 9.40771 11.0061 9.40771H36.9921C39.6692 9.40771 41.8394 11.578 41.8394 14.2551V33.7446C41.8394 36.4217 39.6692 38.592 36.9921 38.592H11.0061C8.32894 38.592 6.15869 36.4217 6.15869 33.7446V14.2551ZM11.0061 12.606C10.0953 12.606 9.35697 13.3443 9.35697 14.2551V33.7446C9.35697 34.6554 10.0953 35.3937 11.0061 35.3937H36.9921C37.9028 35.3937 38.6412 34.6554 38.6412 33.7446V14.2551C38.6412 13.3443 37.9028 12.606 36.9921 12.606H11.0061Z" fill="#555E74"/>
<path fill-rule="evenodd" clip-rule="evenodd" d="M14.2539 17.503C14.2539 16.6061 14.9811 15.8789 15.878 15.8789H17.5022C18.3991 15.8789 19.1263 16.6061 19.1263 17.503V30.496C19.1263 31.393 18.3991 32.1201 17.5022 32.1201H15.878C14.9811 32.1201 14.2539 31.393 14.2539 30.496V17.503Z" fill="#404C5E" fill-opacity="0.3"/>
<path fill-rule="evenodd" clip-rule="evenodd" d="M22.3711 17.503C22.3711 16.6061 23.0982 15.8789 23.9952 15.8789H32.1158C33.0128 15.8789 33.74 16.6061 33.74 17.503V30.496C33.74 31.393 33.0128 32.1201 32.1158 32.1201H23.9952C23.0982 32.1201 22.3711 31.393 22.3711 30.496V17.503Z" fill="#404C5E" fill-opacity="0.3"/>
</svg>
