<svg width="48" height="48" viewBox="0 0 48 48" fill="none" xmlns="http://www.w3.org/2000/svg"><path d="M40.64 5.472A1.47 1.47 0 0039.17 4H15.622l-8.83 8.83v28.698c0 .813.658 1.472 1.471 1.472H39.17c.813 0 1.472-.659 1.472-1.472V5.472z" fill="#525C7B"/><path d="M39.906 6.208c0-.813-.659-1.472-1.471-1.472H14.887l-7.358 7.79v28.267c0 .813.659 1.472 1.472 1.472h29.433c.813 0 1.472-.66 1.472-1.472V6.208z" fill="#404964"/><g filter="url(#new_questionnaire_filter0_d)"><path d="M15.621 11.358V5.472L8.263 12.83h5.886c.813 0 1.472-.659 1.472-1.472z" fill="#555D72"/></g><path d="M15.621 11.358V4l-8.83 8.83h7.358c.813 0 1.472-.659 1.472-1.472z" fill="#525C7B"/><path fill-rule="evenodd" clip-rule="evenodd" d="M23.999 20.333c.322 0 .583.261.583.583v3.5h3.5a.583.583 0 010 1.167h-3.5v3.5a.583.583 0 11-1.167 0v-3.5h-3.5a.583.583 0 110-1.167h3.5v-3.5c0-.322.262-.583.584-.583z" fill="#4E597A"/><defs><filter id="new_questionnaire_filter0_d" x="6.336" y="3.546" width="11.21" height="11.21" filterUnits="userSpaceOnUse" color-interpolation-filters="sRGB"><feFlood flood-opacity="0" result="BackgroundImageFix"/><feColorMatrix in="SourceAlpha" values="0 0 0 0 0 0 0 0 0 0 0 0 0 0 0 0 0 0 127 0"/><feOffset/><feGaussianBlur stdDeviation=".963"/><feColorMatrix values="0 0 0 0 0 0 0 0 0 0 0 0 0 0 0 0 0 0 0.25 0"/><feBlend in2="BackgroundImageFix" result="effect1_dropShadow"/><feBlend in="SourceGraphic" in2="effect1_dropShadow" result="shape"/></filter></defs></svg>