<svg width="48" height="48" viewBox="0 0 48 48" fill="none" xmlns="http://www.w3.org/2000/svg">
<path fill-rule="evenodd" clip-rule="evenodd" d="M17.4866 4.02692C16.9383 3.75279 16.2893 3.77081 15.7571 4.07493L2.92375 11.4083C2.35252 11.7347 2 12.3421 2 13V42.3334C2 42.9869 2.34789 43.591 2.91313 43.919C3.47838 44.2471 4.1755 44.2494 4.74292 43.9252L16.7244 37.0786L30.5134 43.9732C31.0617 44.2473 31.7107 44.2293 32.2429 43.9252C32.8141 43.5987 33.1667 42.9913 33.1667 42.3334V41.209L18.5 33.867V8.6331L29.5 14.1331V23.9808C29.5 24.9933 30.3208 25.8141 31.3333 25.8141C32.3459 25.8141 33.1667 24.9933 33.1667 23.9808V14.064L42.3333 8.82587V26.1307C42.3333 27.1432 43.1541 27.964 44.1667 27.964C45.1792 27.964 46 27.1432 46 26.1307V5.66671C46 5.01318 45.6521 4.40906 45.0869 4.08104C44.5216 3.75302 43.8245 3.75069 43.2571 4.07493L31.2756 10.9215L17.4866 4.02692ZM14.8333 33.9361V8.82587L5.66667 14.064V39.1742L14.8333 33.9361Z" fill="currentColor"/>
<path d="M37 23.1667C35.9901 23.1667 35.1713 23.9854 35.1713 24.9954V31.3367H28.83C27.8193 31.3367 27 32.156 27 33.1667C27 34.1774 27.8193 34.9967 28.83 34.9967H35.1713V41.338C35.1713 42.348 35.9901 43.1667 37 43.1667C38.01 43.1667 38.8287 42.348 38.8287 41.338V34.9967H45.17C46.1807 34.9967 47 34.1774 47 33.1667C47 32.156 46.1807 31.3367 45.17 31.3367H38.8287V24.9954C38.8287 23.9854 38.01 23.1667 37 23.1667Z" fill="currentColor"/>
</svg>
