<svg width="48" height="48" viewBox="0 0 48 48" fill="none" xmlns="http://www.w3.org/2000/svg"><path fill-rule="evenodd" clip-rule="evenodd" d="M22.327 8.791a3.2 3.2 0 013.343 0l13.821 8.467a1.067 1.067 0 010 1.82l-13.82 8.467a3.2 3.2 0 01-3.344 0L8.506 19.078a1.067 1.067 0 010-1.82l13.82-8.467zm2.229 1.82a1.067 1.067 0 00-1.115 0l-12.336 7.557 12.336 7.558c.342.21.773.21 1.115 0l12.336-7.558-12.336-7.557z" fill="currentColor"/><path fill-rule="evenodd" clip-rule="evenodd" d="M12.24 26.408c.34-.209.77-.21 1.111-.002l10.647 6.48 10.648-6.48c.341-.207.77-.207 1.111.002l3.734 2.287a1.067 1.067 0 010 1.82l-13.96 8.552a2.934 2.934 0 01-3.065 0l-13.96-8.552a1.067 1.067 0 010-1.82l3.733-2.287z" fill="currentColor"/></svg>