<svg width="48" height="48" viewBox="0 0 48 48" fill="none" xmlns="http://www.w3.org/2000/svg"><path fill-rule="evenodd" clip-rule="evenodd" d="M12.63 15.183L4.793 41.436h4.702L11.65 33.6h10.972l2.35 7.837h4.703l-8.033-26.253H12.63zm5.877 5.29h-2.939l-2.35 7.837h7.836l-2.547-7.837z" fill="currentColor"/><path d="M30.656 41.437l6.27-10.188 6.269 10.188H30.656zM34.77 6.955h5.29a1.371 1.371 0 110 2.743h-5.29a1.371 1.371 0 100 2.743h2.645a4.016 4.016 0 014.017 4.016v.098a4.114 4.114 0 01-4.114 4.114h-5.29a1.372 1.372 0 010-2.742h5.485a1.371 1.371 0 000-2.743h-2.742a4.114 4.114 0 110-8.229z" fill="currentColor"/></svg>