<svg width="48" height="48" viewBox="0 0 48 48" fill="none" xmlns="http://www.w3.org/2000/svg">
<g opacity="0.8">
<path d="M4.15259 7.84609C4.15259 7.59119 4.35923 7.38455 4.61413 7.38455C4.86903 7.38455 5.07566 7.59119 5.07566 7.84609V14.3076C5.07566 14.5625 4.86903 14.7692 4.61413 14.7692C4.35923 14.7692 4.15259 14.5625 4.15259 14.3076V7.84609Z" fill="#A7AFB7"/>
<path d="M42.9218 7.84632C42.9218 7.59142 43.1285 7.38478 43.3834 7.38478C43.6383 7.38478 43.8449 7.59142 43.8449 7.84632V18.0002C43.8449 18.2551 43.6383 18.4617 43.3834 18.4617C43.1285 18.4617 42.9218 18.2551 42.9218 18.0002V7.84632Z" fill="#A7AFB7"/>
<path d="M42.9218 20.7692C42.9218 20.5143 43.1285 20.3076 43.3834 20.3076C43.6383 20.3076 43.8449 20.5143 43.8449 20.7692V24.4615C43.8449 24.7164 43.6383 24.923 43.3834 24.923C43.1285 24.923 42.9218 24.7164 42.9218 24.4615V20.7692Z" fill="#A7AFB7"/>
<path d="M42.9218 27.2311C42.9218 26.9762 43.1285 26.7695 43.3834 26.7695C43.6383 26.7695 43.8449 26.9762 43.8449 27.2311V40.1542C43.8449 40.4091 43.6383 40.6157 43.3834 40.6157C43.1285 40.6157 42.9218 40.4091 42.9218 40.1542V27.2311Z" fill="#A7AFB7"/>
<path d="M4.15259 17.077C4.15259 16.8221 4.35923 16.6155 4.61413 16.6155C4.86903 16.6155 5.07566 16.8221 5.07566 17.077V29.077C5.07566 29.3319 4.86903 29.5386 4.61413 29.5386C4.35923 29.5386 4.15259 29.3319 4.15259 29.077V17.077Z" fill="#A7AFB7"/>
<path d="M28.1526 17.077C28.1526 16.8221 28.3592 16.6155 28.6141 16.6155C28.869 16.6155 29.0757 16.8221 29.0757 17.077V32.7693C29.0757 33.0242 28.869 33.2309 28.6141 33.2309C28.3592 33.2309 28.1526 33.0242 28.1526 32.7693V17.077Z" fill="#A7AFB7"/>
<path d="M4.15259 31.8461C4.15259 31.5912 4.35923 31.3846 4.61413 31.3846C4.86903 31.3846 5.07566 31.5912 5.07566 31.8461V40.1538C5.07566 40.4087 4.86903 40.6153 4.61413 40.6153C4.35923 40.6153 4.15259 40.4087 4.15259 40.1538V31.8461Z" fill="#A7AFB7"/>
<path opacity="0.4" d="M4.15259 7.38455C12.9245 7.38455 18.4589 17.0343 28.1619 17.0343C28.1619 20.0778 28.1619 21.6855 28.1619 24.4189C18.4898 24.4189 12.9554 14.7692 4.15259 14.7692C4.15259 11.9154 4.15259 9.78208 4.15259 7.38455Z" fill="#A7AFB7"/>
<path opacity="0.4" d="M4.61328 31.5694C13.3852 31.5694 18.9196 24.4404 28.6226 24.4404C28.6226 27.9931 28.6226 29.8698 28.6226 33.0604C18.9505 33.0604 13.4161 40.1894 4.61328 40.1894C4.61328 36.8583 4.61328 34.368 4.61328 31.5694Z" fill="#A7AFB7"/>
<path opacity="0.4" d="M28.6133 17.051C33.7903 17.051 33.7903 7.83591 43.3903 7.83591C43.3903 10.8794 43.3903 12.4871 43.3903 15.2205C33.7183 15.2205 33.7903 24.4356 28.6133 24.4356C28.6133 21.5818 28.6133 19.4485 28.6133 17.051Z" fill="#A7AFB7"/>
<path opacity="0.4" d="M28.6133 27.4371C39.226 27.4371 37.361 20.5049 43.3903 20.5049C43.3903 22.7944 43.3903 22.4759 43.3903 24.5321C37.4421 24.5321 39.1861 33.2363 28.6133 32.9924C28.6133 30.8456 28.6133 29.2407 28.6133 27.4371Z" fill="#A7AFB7"/>
<path opacity="0.4" d="M28.6133 24.3739C33.6993 24.3739 37.361 15.1836 43.3903 15.1836C43.3903 16.4136 43.3903 17.0633 43.3903 18.168C37.3215 18.168 33.7726 27.3582 28.6133 27.3582C28.6133 26.2049 28.6133 25.3428 28.6133 24.3739Z" fill="#A7AFB7"/>
<path opacity="0.4" d="M4.61328 16.7637C17.1541 16.7637 22.0737 27.7393 43.4305 27.7393C43.4305 32.8979 43.4305 35.623 43.4305 40.256C22.2772 40.256 17.0888 29.2804 4.61328 29.2804C4.61328 24.4434 4.61328 20.8274 4.61328 16.7637Z" fill="#A7AFB7"/>
</g>
</svg>
