<svg width="48" height="48" viewBox="0 0 48 48" fill="none" xmlns="http://www.w3.org/2000/svg"><path fill-rule="evenodd" clip-rule="evenodd" d="M8 17.957C8 15.219 10.257 13 13.041 13H34.96c2.783 0 5.04 2.22 5.04 4.957v15.086C40 35.781 37.743 38 34.959 38H13.04C10.257 38 8 35.78 8 33.043V17.957zm5.041-1.509c-.847 0-1.534.676-1.534 1.509v15.086c0 .833.687 1.509 1.534 1.509H34.96c.847 0 1.534-.676 1.534-1.509V17.957c0-.833-.687-1.509-1.534-1.509H13.04z" fill="#798298"/><rect x="17" y="21" width="4" height="8" rx="2" fill="#555F77"/><rect x="27" y="21" width="4" height="8" rx="2" fill="#555F77"/><path d="M41 21a2 2 0 012 2v4a2 2 0 01-2 2v-8zM7 29a2 2 0 01-2-2v-4a2 2 0 012-2v8z" fill="#555F77"/><circle cx="24" cy="10" r="3" fill="#798298"/></svg>