<svg width="48" height="48" viewBox="0 0 48 48" fill="none" xmlns="http://www.w3.org/2000/svg"><path opacity=".8" fill-rule="evenodd" clip-rule="evenodd" d="M22.152 3.773C11.797 4.701 3.68 13.403 3.68 24c0 4.784 1.653 9.18 4.42 12.65l5.275-5.274A12.863 12.863 0 0111.065 24c0-6.514 4.82-11.902 11.087-12.793V3.773zm-6.256 30.303l-5.242 5.241a20.23 20.23 0 0013.333 4.99c4.943 0 9.474-1.766 12.995-4.702l-5.255-5.255a12.866 12.866 0 01-7.74 2.572 12.869 12.869 0 01-8.091-2.846zM44.296 24c0 4.944-1.767 9.474-4.703 12.996l-5.256-5.256A12.866 12.866 0 0036.91 24c0-6.506-4.808-11.89-11.065-12.79V3.775C36.19 4.713 44.295 13.41 44.295 24z" fill="url(#chart_doughnut_on0_linear)"/><defs><linearGradient id="chart_doughnut_on0_linear" x1="3.68" y1="3.773" x2="8.613" y2="48.264" gradientUnits="userSpaceOnUse"><stop stop-color="#fff" stop-opacity=".6"/><stop offset="1" stop-color="#fff"/></linearGradient></defs></svg>