<svg width="48" height="48" viewBox="0 0 48 48" fill="none" xmlns="http://www.w3.org/2000/svg"><path d="M15.688 14.153H2.293v3.434h4.89v14.772h3.589V17.586h4.915v-3.433zm9.368 5.202v1.535c-.936-1.17-2.34-1.899-4.24-1.899-3.458 0-6.32 2.991-6.32 6.866 0 3.876 2.862 6.867 6.32 6.867 1.9 0 3.304-.729 4.24-1.899v1.534h3.355V19.355h-3.355zm-3.615 10.17c-2.054 0-3.59-1.483-3.59-3.668 0-2.184 1.536-3.667 3.59-3.667 2.08 0 3.615 1.482 3.615 3.667 0 2.185-1.534 3.668-3.615 3.668zm17.582-10.534c-1.9 0-3.278.702-4.214 1.899v-6.737h-3.355V32.36h3.355v-1.534c.936 1.196 2.315 1.899 4.214 1.899 3.485 0 6.346-2.991 6.346-6.867 0-3.875-2.861-6.866-6.346-6.866zm-.625 10.534c-2.054 0-3.589-1.483-3.589-3.668 0-2.184 1.535-3.667 3.59-3.667 2.08 0 3.614 1.482 3.614 3.667 0 2.185-1.534 3.668-3.615 3.668z" fill="currentColor"/></svg>