<svg width="48" height="48" viewBox="0 0 48 48" fill="none" xmlns="http://www.w3.org/2000/svg">
  <path d="M24 4C26.6265 4 29.2272 4.51732 31.6537 5.52241C34.0802 6.5275 36.285 8.00069 38.1422 9.85786C39.9993 11.715 41.4725 13.9198 42.4776 16.3463C43.4827 18.7728 44 21.3736 44 24C44 29.3043 41.8929 34.3914 38.1422 38.1421C34.3914 41.8929 29.3043 44 24 44C21.3736 44 18.7729 43.4827 16.3463 42.4776C13.9198 41.4725 11.7151 39.9993 9.85788 38.1421C6.10715 34.3914 4.00002 29.3043 4.00002 24C4.00002 18.6957 6.10715 13.6086 9.85788 9.85786C13.6086 6.10714 18.6957 4 24 4ZM24 8C19.7566 8 15.6869 9.68571 12.6863 12.6863C9.68573 15.6869 8.00002 19.7565 8.00002 24C8.00002 27.7 9.26002 31.1 11.36 33.82L33.82 11.36C31.0106 9.18062 27.5556 7.99848 24 8ZM24 40C28.2435 40 32.3131 38.3143 35.3137 35.3137C38.3143 32.3131 40 28.2435 40 24C40 20.3 38.74 16.9 36.64 14.18L14.18 36.64C16.9894 38.8194 20.4444 40.0015 24 40Z" fill="#BAC1D7"/>
</svg>
