<svg width="48" height="48" viewBox="0 0 48 48" fill="none" xmlns="http://www.w3.org/2000/svg"><g opacity=".2"><g opacity=".8"><path opacity=".1" fill-rule="evenodd" clip-rule="evenodd" d="M24 17c-9.316 0-16.867 7.552-16.867 16.867H4.066c0-11.009 8.925-19.933 19.934-19.933s19.933 8.924 19.933 19.933h-3.067C40.866 24.552 33.315 17 24 17z" fill="#fff"/><path fill-rule="evenodd" clip-rule="evenodd" d="M15.052 17.712a1.533 1.533 0 01-.421 2.127c-4.524 3.028-7.498 8.181-7.498 14.028H4.066c0-6.913 3.52-13.003 8.859-16.576a1.533 1.533 0 012.127.42z" fill="url(#chart_multi_pie_off0_linear)"/><path fill-rule="evenodd" clip-rule="evenodd" d="M24 26.2a7.667 7.667 0 00-7.667 7.667h-6.134c0-7.621 6.179-13.8 13.8-13.8 7.622 0 13.8 6.179 13.8 13.8h-6.133a7.667 7.667 0 00-7.667-7.666z" fill="url(#chart_multi_pie_off1_linear)"/><ellipse cx="24" cy="33.867" rx="23" ry=".767" fill="#5E616D"/></g></g><defs><linearGradient id="chart_multi_pie_off0_linear" x1="5.6" y1="34.703" x2="27.066" y2="18.533" gradientUnits="userSpaceOnUse"><stop stop-color="#fff"/><stop offset="1" stop-color="#fff" stop-opacity="0"/></linearGradient><linearGradient id="chart_multi_pie_off1_linear" x1="11.477" y1="32.973" x2="41.888" y2="32.973" gradientUnits="userSpaceOnUse"><stop stop-color="#fff"/><stop offset="1" stop-color="#fff" stop-opacity="0"/></linearGradient></defs></svg>