<svg width="48" height="48" viewBox="0 0 48 48" fill="none" xmlns="http://www.w3.org/2000/svg"><path fill-rule="evenodd" clip-rule="evenodd" d="M5.898 8c0-1.16.94-2.1 2.1-2.1h3.2a2.1 2.1 0 110 4.2h-1.1v1.1a2.1 2.1 0 11-4.2 0V8zm12.8 0c0-1.16.94-2.1 2.1-2.1h6.4a2.1 2.1 0 110 4.2h-6.4a2.1 2.1 0 01-2.1-2.1zm16 0c0-1.16.94-2.1 2.1-2.1h3.2c1.16 0 2.1.94 2.1 2.1v3.2a2.1 2.1 0 11-4.2 0v-1.1h-1.1a2.1 2.1 0 01-2.1-2.1zm5.3 10.7c1.16 0 2.1.94 2.1 2.1v6.4a2.1 2.1 0 11-4.2 0v-6.4c0-1.16.94-2.1 2.1-2.1zm-32 0c1.16 0 2.1.94 2.1 2.1v6.4a2.1 2.1 0 11-4.2 0v-6.4c0-1.16.94-2.1 2.1-2.1zm0 16c1.16 0 2.1.94 2.1 2.1v1.1h1.1a2.1 2.1 0 110 4.2h-3.2a2.1 2.1 0 01-2.1-2.1v-3.2c0-1.16.94-2.1 2.1-2.1zm32 0c1.16 0 2.1.94 2.1 2.1V40a2.1 2.1 0 01-2.1 2.1h-3.2a2.1 2.1 0 110-4.2h1.1v-1.1c0-1.16.94-2.1 2.1-2.1zm-21.3 5.3c0-1.16.94-2.1 2.1-2.1h6.4a2.1 2.1 0 110 4.2h-6.4a2.1 2.1 0 01-2.1-2.1z" fill="currentColor"/></svg>