<svg width="48" height="48" viewBox="0 0 48 48" fill="none" xmlns="http://www.w3.org/2000/svg">
<path opacity="0.2" fill-rule="evenodd" clip-rule="evenodd" d="M38.0863 34.4743C39.5633 31.9223 40.4087 28.959 40.4087 25.7983C40.4087 22.6388 39.5639 19.6767 38.088 17.1253L23.0625 25.8003L38.0863 34.4743Z" fill="#A7AFB7"/>
<path opacity="0.2" fill-rule="evenodd" clip-rule="evenodd" d="M10.5358 19.8806L20.2578 25.4936L10.5365 31.1062C9.58096 29.455 9.03402 27.5378 9.03402 25.4928C9.03402 23.4483 9.58068 21.5315 10.5358 19.8806Z" fill="#A7AFB7"/>
<path fill-rule="evenodd" clip-rule="evenodd" d="M22.5808 5.66057L22.5808 24.2582L38.5674 15.0283C35.31 9.54119 29.3856 5.82316 22.5808 5.66057Z" fill="#A7AFB7"/>
<path opacity="0.2" fill-rule="evenodd" clip-rule="evenodd" d="M35.9329 34.9307C33.2871 39.5045 28.3422 42.582 22.6784 42.5829L22.6784 27.2782L35.9329 34.9307Z" fill="#A7AFB7"/>
<path opacity="0.2" fill-rule="evenodd" clip-rule="evenodd" d="M13.2114 19.6274L21.1692 24.2218L21.1692 15.0439C21.1665 15.0439 21.1638 15.0439 21.1611 15.0439C17.7654 15.0439 14.8003 16.887 13.2114 19.6274Z" fill="#A7AFB7"/>
<path opacity="0.8" fill-rule="evenodd" clip-rule="evenodd" d="M9.66007 33.3923L21.1497 26.7587L21.1497 40.0257C16.2399 40.0255 11.9531 37.3575 9.66007 33.3923Z" fill="#A7AFB7"/>
</svg>
