<svg width="48" height="48" viewBox="0 0 48 48" fill="none" xmlns="http://www.w3.org/2000/svg"><path fill-rule="evenodd" clip-rule="evenodd" d="M45.776 23.12a22.717 22.717 0 00-.351-.649 33.952 33.952 0 00-1.065-1.757 37.907 37.907 0 00-4.127-5.301C36.642 11.582 31.15 7.5 24 7.5s-12.642 4.082-16.233 7.913a37.902 37.902 0 00-4.127 5.3 33.897 33.897 0 00-1.064 1.758 22.659 22.659 0 00-.352.649l-.03.06a1.833 1.833 0 000 1.64l.03.06.074.142a33.897 33.897 0 001.341 2.264 37.902 37.902 0 004.128 5.301C11.358 36.418 16.85 40.5 24 40.5s12.642-4.082 16.233-7.913a37.907 37.907 0 004.127-5.3c.467-.723.823-1.328 1.064-1.758a22.717 22.717 0 00.352-.649l.03-.06a1.833 1.833 0 000-1.64l-.03-.06zM5.925 24a34.233 34.233 0 004.517 6.08c3.283 3.502 7.874 6.753 13.558 6.753s10.275-3.251 13.558-6.754A34.23 34.23 0 0042.075 24a34.23 34.23 0 00-4.517-6.08c-3.283-3.502-7.874-6.753-13.558-6.753s-10.275 3.251-13.558 6.754A34.233 34.233 0 005.925 24z" fill="currentColor"/><path fill-rule="evenodd" clip-rule="evenodd" d="M16.667 24a7.333 7.333 0 1114.667 0 7.333 7.333 0 01-14.667 0z" fill="currentColor"/></svg>