<svg width="48" height="48" viewBox="0 0 48 48" fill="none" xmlns="http://www.w3.org/2000/svg">
<path d="M8.99976 35.07C8.73454 35.07 8.48019 34.9646 8.29265 34.7771C8.10511 34.5896 7.99976 34.3352 7.99976 34.07V13.93C7.99966 13.7468 8.0499 13.567 8.14501 13.4104C8.24012 13.2538 8.37644 13.1263 8.53908 13.0419C8.70171 12.9575 8.88442 12.9194 9.06724 12.9317C9.25006 12.9441 9.42597 13.0065 9.57576 13.112L23.8418 23.184C23.9722 23.2764 24.0786 23.3987 24.152 23.5407C24.2254 23.6827 24.2637 23.8402 24.2637 24C24.2637 24.1598 24.2254 24.3173 24.152 24.4593C24.0786 24.6013 23.9722 24.7236 23.8418 24.816L9.57576 34.888C9.40711 35.0066 9.20593 35.0702 8.99976 35.07ZM25.9998 14C25.9998 13.4696 26.2105 12.9609 26.5855 12.5858C26.9606 12.2107 27.4693 12 27.9998 12C28.5302 12 29.0389 12.2107 29.414 12.5858C29.789 12.9609 29.9998 13.4696 29.9998 14V34C29.9998 34.5304 29.789 35.0391 29.414 35.4142C29.0389 35.7893 28.5302 36 27.9998 36C27.4693 36 26.9606 35.7893 26.5855 35.4142C26.2105 35.0391 25.9998 34.5304 25.9998 34V14Z" fill="currentColor"/>
<path d="M36.5855 12.5858C36.2105 12.9609 35.9998 13.4696 35.9998 14V34C35.9998 34.5304 36.2105 35.0391 36.5855 35.4142C36.9606 35.7893 37.4693 36 37.9998 36C38.5302 36 39.0389 35.7893 39.414 35.4142C39.789 35.0391 39.9998 34.5304 39.9998 34V14C39.9998 13.4696 39.789 12.9609 39.414 12.5858C39.0389 12.2107 38.5302 12 37.9998 12C37.4693 12 36.9606 12.2107 36.5855 12.5858Z" fill="currentColor"/>
</svg>
