<svg width="48" height="48" viewBox="0 0 48 48" fill="none" xmlns="http://www.w3.org/2000/svg">
  <path fill-rule="evenodd" clip-rule="evenodd" d="M39.9999 6H7.99994C5.79994 6 3.99994 7.8 3.99994 10V38C3.99994 40.2 5.79994 42 7.99994 42H39.9999C42.1999 42 43.9999 40.2 43.9999 38V10C43.9999 7.8 42.1999 6 39.9999 6ZM39.9999 38H7.99994V10H39.9999V38Z" fill="currentColor"/>
  <path fill-rule="evenodd" clip-rule="evenodd" d="M38.82 20.84L35.98 18L29.64 24.34L26.82 21.5L24 24.32L29.64 30L38.82 20.84Z" fill="currentColor"/>
  <path d="M19.9999 13.9995H9.99994V17.9995H19.9999V13.9995Z" fill="currentColor"/>
  <path d="M19.9999 22.0005H9.99994V26.0005H19.9999V22.0005Z" fill="currentColor"/>
  <path d="M19.9999 30H9.99994V34H19.9999V30Z" fill="currentColor"/>
</svg>
