<svg width="48" height="48" viewBox="0 0 48 48" fill="none" xmlns="http://www.w3.org/2000/svg"><path fill-rule="evenodd" clip-rule="evenodd" d="M45 24c0 11.598-9.402 21-21 21S3 35.598 3 24 12.402 3 24 3s21 9.402 21 21zM23.991 35.84c.302 0 .585-.055.85-.184a1.9 1.9 0 00.71-.49c.215-.202.374-.457.477-.731.126-.273.18-.564.18-.876 0-.602-.23-1.185-.657-1.605-.513-.528-1.276-.785-1.986-.638-.14.038-.283.072-.424.146a2.372 2.372 0 00-.372.2c-.125.09-.25.184-.338.292-.106.093-.195.22-.283.348a2.4 2.4 0 00-.195.382 1.34 1.34 0 00-.125.438 2.075 2.075 0 00.125 1.313c.105.274.265.53.478.73.408.438.975.675 1.56.675zm-.142-7.296c.233 0 .468-.038.702-.117.7-.239 6.834-2.493 6.834-7.632.006-3.29-2.019-6.234-5.035-7.325a7.303 7.303 0 00-5.757.324c-1.817.896-3.183 2.463-3.852 4.416-.407 1.188.2 2.49 1.354 2.909 1.154.414 2.421-.209 2.826-1.393a3.147 3.147 0 011.586-1.822 3.01 3.01 0 012.373-.13c1.242.448 2.074 1.659 2.073 3.018 0 1.479-2.618 2.893-3.806 3.309-1.16.397-1.788 1.689-1.4 2.886a2.225 2.225 0 002.102 1.557z" fill="currentColor"/></svg>