<svg width="48" height="48" viewBox="0 0 48 48" fill="none" xmlns="http://www.w3.org/2000/svg">
<g opacity="0.8">
<path d="M22.1553 3.77429C11.8014 4.70363 3.68652 13.4041 3.68652 23.9998C3.68652 28.7828 5.34 33.1795 8.10653 36.6496L13.381 31.3751C11.9249 29.2837 11.0711 26.7414 11.0711 23.9998C11.0711 17.4869 15.8891 12.0993 22.1553 11.2066V3.77429Z" fill="#A7AFB7"/>
<path d="M15.9017 34.076L10.6605 39.3173C14.2279 42.4254 18.8912 44.3075 23.9942 44.3075C28.9374 44.3075 33.4681 42.5414 36.9896 39.6057L31.7338 34.3499C29.5764 35.9658 26.8971 36.9229 23.9942 36.9229C20.9309 36.9229 18.1166 35.8571 15.9017 34.076Z" fill="#A7AFB7"/>
<path d="M44.3019 23.9998C44.3019 28.9428 42.5359 33.4733 39.6004 36.9948L34.3446 31.739C35.9603 29.5817 36.9173 26.9025 36.9173 23.9998C36.9173 17.4919 32.1068 12.1076 25.8476 11.2087V3.77559C36.1946 4.71171 44.3019 13.409 44.3019 23.9998Z" fill="#A7AFB7"/>
</g>
</svg>
