<svg width="48" height="48" viewBox="0 0 48 48" fill="none" xmlns="http://www.w3.org/2000/svg"><g opacity=".8" fill="#fff"><path fill-rule="evenodd" clip-rule="evenodd" d="M38.44 6.462c1 0 1.807 0 2.46.053.673.055 1.264.171 1.811.45a4.615 4.615 0 012.017 2.017c.279.547.395 1.138.45 1.81.053.654.053 1.46.053 2.461v21.495c0 1 0 1.807-.053 2.46-.055.673-.171 1.264-.45 1.81a4.615 4.615 0 01-2.017 2.018c-.547.278-1.138.395-1.81.45-.654.053-1.46.053-2.461.053H9.56c-1 0-1.807 0-2.46-.053-.673-.055-1.264-.172-1.81-.45a4.616 4.616 0 01-2.017-2.017c-.279-.547-.395-1.138-.45-1.81-.053-.654-.053-1.461-.053-2.461V13.253c0-1 0-1.807.053-2.46.055-.673.171-1.264.45-1.811A4.615 4.615 0 015.29 6.965c.546-.279 1.137-.395 1.81-.45.653-.053 1.46-.053 2.46-.053h28.88zM4.095 9.4c-.402.79-.402 1.824-.402 3.892v21.415c0 2.068 0 3.102.402 3.892a3.69 3.69 0 001.614 1.613c.79.403 1.823.403 3.891.403h28.8c2.068 0 3.102 0 3.892-.403a3.692 3.692 0 001.614-1.613c.402-.79.402-1.824.402-3.892V13.293c0-2.068 0-3.102-.402-3.892a3.693 3.693 0 00-1.614-1.614c-.79-.402-1.824-.402-3.892-.402H9.6c-2.068 0-3.102 0-3.891.402a3.692 3.692 0 00-1.614 1.614z"/><path opacity=".8" d="M3.691 11.077a3.692 3.692 0 013.693-3.692h33.23a3.692 3.692 0 013.693 3.692v3.692H3.69v-3.692z"/><path opacity=".6" d="M7.383 20.308c0-1.02.826-1.846 1.846-1.846h29.538a1.846 1.846 0 010 3.692H9.23a1.846 1.846 0 01-1.846-1.846z"/><path opacity=".4" d="M7.383 27.692c0-1.02.826-1.846 1.846-1.846h29.538a1.846 1.846 0 010 3.692H9.23a1.846 1.846 0 01-1.846-1.846z"/><path opacity=".2" d="M7.383 35.077c0-1.02.826-1.846 1.846-1.846h29.538a1.846 1.846 0 110 3.692H9.23a1.846 1.846 0 01-1.846-1.846z"/></g></svg>