<svg width="48" height="48" viewBox="0 0 48 48" fill="none" xmlns="http://www.w3.org/2000/svg"><g opacity=".2"><g opacity=".8" fill-rule="evenodd" clip-rule="evenodd"><path opacity=".1" d="M24 10c-7.732 0-14 6.268-14 14s6.268 14 14 14 14-6.268 14-14-6.268-14-14-14zM2 24C2 11.85 11.85 2 24 2s22 9.85 22 22-9.85 22-22 22S2 36.15 2 24z" fill="#fff"/><path d="M20 6a4 4 0 014-4c12.15 0 22 9.85 22 22a4 4 0 01-8 0c0-7.732-6.268-14-14-14a4 4 0 01-4-4z" fill="url(#chart_progress_circle_off0_linear)"/></g></g><defs><linearGradient id="chart_progress_circle_off0_linear" x1="24" y1="6" x2="42" y2="27" gradientUnits="userSpaceOnUse"><stop stop-color="#fff"/><stop offset="1" stop-color="#fff" stop-opacity=".6"/></linearGradient></defs></svg>