<svg width="48" height="48" viewBox="0 0 48 48" fill="none" xmlns="http://www.w3.org/2000/svg">
<path fill-rule="evenodd" clip-rule="evenodd" d="M23.123 6.80311C23.3697 5.95457 24.2575 5.46665 25.1061 5.7133C28.7301 6.76672 31.3812 10.1107 31.3812 14.078C31.3812 17.084 29.8571 19.7335 27.5467 21.2965C26.8148 21.7916 25.8201 21.5997 25.325 20.8678C24.8298 20.1359 25.0218 19.1411 25.7537 18.646C27.2218 17.6529 28.1812 15.9772 28.1812 14.078C28.1812 11.5721 26.5071 9.45299 24.2129 8.78612C23.3643 8.53947 22.8764 7.65164 23.123 6.80311ZM15.3313 9.65808C12.2882 9.65808 9.82125 12.125 9.82125 15.1681C9.82125 18.2112 12.2882 20.6781 15.3313 20.6781C18.3744 20.6781 20.8413 18.2112 20.8413 15.1681C20.8413 12.125 18.3744 9.65808 15.3313 9.65808ZM6.62125 15.1681C6.62125 10.3577 10.5209 6.45808 15.3313 6.45808C20.1417 6.45808 24.0413 10.3577 24.0413 15.1681C24.0413 19.9785 20.1417 23.8781 15.3313 23.8781C10.5209 23.8781 6.62125 19.9785 6.62125 15.1681ZM40 13.5681C40.8837 13.5681 41.6 14.2844 41.6 15.1681V19.5681H46C46.8837 19.5681 47.6 20.2844 47.6 21.1681C47.6 22.0518 46.8837 22.7681 46 22.7681H41.6V27.1681C41.6 28.0518 40.8837 28.7681 40 28.7681C39.1163 28.7681 38.4 28.0518 38.4 27.1681V22.7681H34C33.1163 22.7681 32.4 22.0518 32.4 21.1681C32.4 20.2844 33.1163 19.5681 34 19.5681H38.4V15.1681C38.4 14.2844 39.1163 13.5681 40 13.5681ZM27.7372 24.2891C28.2046 23.5392 29.1915 23.3102 29.9414 23.7776C34.2821 26.4832 37.1766 31.3045 37.1766 36.8031C37.1766 37.6867 36.4602 38.4031 35.5766 38.4031C34.6929 38.4031 33.9766 37.6867 33.9766 36.8031C33.9766 32.4548 31.6913 28.639 28.2487 26.4933C27.4988 26.0259 27.2698 25.039 27.7372 24.2891ZM0.566684 38.7048C1.64724 31.5193 7.84452 26.0106 15.3313 26.0106C22.8181 26.0106 29.0153 31.5193 30.0959 38.7048C30.2273 39.5787 29.6254 40.3936 28.7516 40.525C27.8778 40.6564 27.0629 40.0545 26.9315 39.1807C26.0829 33.5376 21.211 29.2106 15.3313 29.2106C9.45162 29.2106 4.5797 33.5376 3.7311 39.1807C3.5997 40.0545 2.78479 40.6564 1.91096 40.525C1.03713 40.3936 0.435279 39.5787 0.566684 38.7048Z" fill="currentColor"/>
</svg>
