<svg width="48" height="48" viewBox="0 0 48 48" fill="none" xmlns="http://www.w3.org/2000/svg">
<g filter="url(#filter0_dd)">
<path fill-rule="evenodd" clip-rule="evenodd" d="M7.42218 10.5032C5.89622 10.5032 4.65918 11.7402 4.65918 13.2662V35.0677C4.65918 36.5936 5.89622 37.8307 7.42218 37.8307H40.5781C42.1041 37.8307 43.3411 36.5936 43.3411 35.0677V13.2662C43.3411 11.7402 42.1041 10.5032 40.5781 10.5032H7.42218Z" fill="#F0F1F3"/>
</g>
<g filter="url(#filter1_f)">
<path d="M19.4755 27.5739C19.0178 27.5739 18.6076 27.4996 18.2449 27.351C17.8823 27.2024 17.591 26.9824 17.3711 26.6912C17.1571 26.3999 17.0441 26.0491 17.0322 25.6389H18.6551C18.6789 25.8708 18.7592 26.0491 18.8959 26.174C19.0326 26.2929 19.211 26.3523 19.4309 26.3523C19.6568 26.3523 19.8351 26.3018 19.9659 26.2007C20.0967 26.0937 20.1621 25.9481 20.1621 25.7638C20.1621 25.6092 20.1086 25.4814 20.0016 25.3804C19.9005 25.2793 19.7727 25.1961 19.6182 25.1307C19.4695 25.0653 19.2555 24.991 18.9761 24.9078C18.5719 24.7829 18.242 24.6581 17.9863 24.5332C17.7307 24.4084 17.5108 24.2241 17.3265 23.9804C17.1422 23.7366 17.0501 23.4186 17.0501 23.0263C17.0501 22.4437 17.2611 21.9889 17.6832 21.662C18.1052 21.329 18.6551 21.1626 19.3328 21.1626C20.0224 21.1626 20.5782 21.329 21.0003 21.662C21.4224 21.9889 21.6483 22.4467 21.678 23.0352H20.0283C20.0165 22.8331 19.9422 22.6755 19.8054 22.5626C19.6687 22.4437 19.4933 22.3842 19.2793 22.3842C19.095 22.3842 18.9464 22.4348 18.8335 22.5358C18.7205 22.6309 18.664 22.7706 18.664 22.9549C18.664 23.157 18.7592 23.3146 18.9494 23.4275C19.1396 23.5405 19.4369 23.6623 19.8411 23.7931C20.2453 23.9298 20.5723 24.0606 20.822 24.1855C21.0776 24.3103 21.2975 24.4916 21.4818 24.7294C21.6661 24.9672 21.7583 25.2733 21.7583 25.6479C21.7583 26.0045 21.6661 26.3285 21.4818 26.6198C21.3035 26.9111 21.0419 27.143 20.6971 27.3153C20.3523 27.4877 19.9451 27.5739 19.4755 27.5739Z" fill="#5B7CAD" fill-opacity="0.1"/>
<path d="M27.1551 28.5816L26.3526 27.5026C26.1148 27.5502 25.883 27.5739 25.6571 27.5739C25.0686 27.5739 24.5276 27.4372 24.0342 27.1638C23.5467 26.8903 23.1573 26.5098 22.8661 26.0224C22.5807 25.529 22.438 24.9761 22.438 24.3638C22.438 23.7515 22.5807 23.2016 22.8661 22.7142C23.1573 22.2267 23.5467 21.8462 24.0342 21.5728C24.5276 21.2993 25.0686 21.1626 25.6571 21.1626C26.2456 21.1626 26.7836 21.2993 27.2711 21.5728C27.7645 21.8462 28.1509 22.2267 28.4303 22.7142C28.7156 23.2016 28.8583 23.7515 28.8583 24.3638C28.8583 24.8988 28.7483 25.3893 28.5284 25.8351C28.3144 26.275 28.0142 26.6406 27.6277 26.9319L29.001 28.5816H27.1551ZM23.9985 24.3638C23.9985 24.9167 24.1471 25.3595 24.4444 25.6924C24.7475 26.0194 25.1518 26.1829 25.6571 26.1829C26.1564 26.1829 26.5547 26.0164 26.852 25.6835C27.1551 25.3506 27.3067 24.9107 27.3067 24.3638C27.3067 23.811 27.1551 23.371 26.852 23.0441C26.5547 22.7112 26.1564 22.5447 25.6571 22.5447C25.1518 22.5447 24.7475 22.7082 24.4444 23.0352C24.1471 23.3621 23.9985 23.805 23.9985 24.3638Z" fill="#5B7CAD" fill-opacity="0.1"/>
<path d="M31.2488 26.3345H33.2462V27.5115H29.724V21.2518H31.2488V26.3345Z" fill="#5B7CAD" fill-opacity="0.1"/>
</g>
<path d="M18.3358 26.8686C17.8781 26.8686 17.4679 26.7943 17.1053 26.6457C16.7427 26.4971 16.4514 26.2771 16.2314 25.9858C16.0174 25.6945 15.9045 25.3438 15.8926 24.9336H17.5155C17.5393 25.1655 17.6195 25.3438 17.7562 25.4686C17.893 25.5875 18.0713 25.647 18.2913 25.647C18.5172 25.647 18.6955 25.5965 18.8263 25.4954C18.9571 25.3884 19.0225 25.2427 19.0225 25.0585C19.0225 24.9039 18.969 24.7761 18.8619 24.675C18.7609 24.574 18.6331 24.4907 18.4785 24.4254C18.3299 24.36 18.1159 24.2857 17.8365 24.2024C17.4323 24.0776 17.1023 23.9528 16.8467 23.8279C16.5911 23.7031 16.3711 23.5188 16.1868 23.2751C16.0026 23.0313 15.9104 22.7133 15.9104 22.3209C15.9104 21.7384 16.1214 21.2836 16.5435 20.9566C16.9656 20.6237 17.5155 20.4573 18.1932 20.4573C18.8828 20.4573 19.4386 20.6237 19.8607 20.9566C20.2827 21.2836 20.5086 21.7413 20.5384 22.3299H18.8887C18.8768 22.1277 18.8025 21.9702 18.6658 21.8572C18.529 21.7384 18.3537 21.6789 18.1397 21.6789C17.9554 21.6789 17.8068 21.7294 17.6938 21.8305C17.5809 21.9256 17.5244 22.0653 17.5244 22.2496C17.5244 22.4517 17.6195 22.6093 17.8097 22.7222C18 22.8352 18.2972 22.957 18.7014 23.0878C19.1057 23.2245 19.4326 23.3553 19.6823 23.4801C19.9379 23.605 20.1579 23.7863 20.3422 24.0241C20.5265 24.2619 20.6186 24.568 20.6186 24.9425C20.6186 25.2992 20.5265 25.6232 20.3422 25.9145C20.1638 26.2058 19.9023 26.4376 19.5575 26.61C19.2127 26.7824 18.8055 26.8686 18.3358 26.8686Z" fill="#84A9DF"/>
<path d="M26.0155 27.8762L25.213 26.7973C24.9752 26.8448 24.7433 26.8686 24.5174 26.8686C23.9289 26.8686 23.3879 26.7319 22.8945 26.4584C22.4071 26.185 22.0177 25.8045 21.7264 25.3171C21.4411 24.8236 21.2984 24.2708 21.2984 23.6585C21.2984 23.0462 21.4411 22.4963 21.7264 22.0088C22.0177 21.5214 22.4071 21.1409 22.8945 20.8675C23.3879 20.594 23.9289 20.4573 24.5174 20.4573C25.106 20.4573 25.644 20.594 26.1314 20.8675C26.6248 21.1409 27.0112 21.5214 27.2906 22.0088C27.576 22.4963 27.7186 23.0462 27.7186 23.6585C27.7186 24.1935 27.6087 24.6839 27.3887 25.1298C27.1747 25.5697 26.8745 25.9353 26.4881 26.2266L27.8613 27.8762H26.0155ZM22.8589 23.6585C22.8589 24.2113 23.0075 24.6542 23.3047 24.9871C23.6079 25.3141 24.0121 25.4776 24.5174 25.4776C25.0168 25.4776 25.4151 25.3111 25.7123 24.9782C26.0155 24.6453 26.1671 24.2054 26.1671 23.6585C26.1671 23.1056 26.0155 22.6657 25.7123 22.3388C25.4151 22.0059 25.0168 21.8394 24.5174 21.8394C24.0121 21.8394 23.6079 22.0029 23.3047 22.3299C23.0075 22.6568 22.8589 23.0997 22.8589 23.6585Z" fill="#84A9DF"/>
<path d="M30.1092 25.6292H32.1066V26.8062H28.5844V20.5464H30.1092V25.6292Z" fill="#84A9DF"/>
<path fill-rule="evenodd" clip-rule="evenodd" d="M7.42174 10.9635C6.15011 10.9635 5.11924 11.9943 5.11924 13.266V35.0675C5.11924 36.3391 6.15011 37.37 7.42174 37.37H40.5777C41.8493 37.37 42.8802 36.3391 42.8802 35.0675V13.266C42.8802 11.9943 41.8493 10.9635 40.5777 10.9635H7.42174ZM4.19824 13.266C4.19824 11.4857 5.64145 10.0425 7.42174 10.0425H40.5777C42.358 10.0425 43.8012 11.4857 43.8012 13.266V35.0675C43.8012 36.8478 42.358 38.291 40.5777 38.291H7.42174C5.64145 38.291 4.19824 36.8478 4.19824 35.0675V13.266Z" fill="#C7CAD3"/>
<defs>
<filter id="filter0_dd" x="4.65918" y="10.5032" width="38.682" height="29.4065" filterUnits="userSpaceOnUse" color-interpolation-filters="sRGB">
<feFlood flood-opacity="0" result="BackgroundImageFix"/>
<feColorMatrix in="SourceAlpha" type="matrix" values="0 0 0 0 0 0 0 0 0 0 0 0 0 0 0 0 0 0 127 0"/>
<feMorphology radius="3.684" operator="erode" in="SourceAlpha" result="effect1_dropShadow"/>
<feOffset dy="0.920999"/>
<feGaussianBlur stdDeviation="1"/>
<feColorMatrix type="matrix" values="0 0 0 0 0.027451 0 0 0 0 0.0745098 0 0 0 0 0.152941 0 0 0 0.06 0"/>
<feBlend mode="normal" in2="BackgroundImageFix" result="effect1_dropShadow"/>
<feColorMatrix in="SourceAlpha" type="matrix" values="0 0 0 0 0 0 0 0 0 0 0 0 0 0 0 0 0 0 127 0"/>
<feMorphology radius="3.684" operator="erode" in="SourceAlpha" result="effect2_dropShadow"/>
<feOffset dy="2.763"/>
<feGaussianBlur stdDeviation="1.5"/>
<feColorMatrix type="matrix" values="0 0 0 0 0.027451 0 0 0 0 0.0745098 0 0 0 0 0.152941 0 0 0 0.05 0"/>
<feBlend mode="normal" in2="effect1_dropShadow" result="effect2_dropShadow"/>
<feBlend mode="normal" in="SourceGraphic" in2="effect2_dropShadow" result="shape"/>
</filter>
<filter id="filter1_f" x="14.5322" y="18.6626" width="21.214" height="12.419" filterUnits="userSpaceOnUse" color-interpolation-filters="sRGB">
<feFlood flood-opacity="0" result="BackgroundImageFix"/>
<feBlend mode="normal" in="SourceGraphic" in2="BackgroundImageFix" result="shape"/>
<feGaussianBlur stdDeviation="1.25" result="effect1_foregroundBlur"/>
</filter>
</defs>
</svg>
