<svg width="48" height="48" viewBox="0 0 48 48" fill="none" xmlns="http://www.w3.org/2000/svg">
<path fill-rule="evenodd" clip-rule="evenodd" d="M17.2505 7.71447C17.715 7.44906 18.2813 7.43334 18.7598 7.67258L29.9106 13.248L39.5942 7.71447C40.0894 7.4315 40.6978 7.43353 41.1911 7.71981C41.6844 8.00608 41.988 8.53331 41.988 9.10366V32.937C41.988 33.5112 41.6804 34.0413 41.1819 34.3262L30.7548 40.2845C30.2903 40.5499 29.7239 40.5657 29.2454 40.3264L18.0946 34.751L8.41103 40.2845C7.91583 40.5675 7.30743 40.5655 6.81413 40.2792C6.32083 39.9929 6.01721 39.4657 6.01721 38.8953V15.062C6.01721 14.4878 6.32487 13.9577 6.82339 13.6728L17.2505 7.71447ZM18.0946 10.9177L9.21721 15.9905V36.1382L17.2505 31.5478C17.715 31.2824 18.2813 31.2667 18.7598 31.5059L29.9106 37.0813L38.788 32.0085V11.8608L30.7548 16.4512C30.2903 16.7166 29.7239 16.7323 29.2454 16.4931L18.0946 10.9177Z" fill="#366ACB"/>
<path opacity="0.4" fill-rule="evenodd" clip-rule="evenodd" d="M18.2074 15.5677C18.5362 15.7405 18.7422 16.0814 18.7422 16.4529V26.6814C18.7422 27.0327 18.5578 27.3582 18.2565 27.5389L13.7878 30.2192C13.4789 30.4045 13.0941 30.4093 12.7807 30.2318C12.4672 30.0543 12.2734 29.7219 12.2734 29.3616V19.5304C12.2734 19.2014 12.4353 18.8934 12.7063 18.7068L17.175 15.6293C17.481 15.4186 17.8785 15.3949 18.2074 15.5677Z" fill="#366ACB"/>
<path opacity="0.4" fill-rule="evenodd" clip-rule="evenodd" d="M21.6852 16.8924C21.98 16.7102 22.3482 16.6936 22.6582 16.8486L28.9842 20.2472C29.3229 20.4166 29.5369 20.7628 29.5369 21.1416V30.9729C29.5369 31.3194 29.3575 31.6413 29.0627 31.8235C28.7679 32.0057 28.3997 32.0223 28.0897 31.8673L21.7637 28.4687C21.4249 28.2993 21.2109 27.9531 21.2109 27.5743V17.743C21.2109 17.3965 21.3904 17.0746 21.6852 16.8924Z" fill="#366ACB"/>
</svg>
