<svg width="48" height="48" viewBox="0 0 48 48" fill="none" xmlns="http://www.w3.org/2000/svg">
<path opacity="0.8" fill-rule="evenodd" clip-rule="evenodd" d="M25.3874 3.42225L41.1306 12.5116C41.9874 13.0063 42.5152 13.9205 42.5152 14.9098V33.0885C42.5152 34.0779 41.9874 34.9921 41.1306 35.4867L25.3874 44.5761C24.5306 45.0708 23.475 45.0708 22.6182 44.5761L6.87497 35.4867C6.01817 34.9921 5.49036 34.0779 5.49036 33.0885V14.9098C5.49036 13.9205 6.01817 13.0063 6.87497 12.5116L22.6182 3.42225C23.475 2.92757 24.5306 2.92757 25.3874 3.42225ZM24.9259 4.22165C24.3547 3.89187 23.6509 3.89187 23.0797 4.22165L7.33651 13.311C6.76531 13.6408 6.41343 14.2503 6.41343 14.9098V33.0885C6.41343 33.7481 6.76531 34.3575 7.33651 34.6873L23.0797 43.7767C23.6509 44.1065 24.3547 44.1065 24.9259 43.7767L40.6691 34.6873C41.2403 34.3575 41.5922 33.7481 41.5922 33.0885V14.9098C41.5922 14.2502 41.2403 13.6408 40.6691 13.311L24.9259 4.22165Z" fill="#A7AFB7"/>
<path opacity="0.2" d="M6.22351 34.2399L24.0547 3.39124L35.4152 30.5439L24.0547 38.9078L6.22351 34.2399Z" fill="#A7AFB7"/>
<path d="M12.5898 17.4049L37.4446 16.1611L24.0467 35.0741L14.3625 29.577L12.5898 17.4049Z" fill="#A7AFB7"/>
</svg>
