<svg width="48" height="48" viewBox="0 0 48 48" fill="none" xmlns="http://www.w3.org/2000/svg"><g clip-path="url(#link-vertical-clip0)"><path fill-rule="evenodd" clip-rule="evenodd" d="M16 36a8 8 0 1016 0v-6a2 2 0 114 0v6a12 12 0 01-12 12c-6.627 0-12-5.373-12-12v-6a2 2 0 114 0v6zm-2-16a2 2 0 01-2-2v-6A12 12 0 0124 0c6.627 0 12 5.373 12 12v6a2 2 0 11-4 0v-6a8 8 0 10-16 0v6a2 2 0 01-2 2zm10 14a2 2 0 01-2-2V16a2 2 0 114 0v16a2 2 0 01-2 2z" fill="currentColor"/></g><defs><clipPath id="link-vertical-clip0"><path d="M0 0h48v48H0V0z" fill="#fff"/></clipPath></defs></svg>