<svg width="48" height="48" viewBox="0 0 48 48" fill="none" xmlns="http://www.w3.org/2000/svg">
<path opacity="0.6" d="M3.69324 11.0768C3.69324 9.03759 5.34634 7.38449 7.38554 7.38449H40.6163C42.6555 7.38449 44.3086 9.0376 44.3086 11.0768V12.923H3.69324V11.0768Z" fill="#6899EF"/>
<path opacity="0.4" d="M3.69324 12.9229H44.3086V22.1537H3.69324V12.9229Z" fill="#6899EF"/>
<path opacity="0.2" d="M3.69324 22.1537H44.3086V31.3845H3.69324V22.1537Z" fill="#6899EF"/>
<path opacity="0.4" d="M3.69324 11.0768C3.69324 9.0376 5.34634 7.38449 7.38555 7.38449H9.2317V40.6153H7.38554C5.34634 40.6153 3.69324 38.9622 3.69324 36.923V11.0768Z" fill="#6899EF"/>
<path opacity="0.2" fill-rule="evenodd" clip-rule="evenodd" d="M4.09567 9.40053C3.69324 10.1904 3.69324 11.2243 3.69324 13.2922V34.7076C3.69324 36.7755 3.69324 37.8094 4.09567 38.5992C4.44967 39.294 5.01452 39.8588 5.70927 40.2128C6.4991 40.6153 7.53305 40.6153 9.60093 40.6153H38.4009C40.4688 40.6153 41.5028 40.6153 42.2926 40.2128C42.9873 39.8588 43.5522 39.294 43.9062 38.5992C44.3086 37.8094 44.3086 36.7755 44.3086 34.7076V13.2922C44.3086 11.2243 44.3086 10.1904 43.9062 9.40053C43.5522 8.70578 42.9873 8.14092 42.2926 7.78693C41.5028 7.38449 40.4688 7.38449 38.4009 7.38449H9.60093C7.53304 7.38449 6.4991 7.38449 5.70927 7.78693C5.01452 8.14092 4.44967 8.70578 4.09567 9.40053Z" fill="#6899EF"/>
<path fill-rule="evenodd" clip-rule="evenodd" d="M44.3086 13.846H3.69324V11.9999H44.3086V13.846Z" fill="#6899EF"/>
<path fill-rule="evenodd" clip-rule="evenodd" d="M8.30863 40.6153L8.30863 7.38449L10.1548 7.38449L10.1548 40.6153L8.30863 40.6153Z" fill="#6899EF"/>
<path fill-rule="evenodd" clip-rule="evenodd" d="M26.7701 40.6153L26.7701 7.38449L28.6162 7.38449L28.6162 40.6153L26.7701 40.6153Z" fill="#6899EF"/>
<path fill-rule="evenodd" clip-rule="evenodd" d="M44.3086 23.0768H3.69324V21.2306H44.3086V23.0768Z" fill="#6899EF"/>
<path fill-rule="evenodd" clip-rule="evenodd" d="M44.3086 32.3076H3.69324V30.4614H44.3086V32.3076Z" fill="#6899EF"/>
</svg>
