<svg width="48" height="48" viewBox="0 0 48 48" fill="none" xmlns="http://www.w3.org/2000/svg"><path fill-rule="evenodd" clip-rule="evenodd" d="M15.757 4.075a1.833 1.833 0 011.73-.048l13.789 6.894 11.981-6.846A1.833 1.833 0 0146 5.667V35c0 .658-.352 1.265-.924 1.592l-12.833 7.333a1.833 1.833 0 01-1.73.048L16.724 37.08 4.743 43.925A1.833 1.833 0 012 42.333V13c0-.658.353-1.265.924-1.592l12.833-7.333zM18.5 33.867l11 5.5V14.133l-11-5.5v25.234zM14.833 8.826v25.11l-9.166 5.238v-25.11l9.166-5.238zm18.334 5.238v25.11l9.166-5.238V8.826l-9.166 5.238z" fill="currentColor"/></svg>