<svg width="48" height="48" viewBox="0 0 48 48" fill="none" xmlns="http://www.w3.org/2000/svg"><g opacity=".2"><path d="M4.152 7.846a.462.462 0 01.923 0v6.462a.462.462 0 11-.923 0V7.846zm38.77 0a.461.461 0 11.923 0V18a.462.462 0 01-.923 0V7.846zm0 12.924a.462.462 0 11.923 0v3.692a.462.462 0 01-.923 0v-3.693zm0 6.461a.462.462 0 11.923 0v12.923a.462.462 0 01-.923 0V27.231zM4.152 17.077a.462.462 0 11.923 0v12a.462.462 0 01-.923 0v-12zm24 0a.462.462 0 01.923 0v15.692a.461.461 0 11-.923 0V17.077zm-24 14.769a.462.462 0 01.923 0v8.308a.462.462 0 01-.923 0v-8.308z" fill="#fff"/><path opacity=".6" d="M4.152 7.385c8.772 0 14.307 9.65 24.01 9.65v7.384c-9.672 0-15.207-9.65-24.01-9.65V7.385z" fill="url(#chart_sankey_diagram_off0_linear)"/><path opacity=".6" d="M4.617 31.568c8.772 0 14.306-7.129 24.01-7.129v8.62c-9.673 0-15.207 7.13-24.01 7.13v-8.62z" fill="url(#chart_sankey_diagram_off1_linear)"/><path opacity=".6" d="M28.617 17.05c5.177 0 5.177-9.215 14.777-9.215v7.385c-9.672 0-9.6 9.215-14.777 9.215V17.05z" fill="url(#chart_sankey_diagram_off2_linear)"/><path opacity=".6" d="M28.617 27.436c10.613 0 8.748-6.932 14.777-6.932v4.027c-5.948 0-4.204 8.704-14.777 8.46v-5.555z" fill="url(#chart_sankey_diagram_off3_linear)"/><path opacity=".6" d="M28.617 24.374c5.086 0 8.748-9.19 14.777-9.19v2.984c-6.069 0-9.617 9.19-14.777 9.19v-2.984z" fill="url(#chart_sankey_diagram_off4_linear)"/><path opacity=".6" d="M4.617 16.764c12.541 0 17.46 10.975 38.817 10.975v12.517c-21.153 0-26.341-10.976-38.817-10.976V16.764z" fill="url(#chart_sankey_diagram_off5_linear)"/></g><defs><linearGradient id="chart_sankey_diagram_off0_linear" x1="4.83" y1="7.666" x2="5.105" y2="15.551" gradientUnits="userSpaceOnUse"><stop stop-color="#fff" stop-opacity=".6"/><stop offset="1" stop-color="#fff"/></linearGradient><linearGradient id="chart_sankey_diagram_off1_linear" x1="5.295" y1="31.966" x2="5.669" y2="41.166" gradientUnits="userSpaceOnUse"><stop stop-color="#fff" stop-opacity=".6"/><stop offset="1" stop-color="#fff"/></linearGradient><linearGradient id="chart_sankey_diagram_off2_linear" x1="28.617" y1="24.435" x2="35.74" y2="27.129" gradientUnits="userSpaceOnUse"><stop stop-color="#fff" stop-opacity=".6"/><stop offset="1" stop-color="#fff"/></linearGradient><linearGradient id="chart_sankey_diagram_off3_linear" x1="29.295" y1="27.648" x2="29.45" y2="33.582" gradientUnits="userSpaceOnUse"><stop stop-color="#fff" stop-opacity=".6"/><stop offset="1" stop-color="#fff"/></linearGradient><linearGradient id="chart_sankey_diagram_off4_linear" x1="29.295" y1="19.021" x2="29.34" y2="22.211" gradientUnits="userSpaceOnUse"><stop stop-color="#fff" stop-opacity=".6"/><stop offset="1" stop-color="#fff"/></linearGradient><linearGradient id="chart_sankey_diagram_off5_linear" x1="5.295" y1="17.092" x2="6.082" y2="30.427" gradientUnits="userSpaceOnUse"><stop stop-color="#fff" stop-opacity=".6"/><stop offset="1" stop-color="#fff"/></linearGradient></defs></svg>