<svg width="48" height="48" viewBox="0 0 48 48" fill="none" xmlns="http://www.w3.org/2000/svg"><path fill-rule="evenodd" clip-rule="evenodd" d="M15.873 9.35a1.65 1.65 0 00-1.65 1.65v26c0 .911.74 1.65 1.65 1.65h16.25a1.65 1.65 0 001.65-1.65V11a1.65 1.65 0 00-1.65-1.65h-16.25zM11.023 11a4.85 4.85 0 014.85-4.85h16.25a4.85 4.85 0 014.85 4.85v26a4.85 4.85 0 01-4.85 4.85h-16.25a4.85 4.85 0 01-4.85-4.85V11z" fill="#798298"/><path d="M25.625 35.375a1.625 1.625 0 11-3.25 0 1.625 1.625 0 013.25 0z" fill="#798298"/><path fill-rule="evenodd" clip-rule="evenodd" d="M19.938 17.5c0-.449.363-.813.812-.813h6.5a.813.813 0 010 1.625h-6.5a.813.813 0 01-.813-.812z" fill="#798298"/><path d="M17.5 14.25c0-.898.727-1.625 1.625-1.625h9.75c.898 0 1.625.727 1.625 1.625v14.625c0 .898-.727 1.625-1.625 1.625h-9.75a1.625 1.625 0 01-1.625-1.625V14.25z" fill="#555F77"/></svg>