<svg width="48" height="48" viewBox="0 0 48 48" fill="none" xmlns="http://www.w3.org/2000/svg"><rect x="3.149" y="9.149" width="41.502" height="29.559" rx="1.045" fill="#404964" stroke="#495169" stroke-width=".299"/><rect x="6.881" y="13.479" width="34.037" height="20.9" rx=".896" fill="#49536E" stroke="#535D7D" stroke-width=".597"/><path d="M17.15 29.487a.2.2 0 00-.155.063.21.21 0 00-.065.161c0 .06.02.114.065.158a.21.21 0 00.156.06.23.23 0 00.158-.06.229.229 0 00.066-.158.22.22 0 00-.224-.224zm1.36-1.158c-.209 0-.37.074-.477.227v-.186h-.296v2.135h.317v-.818c.125.18.28.269.471.269.221 0 .398-.08.523-.242a.89.89 0 00.176-.564c0-.24-.06-.43-.179-.58a.65.65 0 00-.535-.241zm-.047.256c.155 0 .268.054.343.168a.74.74 0 01.093.397.69.69 0 01-.102.397c-.075.101-.188.152-.343.152a.345.345 0 01-.287-.14.61.61 0 01-.122-.4v-.027a.67.67 0 01.098-.382.362.362 0 01.32-.165zm.894-.215l.613 1.508-.27.627h.338l.84-2.134h-.347l-.406 1.125-.424-1.125h-.344zm3.66-.904l-1.045 2.747h.277l1.042-2.747h-.274zm1.761 2.021a.2.2 0 00-.155.063.21.21 0 00-.066.161c0 .06.021.114.066.158a.21.21 0 00.155.06c.06 0 .114-.02.159-.06a.229.229 0 000-.32.226.226 0 00-.159-.062zm.82-1.735c-.06 0-.11.018-.153.06a.19.19 0 00-.065.152c0 .06.02.114.065.156.042.038.093.06.153.06s.113-.021.158-.06a.21.21 0 00.063-.156.198.198 0 00-.063-.152.214.214 0 00-.158-.06zm-.159.619v1.68c0 .129-.06.195-.179.195h-.12v.26h.147c.31 0 .469-.15.469-.443v-1.692h-.317zm1.321-.042a.783.783 0 00-.454.12.372.372 0 00-.173.328c0 .13.06.235.18.31.071.048.2.093.382.134.158.036.262.066.31.09.09.042.137.102.137.176 0 .138-.125.21-.37.21-.12 0-.203-.022-.256-.06-.054-.042-.093-.117-.11-.221h-.311c.035.358.262.54.686.54.457 0 .687-.164.687-.49a.364.364 0 00-.185-.322 1.313 1.313 0 00-.391-.146 2.252 2.252 0 01-.31-.093c-.084-.039-.126-.084-.126-.137 0-.06.027-.108.083-.138a.415.415 0 01.215-.041.45.45 0 01.245.053c.051.033.087.09.11.173h.308c-.036-.325-.257-.486-.657-.486zm1.686 0a.72.72 0 00-.561.233.824.824 0 00-.21.582.82.82 0 00.207.576.734.734 0 00.564.236c.233 0 .42-.08.564-.236a.821.821 0 00.206-.576.838.838 0 00-.209-.582.72.72 0 00-.561-.233zm0 .26c.146 0 .26.056.343.173a.636.636 0 01.108.382.639.639 0 01-.108.379.405.405 0 01-.343.173.396.396 0 01-.34-.173.626.626 0 01-.105-.38c0-.155.033-.283.104-.381a.389.389 0 01.34-.174zm1.854-.26a.537.537 0 00-.26.06.593.593 0 00-.207.173v-.192h-.316v1.544h.316v-.928a.467.467 0 01.129-.296.322.322 0 01.236-.096c.238 0 .36.132.36.394v.926h.317v-.952c0-.424-.194-.633-.576-.633z" fill="#6E7795"/><path d="M27.217 25.222h-6.635v-2.654h6.635v2.654z" fill="#5A6382"/><g clip-path="url(#new_upload_model_clip0)"><circle cx="27.22" cy="22.569" r="2.654" fill="#5A6382"/><circle cx="24.786" cy="20.578" r="3.317" fill="#667091"/><circle cx="20.584" cy="22.569" r="2.654" fill="#6A7392"/><circle cx="21.027" cy="20.357" r="1.769" fill="#6E7899"/></g><path d="M21.846 22.191l1.964-1.964a.442.442 0 01.626 0l1.963 1.964c.14.14.04.378-.156.378h-1.236v2.654h-1.769v-2.654h-1.235a.221.221 0 01-.157-.378z" fill="#8088A6"/><defs><clipPath id="new_upload_model_clip0"><path fill="#fff" d="M17.93 17.26h11.943v7.962H17.93z"/></clipPath></defs></svg>