<svg width="48" height="48" viewBox="0 0 48 48" fill="none" xmlns="http://www.w3.org/2000/svg">
<g filter="url(#filter0_dd)">
<path d="M6 17.5C6 16.1193 7.11929 15 8.5 15H39.5C40.8807 15 42 16.1193 42 17.5V35.5C42 36.8807 40.8807 38 39.5 38H8.5C7.11929 38 6 36.8807 6 35.5V17.5Z" fill="#F0F1F3"/>
</g>
<path fill-rule="evenodd" clip-rule="evenodd" d="M5.59961 17.5001C5.59961 15.8985 6.89798 14.6001 8.49961 14.6001H39.4996C41.1012 14.6001 42.3996 15.8985 42.3996 17.5001V35.5001C42.3996 37.1017 41.1012 38.4001 39.4996 38.4001H8.49961C6.89798 38.4001 5.59961 37.1017 5.59961 35.5001V17.5001ZM8.49961 15.4001C7.33981 15.4001 6.39961 16.3403 6.39961 17.5001V35.5001C6.39961 36.6599 7.33981 37.6001 8.49961 37.6001H39.4996C40.6594 37.6001 41.5996 36.6599 41.5996 35.5001V17.5001C41.5996 16.3403 40.6594 15.4001 39.4996 15.4001H8.49961Z" fill="#C7CAD3"/>
<path d="M23.4611 28.9615C23.4611 29.4076 23.0995 29.7692 22.6534 29.7692C22.2073 29.7692 21.8457 29.4076 21.8457 28.9615L21.8457 21.9615C21.8457 21.5154 22.2073 21.1538 22.6534 21.1538C23.0995 21.1538 23.4611 21.5154 23.4611 21.9615L23.4611 28.9615Z" fill="#84A9DF"/>
<path d="M25.3468 22.7693C24.9007 22.7693 24.5391 23.1309 24.5391 23.577V28.9616C24.5391 29.4077 24.9007 29.7693 25.3468 29.7693C25.7928 29.7693 26.1544 29.4077 26.1544 28.9616V23.577C26.1544 23.1309 25.7928 22.7693 25.3468 22.7693Z" fill="#84A9DF"/>
<path d="M19.1543 25.1925C19.1543 24.7464 19.5159 24.3848 19.962 24.3848C20.4081 24.3848 20.7697 24.7464 20.7697 25.1925V28.9617C20.7697 29.4078 20.4081 29.7694 19.962 29.7694C19.5159 29.7694 19.1543 29.4078 19.1543 28.9617V25.1925Z" fill="#84A9DF"/>
<path d="M18 31.35C18 31.1567 18.0611 31 18.1364 31H29.8636C29.9389 31 30 31.1567 30 31.35C30 31.5433 29.9389 31.7 29.8636 31.7H18.1364C18.0611 31.7 18 31.5433 18 31.35Z" fill="#84A9DF"/>
<path d="M28.0372 29.7691C28.4833 29.7691 28.8449 29.4075 28.8449 28.9614V27.346C28.8449 26.8999 28.4833 26.5383 28.0372 26.5383C27.5911 26.5383 27.2295 26.8999 27.2295 27.346V28.9614C27.2295 29.4075 27.5911 29.7691 28.0372 29.7691Z" fill="#84A9DF"/>
<g filter="url(#filter1_f)">
<path d="M25.4611 28.9615C25.4611 29.4076 25.0995 29.7692 24.6534 29.7692C24.2073 29.7692 23.8457 29.4076 23.8457 28.9615L23.8457 21.9615C23.8457 21.5154 24.2073 21.1538 24.6534 21.1538C25.0995 21.1538 25.4611 21.5154 25.4611 21.9615L25.4611 28.9615Z" fill="#5B7CAD" fill-opacity="0.15"/>
<path d="M27.3468 22.7693C26.9007 22.7693 26.5391 23.1309 26.5391 23.577V28.9616C26.5391 29.4077 26.9007 29.7693 27.3468 29.7693C27.7928 29.7693 28.1544 29.4077 28.1544 28.9616V23.577C28.1544 23.1309 27.7928 22.7693 27.3468 22.7693Z" fill="#5B7CAD" fill-opacity="0.15"/>
<path d="M21.1543 25.1925C21.1543 24.7464 21.5159 24.3848 21.962 24.3848C22.4081 24.3848 22.7697 24.7464 22.7697 25.1925V28.9617C22.7697 29.4078 22.4081 29.7694 21.962 29.7694C21.5159 29.7694 21.1543 29.4078 21.1543 28.9617V25.1925Z" fill="#5B7CAD" fill-opacity="0.15"/>
<path d="M20 31.35C20 31.1567 20.0611 31 20.1364 31H31.8636C31.9389 31 32 31.1567 32 31.35C32 31.5433 31.9389 31.7 31.8636 31.7H20.1364C20.0611 31.7 20 31.5433 20 31.35Z" fill="#5B7CAD" fill-opacity="0.15"/>
<path d="M30.0372 29.7691C30.4833 29.7691 30.8449 29.4075 30.8449 28.9614V27.346C30.8449 26.8999 30.4833 26.5383 30.0372 26.5383C29.5911 26.5383 29.2295 26.8999 29.2295 27.346V28.9614C29.2295 29.4075 29.5911 29.7691 30.0372 29.7691Z" fill="#5B7CAD" fill-opacity="0.15"/>
</g>
<rect x="11" y="12" width="26" height="1.6" rx="0.8" fill="#E7E9EC"/>
<rect x="15" y="10" width="18" height="1" rx="0.5" fill="#EDEFF1"/>
<defs>
<filter id="filter0_dd" x="6" y="15" width="36" height="25.079" filterUnits="userSpaceOnUse" color-interpolation-filters="sRGB">
<feFlood flood-opacity="0" result="BackgroundImageFix"/>
<feColorMatrix in="SourceAlpha" type="matrix" values="0 0 0 0 0 0 0 0 0 0 0 0 0 0 0 0 0 0 127 0"/>
<feMorphology radius="3.684" operator="erode" in="SourceAlpha" result="effect1_dropShadow"/>
<feOffset dy="0.920999"/>
<feGaussianBlur stdDeviation="1"/>
<feColorMatrix type="matrix" values="0 0 0 0 0.027451 0 0 0 0 0.0745098 0 0 0 0 0.152941 0 0 0 0.06 0"/>
<feBlend mode="normal" in2="BackgroundImageFix" result="effect1_dropShadow"/>
<feColorMatrix in="SourceAlpha" type="matrix" values="0 0 0 0 0 0 0 0 0 0 0 0 0 0 0 0 0 0 127 0"/>
<feMorphology radius="3.684" operator="erode" in="SourceAlpha" result="effect2_dropShadow"/>
<feOffset dy="2.763"/>
<feGaussianBlur stdDeviation="1.5"/>
<feColorMatrix type="matrix" values="0 0 0 0 0.027451 0 0 0 0 0.0745098 0 0 0 0 0.152941 0 0 0 0.05 0"/>
<feBlend mode="normal" in2="effect1_dropShadow" result="effect2_dropShadow"/>
<feBlend mode="normal" in="SourceGraphic" in2="effect2_dropShadow" result="shape"/>
</filter>
<filter id="filter1_f" x="17.5" y="18.6538" width="17" height="15.5462" filterUnits="userSpaceOnUse" color-interpolation-filters="sRGB">
<feFlood flood-opacity="0" result="BackgroundImageFix"/>
<feBlend mode="normal" in="SourceGraphic" in2="BackgroundImageFix" result="shape"/>
<feGaussianBlur stdDeviation="1.25" result="effect1_foregroundBlur"/>
</filter>
</defs>
</svg>
