<svg width="48" height="48" viewBox="0 0 48 48" fill="none" xmlns="http://www.w3.org/2000/svg"><g opacity=".2"><path opacity=".8" d="M3.832 40.958c0-.253.205-.458.458-.458h39.417a.458.458 0 110 .917H4.29a.458.458 0 01-.458-.459z" fill="#fff"/><path opacity=".8" d="M7.5 21.25a2.75 2.75 0 115.5 0v12.833a2.75 2.75 0 11-5.5 0V21.25z" fill="url(#chart_mixed_bar_off0_linear)"/><path opacity=".8" d="M25.832 15.75a2.75 2.75 0 115.5 0v18.333a2.75 2.75 0 11-5.5 0V15.75z" fill="url(#chart_mixed_bar_off1_linear)"/><path opacity=".8" d="M22.168 34.084a2.75 2.75 0 11-5.5 0V10.251a2.75 2.75 0 115.5 0v23.833z" fill="url(#chart_mixed_bar_off2_linear)"/><path opacity=".8" d="M40.5 34.084a2.75 2.75 0 11-5.5 0v-5.5a2.75 2.75 0 115.5 0v5.5z" fill="url(#chart_mixed_bar_off3_linear)"/><path d="M7.5 26.75l9.167-10.083L24 24l16.5-11" stroke="#fff" stroke-width="1.833" stroke-linecap="round" stroke-linejoin="round"/></g><defs><linearGradient id="chart_mixed_bar_off0_linear" x1="7.5" y1="18.5" x2="14.134" y2="36.413" gradientUnits="userSpaceOnUse"><stop stop-color="#fff" stop-opacity=".6"/><stop offset="1" stop-color="#fff"/></linearGradient><linearGradient id="chart_mixed_bar_off1_linear" x1="25.832" y1="13" x2="36.183" y2="34.498" gradientUnits="userSpaceOnUse"><stop stop-color="#fff" stop-opacity=".6"/><stop offset="1" stop-color="#fff"/></linearGradient><linearGradient id="chart_mixed_bar_off2_linear" x1="22.168" y1="36.834" x2="7.874" y2="12.712" gradientUnits="userSpaceOnUse"><stop stop-color="#fff" stop-opacity=".6"/><stop offset="1" stop-color="#fff"/></linearGradient><linearGradient id="chart_mixed_bar_off3_linear" x1="40.5" y1="36.834" x2="37.912" y2="25.187" gradientUnits="userSpaceOnUse"><stop stop-color="#fff" stop-opacity=".6"/><stop offset="1" stop-color="#fff"/></linearGradient></defs></svg>