<svg width="48" height="48" viewBox="0 0 48 48" fill="none" xmlns="http://www.w3.org/2000/svg">
<path fill-rule="evenodd" clip-rule="evenodd" d="M7.42144 10.502C5.89535 10.502 4.6582 11.7391 4.6582 13.2652V35.0684C4.6582 36.5945 5.89535 37.8316 7.42144 37.8316H40.5803C42.1064 37.8316 43.3435 36.5945 43.3435 35.0684V13.2652C43.3435 11.7391 42.1064 10.502 40.5803 10.502H7.42144Z" fill="#343C54"/>
<path fill-rule="evenodd" clip-rule="evenodd" d="M7.42144 10.502C5.89535 10.502 4.6582 11.7391 4.6582 13.2652V35.0684C4.6582 36.5945 5.89535 37.8316 7.42144 37.8316H40.5803C42.1064 37.8316 43.3435 36.5945 43.3435 35.0684V13.2652C43.3435 11.7391 42.1064 10.502 40.5803 10.502H7.42144Z" fill="url(#paint0_linear)" fill-opacity="0.4"/>
<path fill-rule="evenodd" clip-rule="evenodd" d="M7.42007 10.9623C6.14832 10.9623 5.11737 11.9933 5.11737 13.265V35.0682C5.11737 36.34 6.14832 37.3709 7.42007 37.3709H40.5789C41.8507 37.3709 42.8816 36.34 42.8816 35.0682V13.265C42.8816 11.9933 41.8507 10.9623 40.5789 10.9623H7.42007ZM4.19629 13.265C4.19629 11.4846 5.63962 10.0413 7.42007 10.0413H40.5789C42.3594 10.0413 43.8027 11.4846 43.8027 13.265V35.0682C43.8027 36.8487 42.3594 38.292 40.5789 38.292H7.42007C5.63962 38.292 4.19629 36.8487 4.19629 35.0682V13.265Z" fill="#596282"/>
<g filter="url(#filter0_f)">
<path d="M23.3543 19.8808C24.4395 18.8327 26.1644 18.8477 27.2312 19.9145C28.298 20.9813 28.313 22.7063 27.2649 23.7915L27.2574 23.7992L25.97 25.0866C25.4027 25.6541 24.6168 25.9472 23.8164 25.8899C23.016 25.8326 22.28 25.4304 21.7994 24.7879C21.5943 24.5137 21.6503 24.1252 21.9244 23.9202C22.1986 23.7151 22.5871 23.7711 22.7921 24.0453C23.0573 24.3998 23.4634 24.6216 23.905 24.6533C24.3466 24.6849 24.7802 24.5232 25.0932 24.2101L26.3766 22.9266C26.9514 22.3277 26.942 21.3786 26.3546 20.7912C25.7669 20.2036 24.8174 20.1944 24.2185 20.7698L23.4838 21.5002C23.241 21.7416 22.8485 21.7404 22.6072 21.4976C22.3658 21.2548 22.3669 20.8623 22.6097 20.621L23.3543 19.8808Z" fill="black" fill-opacity="0.15"/>
<path d="M20.338 22.888C20.9053 22.3206 21.6911 22.0275 22.4914 22.0848C23.2918 22.1421 24.0279 22.5442 24.5085 23.1868C24.7136 23.461 24.6576 23.8494 24.3834 24.0545C24.1093 24.2596 23.7208 24.2036 23.5157 23.9294C23.2505 23.5749 22.8445 23.353 22.4029 23.3214C21.9613 23.2898 21.5277 23.4515 21.2147 23.7646L19.9313 25.048C19.3565 25.647 19.3659 26.5961 19.9533 27.1835C20.5407 27.7709 21.4898 27.7803 22.0888 27.2055L22.8185 26.4758C23.0606 26.2337 23.4531 26.2337 23.6951 26.4758C23.9372 26.7178 23.9372 27.1103 23.6951 27.3524L22.9537 28.0939C21.8685 29.142 20.1435 29.1269 19.0766 28.0601C18.0098 26.9933 17.9948 25.2684 19.043 24.1832L19.0504 24.1754L20.338 22.888Z" fill="black" fill-opacity="0.15"/>
<path d="M28.4887 25.0458C28.8261 25.0458 29.0997 25.3193 29.0997 25.6568V27.0348H30.4773C30.8147 27.0348 31.0883 27.3084 31.0883 27.6458C31.0883 27.9833 30.8147 28.2569 30.4773 28.2569H29.0997V29.6344C29.0997 29.9719 28.8261 30.2454 28.4887 30.2454C28.1512 30.2454 27.8777 29.9719 27.8777 29.6344V28.2569H26.4996C26.1622 28.2569 25.8886 27.9833 25.8886 27.6458C25.8886 27.3084 26.1622 27.0348 26.4996 27.0348H27.8777V25.6568C27.8777 25.3193 28.1512 25.0458 28.4887 25.0458Z" fill="black" fill-opacity="0.15"/>
</g>
<path d="M22.7136 19.2502C23.7988 18.2021 25.5238 18.2171 26.5906 19.2839C27.6574 20.3507 27.6724 22.0757 26.6243 23.1609L26.6168 23.1686L25.3293 24.4559C24.762 25.0235 23.9762 25.3166 23.1758 25.2593C22.3754 25.2019 21.6394 24.7998 21.1587 24.1572C20.9537 23.8831 21.0097 23.4946 21.2838 23.2896C21.558 23.0845 21.9464 23.1405 22.1515 23.4146C22.4167 23.7692 22.8228 23.991 23.2644 24.0227C23.706 24.0543 24.1395 23.8926 24.4525 23.5794L25.736 22.296C26.3108 21.6971 26.3014 20.748 25.7139 20.1606C25.1263 19.573 24.1768 19.5638 23.5779 20.1391L22.8432 20.8696C22.6004 21.1109 22.2079 21.1098 21.9665 20.867C21.7252 20.6242 21.7263 20.2317 21.9691 19.9904L22.7136 19.2502Z" fill="#7B87AA"/>
<path d="M19.6973 22.2574C20.2646 21.69 21.0504 21.3969 21.8508 21.4542C22.6512 21.5115 23.3872 21.9136 23.8679 22.5562C24.0729 22.8303 24.0169 23.2188 23.7428 23.4239C23.4686 23.6289 23.0802 23.5729 22.8751 23.2988C22.6099 22.9443 22.2038 22.7224 21.7622 22.6908C21.3206 22.6592 20.8871 22.8209 20.5741 23.134L19.2907 24.4174C18.7159 25.0163 18.7253 25.9654 19.3127 26.5529C19.9001 27.1403 20.8492 27.1497 21.4481 26.5749L22.1779 25.8451C22.4199 25.6031 22.8124 25.6031 23.0545 25.8451C23.2966 26.0872 23.2966 26.4797 23.0545 26.7218L22.313 27.4633C21.2279 28.5114 19.5028 28.4963 18.436 27.4295C17.3692 26.3627 17.3542 24.6378 18.4023 23.5526L18.4098 23.5448L19.6973 22.2574Z" fill="#7B87AA"/>
<path d="M27.8481 24.4151C28.1855 24.4151 28.4591 24.6887 28.4591 25.0262V26.4042H29.8366C30.1741 26.4042 30.4477 26.6778 30.4477 27.0152C30.4477 27.3527 30.1741 27.6263 29.8366 27.6263H28.4591V29.0038C28.4591 29.3413 28.1855 29.6148 27.8481 29.6148C27.5106 29.6148 27.237 29.3413 27.237 29.0038V27.6263H25.859C25.5216 27.6263 25.248 27.3527 25.248 27.0152C25.248 26.6778 25.5216 26.4042 25.859 26.4042H27.237V25.0262C27.237 24.6887 27.5106 24.4151 27.8481 24.4151Z" fill="#7B87AA"/>
<defs>
<filter id="filter0_f" x="15.9639" y="16.8018" width="17.4271" height="15.7464" filterUnits="userSpaceOnUse" color-interpolation-filters="sRGB">
<feFlood flood-opacity="0" result="BackgroundImageFix"/>
<feBlend mode="normal" in="SourceGraphic" in2="BackgroundImageFix" result="shape"/>
<feGaussianBlur stdDeviation="1.15135" result="effect1_foregroundBlur"/>
</filter>
<linearGradient id="paint0_linear" x1="4.6582" y1="12.502" x2="32.4109" y2="44.4596" gradientUnits="userSpaceOnUse">
<stop stop-color="#465467"/>
<stop offset="1" stop-color="#797B9E"/>
</linearGradient>
</defs>
</svg>
