<svg width="48" height="48" viewBox="0 0 48 48" fill="none" xmlns="http://www.w3.org/2000/svg"><path fill-rule="evenodd" clip-rule="evenodd" d="M6.16 14.255a4.847 4.847 0 014.848-4.847h25.985a4.847 4.847 0 014.848 4.847v19.49a4.847 4.847 0 01-4.848 4.847H11.007a4.847 4.847 0 01-4.847-4.847v-19.49zm4.848-1.649a1.65 1.65 0 00-1.65 1.65v19.489c0 .91.739 1.649 1.65 1.649h25.985a1.65 1.65 0 001.65-1.65V14.256a1.65 1.65 0 00-1.65-1.649H11.007z" fill="#798298"/><path fill-rule="evenodd" clip-rule="evenodd" d="M14.254 17.503c0-.897.727-1.624 1.624-1.624h1.624c.897 0 1.624.727 1.624 1.624v12.993c0 .897-.727 1.624-1.624 1.624h-1.624a1.624 1.624 0 01-1.624-1.624V17.503zm8.117 0c0-.897.727-1.624 1.624-1.624h8.12c.898 0 1.625.727 1.625 1.624v12.993c0 .897-.727 1.624-1.624 1.624h-8.12a1.624 1.624 0 01-1.625-1.624V17.503z" fill="#555F77"/></svg>