<svg width="48" height="48" viewBox="0 0 48 48" fill="none" xmlns="http://www.w3.org/2000/svg"><ellipse opacity=".3" cx="24.144" cy="31.752" rx="12.144" ry="5.06" fill="currentColor"/><path fill-rule="evenodd" clip-rule="evenodd" d="M14.255 22.98a2 2 0 01-1.205 2.559c-2.34.841-4.147 1.907-5.335 3.04-1.181 1.128-1.647 2.21-1.647 3.173 0 1.587 1.338 3.561 4.733 5.258 3.274 1.638 7.938 2.708 13.2 2.708 5.26 0 9.924-1.07 13.198-2.708 3.395-1.697 4.733-3.671 4.733-5.258 0-.964-.466-2.045-1.647-3.172-1.188-1.134-2.995-2.2-5.335-3.041a2 2 0 011.354-3.764c2.69.967 5.035 2.282 6.742 3.91 1.714 1.635 2.886 3.697 2.886 6.067 0 3.918-3.124 6.926-6.944 8.836-3.939 1.97-9.24 3.13-14.988 3.13-5.747 0-11.049-1.16-14.988-3.13-3.82-1.91-6.944-4.918-6.944-8.836 0-2.37 1.172-4.432 2.886-6.067 1.707-1.628 4.053-2.943 6.742-3.91a2 2 0 012.56 1.205z" fill="currentColor"/><path fill-rule="evenodd" clip-rule="evenodd" d="M24 29.267c.843 0 8.345-10.926 7.81-16.141 0-4.59-3.497-8.31-7.81-8.31-4.314 0-7.811 3.72-7.811 8.31-.526 5.19 6.967 16.141 7.81 16.141zm0-14.079a3.18 3.18 0 100-6.358 3.18 3.18 0 000 6.358z" fill="currentColor"/></svg>