<svg width="48" height="48" viewBox="0 0 48 48" fill="none" xmlns="http://www.w3.org/2000/svg"><path fill-rule="evenodd" clip-rule="evenodd" d="M19.96 11.696h8.079l4.04 6.996-1.587 2.747h3.172l4.039 6.995-4.039 6.996h-8.078L24 32.683l-1.586 2.747h-8.078l-4.04-6.996 4.04-6.996h3.172l-1.586-2.746 4.039-6.996zM18.087 22.44h-2.593l3.171 5.493h6.343l-1.296-2.245h-3.75l-1.875-3.248zm6.492 2.747l1.875 3.247-1.875 3.248 1.297 2.246 3.172-5.494-3.172-5.493-1.297 2.246zm2.164-2.747h6.344l3.172 5.493h-6.344l-3.172-5.492zm3.172 6.495l-3.172 5.494h6.344l3.172-5.494h-6.344zm-6.203-4.248l1.875-3.248h3.75l1.297-2.246H24.29l-3.172 5.493h2.594zm-3.461-.501l3.172-5.494L20.25 13.2l-3.172 5.493 3.172 5.494zm.867-11.488l3.172 5.493h6.343l-3.171-5.493h-6.344zm3.89 16.237h-6.343l-3.172 5.494h6.344l3.172-5.494zm-10.382 4.993l-3.172-5.494 3.172-5.493 3.172 5.493-3.172 5.494z" fill="#727D9B"/></svg>