<svg width="48" height="48" viewBox="0 0 48 48" fill="none" xmlns="http://www.w3.org/2000/svg"><path fill-rule="evenodd" clip-rule="evenodd" d="M27.414 5.875c0-1.081.877-1.958 1.958-1.958h11.75c1.082 0 1.959.877 1.959 1.958v11.75a1.958 1.958 0 11-3.917 0V7.834h-9.792a1.958 1.958 0 01-1.958-1.959zM5.872 27.417c1.082 0 1.959.877 1.959 1.958v9.792h9.791a1.958 1.958 0 110 3.917H5.872a1.958 1.958 0 01-1.958-1.959v-11.75c0-1.081.877-1.958 1.958-1.958z" fill="currentColor"/><path fill-rule="evenodd" clip-rule="evenodd" d="M42.507 4.49a1.958 1.958 0 010 2.77L28.8 20.968a1.958 1.958 0 11-2.77-2.77L39.738 4.492a1.958 1.958 0 012.77 0zM20.965 26.032a1.958 1.958 0 010 2.77L7.257 42.51a1.958 1.958 0 11-2.77-2.77l13.709-13.708a1.958 1.958 0 012.77 0z" fill="currentColor"/></svg>