<svg width="48" height="48" viewBox="0 0 48 48" fill="none" xmlns="http://www.w3.org/2000/svg">
<g filter="url(#filter0_dd)">
<path fill-rule="evenodd" clip-rule="evenodd" d="M7.42218 10.5032C5.89622 10.5032 4.65918 11.7402 4.65918 13.2662V35.0677C4.65918 36.5936 5.89622 37.8307 7.42218 37.8307H40.5781C42.1041 37.8307 43.3411 36.5936 43.3411 35.0677V13.2662C43.3411 11.7402 42.1041 10.5032 40.5781 10.5032H7.42218Z" fill="#F0F1F3"/>
</g>
<g filter="url(#filter1_f)">
<path d="M23.3548 19.881C24.4399 18.833 26.1647 18.848 27.2314 19.9147C28.2981 20.9814 28.3131 22.7062 27.2651 23.7913L27.2576 23.7991L25.9703 25.0863C25.403 25.6537 24.6173 25.9469 23.8169 25.8895C23.0166 25.8322 22.2806 25.4301 21.8 24.7876C21.595 24.5135 21.651 24.125 21.9251 23.92C22.1992 23.715 22.5877 23.771 22.7927 24.0451C23.0579 24.3996 23.4639 24.6214 23.9055 24.653C24.347 24.6847 24.7806 24.5229 25.0935 24.2099L26.3768 22.9266C26.9516 22.3277 26.9422 21.3787 26.3548 20.7913C25.7673 20.2037 24.8178 20.1945 24.219 20.7699L23.4843 21.5002C23.2416 21.7416 22.8491 21.7404 22.6078 21.4977C22.3664 21.2549 22.3675 20.8624 22.6103 20.6211L23.3548 19.881Z" fill="#5B7CAD" fill-opacity="0.15"/>
<path d="M20.3388 22.888C20.906 22.3205 21.6917 22.0275 22.492 22.0848C23.2924 22.1421 24.0283 22.5442 24.5089 23.1867C24.714 23.4608 24.658 23.8493 24.3839 24.0543C24.1097 24.2594 23.7213 24.2034 23.5163 23.9292C23.2511 23.5747 22.845 23.3529 22.4035 23.3213C21.9619 23.2896 21.5284 23.4514 21.2154 23.7645L19.9321 25.0478C19.3574 25.6466 19.3668 26.5957 19.9541 27.183C20.5415 27.7704 21.4905 27.7798 22.0894 27.205L22.8191 26.4754C23.0611 26.2333 23.4536 26.2333 23.6956 26.4754C23.9377 26.7174 23.9377 27.1099 23.6956 27.3519L22.9542 28.0934C21.8691 29.1414 20.1443 29.1263 19.0776 28.0596C18.0108 26.9929 17.9958 25.2681 19.0439 24.183L19.0513 24.1752L20.3388 22.888Z" fill="#5B7CAD" fill-opacity="0.15"/>
<path d="M28.4888 25.0455C28.8262 25.0455 29.0998 25.319 29.0998 25.6565V27.0344H30.4772C30.8146 27.0344 31.0882 27.3079 31.0882 27.6453C31.0882 27.9828 30.8146 28.2563 30.4772 28.2563H29.0998V29.6337C29.0998 29.9712 28.8262 30.2447 28.4888 30.2447C28.1513 30.2447 27.8778 29.9712 27.8778 29.6337V28.2563H26.4999C26.1625 28.2563 25.8889 27.9828 25.8889 27.6453C25.8889 27.3079 26.1625 27.0344 26.4999 27.0344H27.8778V25.6565C27.8778 25.319 28.1513 25.0455 28.4888 25.0455Z" fill="#5B7CAD" fill-opacity="0.15"/>
</g>
<path fill-rule="evenodd" clip-rule="evenodd" d="M7.42174 10.9635C6.15011 10.9635 5.11924 11.9943 5.11924 13.266V35.0675C5.11924 36.3391 6.15011 37.37 7.42174 37.37H40.5777C41.8493 37.37 42.8802 36.3391 42.8802 35.0675V13.266C42.8802 11.9943 41.8493 10.9635 40.5777 10.9635H7.42174ZM4.19824 13.266C4.19824 11.4857 5.64145 10.0425 7.42174 10.0425H40.5777C42.358 10.0425 43.8012 11.4857 43.8012 13.266V35.0675C43.8012 36.8478 42.358 38.291 40.5777 38.291H7.42174C5.64145 38.291 4.19824 36.8478 4.19824 35.0675V13.266Z" fill="#C7CAD3"/>
<path d="M22.7132 19.2507C23.7983 18.2026 25.5231 18.2176 26.5898 19.2843C27.6565 20.3511 27.6715 22.0759 26.6235 23.161L26.616 23.1687L25.3287 24.4559C24.7614 25.0234 23.9757 25.3165 23.1753 25.2592C22.375 25.2018 21.639 24.7998 21.1584 24.1572C20.9534 23.8831 21.0094 23.4947 21.2835 23.2896C21.5576 23.0846 21.9461 23.1406 22.1511 23.4147C22.4163 23.7692 22.8223 23.991 23.2639 24.0227C23.7054 24.0543 24.139 23.8926 24.4519 23.5795L25.7352 22.2962C26.31 21.6973 26.3006 20.7483 25.7132 20.1609C25.1257 19.5734 24.1762 19.5641 23.5774 20.1395L22.8427 20.8698C22.6 21.1112 22.2075 21.1101 21.9662 20.8673C21.7248 20.6245 21.7259 20.2321 21.9687 19.9907L22.7132 19.2507Z" fill="#84A9DF"/>
<path d="M19.6972 22.2576C20.2644 21.6902 21.0501 21.3971 21.8504 21.4544C22.6508 21.5117 23.3867 21.9138 23.8673 22.5563C24.0724 22.8304 24.0164 23.2189 23.7423 23.4239C23.4681 23.629 23.0797 23.573 22.8747 23.2989C22.6095 22.9444 22.2034 22.7225 21.7619 22.6909C21.3203 22.6593 20.8868 22.821 20.5738 23.1341L19.2905 24.4174C18.7158 25.0163 18.7252 25.9653 19.3125 26.5526C19.8999 27.14 20.8489 27.1494 21.4478 26.5747L22.1775 25.845C22.4195 25.6029 22.812 25.6029 23.054 25.845C23.2961 26.0871 23.2961 26.4795 23.054 26.7216L22.3126 27.463C21.2275 28.511 19.5027 28.4959 18.4359 27.4292C17.3692 26.3625 17.3542 24.6377 18.4023 23.5526L18.4097 23.5449L19.6972 22.2576Z" fill="#84A9DF"/>
<path d="M27.8472 24.4151C28.1846 24.4151 28.4581 24.6887 28.4581 25.0261V26.404H29.8356C30.173 26.404 30.4466 26.6775 30.4466 27.015C30.4466 27.3524 30.173 27.6259 29.8356 27.6259H28.4581V29.0034C28.4581 29.3408 28.1846 29.6144 27.8472 29.6144C27.5097 29.6144 27.2362 29.3408 27.2362 29.0034V27.6259H25.8583C25.5209 27.6259 25.2473 27.3524 25.2473 27.015C25.2473 26.6775 25.5209 26.404 25.8583 26.404H27.2362V25.0261C27.2362 24.6887 27.5097 24.4151 27.8472 24.4151Z" fill="#84A9DF"/>
<defs>
<filter id="filter0_dd" x="4.65918" y="10.5032" width="38.682" height="29.4065" filterUnits="userSpaceOnUse" color-interpolation-filters="sRGB">
<feFlood flood-opacity="0" result="BackgroundImageFix"/>
<feColorMatrix in="SourceAlpha" type="matrix" values="0 0 0 0 0 0 0 0 0 0 0 0 0 0 0 0 0 0 127 0"/>
<feMorphology radius="3.684" operator="erode" in="SourceAlpha" result="effect1_dropShadow"/>
<feOffset dy="0.920999"/>
<feGaussianBlur stdDeviation="1"/>
<feColorMatrix type="matrix" values="0 0 0 0 0.027451 0 0 0 0 0.0745098 0 0 0 0 0.152941 0 0 0 0.06 0"/>
<feBlend mode="normal" in2="BackgroundImageFix" result="effect1_dropShadow"/>
<feColorMatrix in="SourceAlpha" type="matrix" values="0 0 0 0 0 0 0 0 0 0 0 0 0 0 0 0 0 0 127 0"/>
<feMorphology radius="3.684" operator="erode" in="SourceAlpha" result="effect2_dropShadow"/>
<feOffset dy="2.763"/>
<feGaussianBlur stdDeviation="1.5"/>
<feColorMatrix type="matrix" values="0 0 0 0 0.027451 0 0 0 0 0.0745098 0 0 0 0 0.152941 0 0 0 0.05 0"/>
<feBlend mode="normal" in2="effect1_dropShadow" result="effect2_dropShadow"/>
<feBlend mode="normal" in="SourceGraphic" in2="effect2_dropShadow" result="shape"/>
</filter>
<filter id="filter1_f" x="15.9651" y="16.8022" width="17.4256" height="15.745" filterUnits="userSpaceOnUse" color-interpolation-filters="sRGB">
<feFlood flood-opacity="0" result="BackgroundImageFix"/>
<feBlend mode="normal" in="SourceGraphic" in2="BackgroundImageFix" result="shape"/>
<feGaussianBlur stdDeviation="1.15125" result="effect1_foregroundBlur"/>
</filter>
</defs>
</svg>
