<svg width="48" height="48" viewBox="0 0 48 48" fill="none" xmlns="http://www.w3.org/2000/svg">
  <path d="M8.00195 33.9922H12.002V13.9922H4.00195V17.9922H8.00195V33.9922Z" fill="currentColor"/>
  <path d="M28.002 29.9922H20.002V25.9922H24.002C26.202 25.9922 28.002 24.1922 28.002 21.9922V17.9922C28.002 15.7922 26.202 13.9922 24.002 13.9922H16.002V17.9922H24.002V21.9922H20.002C17.802 21.9922 16.002 23.7922 16.002 25.9922V33.9922H28.002V29.9922Z" fill="currentColor"/>
  <path d="M44.0039 29.9922V26.9922C44.0039 25.3922 42.6039 23.9922 41.0039 23.9922C42.6039 23.9922 44.0039 22.5922 44.0039 20.9922V17.9922C44.0039 15.7922 42.2039 13.9922 40.0039 13.9922H32.0039V17.9922H40.0039V21.9922H36.0039V25.9922H40.0039V29.9922H32.0039V33.9922H40.0039C42.2039 33.9922 44.0039 32.1922 44.0039 29.9922Z" fill="currentColor"/>
</svg>
