<svg width="48" height="48" viewBox="0 0 48 48" fill="none" xmlns="http://www.w3.org/2000/svg"><path fill-rule="evenodd" clip-rule="evenodd" d="M14.6 15.5v21a1.4 1.4 0 001.4 1.4h16a1.4 1.4 0 001.4-1.4v-21h3.2v21a4.6 4.6 0 01-4.6 4.6H16a4.6 4.6 0 01-4.6-4.6v-21h3.2z" fill="#798298"/><path d="M8 15.1a1.6 1.6 0 011.6-1.6h28.8a1.6 1.6 0 110 3.2H9.6A1.6 1.6 0 018 15.1z" fill="#798298"/><path fill-rule="evenodd" clip-rule="evenodd" d="M15.4 10.5A3.6 3.6 0 0119 6.9h10a3.6 3.6 0 013.6 3.6v3h-3.2v-3a.4.4 0 00-.4-.4H19a.4.4 0 00-.4.4v3h-3.2v-3z" fill="#798298"/><path d="M19 22.5a1 1 0 011-1h1a1 1 0 011 1v10a1 1 0 01-1 1h-1a1 1 0 01-1-1v-10zm7 0a1 1 0 011-1h1a1 1 0 011 1v10a1 1 0 01-1 1h-1a1 1 0 01-1-1v-10z" fill="#555F77"/></svg>