<svg width="48" height="48" viewBox="0 0 48 48" fill="none" xmlns="http://www.w3.org/2000/svg">
<path d="M40.94 14.7401C40.94 14.7401 40.94 14.7401 40.94 14.5801L40.82 14.2801C40.7783 14.2164 40.7315 14.1562 40.68 14.1001C40.6265 14.0154 40.5663 13.9352 40.5 13.8601L40.32 13.7201L40 13.5601L25 4.3001C24.6822 4.10143 24.3149 3.99609 23.94 3.99609C23.5652 3.99609 23.1979 4.10143 22.88 4.3001L8.00005 13.5601L7.82005 13.7201L7.64005 13.8601C7.57375 13.9352 7.51356 14.0154 7.46005 14.1001C7.40863 14.1562 7.36181 14.2164 7.32005 14.2801L7.20005 14.5801C7.20005 14.5801 7.20005 14.5801 7.20005 14.7401C7.18039 14.9129 7.18039 15.0873 7.20005 15.2601V32.7401C7.19937 33.08 7.28532 33.4144 7.44979 33.7119C7.61426 34.0093 7.85182 34.26 8.14005 34.4401L23.14 43.7001C23.2324 43.7571 23.3339 43.7977 23.44 43.8201C23.44 43.8201 23.54 43.8201 23.6 43.8201C23.9384 43.9274 24.3017 43.9274 24.64 43.8201C24.64 43.8201 24.74 43.8201 24.8 43.8201C24.9062 43.7977 25.0077 43.7571 25.1 43.7001L40 34.4401C40.2883 34.26 40.5258 34.0093 40.6903 33.7119C40.8548 33.4144 40.9407 33.08 40.94 32.7401V15.2601C40.9597 15.0873 40.9597 14.9129 40.94 14.7401ZM22 38.4201L11 31.6201V18.8601L22 25.6401V38.4201ZM24 22.1801L12.8 15.2601L24 8.3601L35.2 15.2601L24 22.1801ZM37 31.6201L26 38.4201V25.6401L37 18.8601V31.6201Z" fill="currentColor"/>
</svg>
