<svg width="48" height="48" viewBox="0 0 48 48" fill="none" xmlns="http://www.w3.org/2000/svg">
<path opacity="0.2" d="M25.8477 17.3536C25.8477 15.8027 25.8477 15.0272 26.1495 14.4349C26.415 13.9138 26.8386 13.4902 27.3597 13.2247C27.9521 12.9229 28.7275 12.9229 30.2784 12.9229H32.4938C34.0447 12.9229 34.8202 12.9229 35.4126 13.2247C35.9336 13.4902 36.3573 13.9138 36.6228 14.4349C36.9246 15.0272 36.9246 15.8027 36.9246 17.3536V32.4921C36.9246 34.043 36.9246 34.8185 36.6228 35.4108C36.3573 35.9319 35.9336 36.3555 35.4126 36.621C34.8202 36.9229 34.0447 36.9229 32.4938 36.9229H30.2784C28.7275 36.9229 27.9521 36.9229 27.3597 36.621C26.8386 36.3555 26.415 35.9319 26.1495 35.4108C25.8477 34.8185 25.8477 34.043 25.8477 32.4921V17.3536Z" fill="#A7AFB7"/>
<path opacity="0.2" d="M22.1524 32.4921C22.1524 34.043 22.1524 34.8185 21.8505 35.4108C21.585 35.9319 21.1614 36.3555 20.6403 36.621C20.048 36.9229 19.2725 36.9229 17.7216 36.9229H15.5062C13.9553 36.9229 13.1798 36.9229 12.5875 36.621C12.0664 36.3555 11.6428 35.9319 11.3773 35.4108C11.0754 34.8185 11.0754 34.043 11.0754 32.4921L11.0754 11.8152C11.0754 10.2643 11.0754 9.4888 11.3773 8.89642C11.6428 8.37536 12.0664 7.95172 12.5875 7.68623C13.1798 7.3844 13.9553 7.3844 15.5062 7.3844L17.7216 7.3844C19.2725 7.3844 20.048 7.3844 20.6403 7.68623C21.1614 7.95172 21.585 8.37536 21.8505 8.89643C22.1524 9.4888 22.1524 10.2643 22.1524 11.8152L22.1524 32.4921Z" fill="#A7AFB7"/>
<path opacity="0.8" d="M3.69226 41.0769C3.69226 40.822 3.8989 40.6154 4.1538 40.6154H43.8461C44.101 40.6154 44.3076 40.822 44.3076 41.0769C44.3076 41.3318 44.101 41.5384 43.8461 41.5384H4.1538C3.8989 41.5384 3.69226 41.3318 3.69226 41.0769Z" fill="#A7AFB7"/>
<path d="M11.0781 22.8927C11.0781 21.3418 11.0781 20.5663 11.38 19.9739C11.6454 19.4529 12.0691 19.0292 12.5902 18.7637C13.1825 18.4619 13.958 18.4619 15.5089 18.4619H17.7243C19.2752 18.4619 20.0507 18.4619 20.643 18.7637C21.1641 19.0292 21.5877 19.4529 21.8532 19.9739C22.155 20.5663 22.155 21.3418 22.155 22.8927V32.4927C22.155 34.0436 22.155 34.8191 21.8532 35.4114C21.5877 35.9325 21.1641 36.3561 20.643 36.6216C20.0507 36.9235 19.2752 36.9235 17.7243 36.9235H15.5089C13.958 36.9235 13.1825 36.9235 12.5902 36.6216C12.0691 36.3561 11.6454 35.9325 11.38 35.4114C11.0781 34.8191 11.0781 34.0436 11.0781 32.4927V22.8927Z" fill="#A7AFB7"/>
<path d="M36.9219 32.4921C36.9219 34.043 36.9219 34.8185 36.6201 35.4108C36.3546 35.9319 35.9309 36.3555 35.4099 36.621C34.8175 36.9229 34.042 36.9229 32.4911 36.9229H30.2757C28.7248 36.9229 27.9494 36.9229 27.357 36.621C26.8359 36.3555 26.4123 35.9319 26.1468 35.4108C25.845 34.8185 25.845 34.043 25.845 32.4921L25.845 30.2767C25.845 28.7258 25.845 27.9503 26.1468 27.358C26.4123 26.8369 26.8359 26.4133 27.357 26.1478C27.9494 25.8459 28.7248 25.8459 30.2757 25.8459L32.4911 25.8459C34.042 25.8459 34.8175 25.8459 35.4099 26.1478C35.9309 26.4133 36.3546 26.8369 36.6201 27.358C36.9219 27.9503 36.9219 28.7258 36.9219 30.2767V32.4921Z" fill="#A7AFB7"/>
</svg>
