<svg width="48" height="48" viewBox="0 0 48 48" fill="none" xmlns="http://www.w3.org/2000/svg">
<path fill-rule="evenodd" clip-rule="evenodd" d="M13.5556 5.5C14.384 5.5 15.0556 6.17157 15.0556 7V13.0556H30.9444V7C30.9444 6.17157 31.616 5.5 32.4444 5.5C33.2729 5.5 33.9444 6.17157 33.9444 7V13.0556H40C40.8284 13.0556 41.5 13.7271 41.5 14.5556C41.5 15.384 40.8284 16.0556 40 16.0556H33.9444V31.9444H40C40.8284 31.9444 41.5 32.616 41.5 33.4444C41.5 34.2729 40.8284 34.9444 40 34.9444H33.9444V41C33.9444 41.8284 33.2729 42.5 32.4444 42.5C31.616 42.5 30.9444 41.8284 30.9444 41V34.9444H15.0556V41C15.0556 41.8284 14.384 42.5 13.5556 42.5C12.7271 42.5 12.0556 41.8284 12.0556 41V34.9444H6C5.17157 34.9444 4.5 34.2729 4.5 33.4444C4.5 32.616 5.17157 31.9444 6 31.9444H12.0556V16.0556H6C5.17157 16.0556 4.5 15.384 4.5 14.5556C4.5 13.7271 5.17157 13.0556 6 13.0556H12.0556V7C12.0556 6.17157 12.7271 5.5 13.5556 5.5ZM15.0556 16.0556V31.9444H30.9444V16.0556H15.0556Z" fill="currentColor"/>
</svg>
