<svg width="48" height="48" viewBox="0 0 48 48" fill="none" xmlns="http://www.w3.org/2000/svg"><path fill-rule="evenodd" clip-rule="evenodd" d="M12.63 14.4L4.793 40.652h4.702l2.155-7.837h10.972l2.35 7.837h4.703l-8.033-26.254H12.63zm5.877 5.29h-2.939l-2.35 7.836h7.836l-2.547-7.837z" fill="currentColor"/><path d="M35.515 26.4h5.016a1.44 1.44 0 110 2.88h-5.153a1.44 1.44 0 100 2.88h2.577a4.016 4.016 0 014.016 4.016v.303a4.32 4.32 0 01-4.32 4.32h-5.016a1.44 1.44 0 110-2.88h5.349a1.44 1.44 0 100-2.88H35.31a4.114 4.114 0 01-4.115-4.114v-.206a4.32 4.32 0 014.32-4.32zm6.669-17.445l-6.27 10.188-6.27-10.188h12.54z" fill="currentColor"/></svg>