<svg width="48" height="48" viewBox="0 0 48 48" fill="none" xmlns="http://www.w3.org/2000/svg"><path fill-rule="evenodd" clip-rule="evenodd" d="M17.414 23.514a6.59 6.59 0 1113.18 0 6.59 6.59 0 01-13.18 0zm6.59-3.265a3.266 3.266 0 100 6.531 3.266 3.266 0 000-6.531z" fill="currentColor"/><path fill-rule="evenodd" clip-rule="evenodd" d="M24.003 3.784a4.947 4.947 0 00-4.947 4.947v.275c-.002.348-.503.773-.783.964-.39.172-.845.091-1.15-.205l-.09-.09a4.947 4.947 0 00-7 0 4.947 4.947 0 000 7l.09.09c.296.305.377.76.205 1.15a1.611 1.611 0 00-.04.098c-.146.4-.52.67-.944.685H9.22a4.947 4.947 0 000 9.895h.276c.416.002.792.252.956.635l.008.016c.171.39.09.845-.205 1.151l-.09.09a4.947 4.947 0 000 7 4.947 4.947 0 006.999-.001l.09-.09a1.048 1.048 0 011.15-.205c.033.014.065.028.098.04.4.147.67.52.686.944v.124a4.947 4.947 0 109.894 0v-.275c.002-.417.252-.793.635-.957l.016-.007a1.05 1.05 0 011.152.205l.09.09a4.947 4.947 0 008.45-3.5 4.947 4.947 0 00-1.452-3.5l-.09-.09a1.048 1.048 0 01-.204-1.15l.007-.017c.164-.383.54-.632.956-.635h.144a4.947 4.947 0 000-9.894h-.275a1.048 1.048 0 01-.858-.456 1.666 1.666 0 00-.106-.327 1.05 1.05 0 01.205-1.151l.09-.09a4.947 4.947 0 00.001-6.999 4.947 4.947 0 00-7 0l-.09.09a1.048 1.048 0 01-1.151.205l-.016-.007a1.048 1.048 0 01-.636-.957v-.144a4.947 4.947 0 00-4.947-4.947zm0 3.324c-.896 0-1.623.727-1.623 1.623v.286a4.372 4.372 0 01-2.65 4.001c-.14.06-.286.1-.437.12a4.372 4.372 0 01-4.5-1.001l-.013-.013-.099-.099a1.625 1.625 0 00-2.297 0h-.002a1.623 1.623 0 000 2.298l.1.099.013.013a4.372 4.372 0 01.895 4.774 4.372 4.372 0 01-4.022 2.813H9.22a1.623 1.623 0 000 3.247h.286a4.372 4.372 0 013.998 2.641 4.372 4.372 0 01-.878 4.815l-.013.013-.098.098a1.625 1.625 0 00-.001 2.298h.001a1.623 1.623 0 002.297 0l.1-.098.012-.013a4.372 4.372 0 014.775-.896 4.372 4.372 0 012.813 4.022v.148a1.623 1.623 0 103.246 0v-.287a4.372 4.372 0 012.642-3.998 4.372 4.372 0 014.814.878l.013.013.099.099a1.625 1.625 0 002.297 0h.001a1.623 1.623 0 000-2.297l-.099-.1-.013-.013a4.372 4.372 0 01-.878-4.814 4.372 4.372 0 013.998-2.642h.154a1.623 1.623 0 000-3.246H38.5a4.372 4.372 0 01-4-2.65 1.63 1.63 0 01-.12-.437 4.372 4.372 0 011-4.5l.014-.014.098-.098a1.625 1.625 0 000-2.297v-.002a1.623 1.623 0 00-2.297 0l-.1.1-.012.012a4.372 4.372 0 01-4.815.878 4.372 4.372 0 01-2.642-3.997V8.73c0-.896-.726-1.623-1.623-1.623z" fill="currentColor"/></svg>