<svg width="48" height="48" viewBox="0 0 48 48" fill="none" xmlns="http://www.w3.org/2000/svg">
<path fill-rule="evenodd" clip-rule="evenodd" d="M6.51904 33.7019C9.93336 39.8264 16.4789 43.9768 23.9989 43.9768C35.0446 43.9768 43.9989 35.0225 43.9989 23.9768C43.9989 13.2508 35.5555 4.49693 24.9526 3.99918V9.72245C32.3977 10.2132 38.2846 16.4075 38.2846 23.9768C38.2846 31.8666 31.8887 38.2626 23.9989 38.2626C18.8534 38.2626 14.3386 35.5423 11.8221 31.4521L6.51904 33.7019Z" fill="#6899EF"/>
<path fill-rule="evenodd" clip-rule="evenodd" d="M15.3867 29.9398C17.2781 32.6669 20.4311 34.4528 24.0013 34.4528C29.7871 34.4528 34.4775 29.7624 34.4775 23.9766C34.4775 18.5112 30.2924 14.0234 24.9521 13.543V19.3096C27.1264 19.7502 28.7632 21.6723 28.7632 23.9766C28.7632 26.6065 26.6312 28.7385 24.0013 28.7385C22.8206 28.7385 21.7403 28.3088 20.9082 27.5973L15.3867 29.9398Z" fill="#6899EF"/>
<path opacity="0.4" fill-rule="evenodd" clip-rule="evenodd" d="M23.0457 3.99924C22.6955 4.0157 22.3474 4.04119 22.0017 4.07552C11.892 5.07927 3.99829 13.6045 3.99829 23.9769C3.99829 26.6126 4.5096 29.1349 5.44017 31.4454L10.7019 29.2131C10.0639 27.5946 9.71258 25.8296 9.71258 23.9769C9.71258 16.571 15.3503 10.4783 22.5663 9.76184C22.7253 9.74606 22.8851 9.73287 23.0457 9.72233V3.99924Z" fill="#6899EF"/>
<path opacity="0.4" fill-rule="evenodd" clip-rule="evenodd" d="M23.0461 13.5426C17.7065 14.0237 13.5221 18.5113 13.5221 23.9761C13.5221 25.2966 13.7664 26.56 14.2123 27.7236L19.4815 25.4882C19.3225 25.0131 19.2364 24.5047 19.2364 23.9761C19.2364 21.6723 20.8724 19.7506 23.0461 19.3094V13.5426Z" fill="#6899EF"/>
</svg>
