<svg width="48" height="48" viewBox="0 0 48 48" fill="none" xmlns="http://www.w3.org/2000/svg"><rect x="3.43" y="8" width="41.143" height="32" rx="2.286" fill="#667091"/><path fill-rule="evenodd" clip-rule="evenodd" d="M17.694 22.628h-6.428v2.743h6.428a5.943 5.943 0 005.943-5.943 3.2 3.2 0 013.2-3.2h8v-2.743h-8a5.943 5.943 0 00-5.943 5.943 3.2 3.2 0 01-3.2 3.2z" fill="#8D98BA"/><path fill-rule="evenodd" clip-rule="evenodd" d="M17.694 25.372h-6.428v-2.743h6.428a5.943 5.943 0 015.943 5.943 3.2 3.2 0 003.2 3.2h5v2.743h-5a5.943 5.943 0 01-5.943-5.943 3.2 3.2 0 00-3.2-3.2z" fill="#8D98BA"/><circle cx="32.739" cy="33.143" r="2.286" fill="#ADB8DB"/><circle cx="35.739" cy="14.857" r="2.286" fill="#ADB8DB"/><circle cx="11.265" cy="24" r="2.753" fill="#ADB8DB"/></svg>