<svg width="48" height="48" viewBox="0 0 48 48" fill="none" xmlns="http://www.w3.org/2000/svg"><path fill-rule="evenodd" clip-rule="evenodd" d="M4 10a6 6 0 016-6h28a6 6 0 016 6v28a6 6 0 01-6 6H10a6 6 0 01-6-6V10zm36 15.172V10a2 2 0 00-2-2H10a2 2 0 00-2 2v28a2 2 0 001.298 1.873l21.288-21.287a2 2 0 012.828 0L40 25.172zM14.828 40H38a2 2 0 002-2v-7.172l-8-8L14.828 40zM12 17a5 5 0 1110 0 5 5 0 01-10 0zm5-1.2c-.652 0-1.2.548-1.2 1.2 0 .652.548 1.2 1.2 1.2.652 0 1.2-.548 1.2-1.2 0-.652-.548-1.2-1.2-1.2z" fill="currentColor"/></svg>