<svg width="48" height="48" viewBox="0 0 48 48" fill="none" xmlns="http://www.w3.org/2000/svg">
<path fill-rule="evenodd" clip-rule="evenodd" d="M24.0002 6.03711C20.1988 6.03711 16.5531 7.54721 13.8651 10.2352C11.1771 12.9232 9.66699 16.5689 9.66699 20.3703C9.66699 25.9182 13.2818 31.3287 17.2855 35.5549C19.2465 37.6248 21.2142 39.32 22.694 40.4983C23.1933 40.8959 23.6352 41.2332 24.0002 41.5047C24.3652 41.2332 24.8071 40.8959 25.3064 40.4983C26.7862 39.32 28.7539 37.6248 30.7149 35.5549C34.7186 31.3287 38.3334 25.9182 38.3334 20.3703C38.3334 16.5689 36.8233 12.9232 34.1353 10.2352C31.4473 7.54721 27.8016 6.03711 24.0002 6.03711ZM24.0002 43.9627C22.8908 45.6268 22.8903 45.6265 22.8897 45.6261L22.8843 45.6225L22.8719 45.6141L22.8296 45.5856C22.7938 45.5612 22.743 45.5265 22.678 45.4815C22.5482 45.3916 22.362 45.2608 22.1274 45.0914C21.6585 44.7527 20.9952 44.2588 20.2023 43.6274C18.6196 42.3671 16.504 40.5461 14.3817 38.3059C10.2188 33.9117 5.66699 27.526 5.66699 20.3703C5.66699 15.508 7.59852 10.8449 11.0367 7.40678C14.4748 3.96864 19.1379 2.03711 24.0002 2.03711C28.8625 2.03711 33.5256 3.96864 36.9637 7.40678C40.4019 10.8449 42.3334 15.508 42.3334 20.3703C42.3334 27.526 37.7816 33.9117 33.6187 38.3059C31.4964 40.5461 29.3808 42.3671 27.7981 43.6274C27.0052 44.2588 26.3419 44.7527 25.873 45.0914C25.6384 45.2608 25.4522 45.3916 25.3224 45.4815C25.2574 45.5265 25.2066 45.5612 25.1708 45.5856L25.1285 45.6141L25.1161 45.6225L25.1107 45.6261C25.1101 45.6265 25.1096 45.6268 24.0002 43.9627ZM24.0002 43.9627L25.1096 45.6268C24.4378 46.0747 23.5626 46.0747 22.8908 45.6268L24.0002 43.9627Z" fill="currentColor"/>
<path fill-rule="evenodd" clip-rule="evenodd" d="M24.0001 16.926C22.0978 16.926 20.5557 18.4681 20.5557 20.3704C20.5557 22.2727 22.0978 23.8148 24.0001 23.8148C25.9024 23.8148 27.4445 22.2727 27.4445 20.3704C27.4445 18.4681 25.9024 16.926 24.0001 16.926ZM16.5557 20.3704C16.5557 16.259 19.8886 12.926 24.0001 12.926C28.1115 12.926 31.4445 16.259 31.4445 20.3704C31.4445 24.4819 28.1115 27.8148 24.0001 27.8148C19.8886 27.8148 16.5557 24.4819 16.5557 20.3704Z" fill="currentColor"/>
</svg>
