<svg width="48" height="48" viewBox="0 0 48 48" fill="none" xmlns="http://www.w3.org/2000/svg">
<path d="M28.956 29.7658C27.4521 29.9123 25.9372 29.6365 24.5815 28.9693C24.2744 28.7236 24.0209 28.4175 23.8367 28.07C23.6525 27.7225 23.5415 27.341 23.5106 26.9489C23.5099 26.8902 23.4977 26.8323 23.4745 26.7784C23.4513 26.7245 23.4177 26.6757 23.3755 26.6349C23.3334 26.5941 23.2835 26.562 23.2289 26.5406C23.1743 26.5192 23.116 26.5088 23.0573 26.5101C22.4241 26.5024 21.7911 26.5041 21.158 26.5092C21.0474 26.4979 20.9367 26.5307 20.8501 26.6004C20.7635 26.6702 20.7078 26.7713 20.6953 26.8818C20.6591 27.5696 20.7754 28.257 21.0358 28.8947C21.2961 29.5324 21.6941 30.1048 22.2014 30.5708C23.4817 31.57 25.0364 32.1548 26.6579 32.2472C28.3474 32.4432 30.0572 32.3706 31.7241 32.0321C33.0039 31.7934 34.1773 31.161 35.0805 30.2233C35.5798 29.6077 35.9144 28.8753 36.053 28.0949C36.1915 27.3144 36.1294 26.5116 35.8725 25.7618C35.6567 25.2332 35.3228 24.7611 34.8962 24.3816C34.4696 24.0021 33.9618 23.7254 33.4117 23.5727C30.8502 22.6739 28.0831 22.7419 25.4717 22.0589C25.0184 21.9162 24.4644 21.7613 24.2624 21.2813C24.1456 20.9435 24.1376 20.5777 24.2396 20.2351C24.3415 19.8926 24.5483 19.5907 24.8307 19.3717C25.6507 18.9032 26.5843 18.6707 27.5282 18.7001C28.8093 18.5795 30.1007 18.7643 31.2966 19.2393C31.6558 19.4506 31.9647 19.7375 32.2019 20.0802C32.4391 20.4229 32.5989 20.8131 32.6701 21.2237C32.6735 21.3449 32.7221 21.4604 32.8063 21.5476C32.8905 21.6348 33.0043 21.6873 33.1253 21.695C33.754 21.7078 34.3829 21.6984 35.0115 21.6993C35.1205 21.7123 35.2306 21.6855 35.3215 21.6239C35.4124 21.5623 35.4779 21.4699 35.5062 21.3638C35.5117 20.5158 35.2957 19.6811 34.8794 18.9423C34.4631 18.2035 33.8611 17.5863 33.1329 17.1518C31.1229 16.2242 28.8919 15.8828 26.6965 16.167V16.1668C25.0879 16.2327 23.5511 16.8502 22.3442 17.9156C21.79 18.5128 21.4148 19.2536 21.2612 20.0537C21.1076 20.8538 21.1818 21.6809 21.4754 22.4408C21.7039 22.9499 22.0401 23.4034 22.4608 23.77C22.8814 24.1366 23.3766 24.4076 23.9122 24.5644C26.4651 25.4865 29.2632 25.1906 31.841 26.006C32.3433 26.1764 32.9283 26.4371 33.0822 26.9961C33.1649 27.3312 33.1586 27.6821 33.064 28.014C32.9694 28.3459 32.7898 28.6473 32.5429 28.8885C31.4708 29.5545 30.2145 29.8618 28.956 29.7658ZM40.5938 12.875C35.6093 10.0564 30.6237 7.24026 25.6369 4.42668C25.1366 4.1469 24.5728 4 23.9996 4C23.4263 4 22.8626 4.1469 22.3623 4.42668C17.3949 7.23175 12.4272 10.0367 7.45935 12.8415C6.97606 13.1049 6.57206 13.4928 6.28924 13.965C6.00642 14.4372 5.85509 14.9765 5.85095 15.5269V32.4754C5.85891 33.0358 6.01838 33.5836 6.31247 34.0607C6.60655 34.5378 7.02428 34.9265 7.52135 35.1854C8.94837 35.9621 10.3348 36.818 11.7877 37.5431C12.6263 37.9914 13.5577 38.2383 14.5082 38.2645C15.4587 38.2906 16.4022 38.0951 17.2642 37.6936C17.9091 37.2896 18.4339 36.72 18.7838 36.0442C19.1338 35.3684 19.2961 34.6111 19.2538 33.8513C19.2649 28.2579 19.2555 22.6643 19.2581 17.0708C19.2678 17.0096 19.2645 16.9471 19.2484 16.8873C19.2323 16.8275 19.2037 16.7718 19.1646 16.7238C19.1255 16.6758 19.0766 16.6366 19.0213 16.6088C18.966 16.581 18.9054 16.5652 18.8435 16.5625C18.2087 16.5522 17.573 16.5565 16.9382 16.5608C16.8795 16.5555 16.8202 16.5627 16.7644 16.5819C16.7086 16.6011 16.6575 16.6319 16.6145 16.6723C16.5714 16.7126 16.5374 16.7616 16.5146 16.8161C16.4918 16.8705 16.4808 16.9291 16.4822 16.9881C16.4737 22.5456 16.484 28.1047 16.4771 33.663C16.4786 34.0467 16.3627 34.4216 16.145 34.7376C15.9273 35.0535 15.6182 35.2953 15.2591 35.4305C14.8457 35.5527 14.4111 35.5863 13.9838 35.5291C13.5565 35.4719 13.146 35.3252 12.7793 35.0986C11.4572 34.3519 10.1352 33.6054 8.81325 32.8588C8.72566 32.8173 8.65289 32.75 8.60474 32.6658C8.55659 32.5817 8.53539 32.4848 8.54397 32.3883C8.54397 26.7965 8.54397 21.205 8.54397 15.6137C8.53478 15.505 8.56019 15.3961 8.61659 15.3026C8.67298 15.2092 8.75746 15.1359 8.85797 15.0933C13.8091 12.3048 18.7592 9.5134 23.7084 6.71904C23.7943 6.66034 23.896 6.629 24.0001 6.62916C24.1042 6.62931 24.2058 6.66095 24.2916 6.7199C29.2425 9.50929 34.1932 12.2996 39.1437 15.091C39.2437 15.1347 39.3276 15.2086 39.3836 15.3024C39.4395 15.3961 39.4648 15.505 39.4559 15.6138C39.4551 21.2046 39.4545 26.7958 39.4542 32.3875C39.463 32.4845 39.4423 32.5818 39.3949 32.6668C39.3474 32.7518 39.2755 32.8206 39.1884 32.8641C34.3131 35.6208 29.4353 38.3735 24.5548 41.1222C24.3217 41.2521 24.0457 41.4611 23.773 41.3038C22.4948 40.5802 21.2322 39.8287 19.9583 39.0983C19.8931 39.0485 19.8146 39.0193 19.7328 39.0144C19.6509 39.0094 19.5695 39.0291 19.4989 39.0707C18.9378 39.3995 18.3471 39.6751 17.7347 39.894C17.4586 40.0058 17.1189 40.0376 16.9288 40.2937C17.1711 40.5573 17.4646 40.7687 17.7914 40.915C19.2813 41.7776 20.7719 42.6395 22.2634 43.5007C22.7567 43.8104 23.3239 43.9824 23.9062 43.9985C24.4885 44.0147 25.0644 43.8746 25.5742 43.5927C30.5423 40.7913 35.5102 37.9887 40.4779 35.1848C40.9745 34.9254 41.3919 34.5368 41.6861 34.0599C41.9802 33.583 42.1402 33.0356 42.1491 32.4753V15.5269C42.1449 14.9874 41.9991 14.4584 41.7261 13.993C41.4532 13.5276 41.0627 13.1421 40.5939 12.875H40.5938Z" fill="currentColor"/>
</svg>
