<svg width="48" height="48" viewBox="0 0 48 48" fill="none" xmlns="http://www.w3.org/2000/svg">
<g filter="url(#filter0_ddd)">
<path d="M38.5312 38.7656C38.5312 40.6296 37.0202 42.1406 35.1562 42.1406H12.8438C10.9798 42.1406 9.46875 40.6296 9.46875 38.7656V9.1875C9.46875 7.32354 10.9798 5.8125 12.8438 5.8125H27.7918C28.6869 5.8125 29.5453 6.16808 30.1782 6.80101L37.5427 14.1655C38.1757 14.7984 38.5312 15.6569 38.5312 16.552V38.7656Z" fill="#444337"/>
<path d="M38.5312 38.7656C38.5312 40.6296 37.0202 42.1406 35.1562 42.1406H12.8438C10.9798 42.1406 9.46875 40.6296 9.46875 38.7656V9.1875C9.46875 7.32354 10.9798 5.8125 12.8438 5.8125H27.7918C28.6869 5.8125 29.5453 6.16808 30.1782 6.80101L37.5427 14.1655C38.1757 14.7984 38.5312 15.6569 38.5312 16.552V38.7656Z" fill="url(#paint0_linear)" fill-opacity="0.4"/>
</g>
<rect x="13.9688" y="33.375" width="5.0625" height="1.6875" rx="0.84375" fill="#A3A280"/>
<rect x="28.9688" y="36.4688" width="5.0625" height="1.6875" rx="0.84375" fill="#A3A280"/>
<rect x="20.4375" y="33.375" width="13.5938" height="1.6875" rx="0.84375" fill="#7C7B5F"/>
<rect x="13.9688" y="36.4688" width="13.5938" height="1.6875" rx="0.84375" fill="#7C7B5F"/>
<g filter="url(#filter1_f)">
<path d="M28.6875 14.2599V7.50094C28.6875 7.08333 29.1924 6.87419 29.4877 7.16948L37.356 15.0378C37.6513 15.3331 37.4422 15.838 37.0246 15.838H30.2656C29.3941 15.838 28.6875 15.1315 28.6875 14.2599Z" fill="black" fill-opacity="0.16"/>
</g>
<path d="M38.4902 16.5049C38.4902 15.6765 37.8193 15.0049 36.9909 15.0049H31.6864C30.4438 15.0049 29.4382 13.9982 29.4382 12.7555V7.26539C29.4382 6.56619 28.9598 5.97876 28.3125 5.8125C28.9992 5.92842 29.6383 6.25501 30.1372 6.75395L37.5017 14.1184C38.1346 14.7514 38.4902 15.6098 38.4902 16.5049Z" fill="#72715A"/>
<path fill-rule="evenodd" clip-rule="evenodd" d="M38.5312 16.4582V38.7656C38.5312 40.6296 37.0202 42.1406 35.1562 42.1406H12.8438C10.9798 42.1406 9.46875 40.6296 9.46875 38.7656V9.1875C9.46875 7.32354 10.9798 5.8125 12.8438 5.8125H27.9793C28.1085 5.8125 28.2339 5.82884 28.3535 5.85957C29.0402 5.97549 29.6793 6.30207 30.1782 6.80101L37.5427 14.1655C38.1757 14.7984 38.5312 15.5631 38.5312 16.4582ZM37.6875 38.7656C37.6875 40.1636 36.5542 41.2969 35.1562 41.2969H12.8438C11.4458 41.2969 10.3125 40.1636 10.3125 38.7656V9.1875C10.3125 7.78953 11.4458 6.65625 12.8438 6.65625H27.7918C27.9197 6.65625 28.0467 6.66594 28.1717 6.68492C28.4403 6.76716 28.6355 7.01701 28.6355 7.31246V12.8026C28.6355 14.5107 30.0183 15.802 31.7275 15.802H37.032C37.3939 15.802 37.6875 16.0953 37.6875 16.4582V38.7656ZM37.2022 14.9678C37.1463 14.9615 37.0895 14.9582 37.032 14.9582H31.7275C30.4848 14.9582 29.4793 14.0453 29.4793 12.8026V7.31246C29.4793 7.30856 29.4792 7.30466 29.4792 7.30077C29.5142 7.33202 29.5483 7.36432 29.5816 7.39764L36.9461 14.6684C37.0397 14.762 37.1252 14.8621 37.2022 14.9678Z" fill="#83826F"/>
<g filter="url(#filter2_f)">
<path d="M23.2777 24.667C22.1052 23.4378 20.9259 22.2128 19.7397 20.992L26.8885 17.3169L30.4265 20.992L23.2777 24.667ZM22.6139 26.0184L28.4774 22.9874L29.1175 23.6567L21.9687 27.3318L18.4307 23.6567L19.7284 22.9874L22.6139 26.0184Z" fill="url(#paint1_linear)" fill-opacity="0.7"/>
</g>
<g filter="url(#filter3_i)">
<path d="M21.0926 23.5353C19.1639 22.0295 17.23 20.5288 15.291 19.0333L21.0926 14.5312L26.8942 19.0333L21.0926 23.5353ZM21.0926 25.1907L25.8422 21.4777L26.8942 22.2977L21.0926 26.7997L15.291 22.2977L16.343 21.4777L21.0926 25.1907Z" fill="#C39F4B"/>
<path d="M21.0926 23.5353C19.1639 22.0295 17.23 20.5288 15.291 19.0333L21.0926 14.5312L26.8942 19.0333L21.0926 23.5353ZM21.0926 25.1907L25.8422 21.4777L26.8942 22.2977L21.0926 26.7997L15.291 22.2977L16.343 21.4777L21.0926 25.1907Z" fill="url(#paint2_linear)" fill-opacity="0.4"/>
</g>
<defs>
<filter id="filter0_ddd" x="7.59375" y="4.875" width="32.8125" height="40.0781" filterUnits="userSpaceOnUse" color-interpolation-filters="sRGB">
<feFlood flood-opacity="0" result="BackgroundImageFix"/>
<feColorMatrix in="SourceAlpha" type="matrix" values="0 0 0 0 0 0 0 0 0 0 0 0 0 0 0 0 0 0 127 0"/>
<feOffset/>
<feGaussianBlur stdDeviation="0.046875"/>
<feColorMatrix type="matrix" values="0 0 0 0 0 0 0 0 0 0 0 0 0 0 0 0 0 0 0.12 0"/>
<feBlend mode="normal" in2="BackgroundImageFix" result="effect1_dropShadow"/>
<feColorMatrix in="SourceAlpha" type="matrix" values="0 0 0 0 0 0 0 0 0 0 0 0 0 0 0 0 0 0 127 0"/>
<feOffset dy="0.1875"/>
<feGaussianBlur stdDeviation="0.28125"/>
<feColorMatrix type="matrix" values="0 0 0 0 0 0 0 0 0 0 0 0 0 0 0 0 0 0 0.12 0"/>
<feBlend mode="normal" in2="effect1_dropShadow" result="effect2_dropShadow"/>
<feColorMatrix in="SourceAlpha" type="matrix" values="0 0 0 0 0 0 0 0 0 0 0 0 0 0 0 0 0 0 127 0"/>
<feOffset dy="0.9375"/>
<feGaussianBlur stdDeviation="0.9375"/>
<feColorMatrix type="matrix" values="0 0 0 0 0 0 0 0 0 0 0 0 0 0 0 0 0 0 0.12 0"/>
<feBlend mode="normal" in2="effect2_dropShadow" result="effect3_dropShadow"/>
<feBlend mode="normal" in="SourceGraphic" in2="effect3_dropShadow" result="shape"/>
</filter>
<filter id="filter1_f" x="26.8125" y="5.15625" width="12.5568" height="12.5568" filterUnits="userSpaceOnUse" color-interpolation-filters="sRGB">
<feFlood flood-opacity="0" result="BackgroundImageFix"/>
<feBlend mode="normal" in="SourceGraphic" in2="BackgroundImageFix" result="shape"/>
<feGaussianBlur stdDeviation="0.9375" result="effect1_foregroundBlur"/>
</filter>
<filter id="filter2_f" x="16.9692" y="15.8554" width="14.9188" height="12.9378" filterUnits="userSpaceOnUse" color-interpolation-filters="sRGB">
<feFlood flood-opacity="0" result="BackgroundImageFix"/>
<feBlend mode="normal" in="SourceGraphic" in2="BackgroundImageFix" result="shape"/>
<feGaussianBlur stdDeviation="0.730722" result="effect1_foregroundBlur"/>
</filter>
<filter id="filter3_i" x="15.291" y="14.5312" width="12.1657" height="12.5497" filterUnits="userSpaceOnUse" color-interpolation-filters="sRGB">
<feFlood flood-opacity="0" result="BackgroundImageFix"/>
<feBlend mode="normal" in="SourceGraphic" in2="BackgroundImageFix" result="shape"/>
<feColorMatrix in="SourceAlpha" type="matrix" values="0 0 0 0 0 0 0 0 0 0 0 0 0 0 0 0 0 0 127 0" result="hardAlpha"/>
<feOffset dx="0.5625" dy="0.28125"/>
<feGaussianBlur stdDeviation="0.5625"/>
<feComposite in2="hardAlpha" operator="arithmetic" k2="-1" k3="1"/>
<feColorMatrix type="matrix" values="0 0 0 0 0.824846 0 0 0 0 0.852242 0 0 0 0 0.958401 0 0 0 0.45 0"/>
<feBlend mode="normal" in2="shape" result="effect1_innerShadow"/>
</filter>
<linearGradient id="paint0_linear" x1="10.2188" y1="4.82812" x2="38.5312" y2="44.6719" gradientUnits="userSpaceOnUse">
<stop stop-color="#525976"/>
<stop offset="1" stop-color="#9091AF"/>
</linearGradient>
<linearGradient id="paint1_linear" x1="27.8236" y1="18.8342" x2="22.0555" y2="26.8498" gradientUnits="userSpaceOnUse">
<stop stop-opacity="0"/>
<stop offset="1" stop-color="#393C43"/>
</linearGradient>
<linearGradient id="paint2_linear" x1="19.4132" y1="15.7395" x2="40.2968" y2="53.1912" gradientUnits="userSpaceOnUse">
<stop stop-color="#DECFAD"/>
<stop offset="1" stop-color="#62573F"/>
</linearGradient>
</defs>
</svg>
