<svg width="48" height="48" viewBox="0 0 48 48" fill="none" xmlns="http://www.w3.org/2000/svg"><path fill-rule="evenodd" clip-rule="evenodd" d="M15.48 37.2c7.621 0 13.8-6.178 13.8-13.8 0-7.62-6.179-13.8-13.8-13.8-7.622 0-13.8 6.18-13.8 13.8 0 7.622 6.178 13.8 13.8 13.8z" fill="#1D94FF"/><path fill-rule="evenodd" clip-rule="evenodd" d="M.48 23.4c0-8.284 6.716-15 15-15 8.285 0 15 6.716 15 15 0 8.285-6.715 15-15 15-8.284 0-15-6.715-15-15zm15-12.6c-6.958 0-12.6 5.642-12.6 12.6 0 6.96 5.642 12.6 12.6 12.6 6.96 0 12.6-5.64 12.6-12.6 0-6.958-5.64-12.6-12.6-12.6z" fill="#C0C5D4"/><path fill-rule="evenodd" clip-rule="evenodd" d="M32.28 37.2c7.622 0 13.8-6.178 13.8-13.8 0-7.62-6.178-13.8-13.8-13.8-7.621 0-13.8 6.18-13.8 13.8 0 7.622 6.179 13.8 13.8 13.8z" fill="#1D94FF"/><path fill-rule="evenodd" clip-rule="evenodd" d="M17.281 23.4c0-8.284 6.716-15 15-15 8.285 0 15 6.716 15 15 0 8.285-6.715 15-15 15-8.284 0-15-6.715-15-15zm15-12.6c-6.958 0-12.6 5.642-12.6 12.6 0 6.96 5.642 12.6 12.6 12.6 6.959 0 12.6-5.64 12.6-12.6 0-6.958-5.641-12.6-12.6-12.6z" fill="#C0C5D4"/><path fill-rule="evenodd" clip-rule="evenodd" d="M23.88 12.45a13.777 13.777 0 00-5.4 10.95 13.78 13.78 0 005.4 10.95 13.778 13.778 0 005.4-10.95c0-4.46-2.116-8.427-5.4-10.95z" fill="#1D94FF"/><path fill-rule="evenodd" clip-rule="evenodd" d="M23.881 10.938l.731.561a14.977 14.977 0 015.87 11.902c0 4.849-2.303 9.161-5.87 11.901l-.73.562-.732-.562a14.977 14.977 0 01-5.869-11.901c0-4.85 2.303-9.162 5.87-11.902l.73-.562zm0 3.07a12.566 12.566 0 00-4.2 9.393c0 3.73 1.62 7.083 4.2 9.391 2.58-2.308 4.2-5.66 4.2-9.391s-1.62-7.084-4.2-9.392z" fill="#C0C5D4"/></svg>