<svg width="48" height="48" viewBox="0 0 48 48" fill="none" xmlns="http://www.w3.org/2000/svg">
  <path d="M23.9999 4.00049C12.9599 4.00049 3.99994 12.9605 3.99994 24.0005C3.99994 35.0405 12.9599 44.0005 23.9999 44.0005C35.0399 44.0005 43.9999 35.0405 43.9999 24.0005C43.9999 12.9605 35.0399 4.00049 23.9999 4.00049ZM23.9999 40.0005C15.1599 40.0005 7.99994 32.8405 7.99994 24.0005C7.99994 15.1605 15.1599 8.00049 23.9999 8.00049C32.8399 8.00049 39.9999 15.1605 39.9999 24.0005C39.9999 32.8405 32.8399 40.0005 23.9999 40.0005Z" fill="currentColor"/>
  <path d="M24.0001 33.9995C29.5229 33.9995 34.0001 29.5224 34.0001 23.9995C34.0001 18.4767 29.5229 13.9995 24.0001 13.9995C18.4772 13.9995 14.0001 18.4767 14.0001 23.9995C14.0001 29.5224 18.4772 33.9995 24.0001 33.9995Z" fill="currentColor"/>
</svg>
