<svg width="48" height="48" viewBox="0 0 48 48" fill="none" xmlns="http://www.w3.org/2000/svg"><path fill-rule="evenodd" clip-rule="evenodd" d="M42 32.102V15.898a4.09 4.09 0 00-.537-2.023A4.026 4.026 0 0040 12.395L26 4.292a3.962 3.962 0 00-4 0L8 12.394a4.026 4.026 0 00-1.463 1.481A4.09 4.09 0 006 15.898v16.204c0 .71.186 1.408.537 2.023A4.026 4.026 0 008 35.605l14 8.102a3.962 3.962 0 004 0l14-8.101a4.026 4.026 0 001.463-1.481A4.09 4.09 0 0042 32.102zM10.382 17.195a1.8 1.8 0 012.415-.805l11.195 5.597 11.195-5.597a1.8 1.8 0 011.61 3.22l-10.998 5.498V39a1.8 1.8 0 01-3.6 0V25.116L11.187 19.61a1.8 1.8 0 01-.805-2.415z" fill="currentColor"/></svg>