<svg width="48" height="48" viewBox="0 0 48 48" fill="none" xmlns="http://www.w3.org/2000/svg"><g opacity=".2"><path opacity=".8" fill-rule="evenodd" clip-rule="evenodd" d="M22.156 3.774C11.802 4.704 3.688 13.404 3.688 24a20.22 20.22 0 004.42 12.65l5.274-5.275A12.863 12.863 0 0111.072 24c0-6.513 4.818-11.9 11.084-12.793V3.774zm-6.253 30.302l-5.242 5.242a20.23 20.23 0 0013.334 4.99c4.943 0 9.474-1.767 12.996-4.702l-5.256-5.256a12.865 12.865 0 01-7.74 2.573 12.87 12.87 0 01-8.092-2.847zM44.303 24c0 4.943-1.766 9.473-4.702 12.995l-5.255-5.256A12.865 12.865 0 0036.918 24c0-6.508-4.81-11.892-11.07-12.791V3.776C36.197 4.712 44.304 13.409 44.304 24z" fill="url(#chart_doughnut_off0_linear)"/></g><defs><linearGradient id="chart_doughnut_off0_linear" x1="3.688" y1="3.774" x2="8.621" y2="48.264" gradientUnits="userSpaceOnUse"><stop stop-color="#fff" stop-opacity=".6"/><stop offset="1" stop-color="#fff"/></linearGradient></defs></svg>