<svg width="48" height="48" viewBox="0 0 48 48" fill="none" xmlns="http://www.w3.org/2000/svg">
<path d="M26.0001 21.9996H4.0001C3.46967 21.9996 2.96096 22.2103 2.58589 22.5854C2.21081 22.9604 2.0001 23.4691 2.0001 23.9996V41.9996C2.0001 42.53 2.21081 43.0387 2.58589 43.4138C2.96096 43.7889 3.46967 43.9996 4.0001 43.9996H25.7201C25.8201 43.9996 25.9001 43.9996 26.0001 43.9996C26.5305 43.9996 27.0392 43.7889 27.4143 43.4138C27.7894 43.0387 28.0001 42.53 28.0001 41.9996V23.9996C28.0001 23.4691 27.7894 22.9604 27.4143 22.5854C27.0392 22.2103 26.5305 21.9996 26.0001 21.9996ZM14.8801 39.9996L18.7401 36.1396C18.7948 36.0571 18.8691 35.9894 18.9564 35.9426C19.0436 35.8957 19.1411 35.8712 19.2401 35.8712C19.3391 35.8712 19.4366 35.8957 19.5238 35.9426C19.6111 35.9894 19.6854 36.0571 19.7401 36.1396L23.5801 39.9996H14.8801ZM24.0001 34.7596L22.5601 33.3396C21.6633 32.4826 20.4706 32.0043 19.2301 32.0043C17.9896 32.0043 16.7969 32.4826 15.9001 33.3396L9.2201 39.9996H6.0001V25.9996H24.0001V34.7596ZM4.0001 8.21957C4.34719 8.21951 4.68828 8.12913 4.98985 7.9573C5.29142 7.78548 5.54309 7.53813 5.7201 7.23957C5.97442 6.87668 6.10744 6.44265 6.1001 5.99957C6.10044 5.7283 6.04559 5.45979 5.93888 5.21038C5.83218 4.96097 5.67585 4.73588 5.47941 4.54879C5.28297 4.36171 5.05052 4.21654 4.79621 4.12212C4.5419 4.0277 4.27104 3.98601 4.0001 3.99957C3.46967 3.99957 2.96096 4.21029 2.58589 4.58536C2.21081 4.96043 2.0001 5.46914 2.0001 5.99957V6.19957C1.99746 6.46389 2.04724 6.72612 2.14656 6.97108C2.24589 7.21605 2.39279 7.43889 2.57877 7.62673C2.76475 7.81457 2.98612 7.96368 3.23009 8.06544C3.47405 8.1672 3.73576 8.21959 4.0001 8.21957ZM19.8201 7.99957H20.2001C20.7305 7.99957 21.2392 7.78886 21.6143 7.41379C21.9894 7.03871 22.2001 6.53 22.2001 5.99957C22.2001 5.46914 21.9894 4.96043 21.6143 4.58536C21.2392 4.21029 20.7305 3.99957 20.2001 3.99957H19.8201C19.2897 3.99957 18.781 4.21029 18.4059 4.58536C18.0308 4.96043 17.8201 5.46914 17.8201 5.99957C17.8201 6.53 18.0308 7.03871 18.4059 7.41379C18.781 7.78886 19.2897 7.99957 19.8201 7.99957ZM4.0001 17.5596C4.53053 17.5596 5.03924 17.3489 5.41431 16.9738C5.78939 16.5987 6.0001 16.09 6.0001 15.5596V15.1196C6.0001 14.5891 5.78939 14.0804 5.41431 13.7054C5.03924 13.3303 4.53053 13.1196 4.0001 13.1196C3.46967 13.1196 2.96096 13.3303 2.58589 13.7054C2.21081 14.0804 2.0001 14.5891 2.0001 15.1196V15.5596C2.0001 16.09 2.21081 16.5987 2.58589 16.9738C2.96096 17.3489 3.46967 17.5596 4.0001 17.5596ZM28.1801 3.99957H27.8001C27.2697 3.99957 26.761 4.21029 26.3859 4.58536C26.0108 4.96043 25.8001 5.46914 25.8001 5.99957C25.8001 6.53 26.0108 7.03871 26.3859 7.41379C26.761 7.78886 27.2697 7.99957 27.8001 7.99957H28.1801C28.7105 7.99957 29.2192 7.78886 29.5943 7.41379C29.9694 7.03871 30.1801 6.53 30.1801 5.99957C30.1801 5.46914 29.9694 4.96043 29.5943 4.58536C29.2192 4.21029 28.7105 3.99957 28.1801 3.99957ZM11.8201 7.99957H12.2001C12.7305 7.99957 13.2392 7.78886 13.6143 7.41379C13.9894 7.03871 14.2001 6.53 14.2001 5.99957C14.2001 5.46914 13.9894 4.96043 13.6143 4.58536C13.2392 4.21029 12.7305 3.99957 12.2001 3.99957H11.8201C11.2897 3.99957 10.781 4.21029 10.4059 4.58536C10.0308 4.96043 9.8201 5.46914 9.8201 5.99957C9.8201 6.53 10.0308 7.03871 10.4059 7.41379C10.781 7.78886 11.2897 7.99957 11.8201 7.99957ZM44.0001 12.7996C43.4697 12.7996 42.961 13.0103 42.5859 13.3854C42.2108 13.7604 42.0001 14.2691 42.0001 14.7996V15.2196C42.0001 15.75 42.2108 16.2587 42.5859 16.6338C42.961 17.0089 43.4697 17.2196 44.0001 17.2196C44.5305 17.2196 45.0392 17.0089 45.4143 16.6338C45.7894 16.2587 46.0001 15.75 46.0001 15.2196V14.7996C46.0001 14.2691 45.7894 13.7604 45.4143 13.3854C45.0392 13.0103 44.5305 12.7996 44.0001 12.7996ZM34.2401 39.9996H33.7601C33.2297 39.9996 32.721 40.2103 32.3459 40.5854C31.9708 40.9604 31.7601 41.4691 31.7601 41.9996C31.7601 42.53 31.9708 43.0387 32.3459 43.4138C32.721 43.7889 33.2297 43.9996 33.7601 43.9996H34.2401C34.7705 43.9996 35.2792 43.7889 35.6543 43.4138C36.0294 43.0387 36.2401 42.53 36.2401 41.9996C36.2401 41.4691 36.0294 40.9604 35.6543 40.5854C35.2792 40.2103 34.7705 39.9996 34.2401 39.9996ZM43.8001 3.99957C43.3051 4.04932 42.8463 4.2818 42.5135 4.65162C42.1806 5.02144 41.9976 5.50204 42.0001 5.99957C42.0048 6.29079 42.0731 6.57748 42.2001 6.83957C42.3843 7.23467 42.6925 7.55877 43.0779 7.76255C43.4632 7.96633 43.9046 8.03862 44.3349 7.96842C44.7651 7.89822 45.1606 7.68939 45.4612 7.37369C45.7618 7.05799 45.951 6.65272 46.0001 6.21957V5.99957C45.9546 5.44968 45.7022 4.9375 45.294 4.56633C44.8857 4.19516 44.3518 3.99263 43.8001 3.99957ZM44.0001 21.7996C43.4697 21.7996 42.961 22.0103 42.5859 22.3854C42.2108 22.7604 42.0001 23.2691 42.0001 23.7996V24.2396C42.0001 24.77 42.2108 25.2787 42.5859 25.6538C42.961 26.0289 43.4697 26.2396 44.0001 26.2396C44.5305 26.2396 45.0392 26.0289 45.4143 25.6538C45.7894 25.2787 46.0001 24.77 46.0001 24.2396V23.7996C46.0001 23.2691 45.7894 22.7604 45.4143 22.3854C45.0392 22.0103 44.5305 21.7996 44.0001 21.7996ZM36.1801 3.99957H35.8001C35.2697 3.99957 34.761 4.21029 34.3859 4.58536C34.0108 4.96043 33.8001 5.46914 33.8001 5.99957C33.8001 6.53 34.0108 7.03871 34.3859 7.41379C34.761 7.78886 35.2697 7.99957 35.8001 7.99957H36.1801C36.7105 7.99957 37.2192 7.78886 37.5943 7.41379C37.9694 7.03871 38.1801 6.53 38.1801 5.99957C38.1801 5.46914 37.9694 4.96043 37.5943 4.58536C37.2192 4.21029 36.7105 3.99957 36.1801 3.99957ZM44.0001 39.9996C43.6931 39.9992 43.3908 40.0747 43.1201 40.2196C42.7865 40.383 42.5051 40.6361 42.3073 40.9505C42.1094 41.2649 42.0031 41.6281 42.0001 41.9996C42.0001 42.53 42.2108 43.0387 42.5859 43.4138C42.961 43.7889 43.4697 43.9996 44.0001 43.9996C44.55 43.9541 45.0622 43.7017 45.4333 43.2934C45.8045 42.8851 46.007 42.3513 46.0001 41.7996C45.9504 41.3045 45.7179 40.8458 45.3481 40.513C44.9782 40.1801 44.4976 39.9971 44.0001 39.9996ZM44.0001 30.8796C43.4697 30.8796 42.961 31.0903 42.5859 31.4654C42.2108 31.8404 42.0001 32.3491 42.0001 32.8796V33.3196C42.0001 33.85 42.2108 34.3587 42.5859 34.7338C42.961 35.1089 43.4697 35.3196 44.0001 35.3196C44.5305 35.3196 45.0392 35.1089 45.4143 34.7338C45.7894 34.3587 46.0001 33.85 46.0001 33.3196V32.7996C46.0001 32.2691 45.7894 31.7604 45.4143 31.3854C45.0392 31.0103 44.5305 30.7996 44.0001 30.7996V30.8796Z" fill="currentColor"/>
</svg>
