<svg width="48" height="48" viewBox="0 0 48 48" fill="none" xmlns="http://www.w3.org/2000/svg"><g opacity=".8"><path opacity=".2" d="M2.77 18.277c0-4.136 0-6.203.804-7.783a7.385 7.385 0 013.228-3.227c1.58-.805 3.647-.805 7.783-.805h18.83c4.136 0 6.204 0 7.784.805a7.385 7.385 0 013.227 3.227c.805 1.58.805 3.648.805 7.783v11.446c0 4.136 0 6.204-.805 7.784a7.385 7.385 0 01-3.227 3.227c-1.58.805-3.648.805-7.783.805H14.585c-4.136 0-6.204 0-7.783-.805a7.385 7.385 0 01-3.228-3.227c-.804-1.58-.804-3.648-.804-7.783V18.277z" fill="url(#chart_word_index_on0_linear)"/><path fill-rule="evenodd" clip-rule="evenodd" d="M22.523 25.61h1.853c0 .42.157.632.448.632a.448.448 0 00.377-.18.722.722 0 00.148-.448c0-.498-.26-.745-.776-.745h-.323v-1.498h.229c.52 0 .78-.242.78-.717 0-.39-.139-.583-.408-.583-.27 0-.332.157-.363.448v.095h-1.839a2.3 2.3 0 01.69-1.557 2.202 2.202 0 011.588-.578c.579-.02 1.14.194 1.561.592.425.376.662.921.646 1.489a1.628 1.628 0 01-.852 1.48c.604.315.973.95.946 1.632a1.955 1.955 0 01-.673 1.538c-.477.408-1.09.62-1.717.592a2.377 2.377 0 01-1.669-.578 1.933 1.933 0 01-.641-1.512l-.005-.103zm-4.168 2.067h-4.843l1.924-2.565c.218-.299.402-.559.551-.78.128-.197.245-.4.35-.61.164-.316.25-.667.251-1.023a.786.786 0 00-.116-.448.372.372 0 00-.328-.17c-.3 0-.448.287-.448.856v.26h-1.843v-.255a2.408 2.408 0 01.654-1.74 2.243 2.243 0 011.691-.687 2.148 2.148 0 011.624.65c.43.441.66 1.04.636 1.655a3.187 3.187 0 01-.448 1.593 5.731 5.731 0 01-.565.816 10.09 10.09 0 01-.848.897 6.9 6.9 0 00.49-.024c.125-.008.25-.017.376-.021.193-.006.388-.004.588-.002l.309.002-.005 1.596zm-6.074 0H10.38v-5.382h-.763V20.64h2.664v7.037zm7.498-.314c.188.176.44.268.697.251l.081.01c0 .52-.426 1.017-1.233 1.296l.336.896c1.292-.39 1.991-1.296 1.991-2.502 0-.969-.403-1.552-1.13-1.552a.96.96 0 00-1.036.92c0 .257.106.504.294.68zm10.715.314h1.897l-.01-1.426h.584v-1.512h-.574V20.64h-2.332l-2.126 4.126v1.485h2.56v1.426zm.104-2.938v-1.61c0-.135 0-.305.031-.516l-.282.601c-.14.296-.278.57-.418.825a10.11 10.11 0 01-.421.7h1.09zm3.415.848l-.224 1.669h-.027c.584.35 1.251.54 1.933.547a2.638 2.638 0 001.91-.731c.504-.47.784-1.132.767-1.821a2.14 2.14 0 00-.596-1.552 1.92 1.92 0 00-1.462-.628h-.319l.175-.776h2.01v-1.654h-3.503l-.547 4.103a3.43 3.43 0 011.233-.247c.294-.017.586.055.838.207.193.13.305.35.296.583a.709.709 0 01-.273.57 1.1 1.1 0 01-.704.22 3.108 3.108 0 01-1.507-.49z" fill="url(#chart_word_index_on1_linear)"/></g><defs><linearGradient id="chart_word_index_on0_linear" x1="2" y1="23.25" x2="46.001" y2="23.25" gradientUnits="userSpaceOnUse"><stop stop-color="#fff" stop-opacity=".6"/><stop offset="1" stop-color="#fff"/></linearGradient><linearGradient id="chart_word_index_on1_linear" x1="9.096" y1="24.947" x2="38.895" y2="24.947" gradientUnits="userSpaceOnUse"><stop stop-color="#fff"/><stop offset="1" stop-color="#fff" stop-opacity=".6"/></linearGradient></defs></svg>