<svg width="48" height="48" viewBox="0 0 48 48" fill="none" xmlns="http://www.w3.org/2000/svg">
<path d="M40.6028 20.7666C40.6028 12.8312 34.1698 6.39819 26.2344 6.39819V20.7666H40.6028Z" fill="#404C5E" fill-opacity="0.3"/>
<path fill-rule="evenodd" clip-rule="evenodd" d="M22.2171 10.0099C22.546 10.3128 22.7332 10.7396 22.7332 11.1868V24.269H35.8121C36.2593 24.269 36.6862 24.4562 36.9891 24.7852C37.2921 25.1142 37.4435 25.555 37.4066 26.0008C36.7619 33.7999 30.23 39.9272 22.2654 39.9272C13.8742 39.9272 7.0719 33.1249 7.0719 24.7338C7.0719 16.768 13.201 10.2354 21.0017 9.59221C21.4474 9.55546 21.8881 9.70691 22.2171 10.0099ZM19.5332 13.0526C14.2264 14.2887 10.2719 19.0501 10.2719 24.7338C10.2719 31.3576 15.6416 36.7272 22.2654 36.7272C27.9479 36.7272 32.7086 32.7743 33.9458 27.469H21.1332C20.2495 27.469 19.5332 26.7526 19.5332 25.869V13.0526Z" fill="#555E74"/>
</svg>
