<svg width="48" height="48" viewBox="0 0 48 48" fill="none" xmlns="http://www.w3.org/2000/svg"><path fill-rule="evenodd" clip-rule="evenodd" d="M8.965 18.852c0-8.305 6.731-15.037 15.037-15.037 8.305 0 15.036 6.732 15.036 15.037a15.025 15.025 0 01-7.52 13.026h-.002l-.893.518v3.288a1.9 1.9 0 01-1.9 1.9H19.28a1.9 1.9 0 01-1.9-1.9v-3.288l-.894-.517a15.025 15.025 0 01-7.522-13.027zM24.002 7.615c-6.207 0-11.237 5.03-11.237 11.237 0 4.06 2.166 7.738 5.624 9.737l.002.001 2.79 1.616v3.578h5.642v-3.578l2.79-1.617c3.46-2 5.625-5.677 5.625-9.737 0-6.207-5.03-11.237-11.236-11.237zm4.653 36.57h-9.19a1.9 1.9 0 110-3.8h9.19a1.9 1.9 0 010 3.8z" fill="currentColor"/></svg>