<svg width="48" height="48" viewBox="0 0 48 48" fill="none" xmlns="http://www.w3.org/2000/svg"><g opacity=".8" fill-rule="evenodd" clip-rule="evenodd"><path d="M34.843 21.602v-8.564h-2.724v2.658c0 .235.005.433.014.594.01.16.023.297.041.411a2.393 2.393 0 00-.779-.737 1.957 1.957 0 00-.978-.246c-.666 0-1.217.28-1.652.84-.434.56-.652 1.283-.652 2.171 0 .932.212 1.68.636 2.243.423.564.98.846 1.668.846.38 0 .722-.088 1.028-.263.306-.175.578-.44.818-.793v.84h2.58zM9.51 18.65c.11-.497.171-.878.182-1.143h.105c.011.265.072.644.182 1.138l.045.199.608 2.757h2.536l2.364-8.09h-2.917l-.635 3.565c-.056.313-.098.599-.128.859a9.64 9.64 0 00-.055.732h-.066c-.007-.317-.065-.739-.171-1.266a2.958 2.958 0 01-.022-.11l-.768-3.78H8.72l-.768 3.774c-.008.03-.015.069-.022.116-.107.524-.164.945-.172 1.266h-.066a9.123 9.123 0 00-.055-.732c-.03-.26-.072-.546-.127-.86l-.636-3.563H3.957L6.322 21.6h2.536l.608-2.757.044-.194zm9.523.676a.615.615 0 01-.486.215.623.623 0 01-.494-.213c-.124-.141-.185-.33-.185-.566 0-.236.061-.424.185-.566a.623.623 0 01.494-.213c.203 0 .366.071.49.213.123.142.184.33.184.566 0 .232-.062.42-.188.564zm2.854-.564c0 .43-.092.842-.276 1.232a3.136 3.136 0 01-1.815 1.622c-.385.134-.8.201-1.246.201-.446 0-.86-.066-1.243-.198a3.17 3.17 0 01-1.82-1.617 2.883 2.883 0 01-.28-1.24c0-.435.093-.848.28-1.24.185-.393.447-.734.786-1.025a3.17 3.17 0 011.034-.592 3.776 3.776 0 011.243-.198c.445 0 .86.067 1.246.201.385.135.73.33 1.036.589.335.287.595.628.779 1.022.184.394.276.808.276 1.243zm.933-2.874v5.713h2.78v-2.265c0-.346.096-.615.29-.807.193-.191.466-.287.82-.287.107 0 .225.02.354.06.129.041.27.104.425.189v-2.774a.782.782 0 00-.075-.008 2.087 2.087 0 00-.124-.003c-.357 0-.683.082-.978.246-.294.164-.562.41-.8.737v-.8H22.82zm8.67 2.045a.65.65 0 00-.516.226c-.131.151-.197.352-.197.602s.067.455.2.614a.64.64 0 00.513.237.64.64 0 00.514-.237c.133-.159.199-.363.199-.614 0-.25-.066-.45-.196-.602a.65.65 0 00-.517-.226z" fill="#fff"/><path d="M34.843 21.602v-8.564h-2.724v2.658c0 .235.005.433.014.594.01.16.023.297.041.411a2.393 2.393 0 00-.779-.737 1.957 1.957 0 00-.978-.246c-.666 0-1.217.28-1.652.84-.434.56-.652 1.283-.652 2.171 0 .932.212 1.68.636 2.243.423.564.98.846 1.668.846.38 0 .722-.088 1.028-.263.306-.175.578-.44.818-.793v.84h2.58zM9.51 18.65c.11-.497.171-.878.182-1.143h.105c.011.265.072.644.182 1.138l.045.199.608 2.757h2.536l2.364-8.09h-2.917l-.635 3.565c-.056.313-.098.599-.128.859a9.64 9.64 0 00-.055.732h-.066c-.007-.317-.065-.739-.171-1.266a2.958 2.958 0 01-.022-.11l-.768-3.78H8.72l-.768 3.774c-.008.03-.015.069-.022.116-.107.524-.164.945-.172 1.266h-.066a9.123 9.123 0 00-.055-.732c-.03-.26-.072-.546-.127-.86l-.636-3.563H3.957L6.322 21.6h2.536l.608-2.757.044-.194zm9.523.676a.615.615 0 01-.486.215.623.623 0 01-.494-.213c-.124-.141-.185-.33-.185-.566 0-.236.061-.424.185-.566a.623.623 0 01.494-.213c.203 0 .366.071.49.213.123.142.184.33.184.566 0 .232-.062.42-.188.564zm2.854-.564c0 .43-.092.842-.276 1.232a3.136 3.136 0 01-1.815 1.622c-.385.134-.8.201-1.246.201-.446 0-.86-.066-1.243-.198a3.17 3.17 0 01-1.82-1.617 2.883 2.883 0 01-.28-1.24c0-.435.093-.848.28-1.24.185-.393.447-.734.786-1.025a3.17 3.17 0 011.034-.592 3.776 3.776 0 011.243-.198c.445 0 .86.067 1.246.201.385.135.73.33 1.036.589.335.287.595.628.779 1.022.184.394.276.808.276 1.243zm.933-2.874v5.713h2.78v-2.265c0-.346.096-.615.29-.807.193-.191.466-.287.82-.287.107 0 .225.02.354.06.129.041.27.104.425.189v-2.774a.782.782 0 00-.075-.008 2.087 2.087 0 00-.124-.003c-.357 0-.683.082-.978.246-.294.164-.562.41-.8.737v-.8H22.82zm8.67 2.045a.65.65 0 00-.516.226c-.131.151-.197.352-.197.602s.067.455.2.614a.64.64 0 00.513.237.64.64 0 00.514-.237c.133-.159.199-.363.199-.614 0-.25-.066-.45-.196-.602a.65.65 0 00-.517-.226z" fill="#fff"/><g opacity=".6" fill="#fff"><path d="M42.086 20.983a3.591 3.591 0 00-.279.026h-.004c.252-.168.436-.348.552-.54.116-.193.174-.416.174-.67 0-.496-.165-.883-.495-1.162-.33-.278-.79-.418-1.38-.418-.565 0-1.02.142-1.363.425-.344.284-.516.657-.516 1.12 0 .277.051.513.154.706.104.194.265.359.486.497l-.502-.015v.983h5.517v-.961h-1.99c-.133 0-.25.003-.354.009zM41.3 8.589l2.826-.772V6.721l-2.844-.765-.075-.018a11.348 11.348 0 00-1.145-.25c.227-.011.438-.029.631-.052.194-.024.373-.055.54-.093l2.893-.687V3.742l-5.21 1.363v1.071l3.324.94c.137.04.284.073.44.098.157.025.324.043.5.055a3.9 3.9 0 00-.94.16l-3.324.933v1.07l5.21 1.364v-1.1L41.3 9.02a5.35 5.35 0 00-.635-.123 5.973 5.973 0 00-.64-.048c.257-.038.489-.078.695-.12.206-.043.4-.09.58-.14zm.032 4.833c-.17.166-.397.25-.682.25-.285 0-.512-.085-.683-.252-.171-.167-.257-.39-.257-.667 0-.28.086-.502.257-.666.17-.163.398-.245.683-.245.287 0 .515.082.683.245.169.164.253.386.253.666s-.085.503-.255.669zm-.688 1.281c-.537 0-.983-.183-1.338-.55-.356-.366-.534-.83-.534-1.393 0-.567.178-1.035.534-1.402.355-.368.801-.552 1.338-.552.534 0 .98.185 1.338.555.358.37.537.836.537 1.399 0 .565-.177 1.03-.53 1.395-.354.365-.802.548-1.345.548zm1.623 2.183c-.169-.19-.423-.337-.762-.44l.897.022v-1H38.91v1.014h1.538c.37 0 .634.068.792.203.157.135.236.357.236.666a1.243 1.243 0 01-.092.473l1.089.153.01-.064a2.28 2.28 0 00.036-.317c0-.282-.084-.519-.252-.71zm-1.601 4.124c.313 0 .56-.08.744-.237a.802.802 0 00.274-.639c0-.275-.09-.492-.27-.65-.178-.157-.426-.236-.741-.236-.316 0-.562.078-.74.233-.178.156-.267.37-.267.646 0 .28.088.497.263.651.176.155.421.232.737.232z"/><path d="M42.086 20.983a3.591 3.591 0 00-.279.026h-.004c.252-.168.436-.348.552-.54.116-.193.174-.416.174-.67 0-.496-.165-.883-.495-1.162-.33-.278-.79-.418-1.38-.418-.565 0-1.02.142-1.363.425-.344.284-.516.657-.516 1.12 0 .277.051.513.154.706.104.194.265.359.486.497l-.502-.015v.983h5.517v-.961h-1.99c-.133 0-.25.003-.354.009zM41.3 8.589l2.826-.772V6.721l-2.844-.765-.075-.018a11.348 11.348 0 00-1.145-.25c.227-.011.438-.029.631-.052.194-.024.373-.055.54-.093l2.893-.687V3.742l-5.21 1.363v1.071l3.324.94c.137.04.284.073.44.098.157.025.324.043.5.055a3.9 3.9 0 00-.94.16l-3.324.933v1.07l5.21 1.364v-1.1L41.3 9.02a5.35 5.35 0 00-.635-.123 5.973 5.973 0 00-.64-.048c.257-.038.489-.078.695-.12.206-.043.4-.09.58-.14zm.032 4.833c-.17.166-.397.25-.682.25-.285 0-.512-.085-.683-.252-.171-.167-.257-.39-.257-.667 0-.28.086-.502.257-.666.17-.163.398-.245.683-.245.287 0 .515.082.683.245.169.164.253.386.253.666s-.085.503-.255.669zm-.688 1.281c-.537 0-.983-.183-1.338-.55-.356-.366-.534-.83-.534-1.393 0-.567.178-1.035.534-1.402.355-.368.801-.552 1.338-.552.534 0 .98.185 1.338.555.358.37.537.836.537 1.399 0 .565-.177 1.03-.53 1.395-.354.365-.802.548-1.345.548zm1.623 2.183c-.169-.19-.423-.337-.762-.44l.897.022v-1H38.91v1.014h1.538c.37 0 .634.068.792.203.157.135.236.357.236.666a1.243 1.243 0 01-.092.473l1.089.153.01-.064a2.28 2.28 0 00.036-.317c0-.282-.084-.519-.252-.71zm-1.601 4.124c.313 0 .56-.08.744-.237a.802.802 0 00.274-.639c0-.275-.09-.492-.27-.65-.178-.157-.426-.236-.741-.236-.316 0-.562.078-.74.233-.178.156-.267.37-.267.646 0 .28.088.497.263.651.176.155.421.232.737.232z"/></g><g opacity=".3" fill="#fff"><path d="M26.008 40.103h.819v-4.597h-.801v1.658c0 .11.002.209.007.295s.013.164.023.236a1.49 1.49 0 00-.451-.46 1.056 1.056 0 00-.558-.145c-.413 0-.736.137-.968.412-.232.275-.349.658-.349 1.15 0 .471.119.85.355 1.136.236.287.547.43.933.43.23 0 .427-.043.588-.129a1.1 1.1 0 00.414-.404l-.012.418zm-10.3-1.988l-.644-2.355h-.914l-.637 2.37-.015.062c-.101.385-.17.704-.208.955a7.573 7.573 0 00-.044-.527 4.447 4.447 0 00-.077-.449l-.573-2.411h-.928l1.136 4.342h.893l.783-2.77c.033-.115.06-.238.081-.368.02-.13.036-.269.046-.415a3.25 3.25 0 00.134.783l.777 2.77h.892l1.136-4.342h-.916l-.564 2.355c-.045.178-.08.354-.102.529a4.974 4.974 0 00-.04.532 10.354 10.354 0 00-.101-.578 7.612 7.612 0 00-.116-.483zm4.027-.03c.139.142.208.331.208.568 0 .238-.07.427-.21.57a.743.743 0 01-.555.213c-.234 0-.419-.07-.555-.213-.136-.143-.205-.332-.205-.57 0-.239.069-.429.205-.57.136-.14.321-.21.555-.21.233 0 .419.071.557.212zm1.066.574c0 .447-.152.818-.458 1.115-.305.296-.692.445-1.16.445-.473 0-.863-.149-1.17-.445a1.487 1.487 0 01-.46-1.115c0-.445.155-.817.464-1.115.308-.3.697-.448 1.165-.448.47 0 .858.147 1.163.442.304.294.456.668.456 1.12zm1.819-1.353c-.16.14-.281.352-.366.635l.017-.748h-.833v2.91h.845v-1.281c0-.309.057-.529.17-.66.112-.132.297-.197.554-.197a1.039 1.039 0 01.394.077l.128-.908-.053-.009c-.123-.02-.21-.03-.264-.03a.863.863 0 00-.592.211zm3.442 1.337c0-.26-.066-.468-.197-.62a.667.667 0 00-.533-.228c-.23 0-.41.075-.541.224-.131.15-.197.355-.197.618s.064.469.194.617c.13.148.309.223.538.223.234 0 .415-.074.543-.22.128-.146.193-.35.193-.614z"/><path d="M26.008 40.103h.819v-4.597h-.801v1.658c0 .11.002.209.007.295s.013.164.023.236a1.49 1.49 0 00-.451-.46 1.056 1.056 0 00-.558-.145c-.413 0-.736.137-.968.412-.232.275-.349.658-.349 1.15 0 .471.119.85.355 1.136.236.287.547.43.933.43.23 0 .427-.043.588-.129a1.1 1.1 0 00.414-.404l-.012.418zm-10.3-1.988l-.644-2.355h-.914l-.637 2.37-.015.062c-.101.385-.17.704-.208.955a7.573 7.573 0 00-.044-.527 4.447 4.447 0 00-.077-.449l-.573-2.411h-.928l1.136 4.342h.893l.783-2.77c.033-.115.06-.238.081-.368.02-.13.036-.269.046-.415a3.25 3.25 0 00.134.783l.777 2.77h.892l1.136-4.342h-.916l-.564 2.355c-.045.178-.08.354-.102.529a4.974 4.974 0 00-.04.532 10.354 10.354 0 00-.101-.578 7.612 7.612 0 00-.116-.483zm4.027-.03c.139.142.208.331.208.568 0 .238-.07.427-.21.57a.743.743 0 01-.555.213c-.234 0-.419-.07-.555-.213-.136-.143-.205-.332-.205-.57 0-.239.069-.429.205-.57.136-.14.321-.21.555-.21.233 0 .419.071.557.212zm1.066.574c0 .447-.152.818-.458 1.115-.305.296-.692.445-1.16.445-.473 0-.863-.149-1.17-.445a1.487 1.487 0 01-.46-1.115c0-.445.155-.817.464-1.115.308-.3.697-.448 1.165-.448.47 0 .858.147 1.163.442.304.294.456.668.456 1.12zm1.819-1.353c-.16.14-.281.352-.366.635l.017-.748h-.833v2.91h.845v-1.281c0-.309.057-.529.17-.66.112-.132.297-.197.554-.197a1.039 1.039 0 01.394.077l.128-.908-.053-.009c-.123-.02-.21-.03-.264-.03a.863.863 0 00-.592.211zm3.442 1.337c0-.26-.066-.468-.197-.62a.667.667 0 00-.533-.228c-.23 0-.41.075-.541.224-.131.15-.197.355-.197.618s.064.469.194.617c.13.148.309.223.538.223.234 0 .415-.074.543-.22.128-.146.193-.35.193-.614z"/></g><g opacity=".6" fill="#fff"><path d="M8.79 38.847H3.273v-1.01H8.79v1.01zm-3.856.986c-.202.226-.35.457-.443.694a2.048 2.048 0 00-.141.762c0 .555.166.997.498 1.327.332.33.778.495 1.338.495.548 0 .983-.153 1.305-.46.321-.305.482-.723.482-1.252 0-.301-.05-.581-.151-.84a2.303 2.303 0 00-.454-.719l1.142.007c.14.238.245.486.314.746.068.26.103.533.103.82 0 .83-.258 1.512-.774 2.045-.516.532-1.172.799-1.967.799-.792 0-1.446-.267-1.96-.8-.515-.535-.773-1.223-.773-2.065a3.633 3.633 0 01.363-1.598l1.118.04zm1.438-5.417c.17-.166.396-.25.681-.25.285 0 .513.084.683.252.171.167.257.39.257.667 0 .28-.086.502-.257.666-.17.163-.398.245-.683.245-.287 0-.515-.082-.683-.245-.169-.164-.253-.386-.253-.666s.085-.503.255-.67zm.688-1.28c.536 0 .982.183 1.338.55.356.367.533.831.533 1.393 0 .567-.177 1.035-.533 1.402-.356.368-.802.552-1.338.552a1.79 1.79 0 01-1.339-.555c-.358-.37-.537-.836-.537-1.399 0-.564.177-1.03.53-1.395.354-.365.802-.548 1.346-.548zm.073-1.758H5.297v1.007h1.836c.617 0 1.07-.144 1.36-.433.29-.288.434-.74.434-1.354 0-.602-.145-1.047-.436-1.334-.29-.287-.743-.431-1.358-.431H5.297v1.014h1.836c.306 0 .526.06.66.182.135.12.202.315.202.583 0 .27-.067.466-.2.586-.133.12-.353.18-.662.18zm-.096-6.093c-.313 0-.56.08-.743.237-.183.158-.274.37-.274.639 0 .275.09.491.268.65.18.157.427.236.742.236.316 0 .563-.078.74-.233.178-.156.267-.371.267-.646 0-.28-.087-.497-.263-.651-.176-.155-.421-.232-.737-.232zm-1.42.026a3.54 3.54 0 00.28-.026H5.9a1.792 1.792 0 00-.552.54 1.267 1.267 0 00-.174.67c0 .495.165.883.495 1.161.33.28.79.419 1.38.419.565 0 1.02-.142 1.363-.426.345-.283.517-.656.517-1.119 0-.278-.052-.513-.155-.706a1.328 1.328 0 00-.486-.497l.502.014v-.982H3.273v.961h1.99c.133 0 .25-.003.354-.009z"/><path d="M8.79 38.847H3.273v-1.01H8.79v1.01zm-3.856.986c-.202.226-.35.457-.443.694a2.048 2.048 0 00-.141.762c0 .555.166.997.498 1.327.332.33.778.495 1.338.495.548 0 .983-.153 1.305-.46.321-.305.482-.723.482-1.252 0-.301-.05-.581-.151-.84a2.303 2.303 0 00-.454-.719l1.142.007c.14.238.245.486.314.746.068.26.103.533.103.82 0 .83-.258 1.512-.774 2.045-.516.532-1.172.799-1.967.799-.792 0-1.446-.267-1.96-.8-.515-.535-.773-1.223-.773-2.065a3.633 3.633 0 01.363-1.598l1.118.04zm1.438-5.417c.17-.166.396-.25.681-.25.285 0 .513.084.683.252.171.167.257.39.257.667 0 .28-.086.502-.257.666-.17.163-.398.245-.683.245-.287 0-.515-.082-.683-.245-.169-.164-.253-.386-.253-.666s.085-.503.255-.67zm.688-1.28c.536 0 .982.183 1.338.55.356.367.533.831.533 1.393 0 .567-.177 1.035-.533 1.402-.356.368-.802.552-1.338.552a1.79 1.79 0 01-1.339-.555c-.358-.37-.537-.836-.537-1.399 0-.564.177-1.03.53-1.395.354-.365.802-.548 1.346-.548zm.073-1.758H5.297v1.007h1.836c.617 0 1.07-.144 1.36-.433.29-.288.434-.74.434-1.354 0-.602-.145-1.047-.436-1.334-.29-.287-.743-.431-1.358-.431H5.297v1.014h1.836c.306 0 .526.06.66.182.135.12.202.315.202.583 0 .27-.067.466-.2.586-.133.12-.353.18-.662.18zm-.096-6.093c-.313 0-.56.08-.743.237-.183.158-.274.37-.274.639 0 .275.09.491.268.65.18.157.427.236.742.236.316 0 .563-.078.74-.233.178-.156.267-.371.267-.646 0-.28-.087-.497-.263-.651-.176-.155-.421-.232-.737-.232zm-1.42.026a3.54 3.54 0 00.28-.026H5.9a1.792 1.792 0 00-.552.54 1.267 1.267 0 00-.174.67c0 .495.165.883.495 1.161.33.28.79.419 1.38.419.565 0 1.02-.142 1.363-.426.345-.283.517-.656.517-1.119 0-.278-.052-.513-.155-.706a1.328 1.328 0 00-.486-.497l.502.014v-.982H3.273v.961h1.99c.133 0 .25-.003.354-.009z"/></g><g opacity=".3" fill="#fff"><path d="M22.766 10.67V6.071h.842v4.597h-.842zm-.822-3.213a1.945 1.945 0 00-.578-.37 1.712 1.712 0 00-.635-.116c-.462 0-.831.138-1.106.415-.275.277-.412.648-.412 1.115 0 .457.127.819.382 1.087s.603.402 1.044.402c.251 0 .485-.042.7-.126a1.93 1.93 0 00.6-.378l-.007.952a2.459 2.459 0 01-.62.26 2.662 2.662 0 01-.685.087c-.692 0-1.26-.215-1.703-.646-.444-.43-.666-.976-.666-1.638 0-.66.222-1.205.667-1.634.445-.43 1.018-.644 1.72-.644a3.031 3.031 0 011.332.303l-.033.931zm4.517 1.195c.139.14.208.33.208.567 0 .238-.07.428-.21.57a.743.743 0 01-.555.213c-.233 0-.418-.07-.555-.213-.136-.142-.204-.332-.204-.57 0-.239.068-.429.204-.569.137-.14.322-.21.555-.21.233 0 .419.07.557.212zm1.064.573c0 .447-.153.819-.458 1.115-.306.297-.693.445-1.161.445-.473 0-.862-.148-1.169-.445a1.487 1.487 0 01-.46-1.115c0-.445.155-.817.463-1.115.309-.299.697-.448 1.166-.448.47 0 .858.147 1.162.442.305.295.457.668.457 1.121zm1.467.065V7.76h-.84v1.53c0 .514.12.892.36 1.133s.617.362 1.13.362c.501 0 .872-.121 1.111-.364.24-.242.36-.619.36-1.13V7.76h-.846v1.53c0 .255-.05.439-.151.55-.101.112-.263.168-.487.168-.225 0-.388-.056-.488-.166-.1-.111-.15-.295-.15-.552zm5.079-.08c0-.261-.066-.468-.198-.62a.668.668 0 00-.532-.228c-.23 0-.41.074-.541.224-.132.149-.197.355-.197.618s.064.469.194.617c.13.148.309.222.538.222.233 0 .414-.073.543-.22.128-.145.193-.35.193-.613zm-.051 1.46h.818V6.071h-.8V7.73c0 .11.002.21.007.295.005.086.012.165.022.236-.14-.21-.29-.363-.45-.46a1.056 1.056 0 00-.558-.145c-.413 0-.736.137-.968.412-.233.275-.349.659-.349 1.15 0 .472.118.85.354 1.137.237.287.548.43.933.43.231 0 .428-.043.589-.13a1.1 1.1 0 00.414-.404l-.012.418z"/><path d="M22.766 10.67V6.071h.842v4.597h-.842zm-.822-3.213a1.945 1.945 0 00-.578-.37 1.712 1.712 0 00-.635-.116c-.462 0-.831.138-1.106.415-.275.277-.412.648-.412 1.115 0 .457.127.819.382 1.087s.603.402 1.044.402c.251 0 .485-.042.7-.126a1.93 1.93 0 00.6-.378l-.007.952a2.459 2.459 0 01-.62.26 2.662 2.662 0 01-.685.087c-.692 0-1.26-.215-1.703-.646-.444-.43-.666-.976-.666-1.638 0-.66.222-1.205.667-1.634.445-.43 1.018-.644 1.72-.644a3.031 3.031 0 011.332.303l-.033.931zm4.517 1.195c.139.14.208.33.208.567 0 .238-.07.428-.21.57a.743.743 0 01-.555.213c-.233 0-.418-.07-.555-.213-.136-.142-.204-.332-.204-.57 0-.239.068-.429.204-.569.137-.14.322-.21.555-.21.233 0 .419.07.557.212zm1.064.573c0 .447-.153.819-.458 1.115-.306.297-.693.445-1.161.445-.473 0-.862-.148-1.169-.445a1.487 1.487 0 01-.46-1.115c0-.445.155-.817.463-1.115.309-.299.697-.448 1.166-.448.47 0 .858.147 1.162.442.305.295.457.668.457 1.121zm1.467.065V7.76h-.84v1.53c0 .514.12.892.36 1.133s.617.362 1.13.362c.501 0 .872-.121 1.111-.364.24-.242.36-.619.36-1.13V7.76h-.846v1.53c0 .255-.05.439-.151.55-.101.112-.263.168-.487.168-.225 0-.388-.056-.488-.166-.1-.111-.15-.295-.15-.552zm5.079-.08c0-.261-.066-.468-.198-.62a.668.668 0 00-.532-.228c-.23 0-.41.074-.541.224-.132.149-.197.355-.197.618s.064.469.194.617c.13.148.309.222.538.222.233 0 .414-.073.543-.22.128-.145.193-.35.193-.613zm-.051 1.46h.818V6.071h-.8V7.73c0 .11.002.21.007.295.005.086.012.165.022.236-.14-.21-.29-.363-.45-.46a1.056 1.056 0 00-.558-.145c-.413 0-.736.137-.968.412-.233.275-.349.659-.349 1.15 0 .472.118.85.354 1.137.237.287.548.43.933.43.231 0 .428-.043.589-.13a1.1 1.1 0 00.414-.404l-.012.418z"/></g><path d="M19.448 33.142v-8.564h2.774v8.564h-2.774zm-1.18-4.88a2.942 2.942 0 00-.813-.568 2.091 2.091 0 00-.873-.188c-.475 0-.857.146-1.146.44-.29.292-.434.682-.434 1.168 0 .475.138.854.415 1.138.276.284.646.425 1.11.425.28 0 .565-.06.854-.18.289-.119.605-.31.947-.571l-.094 3.044a5.342 5.342 0 01-.95.29 4.814 4.814 0 01-2.088-.036 3.992 3.992 0 01-.99-.375c-.714-.413-1.255-.934-1.621-1.564-.367-.63-.55-1.354-.55-2.171 0-.604.104-1.164.312-1.68a4.02 4.02 0 01.91-1.365 4.025 4.025 0 011.394-.903 4.716 4.716 0 011.716-.307 4.62 4.62 0 011.9.41v2.994zm8.773 2.604a.615.615 0 01-.487.215.623.623 0 01-.494-.212c-.124-.142-.185-.331-.185-.567 0-.235.061-.424.185-.566a.623.623 0 01.494-.213c.203 0 .366.071.49.213.123.142.184.33.184.566 0 .232-.062.42-.188.564zm2.853-.564c0 .431-.092.842-.276 1.232a3.135 3.135 0 01-1.815 1.622c-.385.134-.8.201-1.246.201-.446 0-.86-.066-1.243-.199a3.17 3.17 0 01-1.034-.59 3.005 3.005 0 01-.787-1.026 2.884 2.884 0 010-2.48 3.17 3.17 0 011.82-1.616 3.773 3.773 0 011.244-.2c.446 0 .86.068 1.246.202.385.135.73.33 1.036.589.335.287.595.628.779 1.022.184.394.276.808.276 1.243zm3.585-2.874h-2.73v3.078c0 .987.256 1.709.766 2.166.51.456 1.316.685 2.417.685 1.098 0 1.9-.229 2.406-.685.507-.457.76-1.18.76-2.166v-3.078h-2.724v2.796c0 .412-.032.674-.096.785-.065.11-.18.165-.346.165-.173 0-.292-.058-.356-.174-.065-.116-.097-.375-.097-.776v-2.796zm7.89 2.045a.65.65 0 00-.517.226c-.13.151-.196.352-.196.602s.067.455.2.614a.639.639 0 00.513.237.64.64 0 00.514-.237c.132-.159.199-.363.199-.614 0-.25-.066-.45-.196-.602a.65.65 0 00-.517-.226zm3.366 3.67v-8.565H42.01v2.658c0 .235.004.433.014.594.009.16.023.297.04.411a2.393 2.393 0 00-.778-.737 1.958 1.958 0 00-.978-.246c-.667 0-1.217.28-1.652.84-.435.56-.652 1.283-.652 2.171 0 .932.212 1.68.635 2.243.424.564.98.846 1.669.846.38 0 .722-.088 1.028-.263.305-.175.578-.439.817-.793v.84h2.58z" fill="#000"/><path d="M19.448 33.142v-8.564h2.774v8.564h-2.774zm-1.18-4.88a2.942 2.942 0 00-.813-.568 2.091 2.091 0 00-.873-.188c-.475 0-.857.146-1.146.44-.29.292-.434.682-.434 1.168 0 .475.138.854.415 1.138.276.284.646.425 1.11.425.28 0 .565-.06.854-.18.289-.119.605-.31.947-.571l-.094 3.044a5.342 5.342 0 01-.95.29 4.814 4.814 0 01-2.088-.036 3.992 3.992 0 01-.99-.375c-.714-.413-1.255-.934-1.621-1.564-.367-.63-.55-1.354-.55-2.171 0-.604.104-1.164.312-1.68a4.02 4.02 0 01.91-1.365 4.025 4.025 0 011.394-.903 4.716 4.716 0 011.716-.307 4.62 4.62 0 011.9.41v2.994zm8.773 2.604a.615.615 0 01-.487.215.623.623 0 01-.494-.212c-.124-.142-.185-.331-.185-.567 0-.235.061-.424.185-.566a.623.623 0 01.494-.213c.203 0 .366.071.49.213.123.142.184.33.184.566 0 .232-.062.42-.188.564zm2.853-.564c0 .431-.092.842-.276 1.232a3.135 3.135 0 01-1.815 1.622c-.385.134-.8.201-1.246.201-.446 0-.86-.066-1.243-.199a3.17 3.17 0 01-1.034-.59 3.005 3.005 0 01-.787-1.026 2.884 2.884 0 010-2.48 3.17 3.17 0 011.82-1.616 3.773 3.773 0 011.244-.2c.446 0 .86.068 1.246.202.385.135.73.33 1.036.589.335.287.595.628.779 1.022.184.394.276.808.276 1.243zm3.585-2.874h-2.73v3.078c0 .987.256 1.709.766 2.166.51.456 1.316.685 2.417.685 1.098 0 1.9-.229 2.406-.685.507-.457.76-1.18.76-2.166v-3.078h-2.724v2.796c0 .412-.032.674-.096.785-.065.11-.18.165-.346.165-.173 0-.292-.058-.356-.174-.065-.116-.097-.375-.097-.776v-2.796zm7.89 2.045a.65.65 0 00-.517.226c-.13.151-.196.352-.196.602s.067.455.2.614a.639.639 0 00.513.237.64.64 0 00.514-.237c.132-.159.199-.363.199-.614 0-.25-.066-.45-.196-.602a.65.65 0 00-.517-.226zm3.366 3.67v-8.565H42.01v2.658c0 .235.004.433.014.594.009.16.023.297.04.411a2.393 2.393 0 00-.778-.737 1.958 1.958 0 00-.978-.246c-.667 0-1.217.28-1.652.84-.435.56-.652 1.283-.652 2.171 0 .932.212 1.68.635 2.243.424.564.98.846 1.669.846.38 0 .722-.088 1.028-.263.305-.175.578-.439.817-.793v.84h2.58z" fill="#fff"/></g></svg>