<svg width="48" height="48" viewBox="0 0 48 48" fill="none" xmlns="http://www.w3.org/2000/svg"><g opacity=".2"><path opacity=".2" d="M2.77 18.277c0-4.136 0-6.203.804-7.783a7.385 7.385 0 013.228-3.227c1.58-.805 3.647-.805 7.783-.805h18.83c4.136 0 6.204 0 7.784.805a7.385 7.385 0 013.227 3.227c.805 1.58.805 3.648.805 7.783v11.446c0 4.136 0 6.204-.805 7.784a7.385 7.385 0 01-3.227 3.227c-1.58.805-3.648.805-7.783.805H14.585c-4.136 0-6.204 0-7.783-.805a7.385 7.385 0 01-3.228-3.227c-.804-1.58-.804-3.648-.804-7.783V18.277z" fill="url(#chart_word_index_off0_linear)"/><path fill-rule="evenodd" clip-rule="evenodd" d="M22.531 25.608h1.853c0 .422.156.633.448.633a.449.449 0 00.377-.18.722.722 0 00.148-.448c0-.498-.26-.745-.776-.745h-.323V23.37h.229c.52 0 .78-.242.78-.717 0-.39-.14-.583-.408-.583-.27 0-.332.157-.363.448v.095h-1.84a2.3 2.3 0 01.692-1.557 2.202 2.202 0 011.587-.578c.579-.02 1.14.194 1.56.592.426.376.663.921.647 1.489a1.628 1.628 0 01-.852 1.48c.604.315.973.95.946 1.632a1.955 1.955 0 01-.673 1.538c-.477.408-1.09.62-1.718.592a2.377 2.377 0 01-1.668-.578 1.933 1.933 0 01-.641-1.511l-.005-.104zm-4.172 2.07h-4.844l1.924-2.566c.219-.3.402-.56.552-.78.128-.197.244-.4.35-.61.163-.317.25-.667.25-1.023a.786.786 0 00-.116-.448.372.372 0 00-.327-.17c-.3 0-.449.286-.449.856v.26h-1.843v-.256a2.408 2.408 0 01.655-1.74 2.242 2.242 0 011.69-.686 2.148 2.148 0 011.624.65c.43.441.661 1.04.637 1.655a3.187 3.187 0 01-.448 1.592 5.731 5.731 0 01-.566.817c-.264.316-.547.615-.847.896a6.9 6.9 0 00.49-.023c.125-.009.25-.018.375-.021.194-.006.389-.004.588-.002l.31.002-.005 1.596zm-6.074-.002h-1.902v-5.381h-.762V20.64h2.664v7.036zm7.498-.314c.188.176.44.268.697.251l.081.01c0 .52-.426 1.017-1.233 1.295l.336.897c1.292-.39 1.991-1.296 1.991-2.502 0-.969-.403-1.552-1.13-1.552a.96.96 0 00-1.036.92c0 .257.106.504.294.68zm10.716.314h1.897l-.009-1.426h.583v-1.51h-.574v-4.1h-2.332l-2.126 4.127v1.484H30.5v1.426zm.103-2.938v-1.61c0-.134 0-.305.03-.516l-.282.601c-.139.296-.278.57-.417.825-.139.256-.282.485-.421.7h1.09zm3.415.848l-.225 1.669h-.027c.585.35 1.252.54 1.933.547.71.023 1.398-.24 1.91-.731a2.41 2.41 0 00.768-1.821 2.139 2.139 0 00-.597-1.552 1.92 1.92 0 00-1.462-.628H36l.175-.776h2.009V20.64H34.68l-.547 4.103c.392-.157.81-.24 1.233-.246.294-.018.587.054.839.206.193.13.305.35.296.583a.709.709 0 01-.273.57c-.203.152-.452.23-.705.22a3.108 3.108 0 01-1.507-.49z" fill="url(#chart_word_index_off1_linear)"/></g><defs><linearGradient id="chart_word_index_off0_linear" x1="2" y1="23.25" x2="46.001" y2="23.25" gradientUnits="userSpaceOnUse"><stop stop-color="#fff" stop-opacity=".6"/><stop offset="1" stop-color="#fff"/></linearGradient><linearGradient id="chart_word_index_off1_linear" x1="9.1" y1="24.946" x2="38.898" y2="24.946" gradientUnits="userSpaceOnUse"><stop stop-color="#fff"/><stop offset="1" stop-color="#fff" stop-opacity=".6"/></linearGradient></defs></svg>