<svg width="48" height="48" viewBox="0 0 48 48" fill="none" xmlns="http://www.w3.org/2000/svg"><path d="M36 32.16c-1.52 0-2.88.6-3.92 1.54l-14.26-8.3c.1-.46.18-.92.18-1.4 0-.48-.08-.94-.18-1.4l14.1-8.22C33 15.38 34.42 16 36 16c3.32 0 6-2.68 6-6s-2.68-6-6-6-6 2.68-6 6c0 .48.08.94.18 1.4l-14.1 8.22C15 18.62 13.58 18 12 18c-3.32 0-6 2.68-6 6s2.68 6 6 6c1.58 0 3-.62 4.08-1.62l14.24 8.32c-.1.42-.16.86-.16 1.3 0 3.22 2.62 5.84 5.84 5.84 3.22 0 5.84-2.62 5.84-5.84 0-3.22-2.62-5.84-5.84-5.84zM36 8c1.1 0 2 .9 2 2s-.9 2-2 2-2-.9-2-2 .9-2 2-2zM12 26c-1.1 0-2-.9-2-2s.9-2 2-2 2 .9 2 2-.9 2-2 2zm24 14.04c-1.1 0-2-.9-2-2s.9-2 2-2 2 .9 2 2-.9 2-2 2z" fill="currentColor"/></svg>