<svg width="48" height="48" viewBox="0 0 48 48" fill="none" xmlns="http://www.w3.org/2000/svg"><path fill-rule="evenodd" clip-rule="evenodd" d="M24.313 31.42c1.543 0 2.916-.322 4.074-.939a68.897 68.897 0 011.6 2.24l.177.255 2.107-1.83-.14-.204a53.978 53.978 0 00-1.628-2.233c1.2-1.502 1.81-3.441 1.81-5.776 0-2.493-.681-4.54-2.068-6.088-1.46-1.644-3.448-2.445-5.932-2.445-2.505 0-4.496.8-5.934 2.47-1.386 1.57-2.044 3.593-2.044 6.063 0 2.448.66 4.471 2.045 6.042 1.437 1.622 3.426 2.446 5.933 2.446zm.198-5.634c.66.7 1.339 1.473 2.054 2.338-.643.298-1.387.456-2.252.456-1.574 0-2.776-.528-3.602-1.54-.813-1.001-1.224-2.353-1.224-4.107 0-1.778.41-3.129 1.224-4.13.85-1.036 2.03-1.563 3.602-1.563 1.58 0 2.757.488 3.58 1.475.814 1.001 1.247 2.397 1.247 4.218 0 1.314-.235 2.41-.663 3.284a65.38 65.38 0 00-2.054-2.277l-.193-.204-1.907 1.85.188.2zM37.78 14.71h-3.128v16.4h11.695v-2.774H37.78V14.711zM10.85 28.04c.607-.364.884-.795.884-1.335 0-.702-.414-1.29-1.334-1.75-.285-.142-1.28-.49-3.041-1.025h-.004a62.24 62.24 0 01-2.388-.804c-.607-.221-1.049-.406-1.304-.552l-.006-.003c-1.303-.782-1.954-1.937-1.954-3.433 0-1.49.622-2.685 1.896-3.536 1.168-.816 2.625-1.202 4.373-1.202 1.897 0 3.428.383 4.537 1.208 1.188.88 1.859 2.249 2.02 4.037l.027.303h-3.1l-.048-.216c-.213-.934-.607-1.575-1.114-1.946l-.006-.004c-.504-.387-1.316-.586-2.449-.586-.982 0-1.681.132-2.154.388l-.008.005a1.436 1.436 0 00-.622.554c-.131.224-.2.5-.2.84 0 .541.277 1.012.961 1.374.306.163 1.19.489 2.66.957 2.151.665 3.554 1.205 4.205 1.577l.005.003c1.45.865 2.199 2.082 2.199 3.656 0 1.504-.594 2.72-1.777 3.596l-.003.002c-1.173.844-2.813 1.273-4.867 1.273-1.983 0-3.578-.383-4.73-1.182-1.416-.991-2.178-2.545-2.293-4.628l-.016-.293h3.107l.035.237c.171 1.158.571 1.94 1.176 2.39.554.395 1.44.635 2.721.635 1.126 0 2.004-.195 2.612-.54z" fill="currentColor"/></svg>