<svg width="48" height="48" viewBox="0 0 48 48" fill="none" xmlns="http://www.w3.org/2000/svg">
<path opacity="0.8" d="M13.4927 21.1512L13.7559 19.1718C14.2902 19.5169 14.9054 19.7165 15.5405 19.7509C15.8395 19.7657 16.1341 19.6743 16.3722 19.4929C16.5817 19.3327 16.7028 19.0827 16.6986 18.8191C16.7096 18.5434 16.5759 18.2819 16.3459 18.1295C16.049 17.948 15.7036 17.8616 15.3562 17.882C14.8562 17.8903 14.362 17.9903 13.898 18.1768L14.5455 13.3179H18.7043V15.2762H16.3301L16.1511 16.208H16.5302C17.1881 16.1968 17.819 16.4691 18.2621 16.9555C18.7311 17.448 18.9833 18.1078 18.9623 18.7875C18.9825 19.6048 18.6531 20.3919 18.0568 20.9511C17.447 21.5283 16.6325 21.839 15.7932 21.8145C14.9807 21.8038 14.1861 21.5747 13.4927 21.1512Z" fill="#6899EF"/>
<path opacity="0.8" fill-rule="evenodd" clip-rule="evenodd" d="M25.0621 20.6677C25.6241 19.7325 25.8953 18.6514 25.8412 17.5618C25.8989 16.4354 25.6244 15.3169 25.0516 14.3453C24.592 13.6053 23.7745 13.1645 22.9038 13.1871C22.0321 13.1683 21.2124 13.6 20.7349 14.3295C20.1571 15.2568 19.8778 16.3391 19.9347 17.4301C19.87 18.5619 20.1489 19.6867 20.7349 20.6571C21.2215 21.4062 22.0636 21.8471 22.9564 21.8206C23.8139 21.84 24.6166 21.4005 25.0621 20.6677ZM22.8873 15.144C23.3716 15.144 23.6138 15.9494 23.6138 17.5603V17.5235C23.6415 18.1273 23.5812 18.7321 23.4348 19.3186C23.3137 19.6976 23.1242 19.8819 22.8715 19.8819C22.3977 19.8854 22.1608 19.0255 22.1608 17.3024C22.1608 15.8652 22.403 15.144 22.8873 15.144Z" fill="#6899EF"/>
<path opacity="0.8" fill-rule="evenodd" clip-rule="evenodd" d="M27.9978 21.9354L27.1292 21.3142L33.0252 12.9756L33.9254 13.602L27.9978 21.9354ZM30.1691 15.2181C30.1918 15.7544 30.0177 16.2805 29.6795 16.6973C29.3632 17.0704 28.8945 17.2796 28.4056 17.2659C27.8942 17.2896 27.3986 17.0852 27.0526 16.7079C26.6926 16.2868 26.5046 15.7454 26.5262 15.1917C26.4988 14.6619 26.6759 14.1417 27.0211 13.7388C27.3695 13.378 27.8573 13.1859 28.3582 13.2124C28.8517 13.1949 29.3269 13.3997 29.6532 13.7704C29.9992 14.172 30.1831 14.6881 30.1691 15.2181ZM28.3709 14.4179C28.5972 14.4179 28.7078 14.6969 28.7078 15.2549C28.7078 15.7813 28.613 16.0498 28.3761 16.0498C28.1393 16.0498 28.0234 15.7761 28.0234 15.2339C28.0234 14.6916 28.1445 14.4179 28.3709 14.4179ZM34.4924 19.7239C34.5151 20.2602 34.341 20.7863 34.0028 21.2032C33.6877 21.5748 33.2212 21.7838 32.7341 21.7717C32.2265 21.7916 31.7357 21.5876 31.3917 21.2137C31.0298 20.7937 30.8415 20.2515 30.8653 19.6976C30.8471 19.1635 31.0356 18.6431 31.3917 18.2446C31.7381 17.884 32.2242 17.6919 32.7236 17.7182C33.2155 17.6939 33.6925 17.8908 34.0239 18.2552C34.3597 18.6684 34.5287 19.1923 34.4976 19.7239H34.4924ZM32.699 18.9229C32.9254 18.9229 33.0359 19.2019 33.0359 19.7651H33.0412C33.0412 20.2968 32.9412 20.56 32.7043 20.56C32.4674 20.56 32.3516 20.2916 32.3516 19.7441C32.3516 19.1966 32.4726 18.9229 32.699 18.9229Z" fill="#6899EF"/>
<path opacity="0.4" d="M1.84766 31.3847C1.84766 29.3455 3.50076 27.6924 5.53996 27.6924H42.463C44.5023 27.6924 46.1553 29.3455 46.1553 31.3847C46.1553 33.4239 44.5022 35.077 42.463 35.077H5.53996C3.50075 35.077 1.84766 33.4239 1.84766 31.3847Z" fill="#6899EF"/>
<path d="M1.84766 31.3847C1.84766 29.3455 3.50076 27.6924 5.53996 27.6924H25.8477C27.8869 27.6924 29.54 29.3455 29.54 31.3847C29.54 33.4239 27.8869 35.077 25.8477 35.077H5.53996C3.50076 35.077 1.84766 33.4239 1.84766 31.3847Z" fill="#6899EF"/>
</svg>
