<svg width="48" height="48" viewBox="0 0 48 48" fill="none" xmlns="http://www.w3.org/2000/svg">
<g filter="url(#filter0_dd_1435:17932)">
<path d="M6 17.5C6 16.1193 7.11929 15 8.5 15H39.5C40.8807 15 42 16.1193 42 17.5V35.5C42 36.8807 40.8807 38 39.5 38H8.5C7.11929 38 6 36.8807 6 35.5V17.5Z" fill="#F0F1F3"/>
</g>
<path fill-rule="evenodd" clip-rule="evenodd" d="M5.59961 17.5001C5.59961 15.8985 6.89798 14.6001 8.49961 14.6001H39.4996C41.1012 14.6001 42.3996 15.8985 42.3996 17.5001V35.5001C42.3996 37.1017 41.1012 38.4001 39.4996 38.4001H8.49961C6.89798 38.4001 5.59961 37.1017 5.59961 35.5001V17.5001ZM8.49961 15.4001C7.33981 15.4001 6.39961 16.3403 6.39961 17.5001V35.5001C6.39961 36.6599 7.33981 37.6001 8.49961 37.6001H39.4996C40.6594 37.6001 41.5996 36.6599 41.5996 35.5001V17.5001C41.5996 16.3403 40.6594 15.4001 39.4996 15.4001H8.49961Z" fill="#C7CAD3"/>
<rect x="11" y="12" width="26" height="1.6" rx="0.8" fill="#E3E6EF"/>
<rect x="15" y="10" width="18" height="1" rx="0.5" fill="#E7EBF5"/>
<rect x="24.25" y="18.25" width="14.5" height="9.5" rx="1.75" fill="#F0F1F3" stroke="#E0E2E7" stroke-width="0.5"/>
<rect x="25" y="32" width="1.5" height="3" rx="0.75" fill="#80A5DB"/>
<rect x="28" y="31" width="1.5" height="4" rx="0.75" fill="#80A5DB"/>
<rect x="31" y="30" width="1.5" height="5" rx="0.75" fill="#80A5DB"/>
<rect x="34" y="32" width="1.5" height="3" rx="0.75" fill="#80A5DB"/>
<rect x="37" y="31" width="1.5" height="4" rx="0.75" fill="#80A5DB"/>
<rect x="9" y="18" width="13" height="17" rx="2" fill="#E8EAEE"/>
<rect x="12" y="32" width="8" height="1" rx="0.5" fill="#D1D5DB"/>
<rect x="15" y="30" width="5" height="1" rx="0.5" fill="#D1D5DB"/>
<g clip-path="url(#clip0_1435:17932)">
<g filter="url(#filter1_f_1435:17932)">
<path d="M18.7017 23.7835C18.8615 23.7835 19.0249 23.758 19.1919 23.7069C19.3589 23.6558 19.507 23.5883 19.6361 23.5044C19.7674 23.4168 19.863 23.322 19.923 23.2198C19.9829 23.1176 19.9986 23.0228 19.9701 22.9352C19.9415 22.8477 19.8737 22.7783 19.7667 22.7272C19.6596 22.6762 19.5262 22.6506 19.3663 22.6506C19.2065 22.6506 19.0431 22.6762 18.8761 22.7272C18.7148 22.7783 18.5685 22.8477 18.4372 22.9352C18.3059 23.0228 18.2103 23.1176 18.1504 23.2198C18.0583 23.3767 18.0658 23.5099 18.1729 23.6193C18.2799 23.7288 18.4562 23.7835 18.7017 23.7835ZM19.9668 21.6272C20.4235 21.6272 20.8014 21.6983 21.1004 21.8406C21.3937 21.9829 21.581 22.1745 21.6624 22.4153C21.7416 22.6597 21.6956 22.9279 21.5243 23.2198C21.3937 23.4424 21.1583 23.6978 20.8179 23.986C20.526 24.2305 20.1653 24.495 19.7357 24.7796C19.3861 25.0058 18.9997 25.2411 18.5765 25.4856C18.2818 25.6571 17.9778 25.8249 17.6645 25.9891L17.2952 26.1806L17.1507 25.9891C17.0301 25.8249 16.9231 25.6571 16.8296 25.4856C16.6933 25.2411 16.583 25.0058 16.4988 24.7796C16.4031 24.495 16.3528 24.2305 16.3477 23.986C16.3457 23.6978 16.4099 23.4424 16.5404 23.2198C16.7117 22.9279 16.9804 22.6597 17.3464 22.4153C17.7104 22.1745 18.1225 21.9829 18.5827 21.8406C19.0487 21.6983 19.5101 21.6272 19.9668 21.6272Z" fill="url(#paint0_linear_1435:17932)" fill-opacity="0.4"/>
</g>
<g filter="url(#filter2_ii_1435:17932)">
<path d="M17.0267 22.8048C17.1728 22.8048 17.3084 22.7686 17.4336 22.6962C17.5587 22.6239 17.6578 22.5283 17.7309 22.4094C17.8039 22.2853 17.8404 22.1509 17.8404 22.0062C17.8404 21.8615 17.8039 21.7271 17.7309 21.603C17.6578 21.479 17.5587 21.3808 17.4336 21.3084C17.3084 21.236 17.1728 21.1999 17.0267 21.1999C16.8807 21.1999 16.7451 21.236 16.6199 21.3084C16.4999 21.3808 16.4034 21.479 16.3304 21.603C16.2574 21.7271 16.2209 21.8615 16.2209 22.0062C16.2209 22.2285 16.2991 22.4171 16.4556 22.5722C16.6121 22.7273 16.8024 22.8048 17.0267 22.8048ZM17.0267 19.75C17.444 19.75 17.8274 19.8508 18.1768 20.0524C18.5211 20.254 18.7949 20.5253 18.9983 20.8665C19.2017 21.2128 19.3034 21.5927 19.3034 22.0062C19.3034 22.3215 19.2252 22.6833 19.0687 23.0917C18.9331 23.438 18.7454 23.8127 18.5054 24.2159C18.3072 24.5364 18.0803 24.8697 17.8248 25.2161C17.6474 25.459 17.4596 25.6968 17.2614 25.9294L17.0267 26.2007L16.792 25.9294C16.5938 25.6968 16.406 25.459 16.2287 25.2161C15.9731 24.8697 15.7462 24.5364 15.548 24.2159C15.3081 23.8127 15.1203 23.438 14.9847 23.0917C14.8282 22.6833 14.75 22.3215 14.75 22.0062C14.75 21.5927 14.8517 21.2128 15.0551 20.8665C15.2585 20.5253 15.5324 20.254 15.8766 20.0524C16.2261 19.8508 16.6095 19.75 17.0267 19.75Z" fill="#80A5DB"/>
</g>
</g>
<path fill-rule="evenodd" clip-rule="evenodd" d="M32.8539 20.203C32.5304 20.069 32.1836 20 31.8334 20V22.6666L34.5 22.6666C34.5 22.3164 34.4311 21.9697 34.2971 21.6462C34.163 21.3226 33.9666 21.0287 33.719 20.781C33.4714 20.5334 33.1774 20.337 32.8539 20.203ZM33.3838 24.8149C33.6769 24.3764 33.8333 23.8608 33.8333 23.3334H31.1666V20.6668C30.6392 20.6668 30.1237 20.8232 29.6851 21.1162C29.2466 21.4092 28.9048 21.8257 28.703 22.3129C28.5012 22.8002 28.4483 23.3364 28.5512 23.8536C28.6541 24.3709 28.9081 24.8461 29.281 25.219C29.654 25.5919 30.1291 25.8459 30.6464 25.9488C31.1637 26.0517 31.6998 25.9989 32.1871 25.7971C32.6744 25.5952 33.0908 25.2534 33.3838 24.8149Z" fill="#80A5DB"/>
<defs>
<filter id="filter0_dd_1435:17932" x="6" y="15" width="36" height="25.079" filterUnits="userSpaceOnUse" color-interpolation-filters="sRGB">
<feFlood flood-opacity="0" result="BackgroundImageFix"/>
<feColorMatrix in="SourceAlpha" type="matrix" values="0 0 0 0 0 0 0 0 0 0 0 0 0 0 0 0 0 0 127 0" result="hardAlpha"/>
<feMorphology radius="3.684" operator="erode" in="SourceAlpha" result="effect1_dropShadow_1435:17932"/>
<feOffset dy="0.920999"/>
<feGaussianBlur stdDeviation="1"/>
<feColorMatrix type="matrix" values="0 0 0 0 0.027451 0 0 0 0 0.0745098 0 0 0 0 0.152941 0 0 0 0.06 0"/>
<feBlend mode="normal" in2="BackgroundImageFix" result="effect1_dropShadow_1435:17932"/>
<feColorMatrix in="SourceAlpha" type="matrix" values="0 0 0 0 0 0 0 0 0 0 0 0 0 0 0 0 0 0 127 0" result="hardAlpha"/>
<feMorphology radius="3.684" operator="erode" in="SourceAlpha" result="effect2_dropShadow_1435:17932"/>
<feOffset dy="2.763"/>
<feGaussianBlur stdDeviation="1.5"/>
<feColorMatrix type="matrix" values="0 0 0 0 0.027451 0 0 0 0 0.0745098 0 0 0 0 0.152941 0 0 0 0.05 0"/>
<feBlend mode="normal" in2="effect1_dropShadow_1435:17932" result="effect2_dropShadow_1435:17932"/>
<feBlend mode="normal" in="SourceGraphic" in2="effect2_dropShadow_1435:17932" result="shape"/>
</filter>
<filter id="filter1_f_1435:17932" x="15.8477" y="21.1272" width="6.35254" height="5.55347" filterUnits="userSpaceOnUse" color-interpolation-filters="sRGB">
<feFlood flood-opacity="0" result="BackgroundImageFix"/>
<feBlend mode="normal" in="SourceGraphic" in2="BackgroundImageFix" result="shape"/>
<feGaussianBlur stdDeviation="0.25" result="effect1_foregroundBlur_1435:17932"/>
</filter>
<filter id="filter2_ii_1435:17932" x="2.75" y="15.75" width="28.5537" height="14.4507" filterUnits="userSpaceOnUse" color-interpolation-filters="sRGB">
<feFlood flood-opacity="0" result="BackgroundImageFix"/>
<feBlend mode="normal" in="SourceGraphic" in2="BackgroundImageFix" result="shape"/>
<feColorMatrix in="SourceAlpha" type="matrix" values="0 0 0 0 0 0 0 0 0 0 0 0 0 0 0 0 0 0 127 0" result="hardAlpha"/>
<feOffset dx="-12" dy="-4"/>
<feGaussianBlur stdDeviation="8"/>
<feComposite in2="hardAlpha" operator="arithmetic" k2="-1" k3="1"/>
<feColorMatrix type="matrix" values="0 0 0 0 0.596078 0 0 0 0 0.627451 0 0 0 0 0.74902 0 0 0 0.1 0"/>
<feBlend mode="normal" in2="shape" result="effect1_innerShadow_1435:17932"/>
<feColorMatrix in="SourceAlpha" type="matrix" values="0 0 0 0 0 0 0 0 0 0 0 0 0 0 0 0 0 0 127 0" result="hardAlpha"/>
<feOffset dx="12" dy="4"/>
<feGaussianBlur stdDeviation="8"/>
<feComposite in2="hardAlpha" operator="arithmetic" k2="-1" k3="1"/>
<feColorMatrix type="matrix" values="0 0 0 0 0.596078 0 0 0 0 0.627451 0 0 0 0 0.74902 0 0 0 0.1 0"/>
<feBlend mode="normal" in2="effect1_innerShadow_1435:17932" result="effect2_innerShadow_1435:17932"/>
</filter>
<linearGradient id="paint0_linear_1435:17932" x1="20.3217" y1="21.6272" x2="18.2051" y2="26.4603" gradientUnits="userSpaceOnUse">
<stop stop-color="#4E556C" stop-opacity="0.11"/>
<stop offset="1" stop-color="#2D303A" stop-opacity="0.54"/>
</linearGradient>
<clipPath id="clip0_1435:17932">
<rect width="8" height="8" fill="white" transform="translate(14 19)"/>
</clipPath>
</defs>
</svg>
