<svg width="41" height="40" viewBox="0 0 41 40" fill="none" xmlns="http://www.w3.org/2000/svg">
<path d="M38.6601 10.64C37.0382 7.60892 34.6703 5.04139 31.7801 3.18001C29.1645 1.49737 26.1926 0.447893 23.1004 0.11497C20.0082 -0.217953 16.881 0.17485 13.9672 1.26217C11.0534 2.34949 8.43334 4.10136 6.31516 6.37859C4.19698 8.65583 2.63907 11.3957 1.76521 14.3804C0.891339 17.3652 0.725598 20.5126 1.28115 23.5727C1.83671 26.6327 3.09824 29.521 4.96554 32.0081C6.83283 34.4952 9.25442 36.5126 12.0379 37.8999C14.8214 39.2873 17.8901 40.0063 21.0001 40H21.5801C24.9782 39.8997 28.2947 38.9349 31.2163 37.1967C34.1379 35.4584 36.5682 33.0042 38.2777 30.0656C39.9872 27.1271 40.9194 23.8013 40.9863 20.4024C41.0532 17.0034 40.2526 13.6435 38.6601 10.64ZM19.0001 35.86C15.1564 35.3482 11.6294 33.4579 9.07481 30.5406C6.52027 27.6233 5.11208 23.8776 5.11208 20C5.11208 16.1224 6.52027 12.3767 9.07481 9.45941C11.6294 6.54214 15.1564 4.65185 19.0001 4.14001V35.86ZM23.0001 4.14001C24.7291 4.36119 26.4109 4.86099 27.9801 5.62001L23.0001 14.24V4.14001ZM23.0001 22.14L31.3401 7.80001C32.5698 8.85591 33.6348 10.0895 34.5001 11.46L23.0001 31.38V22.14ZM25.3001 35.3L36.4801 16C36.8182 17.3067 36.9929 18.6503 37.0001 20C36.9976 23.492 35.8528 26.8873 33.7403 29.6679C31.6278 32.4484 28.6636 34.4615 25.3001 35.4V35.3Z" fill="currentColor"/>
</svg>
