<svg width="48" height="48" viewBox="0 0 48 48" fill="none" xmlns="http://www.w3.org/2000/svg"><path fill-rule="evenodd" clip-rule="evenodd" d="M31.51 6.783a5.554 5.554 0 00-3.927 1.627l-17 17A9.255 9.255 0 1023.672 38.5l17-17a1.85 1.85 0 112.616 2.616l-17 17A12.955 12.955 0 117.966 22.794l17-17A9.254 9.254 0 0138.054 18.88l-17.019 17v.001a5.552 5.552 0 01-7.851-7.852L28.89 12.342a1.85 1.85 0 012.615 2.617L15.799 30.645v.001a1.852 1.852 0 002.62 2.618l17.018-17a5.554 5.554 0 00-3.927-9.48z" fill="currentColor"/></svg>