<svg width="48" height="48" viewBox="0 0 48 48" fill="none" xmlns="http://www.w3.org/2000/svg"><path fill-rule="evenodd" clip-rule="evenodd" d="M19.199 6.931V22.69h6.304V6.93H19.2zm-1.6-3.2h9.505a1.6 1.6 0 011.6 1.6V24.29a1.6 1.6 0 01-1.6 1.6h-9.505a1.6 1.6 0 01-1.6-1.6V5.33a1.6 1.6 0 011.6-1.6zm14.066 6.935a1.6 1.6 0 011.6-1.6h9.407a1.6 1.6 0 011.6 1.6v32a1.6 1.6 0 01-1.6 1.6h-9.407a1.6 1.6 0 010-3.2h7.807v-28.8h-7.807a1.6 1.6 0 01-1.6-1.6zM4.207 9.535a1.6 1.6 0 011.131-.469h6.222a1.6 1.6 0 110 3.2H6.938v28.8h4.622a1.6 1.6 0 110 3.2H5.338a1.6 1.6 0 01-1.6-1.6v-32a1.6 1.6 0 01.469-1.131zm18.32 19.936a1.6 1.6 0 011.6 1.6v7.817l3.3-3.3a1.6 1.6 0 112.263 2.262l-6.032 6.032a1.6 1.6 0 01-2.263 0l-6.032-6.032a1.6 1.6 0 112.263-2.262l3.3 3.3v-7.817a1.6 1.6 0 011.6-1.6z" fill="currentColor"/></svg>