<svg width="48" height="48" viewBox="0 0 48 48" fill="none" xmlns="http://www.w3.org/2000/svg"><path fill-rule="evenodd" clip-rule="evenodd" d="M15.718 37.2c7.622 0 13.8-6.178 13.8-13.8 0-7.62-6.178-13.8-13.8-13.8-7.622 0-13.8 6.18-13.8 13.8 0 7.622 6.178 13.8 13.8 13.8z" fill="#1A4E96"/><path fill-rule="evenodd" clip-rule="evenodd" d="M.719 23.4c0-8.284 6.715-15 15-15 8.284 0 15 6.716 15 15 0 8.285-6.716 15-15 15-8.285 0-15-6.715-15-15zm15-12.6c-6.959 0-12.6 5.642-12.6 12.6 0 6.96 5.641 12.6 12.6 12.6 6.958 0 12.6-5.64 12.6-12.6 0-6.958-5.642-12.6-12.6-12.6z" fill="#676F8F"/><path fill-rule="evenodd" clip-rule="evenodd" d="M17.52 23.4c0-8.284 6.715-15 15-15 8.284 0 15 6.716 15 15 0 8.285-6.716 15-15 15-8.285 0-15-6.715-15-15zm15-12.6c-6.96 0-12.6 5.642-12.6 12.6 0 6.96 5.64 12.6 12.6 12.6 6.958 0 12.6-5.64 12.6-12.6 0-6.958-5.642-12.6-12.6-12.6z" fill="#676F8F"/></svg>