<svg width="48" height="48" viewBox="0 0 48 48" fill="none" xmlns="http://www.w3.org/2000/svg"><path d="M24.052 2v22m0 0l19.053 11M24.052 24L5 35" stroke="url(#lab-model-thumbnail-paint0_radial)" stroke-width=".8"/><circle cx="5" cy="13" r="2" fill="url(#lab-model-thumbnail-paint1_linear)"/><circle cx="24" cy="2" r="2" fill="url(#lab-model-thumbnail-paint2_linear)"/><circle cx="43" cy="13" r="2" fill="url(#lab-model-thumbnail-paint3_linear)"/><circle cx="24" cy="46" r="2" fill="url(#lab-model-thumbnail-paint4_linear)"/><circle cx="5" cy="35" r="2" fill="url(#lab-model-thumbnail-paint5_linear)"/><circle cx="24" cy="24" r="13" fill="url(#lab-model-thumbnail-paint6_linear)"/><path d="M24 2l19.053 11v22L24 46 4.947 35V13L24 2z" stroke="url(#lab-model-thumbnail-paint7_radial)" stroke-width=".8"/><path d="M43.105 13L24.052 24m0 22V24M5 13l19.052 11" stroke="url(#lab-model-thumbnail-paint8_radial)" stroke-width=".8"/><circle cx="43" cy="35" r="2" fill="url(#lab-model-thumbnail-paint9_linear)"/><defs><linearGradient id="lab-model-thumbnail-paint1_linear" x1="6.66" y1="11.997" x2="3.233" y2="13.965" gradientUnits="userSpaceOnUse"><stop stop-color="#5C6074"/><stop offset="1" stop-color="#C4C4C4" stop-opacity="0"/></linearGradient><linearGradient id="lab-model-thumbnail-paint2_linear" x1="25.66" y1=".997" x2="22.233" y2="2.965" gradientUnits="userSpaceOnUse"><stop stop-color="#5C6074"/><stop offset="1" stop-color="#C4C4C4" stop-opacity="0"/></linearGradient><linearGradient id="lab-model-thumbnail-paint3_linear" x1="44.66" y1="11.997" x2="41.233" y2="13.965" gradientUnits="userSpaceOnUse"><stop stop-color="#5C6074"/><stop offset="1" stop-color="#C4C4C4" stop-opacity="0"/></linearGradient><linearGradient id="lab-model-thumbnail-paint4_linear" x1="25.66" y1="44.997" x2="22.233" y2="46.965" gradientUnits="userSpaceOnUse"><stop stop-color="#5C6074"/><stop offset="1" stop-color="#C4C4C4" stop-opacity="0"/></linearGradient><linearGradient id="lab-model-thumbnail-paint5_linear" x1="6.66" y1="33.997" x2="3.233" y2="35.965" gradientUnits="userSpaceOnUse"><stop stop-color="#5C6074"/><stop offset="1" stop-color="#C4C4C4" stop-opacity="0"/></linearGradient><linearGradient id="lab-model-thumbnail-paint6_linear" x1="35.5" y1="18" x2="12.5" y2="31" gradientUnits="userSpaceOnUse"><stop stop-color="#5C6074"/><stop offset="1" stop-color="#262A3B" stop-opacity=".75"/></linearGradient><linearGradient id="lab-model-thumbnail-paint9_linear" x1="44.66" y1="33.997" x2="41.233" y2="35.965" gradientUnits="userSpaceOnUse"><stop stop-color="#5C6074"/><stop offset="1" stop-color="#C4C4C4" stop-opacity="0"/></linearGradient><radialGradient id="lab-model-thumbnail-paint0_radial" cx="0" cy="0" r="1" gradientUnits="userSpaceOnUse" gradientTransform="matrix(19.0522 11.00023 -10.95118 18.96724 24.052 23.999)"><stop stop-color="#5C6074"/><stop offset=".797" stop-color="#5C6074" stop-opacity=".12"/><stop offset="1" stop-color="#5C6074" stop-opacity="0"/></radialGradient><radialGradient id="lab-model-thumbnail-paint7_radial" cx="0" cy="0" r="1" gradientUnits="userSpaceOnUse" gradientTransform="matrix(-.00038 21.9998 -21.9017 -.00038 24.001 24)"><stop stop-color="#fff"/><stop offset="1" stop-color="#fff" stop-opacity="0"/></radialGradient><radialGradient id="lab-model-thumbnail-paint8_radial" cx="0" cy="0" r="1" gradientUnits="userSpaceOnUse" gradientTransform="matrix(-.0005 21.9998 -21.9017 -.0005 24.053 24)"><stop stop-color="#5C6074"/><stop offset="1" stop-color="#fff" stop-opacity="0"/></radialGradient></defs></svg>