<svg width="48" height="48" viewBox="0 0 48 48" fill="none" xmlns="http://www.w3.org/2000/svg">
<path opacity="0.8" d="M3.69226 41.0769C3.69226 40.822 3.8989 40.6154 4.1538 40.6154H43.8461C44.101 40.6154 44.3076 40.822 44.3076 41.0769C44.3076 41.3318 44.101 41.5384 43.8461 41.5384H4.1538C3.8989 41.5384 3.69226 41.3318 3.69226 41.0769Z" fill="#A7AFB7"/>
<path opacity="0.2" d="M7.38281 21.2311C7.38281 19.7017 8.62264 18.4619 10.152 18.4619C11.6814 18.4619 12.9213 19.7017 12.9213 21.2311V34.1542C12.9213 35.6836 11.6814 36.9235 10.152 36.9235C8.62264 36.9235 7.38281 35.6836 7.38281 34.1542V21.2311Z" fill="#A7AFB7"/>
<path opacity="0.2" d="M25.8477 15.6921C25.8477 14.1627 27.0875 12.9229 28.6169 12.9229C30.1463 12.9229 31.3861 14.1627 31.3861 15.6921V34.1536C31.3861 35.683 30.1463 36.9229 28.6169 36.9229C27.0875 36.9229 25.8477 35.683 25.8477 34.1536V15.6921Z" fill="#A7AFB7"/>
<path d="M22.1524 34.1536C22.1524 35.683 20.9125 36.9229 19.3831 36.9229C17.8537 36.9229 16.6139 35.683 16.6139 34.1536L16.6139 10.1536C16.6139 8.62423 17.8537 7.3844 19.3831 7.3844C20.9125 7.3844 22.1524 8.62423 22.1524 10.1536L22.1524 34.1536Z" fill="#A7AFB7"/>
<path opacity="0.2" d="M40.6172 34.1536C40.6172 35.683 39.3774 36.9229 37.848 36.9229C36.3186 36.9229 35.0787 35.683 35.0787 34.1536L35.0787 28.6152C35.0787 27.0858 36.3186 25.8459 37.848 25.8459C39.3774 25.8459 40.6172 27.0858 40.6172 28.6152L40.6172 34.1536Z" fill="#A7AFB7"/>
</svg>
