<svg width="48" height="48" viewBox="0 0 48 48" fill="none" xmlns="http://www.w3.org/2000/svg">
<path fill-rule="evenodd" clip-rule="evenodd" d="M15.875 9.35002C14.9638 9.35002 14.225 10.0888 14.225 11V37C14.225 37.9113 14.9638 38.65 15.875 38.65H32.125C33.0363 38.65 33.775 37.9113 33.775 37V11C33.775 10.0888 33.0363 9.35002 32.125 9.35002H15.875ZM11.025 11C11.025 8.32144 13.1964 6.15002 15.875 6.15002H32.125C34.8036 6.15002 36.975 8.32144 36.975 11V37C36.975 39.6786 34.8036 41.85 32.125 41.85H15.875C13.1964 41.85 11.025 39.6786 11.025 37V11Z" fill="#366ACB"/>
<path d="M25.625 35.375C25.625 36.2725 24.8975 37 24 37C23.1025 37 22.375 36.2725 22.375 35.375C22.375 34.4775 23.1025 33.75 24 33.75C24.8975 33.75 25.625 34.4775 25.625 35.375Z" fill="#366ACB"/>
<path opacity="0.4" d="M17.5 14.25C17.5 13.3525 18.2275 12.625 19.125 12.625H28.875C29.7725 12.625 30.5 13.3525 30.5 14.25V28.875C30.5 29.7725 29.7725 30.5 28.875 30.5H19.125C18.2275 30.5 17.5 29.7725 17.5 28.875V14.25Z" fill="#366ACB"/>
</svg>
