<svg width="48" height="48" viewBox="0 0 48 48" fill="none" xmlns="http://www.w3.org/2000/svg"><path fill-rule="evenodd" clip-rule="evenodd" d="M26.495 3.973l18.95 36.256c1.379 2.639.117 4.771-2.813 4.771H5.371c-2.932 0-4.19-2.136-2.813-4.771l18.95-36.256c1.379-2.64 3.61-2.636 4.987 0zm-2.494 27.029c1.468 0 2.66-1.207 2.66-2.694v-13.47c0-1.488-1.192-2.695-2.66-2.695-1.468 0-2.66 1.207-2.66 2.694v13.47c0 1.488 1.192 2.695 2.66 2.695zm0 8.082c1.468 0 2.66-1.207 2.66-2.694 0-1.487-1.192-2.694-2.66-2.694-1.468 0-2.66 1.207-2.66 2.694 0 1.487 1.192 2.694 2.66 2.694z" fill="currentColor"/></svg>