<svg width="48" height="48" viewBox="0 0 48 48" fill="none" xmlns="http://www.w3.org/2000/svg"><path fill-rule="evenodd" clip-rule="evenodd" d="M24 6.002c-9.94 0-18 8.059-18 18s8.06 18 18 18c9.942 0 18-8.059 18-18s-8.058-18-18-18zm-22 18c0-12.15 9.85-22 22-22s22 9.85 22 22-9.85 22-22 22-22-9.85-22-22z" fill="currentColor"/><path fill-rule="evenodd" clip-rule="evenodd" d="M19.056 14.239a2 2 0 012.053.099l12 8a2 2 0 010 3.328l-12 8a2 2 0 01-3.11-1.664v-16a2 2 0 011.057-1.763zm2.944 5.5v8.526l6.394-4.263L22 19.739z" fill="currentColor"/></svg>