<svg width="48" height="48" viewBox="0 0 48 48" fill="none" xmlns="http://www.w3.org/2000/svg"><rect x="3.15" y="9.15" width="41.7" height="29.7" rx="1.05" fill="#414961" stroke="#495169" stroke-width=".3"/><rect x="3.15" y="9.15" width="41.7" height="29.7" rx="1.05" fill="#404964" stroke="#495169" stroke-width=".3"/><rect x="9.3" y="14.101" width="11.4" height="13.5" rx=".3" fill="#545C78" stroke="#575F7A" stroke-width=".6"/><path d="M8.402 29.25a.15.15 0 100 .3v-.3zm13.2.3a.15.15 0 100-.3v.3zm-12.906 0a.15.15 0 000-.3v.3zm.88-.3a.15.15 0 100 .3v-.3zm.586.3a.15.15 0 100-.3v.3zm.88-.3a.15.15 0 100 .3v-.3zm.587.3a.15.15 0 100-.3v.3zm.88-.3a.15.15 0 100 .3v-.3zm.587.3a.15.15 0 000-.3v.3zm.88-.3a.15.15 0 100 .3v-.3zm.586.3a.15.15 0 100-.3v.3zm.88-.3a.15.15 0 100 .3v-.3zm.587.3a.15.15 0 100-.3v.3zm.88-.3a.15.15 0 100 .3v-.3zm.587.3a.15.15 0 000-.3v.3zm.88-.3a.15.15 0 100 .3v-.3zm.586.3a.15.15 0 100-.3v.3zm.88-.3a.15.15 0 100 .3v-.3zm.587.3a.15.15 0 100-.3v.3zm.88-.3a.15.15 0 100 .3v-.3zm-12.907.3h.294v-.3h-.294v.3zm1.174 0h.586v-.3h-.586v.3zm1.466 0h.587v-.3h-.587v.3zm1.467 0h.587v-.3h-.587v.3zm1.467 0h.586v-.3h-.586v.3zm1.466 0h.587v-.3h-.587v.3zm1.467 0h.587v-.3h-.587v.3zm1.467 0h.586v-.3h-.586v.3zm1.466 0h.587v-.3h-.587v.3zm1.467 0h.293v-.3h-.293v.3zM8.402 12.15a.15.15 0 100 .3v-.3zm13.2.3a.15.15 0 100-.3v.3zm-12.906 0a.15.15 0 000-.3v.3zm.88-.3a.15.15 0 100 .3v-.3zm.586.3a.15.15 0 100-.3v.3zm.88-.3a.15.15 0 100 .3v-.3zm.587.3a.15.15 0 100-.3v.3zm.88-.3a.15.15 0 100 .3v-.3zm.587.3a.15.15 0 000-.3v.3zm.88-.3a.15.15 0 100 .3v-.3zm.586.3a.15.15 0 100-.3v.3zm.88-.3a.15.15 0 100 .3v-.3zm.587.3a.15.15 0 100-.3v.3zm.88-.3a.15.15 0 100 .3v-.3zm.587.3a.15.15 0 000-.3v.3zm.88-.3a.15.15 0 100 .3v-.3zm.586.3a.15.15 0 100-.3v.3zm.88-.3a.15.15 0 100 .3v-.3zm.587.3a.15.15 0 100-.3v.3zm.88-.3a.15.15 0 100 .3v-.3zm-12.907.3h.294v-.3h-.294v.3zm1.174 0h.586v-.3h-.586v.3zm1.466 0h.587v-.3h-.587v.3zm1.467 0h.587v-.3h-.587v.3zm1.467 0h.586v-.3h-.586v.3zm1.466 0h.587v-.3h-.587v.3zm1.467 0h.587v-.3h-.587v.3zm1.467 0h.586v-.3h-.586v.3zm1.466 0h.587v-.3h-.587v.3zm1.467 0h.293v-.3h-.293v.3zM7.35 28.5a.15.15 0 00.3 0h-.3zm.3-15.3a.15.15 0 00-.3 0h.3zm0 14.994a.15.15 0 00-.3 0h.3zm-.3-.918a.15.15 0 00.3 0h-.3zm.3-.612a.15.15 0 00-.3 0h.3zm-.3-.918a.15.15 0 00.3 0h-.3zm.3-.612a.15.15 0 00-.3 0h.3zm-.3-.918a.15.15 0 00.3 0h-.3zm.3-.612a.15.15 0 00-.3 0h.3zm-.3-.918a.15.15 0 00.3 0h-.3zm.3-.612a.15.15 0 00-.3 0h.3zm-.3-.918a.15.15 0 00.3 0h-.3zm.3-.612a.15.15 0 00-.3 0h.3zm-.3-.918a.15.15 0 00.3 0h-.3zm.3-.612a.15.15 0 00-.3 0h.3zm-.3-.918a.15.15 0 00.3 0h-.3zm.3-.612a.15.15 0 00-.3 0h.3zm-.3-.918a.15.15 0 00.3 0h-.3zm.3-.612a.15.15 0 00-.3 0h.3zm-.3-.918a.15.15 0 00.3 0h-.3zm.3-.612a.15.15 0 00-.3 0h.3zm-.3-.918a.15.15 0 00.3 0h-.3zm.3 14.994v-.306h-.3v.306h.3zm0-1.224v-.612h-.3v.612h.3zm0-1.53v-.612h-.3v.612h.3zm0-1.53v-.612h-.3v.612h.3zm0-1.53v-.612h-.3v.612h.3zm0-1.53v-.612h-.3v.612h.3zm0-1.53v-.612h-.3v.612h.3zm0-1.53v-.612h-.3v.612h.3zm0-1.53v-.612h-.3v.612h.3zm0-1.53v-.612h-.3v.612h.3zm0-1.53V13.2h-.3v.306h.3zM22.35 28.5a.15.15 0 00.3 0h-.3zm.3-15.3a.15.15 0 00-.3 0h.3zm0 14.994a.15.15 0 00-.3 0h.3zm-.3-.918a.15.15 0 00.3 0h-.3zm.3-.612a.15.15 0 00-.3 0h.3zm-.3-.918a.15.15 0 00.3 0h-.3zm.3-.612a.15.15 0 00-.3 0h.3zm-.3-.918a.15.15 0 00.3 0h-.3zm.3-.612a.15.15 0 00-.3 0h.3zm-.3-.918a.15.15 0 00.3 0h-.3zm.3-.612a.15.15 0 00-.3 0h.3zm-.3-.918a.15.15 0 00.3 0h-.3zm.3-.612a.15.15 0 00-.3 0h.3zm-.3-.918a.15.15 0 00.3 0h-.3zm.3-.612a.15.15 0 00-.3 0h.3zm-.3-.918a.15.15 0 00.3 0h-.3zm.3-.612a.15.15 0 00-.3 0h.3zm-.3-.918a.15.15 0 00.3 0h-.3zm.3-.612a.15.15 0 00-.3 0h.3zm-.3-.918a.15.15 0 00.3 0h-.3zm.3-.612a.15.15 0 00-.3 0h.3zm-.3-.918a.15.15 0 00.3 0h-.3zm.3 14.994v-.306h-.3v.306h.3zm0-1.224v-.612h-.3v.612h.3zm0-1.53v-.612h-.3v.612h.3zm0-1.53v-.612h-.3v.612h.3zm0-1.53v-.612h-.3v.612h.3zm0-1.53v-.612h-.3v.612h.3zm0-1.53v-.612h-.3v.612h.3zm0-1.53v-.612h-.3v.612h.3zm0-1.53v-.612h-.3v.612h.3zm0-1.53v-.612h-.3v.612h.3zm0-1.53V13.2h-.3v.306h.3z" fill="#525A75"/><rect x="6.902" y="29.101" width=".9" height=".9" rx=".15" fill="#404862" stroke="#57607D" stroke-width=".3"/><rect x="6.902" y="11.7" width=".9" height=".9" rx=".15" fill="#404862" stroke="#57607D" stroke-width=".3"/><rect x="22.199" y="11.7" width=".9" height=".9" rx=".15" fill="#404862" stroke="#57607D" stroke-width=".3"/><rect x="22.199" y="29.101" width=".9" height=".9" rx=".15" fill="#404862" stroke="#57607D" stroke-width=".3"/><path d="M32.098 35.25a.15.15 0 100 .3v-.3zm6.6.3a.15.15 0 100-.3v.3zm-6.27 0a.15.15 0 100-.3v.3zm.99-.3a.15.15 0 100 .3v-.3zm.66.3a.15.15 0 100-.3v.3zm.99-.3a.15.15 0 100 .3v-.3zm.66.3a.15.15 0 100-.3v.3zm.99-.3a.15.15 0 100 .3v-.3zm.66.3a.15.15 0 100-.3v.3zm.99-.3a.15.15 0 100 .3v-.3zm-6.27.3h.33v-.3h-.33v.3zm1.32 0h.66v-.3h-.66v.3zm1.65 0h.66v-.3h-.66v.3zm1.65 0h.66v-.3h-.66v.3zm1.65 0h.33v-.3h-.33v.3zm-6.27-8.7a.15.15 0 100 .3v-.3zm6.6.3a.15.15 0 000-.3v.3zm-6.27 0a.15.15 0 000-.3v.3zm.99-.3a.15.15 0 100 .3v-.3zm.66.3a.15.15 0 000-.3v.3zm.99-.3a.15.15 0 100 .3v-.3zm.66.3a.15.15 0 000-.3v.3zm.99-.3a.15.15 0 100 .3v-.3zm.66.3a.15.15 0 000-.3v.3zm.99-.3a.15.15 0 100 .3v-.3zm-6.27.3h.33v-.3h-.33v.3zm1.32 0h.66v-.3h-.66v.3zm1.65 0h.66v-.3h-.66v.3zm1.65 0h.66v-.3h-.66v.3zm1.65 0h.33v-.3h-.33v.3zM31.05 34.5a.15.15 0 00.3 0h-.3zm.3-6.6a.15.15 0 10-.3 0h.3zm0 6.27a.15.15 0 10-.3 0h.3zm-.3-.99a.15.15 0 00.3 0h-.3zm.3-.66a.15.15 0 10-.3 0h.3zm-.3-.99a.15.15 0 00.3 0h-.3zm.3-.66a.15.15 0 10-.3 0h.3zm-.3-.99a.15.15 0 00.3 0h-.3zm.3-.66a.15.15 0 10-.3 0h.3zm-.3-.99a.15.15 0 00.3 0h-.3zm.3 6.27v-.33h-.3v.33h.3zm0-1.32v-.66h-.3v.66h.3zm0-1.65v-.66h-.3v.66h.3zm0-1.65v-.66h-.3v.66h.3zm0-1.65v-.33h-.3v.33h.3zm8.098 6.27a.15.15 0 10.3 0h-.3zm.3-6.6a.15.15 0 00-.3 0h.3zm0 6.27a.15.15 0 00-.3 0h.3zm-.3-.99a.15.15 0 10.3 0h-.3zm.3-.66a.15.15 0 00-.3 0h.3zm-.3-.99a.15.15 0 10.3 0h-.3zm.3-.66a.15.15 0 00-.3 0h.3zm-.3-.99a.15.15 0 10.3 0h-.3zm.3-.66a.15.15 0 00-.3 0h.3zm-.3-.99a.15.15 0 10.3 0h-.3zm.3 6.27v-.33h-.3v.33h.3zm0-1.32v-.66h-.3v.66h.3zm0-1.65v-.66h-.3v.66h.3zm0-1.65v-.66h-.3v.66h.3zm0-1.65v-.33h-.3v.33h.3z" fill="#525A75"/><rect x="30.598" y="35.1" width=".9" height=".9" rx=".15" fill="#404862" stroke="#57607D" stroke-width=".3"/><rect x="30.598" y="26.399" width=".9" height=".9" rx=".15" fill="#404862" stroke="#57607D" stroke-width=".3"/><rect x="39.301" y="26.399" width=".9" height=".9" rx=".15" fill="#404862" stroke="#57607D" stroke-width=".3"/><rect x="39.301" y="35.1" width=".9" height=".9" rx=".15" fill="#404862" stroke="#57607D" stroke-width=".3"/><path d="M40.766 29.073l-.703-1.91 1.91.702-.783.348a.15.15 0 00-.076.076l-.348.784z" fill="#47506B" stroke="#6E7795" stroke-width=".3" stroke-linejoin="round"/><circle cx="35.398" cy="31.199" r="3.3" fill="#525A75"/><rect x="24.15" y="13.95" width="3.9" height="3" rx=".45" fill="#49536E" stroke="#535D7D" stroke-width=".3"/><rect x="28.951" y="13.95" width="3.9" height="3" rx=".45" fill="#49536E" stroke="#535D7D" stroke-width=".3"/><rect x="24.15" y="18.15" width="17.1" height="6.9" rx=".45" fill="#49536E" stroke="#535D7D" stroke-width=".3"/><rect x="8.398" y="31.2" width="6.6" height="4.8" rx=".6" fill="#525A75"/><rect x="15.602" y="31.2" width="6.6" height="4.8" rx=".6" fill="#47506B"/><rect x="33.898" y="15.9" width="7.5" height="1.2" rx=".6" fill="#47506B"/><rect x="33.898" y="14.1" width="5.7" height="1.2" rx=".6" fill="#47506B"/></svg>