<svg width="48" height="48" viewBox="0 0 48 48" fill="none" xmlns="http://www.w3.org/2000/svg">
<path fill-rule="evenodd" clip-rule="evenodd" d="M34.8479 21.6025V13.0385H32.1239V15.6961C32.1239 15.9318 32.1285 16.1298 32.1377 16.29C32.147 16.4503 32.1608 16.5875 32.1792 16.7017C31.9508 16.3738 31.6911 16.128 31.4001 15.964C31.1091 15.8001 30.7832 15.7182 30.4222 15.7182C29.7555 15.7182 29.2048 15.9981 28.7701 16.558C28.3355 17.1179 28.1182 17.8417 28.1182 18.7294C28.1182 19.6613 28.33 20.4091 28.7536 20.9726C29.1772 21.5362 29.7334 21.818 30.4222 21.818C30.8016 21.818 31.1441 21.7305 31.4499 21.5555C31.7556 21.3806 32.0282 21.1163 32.2676 20.7627V21.6025H34.8479ZM9.51083 18.651C9.62134 18.1538 9.68211 17.7725 9.69316 17.5073H9.79814C9.80919 17.7725 9.86997 18.1519 9.98047 18.6455C9.99889 18.7302 10.0136 18.7965 10.0247 18.8444L10.6324 21.6015H13.1685L15.5333 13.5126H12.616L11.9806 17.0764C11.9253 17.3895 11.883 17.6758 11.8535 17.9355C11.824 18.1952 11.8056 18.4392 11.7983 18.6676H11.732C11.7246 18.3508 11.6675 17.9291 11.5607 17.4024C11.5496 17.3508 11.5423 17.3139 11.5386 17.2918L10.7706 13.5126H8.72073L7.95273 17.2863C7.94536 17.3158 7.93799 17.3545 7.93063 17.4024C7.8238 17.9254 7.76671 18.3472 7.75934 18.6676H7.69304C7.68567 18.4392 7.66726 18.1952 7.63779 17.9355C7.60832 17.6758 7.56596 17.3895 7.51071 17.0764L6.87531 13.5126H3.95801L6.32279 21.6015H8.85886L9.46663 18.8444C9.47768 18.7965 9.49241 18.7321 9.51083 18.651ZM19.0349 19.3264C18.9096 19.47 18.7476 19.5419 18.5487 19.5419C18.3424 19.5419 18.1776 19.471 18.0542 19.3291C17.9308 19.1873 17.8691 18.9986 17.8691 18.7628C17.8691 18.5271 17.9308 18.3383 18.0542 18.1965C18.1776 18.0547 18.3424 17.9838 18.5487 17.9838C18.7513 17.9838 18.9143 18.0547 19.0376 18.1965C19.161 18.3383 19.2227 18.5271 19.2227 18.7628C19.2227 18.9949 19.1601 19.1827 19.0349 19.3264ZM21.888 18.7622C21.888 19.1931 21.7959 19.6038 21.6117 19.9943C21.4275 20.3847 21.1642 20.7291 20.8216 21.0275C20.5232 21.2853 20.1816 21.4815 19.7967 21.6159C19.4118 21.7504 18.9965 21.8176 18.5508 21.8176C18.1051 21.8176 17.6907 21.7513 17.3076 21.6187C16.9245 21.4861 16.5801 21.289 16.2744 21.0275C15.9355 20.7402 15.673 20.3985 15.487 20.0026C15.301 19.6066 15.208 19.1931 15.208 18.7622C15.208 18.3275 15.301 17.914 15.487 17.5218C15.673 17.1295 15.9355 16.7878 16.2744 16.4968C16.5801 16.2353 16.9245 16.0382 17.3076 15.9056C17.6907 15.773 18.1051 15.7067 18.5508 15.7067C18.9965 15.7067 19.4118 15.7739 19.7967 15.9084C20.1816 16.0428 20.5269 16.239 20.8327 16.4968C21.1679 16.7841 21.4275 17.1249 21.6117 17.519C21.7959 17.9131 21.888 18.3275 21.888 18.7622ZM22.8252 15.8888V21.6018H25.6044V19.3365C25.6044 18.9902 25.7011 18.7213 25.8944 18.5298C26.0878 18.3383 26.3613 18.2425 26.7149 18.2425C26.8218 18.2425 26.9396 18.2627 27.0686 18.3033C27.1975 18.3438 27.3393 18.4064 27.494 18.4911V15.7175C27.4719 15.7138 27.447 15.711 27.4194 15.7092C27.3918 15.7073 27.3503 15.7064 27.2951 15.7064C26.9378 15.7064 26.6118 15.7884 26.3171 15.9523C26.0224 16.1162 25.7554 16.3621 25.516 16.6899V15.8888H22.8252ZM31.4905 17.9333C31.2768 17.9333 31.1046 18.0088 30.9739 18.1598C30.8431 18.3108 30.7777 18.5116 30.7777 18.7621C30.7777 19.0125 30.844 19.217 30.9766 19.3754C31.1092 19.5338 31.2805 19.6129 31.4905 19.6129C31.7004 19.6129 31.8717 19.5338 32.0043 19.3754C32.1369 19.217 32.2032 19.0125 32.2032 18.7621C32.2032 18.5116 32.1378 18.3108 32.0071 18.1598C31.8763 18.0088 31.7041 17.9333 31.4905 17.9333Z" fill="#A7AFB7"/>
<path opacity="0.2" fill-rule="evenodd" clip-rule="evenodd" d="M42.0866 20.9834C41.985 20.9893 41.8919 20.998 41.8075 21.0096L41.8037 21.0101C42.0552 20.8417 42.2391 20.6614 42.3553 20.4692C42.4716 20.277 42.5297 20.054 42.5297 19.8001C42.5297 19.3042 42.3648 18.9169 42.035 18.6381C41.7052 18.3594 41.245 18.22 40.6542 18.22C40.0895 18.22 39.6351 18.3617 39.2911 18.6453C38.9471 18.9288 38.7751 19.3019 38.7751 19.7645C38.7751 20.0421 38.8267 20.2776 38.9299 20.471C39.0331 20.6643 39.195 20.8298 39.4157 20.9674L38.9139 20.9532V21.9355H44.4302V20.9746H42.4407C42.3079 20.9746 42.1898 20.9775 42.0866 20.9834ZM41.2997 8.59002L44.1255 7.81774V6.7216L41.2819 5.95644L41.2072 5.93864C40.7445 5.81764 40.3625 5.7346 40.0612 5.68952C40.289 5.67766 40.4996 5.65986 40.6929 5.63613C40.8863 5.61241 41.066 5.58156 41.2321 5.5436L44.1255 4.85673V3.7428L38.9153 5.10586V6.17709L42.2393 7.11664C42.3769 7.15697 42.524 7.1896 42.6806 7.21451C42.8372 7.23942 43.0032 7.25781 43.1788 7.26967C43.0127 7.27916 42.8526 7.29696 42.6984 7.32305C42.5441 7.34915 42.3911 7.38474 42.2393 7.42982L38.9153 8.36225V9.43348L44.1255 10.7965V9.69684L41.2997 9.02065C41.0862 8.96608 40.8744 8.92515 40.6645 8.89787C40.4545 8.87058 40.2415 8.85457 40.0256 8.84982C40.2819 8.81186 40.5132 8.77153 40.7196 8.72882C40.926 8.68611 41.1194 8.63985 41.2997 8.59002ZM41.3359 13.4235C41.1662 13.5896 40.9391 13.6727 40.6543 13.6727C40.3696 13.6727 40.1419 13.589 39.971 13.4218C39.8002 13.2545 39.7148 13.0321 39.7148 12.7545C39.7148 12.4745 39.8002 12.2527 39.971 12.0889C40.1419 11.9252 40.3696 11.8434 40.6543 11.8434C40.9414 11.8434 41.1692 11.9252 41.3377 12.0889C41.5061 12.2527 41.5903 12.4745 41.5903 12.7545C41.5903 13.0344 41.5055 13.2575 41.3359 13.4235ZM40.6436 14.7035C40.1074 14.7035 39.6613 14.5202 39.3054 14.1537C38.9495 13.7871 38.7716 13.3226 38.7716 12.7603C38.7716 12.1933 38.9495 11.7259 39.3054 11.3581C39.6613 10.9904 40.1074 10.8065 40.6436 10.8065C41.1774 10.8065 41.6235 10.9916 41.9817 11.3617C42.34 11.7318 42.5191 12.198 42.5191 12.7603C42.5191 13.325 42.3424 13.79 41.9888 14.1554C41.6353 14.5208 41.1869 14.7035 40.6436 14.7035ZM42.2664 16.887C42.098 16.696 41.8441 16.5495 41.5048 16.4475L42.4017 16.4688V15.4688L38.9104 15.4688V16.483H40.4478C40.818 16.483 41.0819 16.5507 41.2397 16.6859C41.3975 16.8211 41.4764 17.043 41.4764 17.3514C41.4764 17.4368 41.4686 17.5181 41.4532 17.5952C41.4378 17.6723 41.4147 17.7488 41.3838 17.8248L42.4729 17.9778L42.4835 17.9137C42.5073 17.7666 42.5191 17.661 42.5191 17.597C42.5191 17.3146 42.4349 17.078 42.2664 16.887ZM40.6662 21.0113C40.9794 21.0113 41.2274 20.9324 41.41 20.7746C41.5927 20.6168 41.6841 20.4039 41.6841 20.1358C41.6841 19.8606 41.5945 19.6441 41.4154 19.4863C41.2363 19.3285 40.9889 19.2496 40.6734 19.2496C40.3578 19.2496 40.111 19.3273 39.9331 19.4827C39.7552 19.6381 39.6662 19.8535 39.6662 20.1287C39.6662 20.4087 39.754 20.6257 39.9295 20.78C40.1051 20.9342 40.3507 21.0113 40.6662 21.0113Z" fill="#A7AFB7"/>
<path opacity="0.2" fill-rule="evenodd" clip-rule="evenodd" d="M26.0131 40.1026H26.8316V35.5056H26.0308V37.1635C26.0308 37.2742 26.0333 37.3726 26.0383 37.4586C26.0432 37.5446 26.0506 37.6232 26.0605 37.6944C25.9201 37.4848 25.7699 37.3316 25.6097 37.2347C25.4496 37.1378 25.2637 37.0894 25.0521 37.0894C24.6389 37.0894 24.3161 37.2268 24.0838 37.5016C23.8515 37.7764 23.7354 38.16 23.7354 38.6523C23.7354 39.1229 23.8535 39.5015 24.0898 39.7882C24.326 40.0749 24.6369 40.2182 25.0225 40.2182C25.2538 40.2182 25.4501 40.1752 25.6112 40.0892C25.7723 40.0032 25.9102 39.8683 26.0249 39.6844L26.0131 40.1026ZM15.7083 38.1154L15.0647 35.7606H14.1513L13.5136 38.1302L13.4988 38.1925C13.398 38.5781 13.3288 38.8964 13.2912 39.1475C13.2813 38.9577 13.2665 38.7822 13.2467 38.6211C13.227 38.4599 13.2013 38.3101 13.1696 38.1717L12.5972 35.7606H11.6689L12.8048 40.1025H13.6975L14.4805 37.3324C14.5141 37.2178 14.5413 37.0952 14.562 36.9647C14.5828 36.8342 14.5981 36.6958 14.608 36.5495C14.6159 36.6879 14.6307 36.8213 14.6525 36.9499C14.6742 37.0784 14.7039 37.2059 14.7415 37.3324L15.5185 40.1025H16.4112L17.5471 35.7606H16.6307L16.0672 38.1154C16.0217 38.2933 15.9876 38.4698 15.9648 38.6448C15.9421 38.8198 15.9288 38.9972 15.9248 39.1771C15.8932 38.9636 15.8596 38.7708 15.824 38.5988C15.7884 38.4268 15.7498 38.2657 15.7083 38.1154ZM19.736 38.0849C19.8744 38.2263 19.9436 38.4156 19.9436 38.6528C19.9436 38.8901 19.8739 39.0799 19.7346 39.2223C19.5952 39.3646 19.4098 39.4358 19.1785 39.4358C18.9452 39.4358 18.7603 39.3646 18.6239 39.2223C18.4875 39.0799 18.4192 38.8901 18.4192 38.6528C18.4192 38.4136 18.4875 38.2238 18.6239 38.0834C18.7603 37.943 18.9452 37.8728 19.1785 37.8728C19.4118 37.8728 19.5976 37.9435 19.736 38.0849ZM20.8032 38.6584C20.8032 39.1053 20.6504 39.477 20.345 39.7736C20.0395 40.0701 19.6525 40.2184 19.1839 40.2184C18.7113 40.2184 18.3218 40.0701 18.0154 39.7736C17.7089 39.477 17.5557 39.1053 17.5557 38.6584C17.5557 38.2136 17.7099 37.8419 18.0183 37.5433C18.3268 37.2448 18.7153 37.0955 19.1839 37.0955C19.6544 37.0955 20.042 37.2428 20.3464 37.5374C20.6509 37.832 20.8032 38.2057 20.8032 38.6584ZM22.6242 37.3061C22.4651 37.4464 22.343 37.658 22.258 37.9407L22.2758 37.1934H21.4424V40.1028H22.2876V38.8216C22.2876 38.5131 22.344 38.2932 22.4567 38.1617C22.5694 38.0302 22.7542 37.9645 23.0113 37.9645C23.0824 37.9645 23.1502 37.9709 23.2144 37.9837C23.2787 37.9966 23.3424 38.0159 23.4057 38.0416L23.5332 37.134L23.4799 37.1251C23.3573 37.1054 23.2693 37.0955 23.2159 37.0955C22.9806 37.0955 22.7834 37.1657 22.6242 37.3061ZM26.0589 38.6439C26.0589 38.3829 25.9931 38.1763 25.8616 38.024C25.7302 37.8718 25.5527 37.7957 25.3293 37.7957C25.0999 37.7957 24.9195 37.8703 24.788 38.0196C24.6566 38.1689 24.5908 38.375 24.5908 38.638C24.5908 38.9009 24.6556 39.1065 24.7851 39.2548C24.9146 39.4031 25.094 39.4773 25.3234 39.4773C25.5567 39.4773 25.7376 39.4041 25.8661 39.2578C25.9946 39.1115 26.0589 38.9069 26.0589 38.6439Z" fill="#A7AFB7"/>
<path opacity="0.2" fill-rule="evenodd" clip-rule="evenodd" d="M8.79023 38.8475H3.27393V37.8368H8.79023V38.8475ZM4.93474 39.8339C4.73307 40.0593 4.58538 40.2906 4.49166 40.5279C4.39794 40.7651 4.35108 41.019 4.35108 41.2895C4.35108 41.8447 4.51716 42.2872 4.84933 42.6169C5.1815 42.9467 5.62754 43.1116 6.18748 43.1116C6.73555 43.1116 7.17033 42.9586 7.49182 42.6525C7.81331 42.3465 7.97405 41.9289 7.97405 41.3998C7.97405 41.0985 7.92363 40.8185 7.8228 40.5599C7.72196 40.3013 7.57071 40.0617 7.36903 39.841L8.51144 39.8481C8.65143 40.0854 8.75582 40.3339 8.82463 40.5937C8.89343 40.8535 8.92783 41.1269 8.92783 41.414C8.92783 42.2444 8.66982 42.926 8.15377 43.4586C7.63773 43.9913 6.9823 44.2576 6.18748 44.2576C5.39502 44.2576 4.74138 43.9907 4.22652 43.4568C3.71166 42.923 3.45424 42.235 3.45424 41.3927C3.45424 41.1103 3.4839 40.8375 3.54321 40.5741C3.60253 40.3108 3.69387 40.051 3.81725 39.7947L4.93474 39.8339ZM6.36823 34.4167C6.53787 34.2506 6.76505 34.1676 7.04976 34.1676C7.33447 34.1676 7.56224 34.2512 7.73307 34.4185C7.9039 34.5858 7.98931 34.8082 7.98931 35.0858C7.98931 35.3657 7.9039 35.5876 7.73307 35.7513C7.56224 35.915 7.33447 35.9969 7.04976 35.9969C6.76267 35.9969 6.53491 35.915 6.36645 35.7513C6.198 35.5876 6.11377 35.3657 6.11377 35.0858C6.11377 34.8058 6.19859 34.5828 6.36823 34.4167ZM7.06053 33.1368C7.59674 33.1368 8.04278 33.3201 8.39867 33.6867C8.75457 34.0532 8.93251 34.5177 8.93251 35.08C8.93251 35.647 8.75457 36.1144 8.39867 36.4822C8.04278 36.8499 7.59674 37.0338 7.06053 37.0338C6.52669 37.0338 6.08064 36.8488 5.72238 36.4786C5.36411 36.1085 5.18498 35.6423 5.18498 35.08C5.18498 34.5153 5.36174 34.0503 5.71526 33.6849C6.06878 33.3195 6.5172 33.1368 7.06053 33.1368ZM7.13676 31.3788H5.30037V32.386H7.13676C7.75364 32.386 8.20681 32.2418 8.49627 31.9536C8.78572 31.6653 8.93045 31.2139 8.93045 30.5994C8.93045 29.9968 8.78513 29.5519 8.49449 29.2648C8.20384 28.9777 7.75127 28.8342 7.13676 28.8342H5.30037V29.8485H7.13676C7.44283 29.8485 7.66289 29.909 7.79694 30.03C7.93099 30.151 7.99802 30.3455 7.99802 30.6136C7.99802 30.8841 7.93159 31.0793 7.79872 31.1991C7.66585 31.3189 7.4452 31.3788 7.13676 31.3788ZM7.03787 25.286C6.72468 25.286 6.47675 25.3649 6.29406 25.5226C6.11136 25.6804 6.02002 25.8934 6.02002 26.1615C6.02002 26.4367 6.10958 26.6532 6.28872 26.811C6.46785 26.9688 6.71519 27.0476 7.03075 27.0476C7.34631 27.0476 7.59306 26.9699 7.771 26.8145C7.94895 26.6591 8.03792 26.4438 8.03792 26.1686C8.03792 25.8886 7.95013 25.6715 7.77456 25.5173C7.59899 25.3631 7.35343 25.286 7.03787 25.286ZM5.61747 25.3118C5.71913 25.306 5.81217 25.2972 5.89657 25.2856L5.90039 25.2851C5.6489 25.4536 5.46503 25.6339 5.34877 25.8261C5.23251 26.0182 5.17438 26.2413 5.17438 26.4951C5.17438 26.991 5.33928 27.3783 5.66907 27.6571C5.99886 27.9359 6.45914 28.0753 7.04993 28.0753C7.61461 28.0753 8.06896 27.9335 8.41299 27.65C8.75701 27.3665 8.92903 26.9934 8.92903 26.5307C8.92903 26.2531 8.87742 26.0176 8.77421 25.8243C8.67101 25.6309 8.50908 25.4654 8.28842 25.3278L8.79023 25.342V24.3598H3.27393V25.3207H5.26335C5.39622 25.3207 5.51426 25.3177 5.61747 25.3118Z" fill="#A7AFB7"/>
<path opacity="0.2" fill-rule="evenodd" clip-rule="evenodd" d="M22.7692 10.6685V6.07159H23.6114V10.6685H22.7692ZM21.9484 7.45679C21.7606 7.28873 21.5678 7.16565 21.3701 7.08755C21.1724 7.00946 20.9608 6.97041 20.7354 6.97041C20.2727 6.97041 19.904 7.10881 19.6292 7.38561C19.3543 7.66242 19.2169 8.03412 19.2169 8.50074C19.2169 8.95746 19.3445 9.31978 19.5995 9.58769C19.8546 9.85559 20.2026 9.98955 20.6435 9.98955C20.8946 9.98955 21.1279 9.94753 21.3434 9.8635C21.5589 9.77947 21.7586 9.65343 21.9425 9.48537L21.9365 10.4374C21.7388 10.554 21.5317 10.641 21.3152 10.6984C21.0987 10.7557 20.8708 10.7844 20.6316 10.7844C19.9396 10.7844 19.3717 10.5694 18.9278 10.1393C18.4839 9.70928 18.262 9.16309 18.262 8.50074C18.262 7.84036 18.4844 7.29565 18.9293 6.86661C19.3741 6.43756 19.9475 6.22304 20.6494 6.22304C20.8847 6.22304 21.112 6.24775 21.3315 6.29718C21.551 6.34661 21.7675 6.42273 21.981 6.52554L21.9484 7.45679ZM26.4658 8.65083C26.6042 8.7922 26.6734 8.98151 26.6734 9.21877C26.6734 9.45604 26.6037 9.64584 26.4643 9.7882C26.3249 9.93056 26.1395 10.0017 25.9082 10.0017C25.6749 10.0017 25.49 9.93056 25.3536 9.7882C25.2172 9.64584 25.149 9.45604 25.149 9.21877C25.149 8.97954 25.2172 8.78973 25.3536 8.64935C25.49 8.50897 25.6749 8.43878 25.9082 8.43878C26.1415 8.43878 26.3274 8.50946 26.4658 8.65083ZM27.5329 9.22439C27.5329 9.67123 27.3802 10.0429 27.0747 10.3395C26.7692 10.6361 26.3822 10.7844 25.9136 10.7844C25.4411 10.7844 25.0516 10.6361 24.7451 10.3395C24.4386 10.0429 24.2854 9.67123 24.2854 9.22439C24.2854 8.77953 24.4396 8.40782 24.7481 8.10927C25.0565 7.81071 25.445 7.66144 25.9136 7.66144C26.3842 7.66144 26.7717 7.80874 27.0762 8.10334C27.3807 8.39794 27.5329 8.77162 27.5329 9.22439ZM28.9955 9.28942V7.75909H28.1562V9.28942C28.1562 9.80349 28.2763 10.1811 28.5165 10.4223C28.7568 10.6636 29.1329 10.7842 29.645 10.7842C30.1472 10.7842 30.5179 10.6631 30.7572 10.4209C30.9964 10.1787 31.116 9.80151 31.116 9.28942V7.75909H30.2708V9.28942C30.2708 9.54448 30.2204 9.72786 30.1195 9.83957C30.0187 9.95128 29.8566 10.0071 29.6331 10.0071C29.4077 10.0071 29.2451 9.95178 29.1453 9.84105C29.0454 9.73033 28.9955 9.54646 28.9955 9.28942ZM34.0738 9.20946C34.0738 8.94848 34.008 8.74186 33.8765 8.58962C33.7451 8.43738 33.5676 8.36126 33.3442 8.36126C33.1148 8.36126 32.9344 8.43589 32.8029 8.58517C32.6715 8.73445 32.6057 8.94057 32.6057 9.20353C32.6057 9.4665 32.6705 9.67212 32.8 9.82041C32.9295 9.9687 33.1089 10.0428 33.3383 10.0428C33.5716 10.0428 33.7525 9.96969 33.881 9.82338C34.0095 9.67706 34.0738 9.47243 34.0738 9.20946ZM34.024 10.6685H34.8426V6.07159H34.0418V7.72945C34.0418 7.84017 34.0443 7.93854 34.0492 8.02454C34.0542 8.11055 34.0616 8.18914 34.0715 8.26032C33.9311 8.05074 33.7808 7.89751 33.6207 7.80063C33.4605 7.70375 33.2747 7.65531 33.0631 7.65531C32.6499 7.65531 32.3271 7.79272 32.0948 8.06755C31.8625 8.34237 31.7463 8.72594 31.7463 9.21826C31.7463 9.68883 31.8645 10.0675 32.1007 10.3541C32.337 10.6408 32.6479 10.7842 33.0335 10.7842C33.2648 10.7842 33.461 10.7412 33.6222 10.6552C33.7833 10.5692 33.9212 10.4342 34.0359 10.2503L34.024 10.6685Z" fill="#A7AFB7"/>
<path fill-rule="evenodd" clip-rule="evenodd" d="M19.4498 33.1428V24.5787H22.2235V33.1428H19.4498ZM18.2688 28.2635C18.0036 28.0093 17.7329 27.8197 17.4566 27.6944C17.1803 27.5692 16.8893 27.5066 16.5836 27.5066C16.1084 27.5066 15.7263 27.653 15.4371 27.9458C15.148 28.2386 15.0034 28.6282 15.0034 29.1144C15.0034 29.5896 15.1415 29.969 15.4178 30.2526C15.6941 30.5362 16.0642 30.678 16.5284 30.678C16.8083 30.678 17.0929 30.6182 17.382 30.4984C17.6712 30.3787 17.987 30.1881 18.3296 29.9266L18.2357 32.971C17.9189 33.0999 17.6021 33.1966 17.2853 33.261C16.9685 33.3255 16.6518 33.3577 16.335 33.3577C15.9408 33.3577 15.5615 33.3135 15.1968 33.2251C14.8321 33.1367 14.5025 33.0115 14.2078 32.8494C13.4932 32.4369 12.9526 31.9157 12.5861 31.2858C12.2196 30.6559 12.0364 29.9321 12.0364 29.1144C12.0364 28.5103 12.1404 27.9504 12.3486 27.4347C12.5567 26.919 12.8596 26.4641 13.2574 26.07C13.6589 25.6722 14.124 25.3711 14.6526 25.1666C15.1811 24.9622 15.753 24.86 16.3681 24.86C16.696 24.86 17.0192 24.8941 17.3378 24.9622C17.6564 25.0303 17.9668 25.1326 18.2688 25.2688V28.2635ZM27.0411 30.8667C26.9159 31.0103 26.7538 31.0822 26.5549 31.0822C26.3486 31.0822 26.1838 31.0112 26.0604 30.8694C25.937 30.7276 25.8753 30.5388 25.8753 30.3031C25.8753 30.0674 25.937 29.8786 26.0604 29.7368C26.1838 29.595 26.3486 29.524 26.5549 29.524C26.7575 29.524 26.9205 29.595 27.0439 29.7368C27.1673 29.8786 27.229 30.0674 27.229 30.3031C27.229 30.5352 27.1664 30.723 27.0411 30.8667ZM29.896 30.3021C29.896 30.7331 29.8039 31.1438 29.6198 31.5343C29.4356 31.9247 29.1722 32.2691 28.8297 32.5675C28.5313 32.8253 28.1897 33.0215 27.8047 33.1559C27.4198 33.2904 27.0045 33.3576 26.5588 33.3576C26.1131 33.3576 25.6987 33.2913 25.3156 33.1587C24.9326 33.0261 24.5882 32.829 24.2824 32.5675C23.9435 32.2802 23.6811 31.9385 23.4951 31.5425C23.3091 31.1466 23.2161 30.7331 23.2161 30.3021C23.2161 29.8675 23.3091 29.454 23.4951 29.0617C23.6811 28.6694 23.9435 28.3278 24.2824 28.0368C24.5882 27.7753 24.9326 27.5782 25.3156 27.4456C25.6987 27.313 26.1131 27.2467 26.5588 27.2467C27.0045 27.2467 27.4198 27.3139 27.8047 27.4484C28.1897 27.5828 28.535 27.779 28.8407 28.0368C29.1759 28.3241 29.4356 28.6648 29.6198 29.059C29.8039 29.4531 29.896 29.8675 29.896 30.3021ZM33.4798 27.4291H30.7503V30.5066C30.7503 31.4938 31.0054 32.2158 31.5156 32.6725C32.0257 33.1293 32.8315 33.3576 33.9328 33.3576C35.0305 33.3576 35.8326 33.1293 36.3391 32.6725C36.8455 32.2158 37.0988 31.4938 37.0988 30.5066V27.4291H34.3748V30.2248C34.3748 30.6374 34.3426 30.8989 34.2782 31.0094C34.2137 31.1199 34.0986 31.1752 33.9328 31.1752C33.7597 31.1752 33.6409 31.1172 33.5765 31.0011C33.512 30.8851 33.4798 30.6263 33.4798 30.2248V27.4291ZM41.3702 29.4733C41.1566 29.4733 40.9844 29.5488 40.8536 29.6998C40.7229 29.8508 40.6575 30.0516 40.6575 30.302C40.6575 30.5525 40.7238 30.757 40.8564 30.9153C40.989 31.0737 41.1603 31.1529 41.3702 31.1529C41.5802 31.1529 41.7515 31.0737 41.8841 30.9153C42.0167 30.757 42.083 30.5525 42.083 30.302C42.083 30.0516 42.0176 29.8508 41.8868 29.6998C41.7561 29.5488 41.5839 29.4733 41.3702 29.4733ZM44.7348 33.1428V24.5787H42.0109V27.2364C42.0109 27.4721 42.0155 27.6701 42.0247 27.8303C42.0339 27.9905 42.0477 28.1278 42.0661 28.2419C41.8378 27.9141 41.5781 27.6682 41.2871 27.5043C40.9961 27.3404 40.6701 27.2585 40.3091 27.2585C39.6424 27.2585 39.0918 27.5384 38.6571 28.0983C38.2224 28.6582 38.0051 29.382 38.0051 30.2697C38.0051 31.2016 38.2169 31.9493 38.6405 32.5129C39.0641 33.0765 39.6203 33.3583 40.3091 33.3583C40.6885 33.3583 41.0311 33.2708 41.3368 33.0958C41.6425 32.9209 41.9151 32.6566 42.1545 32.303V33.1428H44.7348Z" fill="#A7AFB7"/>
</svg>
