<svg width="48" height="48" viewBox="0 0 48 48" fill="none" xmlns="http://www.w3.org/2000/svg">
<path fill-rule="evenodd" clip-rule="evenodd" d="M24 6C22.8954 6 22 6.89543 22 8V11H12C9.79086 11 8 12.7909 8 15V33C8 35.2091 9.79086 37 12 37H22V40C22 41.1046 22.8954 42 24 42H38C39.1046 42 40 41.1046 40 40V28C40 26.8954 39.1046 26 38 26H24C22.8954 26 22 26.8954 22 28V33H12V15H22V20C22 21.1046 22.8954 22 24 22H38C39.1046 22 40 21.1046 40 20V8C40 6.89543 39.1046 6 38 6H24ZM26 10V18H36V10H26ZM26 38V30H36V38H26Z" fill="currentColor"/>
</svg>
