<svg width="48" height="48" viewBox="0 0 48 48" fill="none" xmlns="http://www.w3.org/2000/svg">
<g filter="url(#filter0_dd)">
<path fill-rule="evenodd" clip-rule="evenodd" d="M7.42218 10.5032C5.89622 10.5032 4.65918 11.7402 4.65918 13.2662V35.0677C4.65918 36.5936 5.89622 37.8307 7.42218 37.8307H40.5781C42.1041 37.8307 43.3411 36.5936 43.3411 35.0677V13.2662C43.3411 11.7402 42.1041 10.5032 40.5781 10.5032H7.42218Z" fill="#F0F1F3"/>
</g>
<path fill-rule="evenodd" clip-rule="evenodd" d="M7.42174 10.9635C6.15011 10.9635 5.11924 11.9943 5.11924 13.266V35.0675C5.11924 36.3391 6.15011 37.37 7.42174 37.37H40.5777C41.8493 37.37 42.8802 36.3391 42.8802 35.0675V13.266C42.8802 11.9943 41.8493 10.9635 40.5777 10.9635H7.42174ZM4.19824 13.266C4.19824 11.4857 5.64145 10.0425 7.42174 10.0425H40.5777C42.358 10.0425 43.8012 11.4857 43.8012 13.266V35.0675C43.8012 36.8478 42.358 38.291 40.5777 38.291H7.42174C5.64145 38.291 4.19824 36.8478 4.19824 35.0675V13.266Z" fill="#C7CAD3"/>
<g filter="url(#filter1_f)">
<path d="M25.5517 22.2242H27.0236L26.0424 20.2617H28.0048V26.641H26.7951C25.9829 26.641 25.3244 27.2995 25.3244 28.1117H19.1736C18.6315 28.1117 18.1924 27.6726 18.1924 27.1304L18.1973 21.243C18.1973 20.7008 18.6315 20.2617 19.1736 20.2617H19.6643L20.6455 22.2242H22.1174L21.1361 20.2617H22.1174L23.0986 22.2242H24.5705L23.5892 20.2617H24.5705L25.5517 22.2242Z" fill="#5B7CAD" fill-opacity="0.15"/>
<path d="M29.3657 25.2405C29.7588 25.2405 30.0775 25.5592 30.0775 25.9523V27.5576H31.6824C32.0755 27.5576 32.3941 27.8763 32.3941 28.2694C32.3941 28.6625 32.0755 28.9812 31.6824 28.9812H30.0775V30.5858C30.0775 30.9789 29.7588 31.2976 29.3657 31.2976C28.9726 31.2976 28.6539 30.9789 28.6539 30.5858V28.9812H27.0488C26.6557 28.9812 26.337 28.6625 26.337 28.2694C26.337 27.8763 26.6557 27.5576 27.0488 27.5576H28.6539V25.9523C28.6539 25.5592 28.9726 25.2405 29.3657 25.2405Z" fill="#5B7CAD" fill-opacity="0.15"/>
</g>
<path d="M24.8613 21.5047H26.3332L25.3519 19.5422H27.3144V25.9216H26.1047C25.2924 25.9216 24.634 26.58 24.634 27.3922H18.4832C17.9411 27.3922 17.502 26.9531 17.502 26.411L17.5069 20.5235C17.5069 19.9813 17.9411 19.5422 18.4832 19.5422H18.9738L19.9551 21.5047H21.4269L20.4457 19.5422H21.4269L22.4082 21.5047H23.8801L22.8988 19.5422H23.8801L24.8613 21.5047Z" fill="#84A9DF"/>
<path d="M28.6753 24.521C29.0684 24.521 29.3871 24.8397 29.3871 25.2328V26.8381H30.9919C31.385 26.8381 31.7037 27.1568 31.7037 27.5499C31.7037 27.943 31.385 28.2617 30.9919 28.2617H29.3871V29.8663C29.3871 30.2594 29.0684 30.5781 28.6753 30.5781C28.2822 30.5781 27.9635 30.2594 27.9635 29.8663V28.2617H26.3584C25.9653 28.2617 25.6466 27.943 25.6466 27.5499C25.6466 27.1568 25.9653 26.8381 26.3584 26.8381H27.9635V25.2328C27.9635 24.8397 28.2822 24.521 28.6753 24.521Z" fill="#84A9DF"/>
<defs>
<filter id="filter0_dd" x="4.65918" y="10.5032" width="38.682" height="29.4065" filterUnits="userSpaceOnUse" color-interpolation-filters="sRGB">
<feFlood flood-opacity="0" result="BackgroundImageFix"/>
<feColorMatrix in="SourceAlpha" type="matrix" values="0 0 0 0 0 0 0 0 0 0 0 0 0 0 0 0 0 0 127 0"/>
<feMorphology radius="3.684" operator="erode" in="SourceAlpha" result="effect1_dropShadow"/>
<feOffset dy="0.920999"/>
<feGaussianBlur stdDeviation="1"/>
<feColorMatrix type="matrix" values="0 0 0 0 0.027451 0 0 0 0 0.0745098 0 0 0 0 0.152941 0 0 0 0.06 0"/>
<feBlend mode="normal" in2="BackgroundImageFix" result="effect1_dropShadow"/>
<feColorMatrix in="SourceAlpha" type="matrix" values="0 0 0 0 0 0 0 0 0 0 0 0 0 0 0 0 0 0 127 0"/>
<feMorphology radius="3.684" operator="erode" in="SourceAlpha" result="effect2_dropShadow"/>
<feOffset dy="2.763"/>
<feGaussianBlur stdDeviation="1.5"/>
<feColorMatrix type="matrix" values="0 0 0 0 0.027451 0 0 0 0 0.0745098 0 0 0 0 0.152941 0 0 0 0.05 0"/>
<feBlend mode="normal" in2="effect1_dropShadow" result="effect2_dropShadow"/>
<feBlend mode="normal" in="SourceGraphic" in2="effect2_dropShadow" result="shape"/>
</filter>
<filter id="filter1_f" x="15.6924" y="17.7617" width="19.2018" height="16.0358" filterUnits="userSpaceOnUse" color-interpolation-filters="sRGB">
<feFlood flood-opacity="0" result="BackgroundImageFix"/>
<feBlend mode="normal" in="SourceGraphic" in2="BackgroundImageFix" result="shape"/>
<feGaussianBlur stdDeviation="1.25" result="effect1_foregroundBlur"/>
</filter>
</defs>
</svg>
