<svg width="48" height="48" viewBox="0 0 48 48" fill="none" xmlns="http://www.w3.org/2000/svg">
<path fill-rule="evenodd" clip-rule="evenodd" d="M33 7.5C35.4853 7.5 37.5 9.51472 37.5 12L37.5 36C37.5 38.4853 35.4853 40.5 33 40.5L15 40.5C12.5147 40.5 10.5 38.4853 10.5 36L10.5 12C10.5 9.51472 12.5147 7.5 15 7.5L33 7.5ZM34.5 12C34.5 11.1716 33.8284 10.5 33 10.5L15 10.5C14.1716 10.5 13.5 11.1716 13.5 12L13.5 36C13.5 36.8284 14.1716 37.5 15 37.5L33 37.5C33.8284 37.5 34.5 36.8284 34.5 36L34.5 12Z" fill="#366ACB"/>
<path opacity="0.4" fill-rule="evenodd" clip-rule="evenodd" d="M28.9471 14.4151C29.5875 14.9203 29.6971 15.849 29.1919 16.4894L23.9398 23.1471C23.6806 23.4756 23.2943 23.6788 22.8768 23.7061C22.4592 23.7335 22.0497 23.5825 21.7499 23.2906L18.9388 20.5535C18.3544 19.9844 18.3419 19.0494 18.9109 18.465C19.48 17.8806 20.415 17.8681 20.9994 18.4371L22.636 20.0306L26.8728 14.6599C27.378 14.0195 28.3067 13.9099 28.9471 14.4151Z" fill="#366ACB"/>
<rect opacity="0.4" x="31.3828" y="26.7695" width="3.69231" height="14.7692" rx="0.5" transform="rotate(90 31.3828 26.7695)" fill="#366ACB"/>
<rect opacity="0.4" x="31.3828" y="32.3076" width="1.84615" height="14.7692" rx="0.3" transform="rotate(90 31.3828 32.3076)" fill="#366ACB"/>
</svg>
