<svg width="48" height="48" viewBox="0 0 48 48" fill="none" xmlns="http://www.w3.org/2000/svg"><path fill-rule="evenodd" clip-rule="evenodd" d="M37 26a2 2 0 012 2v5h5a2 2 0 110 4h-5v5a2 2 0 11-4 0v-5h-5a2 2 0 110-4h5v-5a2 2 0 012-2z" fill="currentColor"/><path fill-rule="evenodd" clip-rule="evenodd" d="M8 8a2 2 0 00-2 2v2h11.528l1.551-.776L16.93 8H8zm14.472 6l-3.578 1.789A2 2 0 0118 16H6v22a2 2 0 002 2h21.5a2 2 0 110 4H8a6 6 0 01-6-6V10a6 6 0 016-6h10a2 2 0 011.664.89L23.07 10H40a6 6 0 016 6v11a2 2 0 11-4 0V16a2 2 0 00-2-2H22.472z" fill="currentColor"/></svg>