<svg width="48" height="48" viewBox="0 0 48 48" fill="none" xmlns="http://www.w3.org/2000/svg"><path fill-rule="evenodd" clip-rule="evenodd" d="M30.37 15.673a2.767 2.767 0 00-2.04-.843h-8.666c-.797 0-1.474.277-2.04.843a2.767 2.767 0 00-.843 2.04v8.66c0 .391.143.734.426 1.017.288.283.631.426 1.02.426h1.443v8.67c0 .398.143.735.425 1.018.29.283.632.429 1.018.429h5.774c.391 0 .734-.14 1.017-.429.283-.286.426-.631.426-1.017V27.82h1.445c.392 0 .735-.143 1.015-.425a1.41 1.41 0 00.428-1.018v-8.665c0-.8-.277-1.474-.848-2.04zM27.58 5.475c-.988-.989-2.18-1.48-3.577-1.474-1.402 0-2.591.485-3.58 1.474-.982.988-1.474 2.18-1.474 3.577 0 1.4.486 2.591 1.474 3.58.989.983 2.178 1.474 3.58 1.474 1.398 0 2.589-.486 3.578-1.474.982-.989 1.474-2.18 1.474-3.58 0-1.397-.486-2.589-1.474-3.577z" fill="currentColor"/><path fill-rule="evenodd" clip-rule="evenodd" d="M23.995 44c-7.766 0-16.12-1.89-16.12-6.04 0-2.248 2.403-4.008 6.946-5.082a1.486 1.486 0 11.683 2.894c-3.675.869-4.62 1.969-4.658 2.192.152.911 4.809 3.062 13.149 3.062s12.994-2.151 13.148-3.071c-.023-.12-.451-.74-2.171-1.42-.789-.314-1.72-.591-2.766-.826a1.487 1.487 0 11.651-2.9 21.52 21.52 0 013.212.96c3.343 1.332 4.045 3.015 4.045 4.192 0 4.148-8.356 6.04-16.12 6.04z" fill="currentColor"/></svg>