<svg width="48" height="48" viewBox="0 0 48 48" fill="none" xmlns="http://www.w3.org/2000/svg"><rect x="3.43" y="8" width="41.143" height="32" rx="2.286" fill="#667091"/><rect x="8.004" y="12.571" width="32" height="22.857" rx=".914" fill="#8D98BA"/><path fill="#667091" d="M8.004 19.429h32v3.318h-32z"/><path fill="#667091" d="M12.402 12.571h2.459v22.857h-2.459zm20.743 9.233h2.459v13.625h-2.459z"/><path d="M24 22.722a1.946 1.946 0 001.646-.933c.171-.293.256-.61.256-.95 0-.342-.085-.66-.256-.952a1.899 1.899 0 00-1.645-.95 1.86 1.86 0 00-.951.255 1.947 1.947 0 00-.933 1.646c0 .524.183.97.549 1.335.366.366.81.549 1.335.549zm0-7.205c.976 0 1.872.238 2.689.713a5.368 5.368 0 011.92 1.92c.475.817.713 1.713.713 2.688 0 .744-.183 1.597-.549 2.56-.317.817-.755 1.7-1.316 2.652a34.96 34.96 0 01-1.591 2.358 28.502 28.502 0 01-1.317 1.683l-.548.64-.549-.64a28.46 28.46 0 01-1.316-1.683 35 35 0 01-1.591-2.358c-.56-.951-1-1.835-1.317-2.652-.366-.963-.548-1.816-.548-2.56 0-.975.237-1.871.713-2.688a5.37 5.37 0 011.92-1.92A5.248 5.248 0 0124 15.517z" fill="#C0C7DF"/></svg>