<svg width="48" height="48" viewBox="0 0 48 48" fill="none" xmlns="http://www.w3.org/2000/svg"><path fill-rule="evenodd" clip-rule="evenodd" d="M40.78 20.756c-.475 1.36-.495 1.373-1.14 3.343-.771 2.35-1.76 3.226-4.276 3.142-6.114-.203-12.24-.066-18.36-.066H14.21c-1.165 5.321.04 6.901 4.99 6.904 6.12.004 12.241-.005 18.361.008h3.294c-.727 2.087-1.283 4.02-2.06 5.662-.45.952-1.252.906-1.915.912-6.741.062-13.485.114-20.224 0-4.657-.08-8.784-3.733-9.332-8.34-.324-2.725-.117-5.515-.142-8.276-.01-1.046-.002-2.093-.002-3.29h33.6zM7.307 13.15V7.26h33.337c-.64 1.892-1.131 3.646-1.857 5.295-.208.473-1.096.907-1.674.91-9.647.041-19.294.012-28.941-.015-.865 0-.865 0-.865-.3z" fill="currentColor"/></svg>