<svg width="48" height="48" viewBox="0 0 48 48" fill="none" xmlns="http://www.w3.org/2000/svg"><rect x="10.301" y="2.149" width="27.119" height="44.702" rx="1.043" fill="#404964" stroke="#495169" stroke-width=".298"/><rect x="12.684" y="5.725" width="22.351" height="11.325" rx=".447" fill="#49536E" stroke="#535D7D" stroke-width=".298"/><rect x="12.684" y="31.056" width="22.351" height="11.325" rx=".447" fill="#49536E" stroke="#535D7D" stroke-width=".298"/><rect x="12.684" y="18.242" width="22.351" height="11.623" rx=".447" fill="#49536E" stroke="#535D7D" stroke-width=".298"/><rect x="20.879" y="24.947" width="5.364" height="1.49" rx=".298" transform="rotate(-180 20.879 24.947)" fill="#525A75"/><rect x="22.668" y="22.265" width="7.152" height="1.49" rx=".298" transform="rotate(-180 22.668 22.265)" fill="#525A75"/><rect x="28.629" y="27.629" width="13.113" height="1.49" rx=".298" transform="rotate(-180 28.629 27.629)" fill="#525A75"/><rect x="22.965" y="33.291" width="7.152" height="1.49" rx=".298" transform="rotate(90 22.965 33.291)" fill="#525A75"/><rect x="19.988" y="36.569" width="3.874" height="1.49" rx=".298" transform="rotate(90 19.988 36.57)" fill="#525A75"/><rect x="17.008" y="35.377" width="5.066" height="1.49" rx=".298" transform="rotate(90 17.008 35.377)" fill="#525A75"/><rect x="28.926" y="37.762" width="2.682" height="1.49" rx=".298" transform="rotate(90 28.926 37.762)" fill="#525A75"/><rect x="31.906" y="35.079" width="5.364" height="1.49" rx=".298" transform="rotate(90 31.906 35.08)" fill="#525A75"/><rect x="25.945" y="35.974" width="4.47" height="1.49" rx=".298" transform="rotate(90 25.945 35.974)" fill="#525A75"/><path fill-rule="evenodd" clip-rule="evenodd" d="M28.333 7.662V5.874h-1.49v1.788h-6.259V5.874h-1.49v1.788h-6.258v1.49h6.258v3.874h-6.258v1.49h14.007v2.385h1.49v-2.385h6.556v-1.49h-6.556V9.152h6.556v-1.49h-6.556zm-1.49 1.49h-6.259v3.874h6.259V9.152z" fill="#454E69"/><path d="M26.602 11.144a.458.458 0 00.387-.22.436.436 0 00.06-.223.446.446 0 00-.67-.387.456.456 0 00-.22.387c0 .123.044.228.13.314.086.086.19.129.313.129zm0-1.694a1.233 1.233 0 011.084.62c.111.191.167.402.167.631 0 .175-.043.375-.129.602a4.13 4.13 0 01-.31.623 8.184 8.184 0 01-.683.95l-.129.15-.129-.15a8.221 8.221 0 01-.683-.95 4.323 4.323 0 01-.31-.623 1.725 1.725 0 01-.128-.602 1.233 1.233 0 01.619-1.083c.192-.112.402-.168.631-.168z" fill="#606986"/></svg>