<svg width="48" height="48" viewBox="0 0 48 48" fill="none" xmlns="http://www.w3.org/2000/svg"><path fill-rule="evenodd" clip-rule="evenodd" d="M24 2a2 2 0 011.794 1.115l5.715 11.578 12.78 1.868a2 2 0 011.106 3.412l-9.246 9.006 2.182 12.723a2 2 0 01-2.902 2.108L24 37.8l-11.429 6.01a2 2 0 01-2.902-2.108l2.182-12.723-9.246-9.006A2 2 0 013.71 16.56l12.78-1.868 5.716-11.578A2 2 0 0124 2zm0 6.519l-4.387 8.886A2 2 0 0118.11 18.5l-9.812 1.434 7.098 6.914a2 2 0 01.576 1.771l-1.675 9.765 8.773-4.613a2 2 0 011.862 0l8.773 4.613-1.675-9.765a2 2 0 01.576-1.77l7.098-6.915-9.812-1.434a2 2 0 01-1.504-1.094L24 8.52z" fill="currentColor"/></svg>