<svg width="48" height="48" viewBox="0 0 48 48" fill="none" xmlns="http://www.w3.org/2000/svg"><g opacity=".2"><g opacity=".8"><path opacity=".4" d="M22.167 15.042v3.667H9.333a1.833 1.833 0 010-3.667h12.834z" fill="url(#chart_contrast_bar_off0_linear)"/><path d="M25.832 15.042v3.667h12.833a1.833 1.833 0 000-3.667H25.832z" fill="url(#chart_contrast_bar_off1_linear)"/><path opacity=".4" d="M22.167 7.708v3.667h-7.334a1.833 1.833 0 010-3.667h7.334z" fill="url(#chart_contrast_bar_off2_linear)"/><path d="M25.832 7.708v3.667h7.333a1.833 1.833 0 000-3.667h-7.333z" fill="url(#chart_contrast_bar_off3_linear)"/><path opacity=".4" d="M22.17 22.374v3.667H3.838a1.833 1.833 0 110-3.667h18.334z" fill="url(#chart_contrast_bar_off4_linear)"/><path d="M25.836 22.374v3.667h18.333a1.833 1.833 0 000-3.667H25.836z" fill="url(#chart_contrast_bar_off5_linear)"/><path opacity=".4" d="M22.17 29.708v3.667h-11a1.833 1.833 0 110-3.667h11z" fill="url(#chart_contrast_bar_off6_linear)"/><path d="M25.836 33.375v-3.667h11a1.833 1.833 0 110 3.667h-11z" fill="url(#chart_contrast_bar_off7_linear)"/><path opacity=".8" d="M3.836 39.333c0-.253.205-.458.458-.458h39.417a.458.458 0 110 .917H4.294a.458.458 0 01-.458-.459z" fill="#fff"/></g></g><defs><linearGradient id="chart_contrast_bar_off0_linear" x1="22.168" y1="15.042" x2="8.56" y2="21.09" gradientUnits="userSpaceOnUse"><stop stop-color="#fff" stop-opacity=".6"/><stop offset="1" stop-color="#fff"/></linearGradient><linearGradient id="chart_contrast_bar_off1_linear" x1="25.832" y1="15.042" x2="39.44" y2="21.09" gradientUnits="userSpaceOnUse"><stop stop-color="#fff" stop-opacity=".6"/><stop offset="1" stop-color="#fff"/></linearGradient><linearGradient id="chart_contrast_bar_off2_linear" x1="22.168" y1="7.708" x2="12.712" y2="10.335" gradientUnits="userSpaceOnUse"><stop stop-color="#fff" stop-opacity=".6"/><stop offset="1" stop-color="#fff"/></linearGradient><linearGradient id="chart_contrast_bar_off3_linear" x1="25.832" y1="7.708" x2="35.288" y2="10.335" gradientUnits="userSpaceOnUse"><stop stop-color="#fff" stop-opacity=".6"/><stop offset="1" stop-color="#fff"/></linearGradient><linearGradient id="chart_contrast_bar_off4_linear" x1="22.172" y1="22.374" x2="5.857" y2="32.344" gradientUnits="userSpaceOnUse"><stop stop-color="#fff" stop-opacity=".6"/><stop offset="1" stop-color="#fff"/></linearGradient><linearGradient id="chart_contrast_bar_off5_linear" x1="25.836" y1="22.374" x2="42.151" y2="32.344" gradientUnits="userSpaceOnUse"><stop stop-color="#fff" stop-opacity=".6"/><stop offset="1" stop-color="#fff"/></linearGradient><linearGradient id="chart_contrast_bar_off6_linear" x1="22.168" y1="29.708" x2="9.782" y2="34.525" gradientUnits="userSpaceOnUse"><stop stop-color="#fff" stop-opacity=".6"/><stop offset="1" stop-color="#fff"/></linearGradient><linearGradient id="chart_contrast_bar_off7_linear" x1="25.836" y1="33.375" x2="38.222" y2="28.558" gradientUnits="userSpaceOnUse"><stop stop-color="#fff" stop-opacity=".6"/><stop offset="1" stop-color="#fff"/></linearGradient></defs></svg>