<svg width="48" height="48" viewBox="0 0 48 48" fill="none" xmlns="http://www.w3.org/2000/svg"><path fill-rule="evenodd" clip-rule="evenodd" d="M2 24C2 11.85 11.85 2 24 2s22 9.85 22 22-9.85 22-22 22S2 36.15 2 24zm4.11-2h7.99a32.601 32.601 0 015.351-15.42C12.338 8.432 6.936 14.527 6.11 22zM24 7.102A28.601 28.601 0 0018.115 22h11.77A28.601 28.601 0 0024 7.102zM29.885 26A28.6 28.6 0 0124 40.898 28.6 28.6 0 0118.115 26h11.77zM14.1 26H6.11c.826 7.474 6.228 13.568 13.341 15.42A32.601 32.601 0 0114.101 26zm14.45 15.42A32.601 32.601 0 0033.899 26h7.991c-.826 7.474-6.228 13.568-13.341 15.42zM41.89 22H33.9a32.601 32.601 0 00-5.351-15.42C35.662 8.432 41.064 14.527 41.89 22z" fill="currentColor"/></svg>