<svg width="48" height="48" viewBox="0 0 48 48" fill="none" xmlns="http://www.w3.org/2000/svg">
<path fill-rule="evenodd" clip-rule="evenodd" d="M7 24C7 33.3888 14.6112 41 24 41C33.3888 41 41 33.3888 41 24C41 14.6112 33.3888 7 24 7C14.6112 7 7 14.6112 7 24ZM3 24C3 35.598 12.402 45 24 45C35.598 45 45 35.598 45 24C45 12.402 35.598 3 24 3C12.402 3 3 12.402 3 24Z" fill="currentColor"/>
<path d="M15.35 22.3501C16.2613 21.4389 17.7387 21.4389 18.6499 22.3501L21.6666 25.3668L29.35 17.6834C30.2613 16.7722 31.7387 16.7722 32.6499 17.6834C33.5611 18.5946 33.5611 20.072 32.6499 20.9832L23.3165 30.3166C22.4053 31.2278 20.9279 31.2278 20.0167 30.3166L15.35 25.6499C14.4388 24.7387 14.4388 23.2613 15.35 22.3501Z" fill="currentColor"/>
</svg>
