<svg width="48" height="48" viewBox="0 0 48 48" fill="none" xmlns="http://www.w3.org/2000/svg"><rect x="3.15" y="9.15" width="41.7" height="29.7" rx="1.05" fill="#404964" stroke="#495169" stroke-width=".3"/><circle cx="11.85" cy="13.95" r="1.05" fill="#535D7D" stroke="#5E6784" stroke-width=".6" stroke-linejoin="round"/><circle cx="20.551" cy="13.95" r=".75" fill="#525A75"/><circle cx="28.648" cy="13.95" r=".75" fill="#525A75"/><circle cx="36.75" cy="13.95" r=".75" fill="#525A75"/><rect x="30.602" y="13.8" width="4.2" height=".3" rx=".15" fill="#525A75"/><rect x="22.5" y="13.8" width="4.2" height=".3" rx=".15" fill="#525A75"/><rect x="14.398" y="13.8" width="4.2" height=".3" rx=".15" fill="#525A75"/><rect x="27" y="17.1" width="6.6" height="18.3" rx=".6" fill="#525A75"/><rect x="34.801" y="17.1" width="6.6" height="18.3" rx=".6" fill="#47506B"/><rect x="6.902" y="17.4" width="18.6" height="17.7" rx=".9" fill="#49536E" stroke="#535D7D" stroke-width=".6"/><rect x="24" y="20.1" width="15.6" height="1.2" rx=".3" transform="rotate(-180 24 20.1)" fill="#535D7D"/><rect x="24" y="21.9" width="15.6" height="1.2" rx=".3" transform="rotate(-180 24 21.9)" fill="#4E5875"/><rect x="18.902" y="23.7" width="10.5" height="1.2" rx=".3" transform="rotate(-180 18.902 23.7)" fill="#4E5875"/><path d="M21.983 21.9l-.783-2.129 2.128.784-.872.388a.168.168 0 00-.085.084l-.388.873z" fill="#535D7D" stroke="#8089A8" stroke-width=".334" stroke-linejoin="round"/></svg>