<svg width="48" height="48" viewBox="0 0 48 48" fill="none" xmlns="http://www.w3.org/2000/svg">
<path opacity="0.4" fill-rule="evenodd" clip-rule="evenodd" d="M24 10C16.268 10 10 16.268 10 24C10 31.732 16.268 38 24 38C31.732 38 38 31.732 38 24C38 16.268 31.732 10 24 10ZM2 24C2 11.8497 11.8497 2 24 2C36.1503 2 46 11.8497 46 24C46 36.1503 36.1503 46 24 46C11.8497 46 2 36.1503 2 24Z" fill="#6899EF"/>
<path fill-rule="evenodd" clip-rule="evenodd" d="M20 6C20 3.79086 21.7909 2 24 2C36.1503 2 46 11.8497 46 24C46 26.2091 44.2091 28 42 28C39.7909 28 38 26.2091 38 24C38 16.268 31.732 10 24 10C21.7909 10 20 8.20914 20 6Z" fill="#6899EF"/>
</svg>
